<svg id="Layer_1" data-name="Layer 1" xmlns="http://www.w3.org/2000/svg" viewBox="0 0 24 24"><title>udin</title><path d="M22.33,7.72a1.64,1.64,0,0,0-.41-1.09,1.71,1.71,0,0,0-.44-.32,1.55,1.55,0,0,0,0-.37l.09-.08a2,2,0,0,0,.59-1.39,1.59,1.59,0,0,0-.41-1.09,1.55,1.55,0,0,0-1.44-.44,1.44,1.44,0,0,0-.18-.25A1.56,1.56,0,0,0,19,2.22h-.19A1.58,1.58,0,0,0,18.42.91,1.53,1.53,0,0,0,17.33.43,1.88,1.88,0,0,0,16,1l-4.7,4.64A1.46,1.46,0,0,0,10.92,5l-.25-.27a1.31,1.31,0,0,0-.91-.41,1.42,1.42,0,0,0-1,.41L7.16,6.27a6.51,6.51,0,0,0-1.88,3L4.15,13.68a1.18,1.18,0,0,1-.3.5l-2.06,2a.43.43,0,0,0,0,.6.41.41,0,0,0,.58,0l2.05-2A2,2,0,0,0,5,13.9L6.08,9.48A5.8,5.8,0,0,1,7.73,6.87L9.34,5.29a.6.6,0,0,1,.4-.17.51.51,0,0,1,.33.15l.25.27a.85.85,0,0,1-.17,1.2l-.44.43h0l-1,1a.44.44,0,0,0,0,.6.42.42,0,0,0,.59,0l7.29-7.19a1,1,0,0,1,.75-.32.68.68,0,0,1,.51.21,1,1,0,0,1-.11,1.25l-.06,0L11.84,8.51s0,0,0,0l-.05.06h0l0,0a.42.42,0,0,0,0,.59.41.41,0,0,0,.29.13.4.4,0,0,0,.29-.12l5.95-5.86h0l.11-.11A1,1,0,0,1,19,3.06a.68.68,0,0,1,.51.21,1,1,0,0,1-.16,1.3l-5.94,5.86a.43.43,0,0,0,0,.6.42.42,0,0,0,.29.12h0A.39.39,0,0,0,14,11l5.23-5.16A1.1,1.1,0,0,1,20,5.56a.68.68,0,0,1,.5.21,1,1,0,0,1-.16,1.31l-5.22,5.14a.42.42,0,0,0,0,.59.33.33,0,0,0,.14.1h0l.11,0h0l.1,0h0a.42.42,0,0,0,.14-.09l2.62-2.58A1.08,1.08,0,0,1,19,9.92a.68.68,0,0,1,.51.21,1,1,0,0,1-.16,1.3L14,16.76a6.45,6.45,0,0,1-2.53,1.54l-1.52.48a3.86,3.86,0,0,0-1.55.95L6.67,21.42a.41.41,0,0,0,0,.59.4.4,0,0,0,.58,0L9,20.33a3,3,0,0,1,1.22-.75l1.53-.48a7.27,7.27,0,0,0,2.86-1.74L20,12a1.84,1.84,0,0,0,.37-.52.1.1,0,0,1,.05,0,.73.73,0,0,1,.19.52,1.09,1.09,0,0,1-.34.78l-5.4,5.33a6.6,6.6,0,0,1-2.53,1.54l-1.53.48a4,4,0,0,0-1.55.95L7.51,22.85a.43.43,0,0,0,0,.59.41.41,0,0,0,.3.13.42.42,0,0,0,.29-.12l1.72-1.69A3.23,3.23,0,0,1,11,21l1.52-.48a7.15,7.15,0,0,0,2.86-1.74l5.4-5.32a2,2,0,0,0,.6-1.39A1.6,1.6,0,0,0,21,11a1.48,1.48,0,0,0-.43-.31,1.5,1.5,0,0,0,0-.37l1.21-1.19A2,2,0,0,0,22.33,7.72Zm-2.1-3a2,2,0,0,0,.27-1,.73.73,0,0,1,.61.21.77.77,0,0,1,.19.51,1.07,1.07,0,0,1-.27.69A1.44,1.44,0,0,0,20.23,4.75Zm.93,3.76-1,1a1.45,1.45,0,0,0-.7-.4l1.47-1.45a1.84,1.84,0,0,0,.37-.52s0,0,0,0a.71.71,0,0,1,.19.51A1.12,1.12,0,0,1,21.16,8.51Z" style="fill:#a7a9ac"/></svg>