<svg id="Layer_1" data-name="Layer 1" xmlns="http://www.w3.org/2000/svg" viewBox="0 0 24 24"><title>udin</title><path d="M7.08,21.63H.88a.29.29,0,0,1-.28-.28V5.2A.29.29,0,0,1,.75,5l3.09-1.7a.28.28,0,0,1,.28,0L7.21,5a.29.29,0,0,1,.15.25V21.35A.29.29,0,0,1,7.08,21.63Zm-5.91-.57H6.79V5.37L4,3.82,1.17,5.37Z" style="fill:#a7a9ac"/><path d="M16.92,21.63H7.08a.29.29,0,0,1-.29-.28V9.12a.28.28,0,0,1,.15-.25L11.86,6.1a.28.28,0,0,1,.28,0l4.92,2.77a.28.28,0,0,1,.15.25V21.35A.29.29,0,0,1,16.92,21.63Zm-9.56-.57h9.28V9.28L12,6.68,7.36,9.28Z" style="fill:#a7a9ac"/><path d="M16.92,11.11a.22.22,0,0,1-.13,0L12,8.38,7.21,11.07a.28.28,0,1,1-.27-.49l4.92-2.77a.28.28,0,0,1,.28,0l4.92,2.77a.27.27,0,0,1,.11.38A.27.27,0,0,1,16.92,11.11Z" style="fill:#a7a9ac"/><path d="M23.12,21.63h-6.2a.29.29,0,0,1-.28-.28V5.2A.29.29,0,0,1,16.79,5l3.09-1.7a.28.28,0,0,1,.28,0L23.25,5a.29.29,0,0,1,.15.25V21.35A.29.29,0,0,1,23.12,21.63Zm-5.91-.57h5.62V5.37L20,3.82,17.21,5.37Z" style="fill:#a7a9ac"/><path d="M23.12,7.19a.32.32,0,0,1-.14,0L20,5.52l-3,1.64A.28.28,0,0,1,16.68,7a.27.27,0,0,1,.11-.38L19.88,5a.28.28,0,0,1,.28,0l3.09,1.71a.28.28,0,0,1-.13.53Z" style="fill:#a7a9ac"/><path d="M12,12.83A1.87,1.87,0,1,1,13.87,11,1.87,1.87,0,0,1,12,12.83Zm0-3.18A1.31,1.31,0,1,0,13.3,11,1.31,1.31,0,0,0,12,9.65Z" style="fill:#a7a9ac"/><path d="M13.59,21.63H10.41a.29.29,0,0,1-.28-.28V16.5a.28.28,0,0,1,.28-.28h3.18a.28.28,0,0,1,.28.28v4.85A.29.29,0,0,1,13.59,21.63Zm-2.89-.57h2.6V16.79H10.7Z" style="fill:#a7a9ac"/><path d="M10,15.52H8.23a.29.29,0,0,1-.29-.29V13.79a.29.29,0,0,1,.29-.28H10a.29.29,0,0,1,.29.28v1.44A.29.29,0,0,1,10,15.52ZM8.51,15H9.7v-.87H8.51Z" style="fill:#a7a9ac"/><path d="M12.88,15.52H11.12a.28.28,0,0,1-.28-.29V13.79a.28.28,0,0,1,.28-.28h1.76a.28.28,0,0,1,.28.28v1.44A.28.28,0,0,1,12.88,15.52ZM11.41,15h1.18v-.87H11.41Z" style="fill:#a7a9ac"/><path d="M15.77,15.52H14a.29.29,0,0,1-.29-.29V13.79a.29.29,0,0,1,.29-.28h1.75a.29.29,0,0,1,.29.28v1.44A.29.29,0,0,1,15.77,15.52ZM14.3,15h1.19v-.87H14.3Z" style="fill:#a7a9ac"/><path d="M15.77,18.26H14.62a.29.29,0,0,1-.29-.29V16.53a.29.29,0,0,1,.29-.28h1.15a.29.29,0,0,1,.29.28V18A.29.29,0,0,1,15.77,18.26Zm-.87-.57h.59v-.87H14.9Z" style="fill:#a7a9ac"/><path d="M15.77,20.61H14.62a.29.29,0,0,1-.29-.28V18.89a.29.29,0,0,1,.29-.29h1.15a.29.29,0,0,1,.29.29v1.44A.29.29,0,0,1,15.77,20.61ZM14.9,20h.59v-.87H14.9Z" style="fill:#a7a9ac"/><path d="M9.38,18.26H8.23A.29.29,0,0,1,7.94,18V16.53a.29.29,0,0,1,.29-.28H9.38a.29.29,0,0,1,.29.28V18A.29.29,0,0,1,9.38,18.26Zm-.87-.57H9.1v-.87H8.51Z" style="fill:#a7a9ac"/><path d="M9.38,20.61H8.23a.29.29,0,0,1-.29-.28V18.89a.29.29,0,0,1,.29-.29H9.38a.29.29,0,0,1,.29.29v1.44A.29.29,0,0,1,9.38,20.61ZM8.51,20H9.1v-.87H8.51Z" style="fill:#a7a9ac"/><path d="M21.44,9.55H18.6a.29.29,0,0,1-.29-.29V7.66a.29.29,0,0,1,.29-.28h2.84a.29.29,0,0,1,.29.28v1.6A.29.29,0,0,1,21.44,9.55ZM18.88,9h2.28V8H18.88Z" style="fill:#a7a9ac"/><path d="M21.44,12.3H18.6a.28.28,0,0,1-.29-.28v-1.6a.29.29,0,0,1,.29-.28h2.84a.29.29,0,0,1,.29.28V12A.28.28,0,0,1,21.44,12.3Zm-2.56-.56h2.28v-1H18.88Z" style="fill:#a7a9ac"/><path d="M21.44,15.06H18.6a.28.28,0,0,1-.29-.28v-1.6a.29.29,0,0,1,.29-.28h2.84a.29.29,0,0,1,.29.28v1.6A.28.28,0,0,1,21.44,15.06Zm-2.56-.56h2.28v-1H18.88Z" style="fill:#a7a9ac"/><path d="M21.44,17.82H18.6a.28.28,0,0,1-.29-.28v-1.6a.29.29,0,0,1,.29-.28h2.84a.29.29,0,0,1,.29.28v1.6A.28.28,0,0,1,21.44,17.82Zm-2.56-.57h2.28v-1H18.88Z" style="fill:#a7a9ac"/><path d="M21.44,20.58H18.6a.28.28,0,0,1-.29-.28V18.7a.28.28,0,0,1,.29-.28h2.84a.28.28,0,0,1,.29.28v1.6A.28.28,0,0,1,21.44,20.58ZM18.88,20h2.28V19H18.88Z" style="fill:#a7a9ac"/><path d="M7.08,6.86a.32.32,0,0,1-.14,0L4,5.2,1,6.83a.3.3,0,0,1-.39-.12.28.28,0,0,1,.12-.38L3.84,4.62a.34.34,0,0,1,.28,0L7.21,6.33a.27.27,0,0,1,.11.38A.26.26,0,0,1,7.08,6.86Z" style="fill:#a7a9ac"/><path d="M5.4,9.22H2.56a.29.29,0,0,1-.29-.29V7.34a.29.29,0,0,1,.29-.29H5.4a.29.29,0,0,1,.29.29V8.93A.29.29,0,0,1,5.4,9.22ZM2.84,8.65H5.12v-1H2.84Z" style="fill:#a7a9ac"/><path d="M5.4,12H2.56a.29.29,0,0,1-.29-.29v-1.6a.29.29,0,0,1,.29-.28H5.4a.29.29,0,0,1,.29.28v1.6A.29.29,0,0,1,5.4,12Zm-2.56-.57H5.12v-1H2.84Z" style="fill:#a7a9ac"/><path d="M5.4,14.74H2.56a.29.29,0,0,1-.29-.29v-1.6a.29.29,0,0,1,.29-.28H5.4a.29.29,0,0,1,.29.28v1.6A.29.29,0,0,1,5.4,14.74Zm-2.56-.57H5.12v-1H2.84Z" style="fill:#a7a9ac"/><path d="M5.4,17.49H2.56a.28.28,0,0,1-.29-.28v-1.6a.29.29,0,0,1,.29-.28H5.4a.29.29,0,0,1,.29.28v1.6A.28.28,0,0,1,5.4,17.49Zm-2.56-.56H5.12v-1H2.84Z" style="fill:#a7a9ac"/><path d="M5.4,20.25H2.56A.28.28,0,0,1,2.27,20v-1.6a.29.29,0,0,1,.29-.28H5.4a.29.29,0,0,1,.29.28V20A.28.28,0,0,1,5.4,20.25Zm-2.56-.56H5.12v-1H2.84Z" style="fill:#a7a9ac"/><path d="M12,6.64a.28.28,0,0,1-.28-.29V5.12H9.54a.28.28,0,0,1-.23-.44l.4-.6-.4-.59a.28.28,0,0,1,0-.29A.28.28,0,0,1,9.54,3H12a.28.28,0,0,1,.28.29v3A.28.28,0,0,1,12,6.64ZM10.07,4.55h1.65V3.61H10.08l.21.31a.29.29,0,0,1,0,.31Z" style="fill:#a7a9ac"/><path d="M12,4.15a.28.28,0,0,1-.28-.29V2.65a.28.28,0,1,1,.56,0V3.86A.28.28,0,0,1,12,4.15Z" style="fill:#a7a9ac"/></svg>