<svg id="Layer_1" data-name="Layer 1" xmlns="http://www.w3.org/2000/svg" viewBox="0 0 24 24"><title>udin</title><path d="M12,13.28A4.75,4.75,0,1,0,7.25,8.53,4.75,4.75,0,0,0,12,13.28Zm0-8.35a3.6,3.6,0,1,1-3.6,3.6A3.6,3.6,0,0,1,12,4.93Z" style="fill:#a7a9ac"/><path d="M12,.44A8.57,8.57,0,0,0,3.44,9v.11c.07,5.94,6.34,13,8.23,14.35a.59.59,0,0,0,.66,0c1.89-1.33,8.16-8.41,8.23-14.34V9A8.57,8.57,0,0,0,12,.44Zm0,1.14A7.43,7.43,0,0,1,19.42,9v.1c-.07,5-5.23,11.3-7.42,13.16a27.76,27.76,0,0,1-4.32-5.11C6.29,15.06,4.62,12,4.58,9.09V9A7.43,7.43,0,0,1,12,1.58Z" style="fill:#a7a9ac"/></svg>