<svg id="Layer_1" data-name="Layer 1" xmlns="http://www.w3.org/2000/svg" viewBox="0 0 24 24"><title>udin</title><path d="M5.46,13.37A.37.37,0,0,1,5.09,13V7.92a.37.37,0,0,1,.73,0V13A.37.37,0,0,1,5.46,13.37Z" style="fill:#a7a9ac"/><path d="M16.29,23.84H3.71a.37.37,0,0,1,0-.73H16.29a.37.37,0,0,1,0,.73Z" style="fill:#a7a9ac"/><path d="M19.88,13.62H18.61v-.49a.67.67,0,0,0-.68-.68H16.45a.67.67,0,0,0-.67.68v.49H14.51a.77.77,0,0,0-.77.77V18.2a.76.76,0,0,0,.77.77h5.37a.77.77,0,0,0,.77-.77V14.39A.78.78,0,0,0,19.88,13.62Zm-3.59-.49a.17.17,0,0,1,.16-.17h1.48a.17.17,0,0,1,.17.17v.49H16.29Zm3.59,1h0l-1.63,1.63h-2l-1.76-1.63h5.4Zm0,4.32H14.51a.26.26,0,0,1-.26-.26V14.62L16,16.28H18.5l1.64-1.64V18.2A.26.26,0,0,1,19.88,18.46Z" style="fill:#a7a9ac"/><path d="M17.19,15.37a.42.42,0,1,0-.42-.42A.42.42,0,0,0,17.19,15.37Z" style="fill:#a7a9ac"/><path d="M7.94,4.59A2.22,2.22,0,1,0,5.73,2.37,2.21,2.21,0,0,0,7.94,4.59Zm0-3.7A1.49,1.49,0,1,1,6.46,2.37,1.49,1.49,0,0,1,7.94.89Z" style="fill:#a7a9ac"/><path d="M16.68,8.76l-2.14,0A.66.66,0,0,1,14,8.5L11.75,5.81a1.86,1.86,0,0,0-1.35-.58H5.21A1.86,1.86,0,0,0,3.35,7.09V13a1.25,1.25,0,0,0,.92,1.23,1.28,1.28,0,0,0,.82-.07v9.35a.36.36,0,0,0,.37.36H7.33a.36.36,0,0,0,.36-.36V15.83a.27.27,0,0,1,.21-.28.25.25,0,0,1,.21.06.26.26,0,0,1,.09.19v7.68a.36.36,0,0,0,.36.36h1.87a.37.37,0,0,0,.37-.36V8.77L13,10.86a1.42,1.42,0,0,0,1,.38h2.71a1.24,1.24,0,0,0,0-2.48Zm0,1.75H14a.63.63,0,0,1-.46-.18L10.68,7.66a.35.35,0,0,0-.39-.07.37.37,0,0,0-.22.33V23.11H8.93V15.8a1,1,0,0,0-.35-.75,1,1,0,0,0-.8-.22,1,1,0,0,0-.82,1v7.28H5.82V13a.37.37,0,0,0-.73,0,.51.51,0,1,1-1,0V7.09A1.14,1.14,0,0,1,5.21,6H10.4a1.17,1.17,0,0,1,.81.33L13.48,9a1.36,1.36,0,0,0,1,.49l2.14,0a.51.51,0,1,1,0,1Z" style="fill:#a7a9ac"/></svg>