<svg id="Layer_1" data-name="Layer 1" xmlns="http://www.w3.org/2000/svg" viewBox="0 0 24 24"><title>udin</title><path d="M11.46,14.35a4.7,4.7,0,1,0-5.18,0,7.52,7.52,0,0,0-4.93,7H2.6a6.27,6.27,0,1,1,12.53,0h1.25A7.52,7.52,0,0,0,11.46,14.35Zm-2.59-.47a3.45,3.45,0,1,1,3.44-3.45A3.46,3.46,0,0,1,8.87,13.88Z" style="fill:#a7a9ac"/><path d="M17.72,11.22a4.7,4.7,0,1,0-5.83-7.31,4.63,4.63,0,0,0-.8,1,5.91,5.91,0,0,1,1.11.59A3.44,3.44,0,0,1,18.58,7.3a3.46,3.46,0,0,1-2.52,3.32,3.54,3.54,0,0,1-.93.13l-.33,0A5.69,5.69,0,0,1,14.59,12a4.9,4.9,0,0,1,.54,0,6,6,0,0,1,.75.05,6.27,6.27,0,0,1,5.52,6.21h1.25A7.52,7.52,0,0,0,17.72,11.22Z" style="fill:#a7a9ac"/></svg>