<svg id="Layer_1" data-name="Layer 1" xmlns="http://www.w3.org/2000/svg" viewBox="0 0 24 24"><title>udin</title><path d="M13.65,14.9a3,3,0,1,0-3.3,0A4.8,4.8,0,0,0,7.2,19.39H8a4,4,0,0,1,8,0h.8A4.8,4.8,0,0,0,13.65,14.9ZM12,14.6a2.2,2.2,0,1,1,2.2-2.2A2.21,2.21,0,0,1,12,14.6Z" style="fill:#a7a9ac"/><path d="M17.65,12.9a3,3,0,1,0-3.72-4.67,2.93,2.93,0,0,0-.51.65,4.34,4.34,0,0,1,.71.37A2.2,2.2,0,0,1,16,8.2a2.2,2.2,0,0,1,.59,4.32,2.33,2.33,0,0,1-.59.08h-.21a3.69,3.69,0,0,1-.14.83l.35,0,.48,0a4,4,0,0,1,3.51,4h.8A4.8,4.8,0,0,0,17.65,12.9Z" style="fill:#a7a9ac"/><path d="M8,13.4l.35,0a3.69,3.69,0,0,1-.14-.83H8a2.33,2.33,0,0,1-.59-.08A2.2,2.2,0,0,1,8,8.2,2.2,2.2,0,0,1,9.87,9.25a4.34,4.34,0,0,1,.71-.37,2.93,2.93,0,0,0-.51-.65A3,3,0,1,0,6.35,12.9a4.8,4.8,0,0,0-3.14,4.5H4a4,4,0,0,1,3.51-4Z" style="fill:#a7a9ac"/><path d="M20.45,10.1A3,3,0,0,0,18.8,4.61a3,3,0,0,0-2.07.83,2.87,2.87,0,0,0-.51.64,3.64,3.64,0,0,1,.7.38A2.19,2.19,0,0,1,21,7.6a2.19,2.19,0,0,1-1.28,2,3.68,3.68,0,0,1,.05.58,4.55,4.55,0,0,1,0,.53,4,4,0,0,1,3.07,3.89h.8A4.81,4.81,0,0,0,20.45,10.1Z" style="fill:#a7a9ac"/><path d="M4.24,10.18a3.68,3.68,0,0,1,0-.58A2.2,2.2,0,1,1,6.54,5.86a2.22,2.22,0,0,1,.54.6,3.64,3.64,0,0,1,.7-.38,2.87,2.87,0,0,0-.51-.64A3,3,0,0,0,5.2,4.61,3,3,0,0,0,3.55,10.1,4.81,4.81,0,0,0,.41,14.6h.8a4,4,0,0,1,3.07-3.89A4.55,4.55,0,0,1,4.24,10.18Z" style="fill:#a7a9ac"/><path d="M12,5.4a2.21,2.21,0,0,1,2.15,1.79,2.52,2.52,0,0,1,.75-.33,3,3,0,0,0-5.8,0,2.52,2.52,0,0,1,.75.33A2.21,2.21,0,0,1,12,5.4Z" style="fill:#a7a9ac"/></svg>