<svg id="Layer_1" data-name="Layer 1" xmlns="http://www.w3.org/2000/svg" viewBox="0 0 24 24"><title>udin</title><path d="M14.21,14a4,4,0,1,0-4.42,0,6.43,6.43,0,0,0-4.2,6H6.66a5.34,5.34,0,1,1,10.68,0h1.07A6.43,6.43,0,0,0,14.21,14ZM9.06,10.66A2.94,2.94,0,1,1,12,13.6,2.94,2.94,0,0,1,9.06,10.66Z" style="fill:#a7a9ac"/><path d="M19.55,11.33a4,4,0,1,0-5-6.23A3.54,3.54,0,0,0,13.9,6a4.7,4.7,0,0,1,.94.5,3,3,0,0,1,2.5-1.41,2.94,2.94,0,0,1,.8,5.77,3,3,0,0,1-.8.11h-.28A5,5,0,0,1,16.88,12l.46,0c.22,0,.43,0,.64,0a5.35,5.35,0,0,1,4.71,5.3h1.06A6.43,6.43,0,0,0,19.55,11.33Z" style="fill:#a7a9ac"/><path d="M6.66,12l.46,0a5,5,0,0,1-.18-1.11H6.66a3,3,0,0,1-.8-.11,2.94,2.94,0,0,1,.8-5.77,3,3,0,0,1,2.5,1.41A4.7,4.7,0,0,1,10.1,6a3.54,3.54,0,0,0-.68-.86,4,4,0,1,0-5,6.23,6.43,6.43,0,0,0-4.2,6H1.31A5.35,5.35,0,0,1,6,12C6.23,12,6.44,12,6.66,12Z" style="fill:#a7a9ac"/></svg>