<svg xmlns="http://www.w3.org/2000/svg" viewBox="0 0 494.42 453.95"><title>asset-beranda-panduan</title><g id="OBJECTS"><path d="M57.94,426.53c.94-3.73-1.52-7.45-4.27-10.14s-6-5.08-7.48-8.65c-2.34-5.77.72-13.28-3.25-18.08-2.33-2.83-6.48-3.75-8.55-6.77a15.4,15.4,0,0,1-1.88-5.42,55.12,55.12,0,0,0-13.84-25.54,47.71,47.71,0,0,0,5.51,24.66c1.61,3,3.58,6,4.13,9.36.89,5.49-2.15,11.18-.77,16.57,1.58,6.17,8.54,10.26,8.91,16.61.31,5.38-4.35,10.12-4,15.49A14.51,14.51,0,0,0,34.91,441c4.19,6.88,10.32,11.61,19.58,11.4l11.33.33Z" style="fill:#f5f5f5"/><path d="M68.12,453a9.16,9.16,0,0,0,3.12-.09,18.7,18.7,0,0,0,3.68-1,15.57,15.57,0,0,0,4.53-2.51,6.38,6.38,0,0,0,1.86-2.51,11.67,11.67,0,0,0,.51-3.39,33.21,33.21,0,0,1,.24-3.66,10.23,10.23,0,0,1,1.37-3.66c1.32-2.35,3.53-4.58,4.23-7.78s.18-6.52-.37-9.93-1.07-7.1.21-10.65,3.66-6.76,4.88-10.76.61-8.38.85-12.67a16.87,16.87,0,0,1,1.44-6.3c.91-2,2.17-3.91,3.15-6,2-4.28,2.31-9.12,2.84-13.86q.38-3.58.77-7.25a34.89,34.89,0,0,1,1.22-7.25,62.06,62.06,0,0,1,2.67-7,23.73,23.73,0,0,0,1.29-3.67,34.82,34.82,0,0,0,.34-3.9,44.91,44.91,0,0,0-.34-7.85c-.32-2.61-.81-5.2-1.11-7.82,0-.15,0-.31,0-.45l-.06-.52-.46.23a17.61,17.61,0,0,0-6.08,5.18,27.93,27.93,0,0,0-3.71,6.93c-1.86,4.88-2.51,10-3.44,14.86s-2.11,9.68-4.58,13.74c-1.23,2-2.72,3.87-4,5.85a16,16,0,0,0-2.77,6.48c-.64,4.79,2,9,1.5,13.24a14.84,14.84,0,0,1-2,5.89c-1,1.82-2.22,3.5-3.36,5.2a34.27,34.27,0,0,0-3,5.24A16.49,16.49,0,0,0,72.05,401c-.25,3.83.31,7.45,0,10.87a25.09,25.09,0,0,1-2.74,9.33C68,424,66.49,426.57,65.23,429c-.64,1.23-1.22,2.42-1.7,3.62a17.82,17.82,0,0,0-1,3.59,22.66,22.66,0,0,0,0,6.47,16.24,16.24,0,0,0,3.29,8.23,8.28,8.28,0,0,0,.92,1,4.72,4.72,0,0,0,.75.63c.42.31.65.45.65.45a14.18,14.18,0,0,1-2.21-2.16,16.32,16.32,0,0,1-3.12-8.18,22.14,22.14,0,0,1,.11-6.37,17.61,17.61,0,0,1,1-3.51,38.4,38.4,0,0,1,1.71-3.57c1.27-2.43,2.8-4.95,4.18-7.76a25.28,25.28,0,0,0,2.84-9.5c.28-3.5-.27-7.13,0-10.87A16,16,0,0,1,74,395.59a32.54,32.54,0,0,1,3-5.14c1.14-1.69,2.36-3.38,3.4-5.23a15.35,15.35,0,0,0,2.13-6.14c.52-4.52-2.12-8.75-1.47-13.21a15.41,15.41,0,0,1,2.68-6.19c1.29-1.94,2.79-3.79,4-5.87,2.56-4.18,3.78-9.07,4.69-14s1.59-10,3.42-14.74a27.26,27.26,0,0,1,3.61-6.75,16.92,16.92,0,0,1,5.82-5l-.52-.28c0,.14,0,.3,0,.45.3,2.65.79,5.25,1.11,7.83a45.57,45.57,0,0,1,.34,7.73c-.07,1.26-.14,2.59-.33,3.78a23,23,0,0,1-1.25,3.54,64.85,64.85,0,0,0-2.69,7.11,36.26,36.26,0,0,0-1.23,7.37c-.26,2.44-.51,4.86-.77,7.25-.51,4.77-.84,9.53-2.75,13.66-.95,2.06-2.21,4-3.14,6a17.53,17.53,0,0,0-1.48,6.54c-.22,4.37.37,8.64-.79,12.52S88.19,404,87,407.69s-.74,7.53-.18,10.91,1.14,6.73.43,9.75-2.78,5.26-4.13,7.68a10.35,10.35,0,0,0-1.39,3.8,34.71,34.71,0,0,0-.22,3.71,11.54,11.54,0,0,1-.46,3.3,6,6,0,0,1-1.75,2.39,15.41,15.41,0,0,1-4.42,2.53,20,20,0,0,1-3.63,1,13.23,13.23,0,0,1-2.3.23Z" style="fill:#e0e0e0"/><path d="M103.17,319.28a1.65,1.65,0,0,0-.11.34c-.06.28-.14.61-.24,1-.22.89-.48,2.24-.9,3.93s-1.45,3.58-2.32,5.93A83.83,83.83,0,0,0,97,338.56c-.85,3-1.6,6.39-2.38,10S93,356,91,359.64c-.92,1.84-2,3.71-2.78,5.76a26.72,26.72,0,0,0-1.59,6.51,131.5,131.5,0,0,1-2.37,13.72c-2.22,9.3-4.33,18.16-6.26,26.23s-3.75,15.28-5.25,21.39-2.64,11-3.47,14.43c-.39,1.66-.69,3-.91,3.93-.09.42-.16.76-.22,1a1.19,1.19,0,0,0,0,.36,1.65,1.65,0,0,0,.12-.34l.29-1c.25-.95.6-2.25,1-3.9l3.7-14.38c1.55-6.09,3.37-13.33,5.4-21.35s4.08-16.93,6.32-26.23A127.81,127.81,0,0,0,87.35,372a26.53,26.53,0,0,1,1.54-6.36c.79-2,1.81-3.85,2.73-5.71,2-3.71,2.78-7.68,3.55-11.26s1.47-7,2.28-10,1.67-5.72,2.53-8.05,1.81-4.26,2.22-6,.59-3.06.76-4c.07-.42.13-.76.17-1A1.38,1.38,0,0,0,103.17,319.28Z" style="fill:#e0e0e0"/><path d="M70.12,453c7.38-4.44,9.42-17.81,6.29-25.83s-8.58-15.34-9.46-23.9c-.68-6.59,1.44-13.36-.13-19.79-2.12-8.68-10.64-15.36-10.6-24.3,0-5,2.85-9.74,2.6-14.75-.31-6.14-5.06-11-8-16.38C46.3,319.81,46,310,44.37,300.74S39.19,281.54,30.93,277c-1.17,7.89-3.21,13.3-2.5,24,.26,3.84,4.75,11.16,5.41,19.56.39,5,.67,10.05,1,15.08s.68,9.87,2.46,14.44c1.36,3.5,3.54,6.67,4.56,10.29,1.91,6.8-.51,14.2,1,21.09,1.32,5.84,5.4,10.85,6.26,16.78,1.21,8.32-4.14,17-1.33,24.94,1.39,3.94,4.65,7.09,5.6,11.15.73,3.16,0,6.51.63,9.68,1.07,5.11,10.85,9,16.06,8.68" style="fill:#e0e0e0"/><path d="M33,284.84a2.43,2.43,0,0,0,0,.44c.05.34.1.76.18,1.3.17,1.14.37,2.81.77,5s1.56,4.61,2.47,7.56,1.92,6.32,2.77,10.12,1.6,8,2.37,12.51,1.6,9.45,3.87,14.14c1.06,2.36,2.23,4.72,3.12,7.24a32.65,32.65,0,0,1,1.61,8,160,160,0,0,0,2.27,17.24C54.81,380,57,391.13,59.06,401.24s4,19.16,5.66,26.8,3,13.74,3.88,18c.46,2.09.83,3.73,1.09,4.9.12.53.22.95.3,1.27a1.93,1.93,0,0,0,.13.43,2.44,2.44,0,0,0-.06-.44c0-.33-.13-.76-.23-1.29-.22-1.17-.55-2.83-1-4.93-.88-4.32-2.12-10.49-3.66-18.1s-3.43-16.74-5.5-26.82-4.21-21.23-6.52-32.89A163.47,163.47,0,0,1,50.92,351a33.05,33.05,0,0,0-1.66-8.15c-.92-2.57-2.11-4.94-3.16-7.28-2.26-4.63-3.07-9.47-3.9-14s-1.55-8.73-2.45-12.53-1.89-7.2-2.89-10.13-2.13-5.38-2.58-7.49-.69-3.81-.91-4.93l-.24-1.29A2.12,2.12,0,0,0,33,284.84Z" style="fill:#ebebeb"/><path d="M202.22,3.79c6.32-7.37,22.76-2.74,34,3.3,0,0,7.76,3.65,10.64,5.55l.09,0,26.34-3.29a10.74,10.74,0,0,1,6.23,1.09l2.16,1.1a1.45,1.45,0,0,1-.09,2.62l-19.39,8.29,0,.23,19.14,12.58.29.19a17.08,17.08,0,0,0,12.19,2.42l10.25-1.83a2.86,2.86,0,0,1,1.56.13,2.58,2.58,0,0,1,.68,4.38L294.44,50.5a6.27,6.27,0,0,1-6.65.89l-5.56-2.56-28.14-13.4,3.23,16a1.05,1.05,0,0,1-1.07,1.24l-1.33,0A5.25,5.25,0,0,1,250.55,50L239.21,28.35,206,12.54C201.59,10.51,200,6.71,202.22,3.79Z" style="fill:#e0e0e0"/><path d="M17.78,74.7l83.52-1.88S93.61,59.54,72.15,62C51.66,64.32,50.43,55.86,40,55.05S21,62.44,17.78,74.7Z" style="fill:#f5f5f5"/><path d="M408.25,119.86h78.68S480,107.2,459.72,109c-19.34,1.76-20.33-6.22-30.16-7.21S411.53,108.39,408.25,119.86Z" style="fill:#f5f5f5"/><path d="M65.34,33.26h60S120.05,23.6,104.6,25c-14.75,1.35-15.5-4.75-23-5.5S67.84,24.5,65.34,33.26Z" style="fill:#f5f5f5"/><path d="M408.33,159.56h39.26s-3.47-6.32-13.58-5.4c-9.65.88-10.14-3.11-15.05-3.6S410,153.83,408.33,159.56Z" style="fill:#f5f5f5"/><path d="M388.7,50.88H428s-3.47-6.31-13.58-5.39c-9.65.87-10.14-3.11-15.05-3.6S390.33,45.16,388.7,50.88Z" style="fill:#fafafa"/><path d="M488.23,453.09c0,.15-109.3.28-244.1.28S0,453.24,0,453.09s109.28-.29,244.13-.29S488.23,452.93,488.23,453.09Z" style="fill:#1a2e35"/><path d="M413.42,262.13h0a3.08,3.08,0,0,0-3.06-2.75l-23.12,0a3,3,0,0,0-3,3.64h0a3.06,3.06,0,0,0,3.07,2.47h23A3.07,3.07,0,0,0,413.42,262.13Z" style="fill:#1a2e35"/><path d="M463.85,445.51a7.37,7.37,0,1,0,8.36-6.23A7.39,7.39,0,0,0,463.85,445.51Z" style="fill:#1a2e35"/><polygon points="469.62 446.62 465.12 437.33 467.47 435.83 471.83 445.53 469.62 446.62" style="fill:#375a64"/><polygon points="427.96 332.24 400.03 259.38 394.73 262.04 421.8 334.24 427.96 332.24" style="fill:#1a2e35"/><path d="M425.45,311.28h44.82A2.76,2.76,0,0,1,473,314V426.62a14.62,14.62,0,0,1-14.62,14.62h-21.1a14.62,14.62,0,0,1-14.62-14.62V314a2.76,2.76,0,0,1,2.76-2.76Z" transform="translate(1002.99 560.58) rotate(158.33)" style="fill:#45c2e3"/><path d="M447.26,443.68s-.06-.22-.21-.64-.39-1-.69-1.83c-.62-1.63-1.53-4-2.69-7l-10-25.78L418.77,370.2,410,347.64l-2.32-5.92a12.35,12.35,0,0,1-.86-6.17,12,12,0,0,1,19.59-7.68,12.25,12.25,0,0,1,3.56,5.11c.78,2,1.56,4,2.32,5.91,3.08,7.82,6,15.37,8.86,22.55,5.66,14.36,10.75,27.29,15,38.16l10.18,25.71,2.8,7,.75,1.81c.17.4.27.61.27.61s-.06-.22-.21-.64l-.69-1.83-2.68-7c-2.37-6.11-5.79-14.91-10-25.78l-14.91-38.21-8.82-22.57q-1.15-2.93-2.32-5.91a12.93,12.93,0,0,0-3.74-5.37,12.61,12.61,0,0,0-20.64,8.1A13.06,13.06,0,0,0,407,342c.78,2,1.56,4,2.32,5.92l8.86,22.54c5.66,14.36,10.75,27.29,15,38.16l10.19,25.71,2.8,7,.75,1.81C447.16,443.47,447.26,443.68,447.26,443.68Z" style="fill:#1a2e35"/><path d="M444.59,370.28c.09.27,5.49-1.85,12.06-4.75s11.82-5.47,11.73-5.75-5.48,1.85-12.05,4.75S444.51,370,444.59,370.28Z" style="fill:#1a2e35"/><path d="M408.11,259.38l-4.83-9.53a5,5,0,0,0-2.54-2.37l-7.59-3.16-20.42-27.7-1.91,21.21,13,13.42s8.15,17.17,14.81,16.3a12.44,12.44,0,0,0-1.34-4.43c-2.17-3.74.14-3.74.44-3.73h5.53Z" style="fill:#ffbf9d"/><path d="M374.76,244.72c.62.92,5.67,7.76,5.67,7.76l14.3-10.4-5.2-5.08Z" style="fill:#45c2e3"/><path d="M397.32,263.12s3.72,2.11,4.18,3.92v1.07l-4.45-.65Z" style="fill:#ffbf9d"/><path d="M402.31,265.16a5,5,0,0,1-1.5-2,1.67,1.67,0,0,1,.85-2.1c.77-.26,1.56.3,2.17.84a30.18,30.18,0,0,1,2.18,2.2,2.68,2.68,0,0,1,.94,2.26,1.69,1.69,0,0,1-1.53,1.18,2.53,2.53,0,0,1-1.85-.76,5.42,5.42,0,0,1-1.14-1.69" style="fill:#ffbf9d"/><path d="M406.09,264.83a4.88,4.88,0,0,1-1.5-2,1.67,1.67,0,0,1,.85-2.09c.77-.26,1.56.29,2.17.84a30,30,0,0,1,2.18,2.19,2.71,2.71,0,0,1,.94,2.27,1.68,1.68,0,0,1-1.53,1.17,2.56,2.56,0,0,1-1.85-.75,5.46,5.46,0,0,1-1.14-1.7" style="fill:#ffbf9d"/><path d="M394.73,248.56c0-.13,1-.08,2.07.89a9,9,0,0,1,1.3,2.1,5.94,5.94,0,0,1,.74,3,6.47,6.47,0,0,1-1.17,2.82,6.93,6.93,0,0,0-.89,2.15,7.57,7.57,0,0,0-.16,2.15,2.91,2.91,0,0,1-.23-2.23,6.89,6.89,0,0,1,.83-2.34,6.28,6.28,0,0,0,1-2.59,5.76,5.76,0,0,0-.64-2.71,10.3,10.3,0,0,0-1.12-2.05,5.31,5.31,0,0,0-1.25-.93C394.94,248.61,394.74,248.6,394.73,248.56Z" style="fill:#ff9a6c"/><polygon points="240.62 150.83 225.45 199.35 270.1 246 311.02 235.37 240.62 150.83" style="fill:#f5f5f5"/><path d="M240.62,150.83l.35.4,1,1.21c.92,1.1,2.25,2.69,4,4.74l14.84,17.7,50.42,60.31.28.34-.43.11-23.07,6-17.85,4.63-.16,0-.11-.12-44.61-46.69-.09-.1,0-.12c4.71-14.87,8.55-27,11.22-35.45,1.33-4.18,2.37-7.43,3.08-9.67.35-1.09.62-1.92.8-2.51l.28-.83-15,48.59,0-.22,44.69,46.61-.27-.08,17.85-4.64,23.07-6-.14.44c-19.94-24-37.47-45.16-50-60.3L246,157.37l-4-4.83-1-1.26Z" style="fill:#1a2e35"/><path d="M242,182.84a7.79,7.79,0,0,1,11-2.17c2.79,2.15,4.08,6.25,7.43,7.33,2.43.78,5.1-.36,7.61.09,2.94.53,5.13,3.2,6,6.06s.62,5.92.38,8.9l-14.53.2Z" style="fill:#e0e0e0"/><polygon points="215.16 155.26 309.26 252.22 270.91 248.34 217.28 191.71 215.16 155.26" style="fill:#f5f5f5"/><path d="M215.16,155.26c.09,1.41.88,13.89,2.3,36.44l-.05-.12,53.7,56.57-.17-.09,29.42,3,8.93.9-.24.48-93.89-97.16c2.09,2.13,41.75,42.83,94.3,96.77l.54.55-.77-.08-8.93-.9-29.41-3h-.11l-.07-.07-53.57-56.69,0-.05v-.07C215.9,169.16,215.24,156.67,215.16,155.26Z" style="fill:#1a2e35"/><path d="M252,193.8c-2.91,3.34-2.48,8.68,0,12.35s6.57,5.93,10.71,7.51c3.34,1.29,7.47,2.11,10.24-.17" style="fill:#e0e0e0"/><path d="M247.09,188.53c.18.81-.84,1.41-1.66,1.33s-1.59-.53-2.42-.58c-2.26-.13-3.49,2.55-5.34,3.87a5.11,5.11,0,0,1-7-1.36c-1.24-1.92-1.21-4.75-3.15-5.94a5.19,5.19,0,0,0-3.69-.33,11.13,11.13,0,0,1-3.75.39,2.76,2.76,0,0,1-2.49-2.42l-.67-1.06-1.61-26.76Z" style="fill:#e0e0e0"/><path d="M293,250.26c2.13.37,4.16-.72,4.48-2.85a4.24,4.24,0,0,0-3.49-4.65c-1.92-.25-3.9.86-5.74.29-2.1-.65-3-3.09-3.5-5.22s-1.27-4.58-3.31-5.4c-3.38-1.36-6.93,3-10.44,2-2.61-.7-3.62-3.84-5.66-5.6a6.39,6.39,0,0,0-6.1-1.2,5,5,0,0,0-3.7,4L271,248Z" style="fill:#e0e0e0"/><path d="M267.23,414.14l-3.87,22.29s-24,3.56-25.07,7.61l43,9,7.45-34.48Z" style="fill:#ebb31f"/><g style="opacity:0.6000000000000001"><path d="M277,437.37a1.79,1.79,0,0,1,.79,2.26,1.73,1.73,0,0,1-2.23.8,1.89,1.89,0,0,1-.82-2.4,1.78,1.78,0,0,1,2.41-.57" style="fill:#fff"/></g><path d="M281.24,453.09l.74-3.44-41.53-7.43s-2.09.42-2.16,1.82Z" style="fill:#fff;opacity:0.6000000000000001"/><path d="M262.71,436.07c0,.21,1,.52,1.88,1.42s1.26,1.88,1.47,1.84.15-1.32-.95-2.38S262.71,435.86,262.71,436.07Z" style="fill:#1a2e35"/><path d="M257.81,437c-.09.19.75.74,1.27,1.78s.54,2,.75,2.05.59-1.12-.09-2.4S257.86,436.78,257.81,437Z" style="fill:#1a2e35"/><path d="M254.12,441.83c.18.09.69-.9.4-2.16s-1.18-1.93-1.31-1.77.35.9.58,1.94S253.92,441.77,254.12,441.83Z" style="fill:#1a2e35"/><path d="M264.16,431.08c0,.21,1.07.13,2.23.46s2,.9,2.17.74-.59-1.09-2-1.46S264.09,430.9,264.16,431.08Z" style="fill:#1a2e35"/><polygon points="266.47 418.56 265.77 422.53 286.92 426.78 287.7 423.24 266.47 418.56" style="opacity:0.30000000000000004"/><path d="M265,426.6a4.06,4.06,0,0,0,2.15.44,9.62,9.62,0,0,0,2.4-.21,11.55,11.55,0,0,0,1.37-.4,2.4,2.4,0,0,0,.76-.37A.93.93,0,0,0,272,425a1.2,1.2,0,0,0-.82-.68,3,3,0,0,0-.83-.05,8.11,8.11,0,0,0-1.43.17,7.78,7.78,0,0,0-2.26.89c-1.19.71-1.7,1.42-1.63,1.48s.7-.47,1.87-1a9.09,9.09,0,0,1,2.15-.67,8,8,0,0,1,1.32-.12c.48,0,.86,0,.94.28,0,.08,0,.12-.1.23a2.44,2.44,0,0,1-.56.27,11.66,11.66,0,0,1-1.27.41,13.32,13.32,0,0,1-2.25.36A15.74,15.74,0,0,0,265,426.6Z" style="fill:#1a2e35"/><path d="M265.23,427c.07.05.64-.62,1-2a7.19,7.19,0,0,0,.21-2.41,7.67,7.67,0,0,0-.28-1.43,1.81,1.81,0,0,0-1.14-1.37,1,1,0,0,0-1,.41,2.66,2.66,0,0,0-.39.74,4.84,4.84,0,0,0-.31,1.45,5.11,5.11,0,0,0,.45,2.42c.61,1.29,1.43,1.72,1.46,1.65a18.45,18.45,0,0,1-1-1.85,5.1,5.1,0,0,1-.25-2.17,4.33,4.33,0,0,1,.3-1.23c.16-.44.41-.77.57-.69s.51.46.61.86a7.54,7.54,0,0,1,.28,1.28,7.8,7.8,0,0,1,0,2.23C265.51,426.17,265.12,426.9,265.23,427Z" style="fill:#1a2e35"/><path d="M408.35,415.5l-9.29-12.13-.48-.63-15.83,11.77,14.66,16.1-.54,16.29c-8.16,2.11-9.39,6.18-9.39,6.18h17l15.4-29.68Z" style="fill:#ebb31f"/><polygon points="419.85 423.39 404.45 453.07 387.48 453.08 389.39 450.53 403.19 449.76 417.4 421.71 419.85 423.39" style="fill:#fff;opacity:0.6000000000000001"/><path d="M397,439.43c.13.18,1.11-.38,2.42-.34s2.27.58,2.4.41-.79-1.15-2.39-1.16S396.82,439.3,397,439.43Z" style="fill:#1a2e35"/><path d="M397.24,435.39c.17.12.93-.88,2.28-1.14s2.43.35,2.54.17-.13-.36-.61-.62a3.2,3.2,0,0,0-2.08-.28,3.1,3.1,0,0,0-1.8,1.06C397.23,435,397.16,435.34,397.24,435.39Z" style="fill:#1a2e35"/><path d="M397.13,430.2c.19.1.76-.88,1.95-1.29s2.24,0,2.32-.22-.17-.32-.64-.49a2.87,2.87,0,0,0-1.93,0,3,3,0,0,0-1.52,1.21C397.06,429.85,397,430.17,397.13,430.2Z" style="fill:#1a2e35"/><path d="M392.59,426.18c.2.07.68-.89,1.73-1.57s2.1-.79,2.12-1-1.26-.49-2.54.38S392.38,426.16,392.59,426.18Z" style="fill:#1a2e35"/><path d="M390.37,422.7c.09.06.65-.62,1.48-1.77l1.43-2a5.34,5.34,0,0,0,.79-1.38,1.39,1.39,0,0,0-.1-1,1.07,1.07,0,0,0-1-.53,3.17,3.17,0,0,0-1.58.82,5.63,5.63,0,0,0-1,1.18,5.73,5.73,0,0,0-.89,2.45,3.19,3.19,0,0,0,.39,2.32,18.34,18.34,0,0,1,.13-2.24,5.82,5.82,0,0,1,.94-2.14,5.49,5.49,0,0,1,.93-1,2.79,2.79,0,0,1,1.17-.64.31.31,0,0,1,.32.16.65.65,0,0,1,0,.48,5.4,5.4,0,0,1-.65,1.18l-1.3,2.13A7.57,7.57,0,0,0,390.37,422.7Z" style="fill:#1a2e35"/><path d="M389.77,423.21c.08,0,0-.9-.91-1.92a4.24,4.24,0,0,0-5-.9.8.8,0,0,0-.26.6,1,1,0,0,0,.2.54,3.06,3.06,0,0,0,.61.53,7.38,7.38,0,0,0,1.2.69,7.47,7.47,0,0,0,2.23.62,3.45,3.45,0,0,0,2.1-.2c0-.12-.8-.06-2-.32a8.25,8.25,0,0,1-2-.72,7.19,7.19,0,0,1-1.07-.66,2.22,2.22,0,0,1-.44-.38c-.08-.15-.06-.11,0-.15a1.17,1.17,0,0,1,.49-.19,3.42,3.42,0,0,1,.63-.09,4,4,0,0,1,1.2.08,4.11,4.11,0,0,1,1.83.93C389.4,422.47,389.65,423.25,389.77,423.21Z" style="fill:#1a2e35"/><path d="M406.32,422.88a2,2,0,1,0,2-2A2,2,0,0,0,406.32,422.88Z" style="fill:#fff;opacity:0.6000000000000001"/><polygon points="384.23 416.13 387.48 419.71 401.18 406.14 399.28 403.66 384.23 416.13" style="opacity:0.30000000000000004"/><path d="M342.06,133.71a49.49,49.49,0,0,1,28.11-1.27c4.13,1,8.31,2.74,11,6.07,3.13,3.94,3.52,9.32,4,14.33A173.64,173.64,0,0,0,390.75,183c2.29,8.21,5.2,16.29,6.44,24.72s.67,17.46-3.63,24.82c-6.62,11.35-20.71,16.36-33.85,16.58-6.91.12-14-.89-20.12-4.09s-11.23-8.81-12.72-15.56" style="fill:#45c2e3"/><g style="opacity:0.5"><path d="M342.06,133.71a49.49,49.49,0,0,1,28.11-1.27c4.13,1,8.31,2.74,11,6.07,3.13,3.94,3.52,9.32,4,14.33A173.64,173.64,0,0,0,390.75,183c2.29,8.21,5.2,16.29,6.44,24.72s.67,17.46-3.63,24.82c-6.62,11.35-20.71,16.36-33.85,16.58-6.91.12-14-.89-20.12-4.09s-11.23-8.81-12.72-15.56"/></g><path d="M360.12,144.11a23.11,23.11,0,0,1,3.76,4.21,40,40,0,0,1,2.93,5.41,58.59,58.59,0,0,0,3.49,6.78,16.1,16.1,0,0,0,5.43,5.43,9.23,9.23,0,0,0,6.15,1.2,7.2,7.2,0,0,0,3.84-1.77,4.33,4.33,0,0,0,.76-.86c.15-.22.21-.34.19-.36s-.37.42-1.13,1a7.44,7.44,0,0,1-3.73,1.48,8.91,8.91,0,0,1-5.76-1.27,16,16,0,0,1-5.16-5.25,65.51,65.51,0,0,1-3.5-6.68,35.12,35.12,0,0,0-3.11-5.41,15.6,15.6,0,0,0-2.87-3.09A4.4,4.4,0,0,0,360.12,144.11Z" style="fill:#e0e0e0"/><path d="M379.15,245.54a4.61,4.61,0,0,0,0-.85c0-.63,0-1.43,0-2.43-.05-2.1-.16-5.15-.32-8.91-.33-7.53-.92-17.93-1.82-29.39s-1.94-21.83-2.79-29.31c-.43-3.75-.8-6.77-1.08-8.86l-.34-2.41a4.24,4.24,0,0,0-.16-.83,3.24,3.24,0,0,0,0,.85c.06.63.13,1.43.21,2.42.21,2.18.5,5.19.85,8.88.73,7.49,1.69,17.86,2.59,29.31s1.57,21.84,2,29.36c.22,3.7.41,6.72.54,8.91l.17,2.42A3.56,3.56,0,0,0,379.15,245.54Z" style="fill:#e0e0e0"/><path d="M376.45,199.5c0,.19,4.15.14,9.22-.5s9.1-1.58,9.06-1.77-4.11.46-9.15,1.08S376.44,199.3,376.45,199.5Z" style="fill:#e0e0e0"/><path d="M379.8,199.4a4.73,4.73,0,0,0-.57,2,18.08,18.08,0,0,0-.22,2.22,3.09,3.09,0,0,0,.23,1.42,1.61,1.61,0,0,0,1.41.94,1.12,1.12,0,0,0,.88-.41,1.39,1.39,0,0,0,.32-.83,4.41,4.41,0,0,0-.2-1.38,12.22,12.22,0,0,0-.74-2.11c-.53-1.16-1-1.78-1.1-1.74a10.79,10.79,0,0,0,.64,1.92,17.59,17.59,0,0,1,.58,2.08,4,4,0,0,1,.13,1.17c0,.37-.22.6-.51.6-.73,0-1-.87-1-1.66s0-1.55.07-2.16A8.34,8.34,0,0,0,379.8,199.4Z" style="fill:#e0e0e0"/><rect x="320.92" y="106.31" width="64.57" height="28.9" rx="9.59" transform="translate(718.03 199.73) rotate(173.34)" style="fill:#375a64"/><path d="M372.56,104.55a1.2,1.2,0,0,0-.42-.18,4.49,4.49,0,0,0-1.28-.19,7.21,7.21,0,0,0-4.45,1.54,13.34,13.34,0,0,0-4.49,5.39,17.71,17.71,0,0,0-1.23,8.48,14.69,14.69,0,0,0,2.93,8,11.92,11.92,0,0,0,5.68,4.1,10.75,10.75,0,0,0,4.7.51,7.46,7.46,0,0,0,1.26-.25,1.33,1.33,0,0,0,.42-.17c0-.06-.62.09-1.71.15a11.32,11.32,0,0,1-4.5-.71,11.68,11.68,0,0,1-5.34-4,14.35,14.35,0,0,1-2.74-7.72,17.42,17.42,0,0,1,1.12-8.18,13.34,13.34,0,0,1,4.19-5.24,7.33,7.33,0,0,1,4.17-1.67A14.17,14.17,0,0,1,372.56,104.55Z" style="fill:#1a2e35"/><path d="M347.7,106.74l6.7-.66a7.74,7.74,0,0,0-4.3,3.31,13.31,13.31,0,0,0-1.85,5.19c-1.2,7.72,2.9,16,9.5,20.19l-5.39.72s-15.49-13.83-4.66-28.75" style="fill:#1a2e35"/><path d="M340.09,121a11.51,11.51,0,0,0,14.56-11.35c-.08-3.34-1.58-6.74-.55-9.91.71-2.17,2.54-3.87,3.15-6.08.91-3.29-1.08-6.62-3-9.46a22.38,22.38,0,0,0-4.17-5.06,7.48,7.48,0,0,0-6.1-1.8" style="fill:#1a2e35"/><path d="M309.34,77.58c.18,2.52-1.48,4.77-3.15,6.65s-3.54,3.86-3.9,6.36c-.64,4.42,3.69,8.53,2.8,12.92-.48,2.35-2.41,4.23-2.75,6.6s.9,4.55,2.42,6.29,3.39,3.21,4.73,5.09a38.89,38.89,0,0,1,3.23,6.57c1,2.22,2.39,4.42,4.53,5.59,3.23,1.75,7.75.92,10.23,3.64s5.32,3,8.27,5" style="fill:#1a2e35"/><path d="M348,81.43c.07-2.28-2-4.05-4.17-4.88s-4.48-1.15-6.38-2.43c-1.67-1.13-2.8-2.89-4.22-4.33a14.05,14.05,0,0,0-23.64,6.45c-.82,3.25-.26,7.1,2.3,9.26,3,2.5,7.38,2,11.2,1.17s8.12-1.55,11.3.68c1.92,1.35,3,3.55,4.19,5.58s2.65,4.11,4.87,4.87,5.23-.55,5.31-2.9" style="fill:#1a2e35"/><path d="M339,81.9a3.82,3.82,0,0,1,3.41,3.88h0l-2.28,51.59c-.09,6.09-9,9.51-15.52,9.36h0c-6.59-.15-6.8-3.38-6.88-9.18-.14-9.68-.13-13.32-.13-13.26s-8.32-1.4-10-12.27c-.85-5.4-.56-14.26-.09-21.49.43-6.52,4.76-14.5,11.25-13.8Z" style="fill:#ffbf9d"/><path d="M309.57,96.73a1.39,1.39,0,0,0,1.34,1.41,1.34,1.34,0,0,0,1.44-1.25A1.39,1.39,0,0,0,311,95.48,1.34,1.34,0,0,0,309.57,96.73Z" style="fill:#1a2e35"/><path d="M309.42,95.14c.18.18,1.23-.6,2.73-.59s2.6.76,2.76.57-.09-.4-.57-.75a3.84,3.84,0,0,0-2.21-.69,3.65,3.65,0,0,0-2.17.7C309.5,94.73,309.34,95.06,309.42,95.14Z" style="fill:#1a2e35"/><path d="M324.49,97.12a1.41,1.41,0,0,0,1.34,1.41,1.34,1.34,0,0,0,1.44-1.26,1.4,1.4,0,0,0-1.34-1.41A1.34,1.34,0,0,0,324.49,97.12Z" style="fill:#1a2e35"/><path d="M324.16,95.45c.17.18,1.23-.6,2.72-.59s2.6.76,2.76.58-.09-.41-.57-.76a3.81,3.81,0,0,0-2.21-.69,3.72,3.72,0,0,0-2.17.7C324.23,95,324.07,95.37,324.16,95.45Z" style="fill:#1a2e35"/><path d="M318.69,106.55a9.9,9.9,0,0,0-2.43-.44c-.38,0-.75-.12-.81-.38a1.9,1.9,0,0,1,.26-1.13l1.14-2.92c1.58-4.14,2.72-7.55,2.55-7.61s-1.58,3.25-3.16,7.39c-.38,1-.75,2-1.09,2.93a2.15,2.15,0,0,0-.2,1.5.93.93,0,0,0,.62.56,2.39,2.39,0,0,0,.65.09A9.25,9.25,0,0,0,318.69,106.55Z" style="fill:#1a2e35"/><path d="M317.62,124.29a27.69,27.69,0,0,0,14.55-3.85s-3.54,7.45-14.41,6.41Z" style="fill:#ff9a6c"/><path d="M319.32,110.17a2.7,2.7,0,0,1,2.42-1,2.46,2.46,0,0,1,1.7.92,1.54,1.54,0,0,1,.12,1.78,1.83,1.83,0,0,1-2,.5,5.77,5.77,0,0,1-1.91-1.15,1.67,1.67,0,0,1-.43-.45.5.5,0,0,1,0-.55" style="fill:#ff9a6c"/><path d="M323.1,107.6c-.24,0-.25,1.61-1.65,2.76s-3.12,1-3.13,1.2.38.32,1.11.34a4,4,0,0,0,2.62-.91,3.54,3.54,0,0,0,1.28-2.32C323.39,108,323.21,107.59,323.1,107.6Z" style="fill:#1a2e35"/><path d="M323.49,92.82c.14.41,1.64.22,3.4.44s3.18.7,3.41.33c.11-.17-.14-.56-.71-1a6,6,0,0,0-5.19-.59C323.75,92.31,323.42,92.63,323.49,92.82Z" style="fill:#1a2e35"/><path d="M310,90.8c.27.34,1.3,0,2.54,0s2.29.23,2.54-.12c.1-.18-.06-.52-.52-.84a3.68,3.68,0,0,0-4.09.12C310,90.29,309.87,90.64,310,90.8Z" style="fill:#1a2e35"/><path d="M346.61,117.63A9.64,9.64,0,0,1,335.13,107c.34-2.66,1.78-5.38.85-7.9-1.22-3.34-5.9-4.37-7.14-7.7-.72-1.93-.07-4.2-.89-6.09s-2.65-2.82-4.47-3.48-3.79-1.11-5.32-2.3-2.49-3.45-1.5-5.12a102.69,102.69,0,0,1,23.73,5.77c1.77.66,3.63,1.45,4.68,3S346.12,87,346,89q-.67,14.63-1.36,29.25" style="fill:#1a2e35"/><path d="M352.46,126.65a7.14,7.14,0,0,0-.56-2.7A8.83,8.83,0,0,0,350,121.3a14.14,14.14,0,0,0-3.51-2.48c-1.41-.77-3-1.47-4.72-2.43a12,12,0,0,1-4.49-4.18,6.49,6.49,0,0,1-.91-3.26,16.78,16.78,0,0,1,.49-3.45,8.78,8.78,0,0,0,.22-3.41,3.84,3.84,0,0,0-2-2.63c-1-.61-2.2-1-3.31-1.51A5.9,5.9,0,0,1,329,95.6a7.43,7.43,0,0,1-.82-3.43c0-1.14,0-2.24,0-3.3a8.84,8.84,0,0,0-.44-3,4.64,4.64,0,0,0-1.64-2.23,13.49,13.49,0,0,0-4.82-1.89,12.29,12.29,0,0,1-4.1-1.62,5,5,0,0,1-1.95-2.69,3.46,3.46,0,0,1,0-2.11,1.88,1.88,0,0,1,.37-.63s-.12.22-.26.67a3.44,3.44,0,0,0,.06,2,4.77,4.77,0,0,0,1.92,2.5,12.54,12.54,0,0,0,4,1.5,13.47,13.47,0,0,1,5,1.9,5.1,5.1,0,0,1,1.83,2.43,9.54,9.54,0,0,1,.49,3.16c0,1.08-.05,2.18,0,3.28a7,7,0,0,0,.75,3.18,5.44,5.44,0,0,0,2.57,2.11c1.07.51,2.25.88,3.36,1.53a5.34,5.34,0,0,1,1.47,1.25,4.12,4.12,0,0,1,.79,1.76,9.14,9.14,0,0,1-.23,3.63,16.65,16.65,0,0,0-.49,3.33,6,6,0,0,0,.82,3,11.54,11.54,0,0,0,4.28,4c1.62,1,3.25,1.67,4.67,2.48a14.39,14.39,0,0,1,3.55,2.61,8.84,8.84,0,0,1,1.83,2.78,5.64,5.64,0,0,1,.42,2.06,2.87,2.87,0,0,1,0,.55C352.48,126.59,352.47,126.65,352.46,126.65Z" style="fill:#1a2e35"/><path d="M320.81,134.1a1.83,1.83,0,0,1-.54.16,4.31,4.31,0,0,1-.67.12,6.17,6.17,0,0,1-.92.06,9.79,9.79,0,0,1-5.59-1.75,9.5,9.5,0,0,1-2.81-3,12.66,12.66,0,0,1-1.45-4.46,15,15,0,0,0-1.41-4.8c-.85-1.5-2.42-2.5-3.84-3.78a8,8,0,0,1-2.66-4.9,7.84,7.84,0,0,1,1-5.1,24.59,24.59,0,0,0,2.27-4,9.53,9.53,0,0,0,.46-3.89,22.24,22.24,0,0,0-1.38-5.61,21.37,21.37,0,0,1-.7-2,1.77,1.77,0,0,1,.26.49c.16.33.39.82.65,1.46a20.73,20.73,0,0,1,1.56,5.66,9.77,9.77,0,0,1-.41,4.08,23.52,23.52,0,0,1-2.26,4.08,7.33,7.33,0,0,0-.91,4.77,7.41,7.41,0,0,0,2.49,4.56c1.36,1.23,3,2.27,3.94,3.92a15.35,15.35,0,0,1,1.44,5,12.59,12.59,0,0,0,1.34,4.32,9.14,9.14,0,0,0,2.64,2.89,9.83,9.83,0,0,0,5.36,1.86A21,21,0,0,0,320.81,134.1Z" style="fill:#1a2e35"/><path d="M352.35,82.34a1,1,0,0,1,.18.45,1.67,1.67,0,0,1-.42,1.3,2.72,2.72,0,0,1-1.95,1,6.23,6.23,0,0,1-2.75-.82,7.64,7.64,0,0,0-3.17-.94,16.79,16.79,0,0,0-3.83.35,25.19,25.19,0,0,1-4.34.56,6.24,6.24,0,0,1-4.45-1.62,13.19,13.19,0,0,1-2.56-4A19.5,19.5,0,0,0,327,74.9a6.1,6.1,0,0,0-6.27-2.29,6.39,6.39,0,0,0-3.78,2.8,13.3,13.3,0,0,0-.79,1.61,1.21,1.21,0,0,1,.08-.47,6.2,6.2,0,0,1,.52-1.25,6.44,6.44,0,0,1,3.87-3.07,6.3,6.3,0,0,1,3.49.07,6.47,6.47,0,0,1,3.29,2.28,19.9,19.9,0,0,1,2.16,3.81,12.63,12.63,0,0,0,2.45,3.8,5.71,5.71,0,0,0,4.06,1.48,25.33,25.33,0,0,0,4.25-.52,16.4,16.4,0,0,1,4-.3,8,8,0,0,1,3.31,1,6.12,6.12,0,0,0,2.57.87,2.53,2.53,0,0,0,1.78-.81,1.57,1.57,0,0,0,.47-1.15C352.4,82.5,352.31,82.35,352.35,82.34Z" style="fill:#375a64"/><path d="M346.26,79.22a8,8,0,0,1,.39-15.62,4.85,4.85,0,0,1,4.77,1.49c1,1.36.93,3.38,2.2,4.48s3.44.68,5.2,1.06A5.89,5.89,0,0,1,363.05,77a8,8,0,0,1-5,6.19,12.55,12.55,0,0,1-8.21.16,30.53,30.53,0,0,1-7.49-3.64" style="fill:#1a2e35"/><path d="M359.31,71.37a4.77,4.77,0,0,1-.79,2A11.17,11.17,0,0,1,350,78.7a4.76,4.76,0,0,1-2.14-.17c0-.09.82,0,2.09-.23a12.36,12.36,0,0,0,8.27-5.15C358.91,72.09,359.22,71.33,359.31,71.37Z" style="fill:#375a64"/><path d="M353.57,83.38c-.14.12-1.8-2.65-5.15-4.54s-6.54-2-6.5-2.15a5,5,0,0,1,2.06,0,13.59,13.59,0,0,1,4.72,1.64,13.42,13.42,0,0,1,3.8,3.25A5.34,5.34,0,0,1,353.57,83.38Z" style="fill:#45c2e3"/><path d="M274.66,201.31l-17.5-3.41,3.15,4.5-7.52,3.75-6.27-2.94a20.12,20.12,0,0,0,1.83,3.67c1.37,2.29,3.2,4.13,4.39,4.22h0a9.25,9.25,0,0,0,2.33,4.2,8.27,8.27,0,0,0,7.91,2.19l11.79-4.26Z" style="fill:#ffbf9d"/><path d="M257,210.11a4,4,0,0,1-5,.58c.06-.15,1.17.22,2.56,0S256.87,210,257,210.11Z" style="fill:#ff9a6c"/><path d="M259.25,213.85c.11.1-.64,1-1.95,1.29A2.72,2.72,0,0,1,255,215c0-.17,1-.07,2.18-.38S259.14,213.73,259.25,213.85Z" style="fill:#ff9a6c"/><path d="M263.69,200.59a11.71,11.71,0,0,1-1.53.89c-.94.54-2.15,1.42-3.54,2.37a13.45,13.45,0,0,1-3.88,1.94,3.41,3.41,0,0,1-1.8.17c0-.09.67-.17,1.68-.55a17.49,17.49,0,0,0,3.68-2,28.84,28.84,0,0,1,3.67-2.25A3.8,3.8,0,0,1,263.69,200.59Z" style="fill:#ff9a6c"/><path d="M370.16,230.45s.6.37,2.09,3c4.58,8.17,6.43,27.77-10.85,45.25-22.33,22.6-48.48,59.56-48.48,59.56l-20.53,86.8-31-6.72,16-90.22,43.83-81.29Z" style="fill:#1a2e35"/><polygon points="404.37 398.45 356.6 325.33 342.1 262.22 305.2 280.35 323.71 344.41 382.75 417.96 404.37 398.45" style="fill:#1a2e35"/><path d="M292.39,425.09a2,2,0,0,1,.07-.43c.07-.31.15-.72.27-1.24.25-1.13.61-2.73,1.07-4.78,1-4.16,2.35-10.14,4.05-17.52,3.49-14.81,8.28-35.22,13.58-57.77.42-1.75.83-3.5,1.22-5.13v-.06l0-.05c13.54-17.31,25.87-32.64,34.95-43.52,4.54-5.44,8.26-9.78,10.89-12.72,1.29-1.48,2.35-2.59,3-3.35l.81-.85a1.61,1.61,0,0,1,.29-.28s-.08.11-.25.31l-.77.9c-.67.78-1.7,1.91-3,3.41-2.58,3-6.25,7.36-10.75,12.83-9,10.94-21.28,26.3-34.81,43.62l.06-.11c-.39,1.63-.8,3.38-1.22,5.13-5.36,22.53-10.21,42.93-13.74,57.73-1.78,7.36-3.22,13.33-4.23,17.48-.5,2-.9,3.64-1.17,4.75-.14.52-.24.93-.32,1.23A3.07,3.07,0,0,1,292.39,425.09Z" style="fill:#375a64"/><path d="M348.42,253.53a2.45,2.45,0,0,1-.75.41,13.64,13.64,0,0,1-2.23.72,15.2,15.2,0,0,1-14.24-4.15,12,12,0,0,1-1.49-1.8c-.31-.46-.45-.73-.42-.75s.76.95,2.18,2.26a16.07,16.07,0,0,0,13.9,4.05C347.27,253.93,348.38,253.44,348.42,253.53Z" style="fill:#375a64"/><path d="M374.76,234.14c-18.68,9.84-49,15.72-58.72,11.73l-.34-36s-13.29-21.92-13.34-30.2c-.07-11.94,14.8-39.17,14.8-39.17l22.31-5.91a26.84,26.84,0,0,1,12.92,3c8.59,4.57,13.28,14.17,12.31,23.85l-5.62,35.81Z" style="fill:#45c2e3"/><g style="opacity:0.30000000000000004"><path d="M350.81,137.55c1.3-.2,1.78,1.92.85,2.84s-2.38,1-3.67,1.18c-5.81.91-10.3,5.89-12.42,11.38s-2.31,11.49-2.66,17.36-.92,11.92-3.68,17.11a35.33,35.33,0,0,1,20-51"/></g><path d="M352.39,137.58s-3.21-5.29-14-3c-7.2,1.53-22.92,16.63-18.53,40.91S336,208.36,336,208.36,325.2,171.2,331.2,155A26.22,26.22,0,0,1,352.39,137.58Z" style="fill:#1a2e35"/><g style="opacity:0.30000000000000004"><path d="M316.11,217.56c4.45,1.44,8.72,3.22,13.35,3.84A26.35,26.35,0,0,0,343.24,220c5.95-2.52,10.36-7.95,12.64-14s2.59-12.68,2-19.12c-4.07,5-3.57,12.47-7,17.93-2.16,3.42-5.68,5.74-9.3,7.55a53.59,53.59,0,0,1-25.42,5.25"/></g><path d="M329.5,180.78s-1.45,27.33,31.89,21.89l3.36,7.91s-35.06,7.4-40-21.62Z" style="fill:#1a2e35"/><path d="M359.88,146.8a17.76,17.76,0,0,1,2.47,14.38l-8.3,37.18C350.48,208.82,340.31,215.17,334,216l-59.23,6.24V200.19l55-8.17,2.58-30.11c.23-4,2.23-11.32,4.8-14.46,2.88-3.5,7.31-8.27,14.54-7.06C356.1,141.14,358,144.09,359.88,146.8Z" style="fill:#45c2e3"/><path d="M361.6,162.63a4.42,4.42,0,0,1-.06.84c-.06.55-.16,1.35-.3,2.39-.28,2.07-.72,5.07-1.38,8.75s-1.51,8.06-2.61,12.88c-.57,2.41-1.16,4.94-1.88,7.54a42.37,42.37,0,0,1-2.9,7.84,22.38,22.38,0,0,1-5,6.72,25.65,25.65,0,0,1-6.52,4.3,39.54,39.54,0,0,1-12.72,3.3c-3.73.39-6.77.41-8.86.43H317a4.22,4.22,0,0,1-.84-.05,5.06,5.06,0,0,1,.84-.07l2.41-.09c2.08-.09,5.11-.17,8.81-.6a40.08,40.08,0,0,0,12.55-3.38,25.77,25.77,0,0,0,6.37-4.23,22.26,22.26,0,0,0,4.88-6.57,43.75,43.75,0,0,0,2.87-7.74c.72-2.58,1.33-5.11,1.9-7.51,1.13-4.8,2-9.16,2.73-12.83s1.21-6.65,1.55-8.71c.17-1,.3-1.78.4-2.38A4.78,4.78,0,0,1,361.6,162.63Z" style="fill:#1a2e35"/><path d="M331.34,198.36a21.8,21.8,0,0,1-2.13-6.61,21.8,21.8,0,0,1,2.13,6.61Z" style="fill:#1a2e35"/><path d="M334.71,197.51a8.62,8.62,0,0,1-3-2.35A8.46,8.46,0,0,1,329.5,192a27.65,27.65,0,0,1,2.59,2.75A26.33,26.33,0,0,1,334.71,197.51Z" style="fill:#1a2e35"/><path d="M279.93,199.42s.08,0,.24-.06l.74-.14,2.84-.47,10.53-1.65,35.42-5.36-.23.25c.19-2.05.4-4.22.61-6.42.71-7.82,1.46-15.25,1.83-22a42.09,42.09,0,0,1,1.84-9.51,21,21,0,0,1,3.87-7.5c3.51-3.82,7.44-5.85,10.33-6.22a10.53,10.53,0,0,1,3.32.06c.37.08.65.17.84.22a.87.87,0,0,1,.28.1,11.67,11.67,0,0,0-4.41-.16c-2.81.42-6.64,2.47-10.06,6.26a20.84,20.84,0,0,0-3.73,7.38,42.47,42.47,0,0,0-1.76,9.41c-.34,6.79-1.08,14.24-1.79,22.05-.21,2.2-.42,4.37-.62,6.43l0,.22-.21,0-35.46,5.17L283.78,199l-2.86.38-.74.08A.67.67,0,0,1,279.93,199.42Z" style="fill:#1a2e35"/><path d="M313.82,217.44c-.15,0-.78-5-1.4-11.19a110.5,110.5,0,0,1-.84-11.24c.15,0,.78,5,1.4,11.19A110.5,110.5,0,0,1,313.82,217.44Z" style="fill:#fafafa"/><path d="M357.17,183.87a25.26,25.26,0,0,1-3.76.06c-2.33,0-5.54-.13-9.09-.26s-6.75-.29-9.07-.42a26.42,26.42,0,0,1-3.75-.34,23.75,23.75,0,0,1,3.77-.06c2.32,0,5.53.12,9.08.26s6.75.28,9.07.42A24.89,24.89,0,0,1,357.17,183.87Z" style="fill:#fafafa"/><path d="M319.58,176.83a9.34,9.34,0,0,1-2.45.33c-1.53.11-3.64.18-6,.14s-4.43-.21-6-.38a9.46,9.46,0,0,1-2.44-.42,12.6,12.6,0,0,1,2.47,0c1.52.07,3.62.17,5.93.21s4.42,0,5.94,0A12.16,12.16,0,0,1,319.58,176.83Z" style="fill:#fafafa"/><path d="M324.47,151.12c-.08.14-2.35-1.05-5.31-2.16s-5.44-1.75-5.4-1.91a17.08,17.08,0,0,1,5.6,1.38A16.73,16.73,0,0,1,324.47,151.12Z" style="fill:#fafafa"/><path d="M367.48,218.68a1.83,1.83,0,0,1-.48.24l-1.43.59c-1.24.51-3.06,1.18-5.32,2a172,172,0,0,1-36.47,8.35c-2.38.28-4.31.46-5.65.54l-1.54.09a1.87,1.87,0,0,1-.54,0,1.81,1.81,0,0,1,.53-.11l1.53-.2c1.33-.15,3.25-.39,5.62-.71,4.74-.65,11.27-1.72,18.39-3.34s13.45-3.51,18-5c2.28-.74,4.11-1.36,5.38-1.81l1.46-.48A2,2,0,0,1,367.48,218.68Z" style="fill:#fafafa"/><path d="M364,153.92c0,.15-6.39.07-14.25-.18s-14.25-.59-14.24-.74,6.38-.08,14.25.18S364,153.76,364,153.92Z" style="fill:#fafafa"/><path d="M287.65,220.65a102.18,102.18,0,0,1-.7-10.8,101.9,101.9,0,0,1-.13-10.83,102.52,102.52,0,0,1,.7,10.81A101.73,101.73,0,0,1,287.65,220.65Z" style="fill:#fafafa"/><path d="M178.16,107.6a50.61,50.61,0,0,1,28.65,3c4,1.68,8,4,10.17,7.83,2.57,4.46,2.15,10,1.87,15.11a178.93,178.93,0,0,0,1.09,31.39c1.08,8.66,2.79,17.28,2.76,26s-2,17.78-7.45,24.58c-8.44,10.48-23.46,13.41-36.8,11.63-7-.93-14-3-19.75-7.21s-10-10.62-10.51-17.69" style="fill:#375a64"/><path d="M194.86,120.87a23.45,23.45,0,0,1,3.16,4.84,40.9,40.9,0,0,1,2.14,5.92,60.51,60.51,0,0,0,2.51,7.4,16.43,16.43,0,0,0,4.67,6.32,9.48,9.48,0,0,0,6,2.16,7.5,7.5,0,0,0,4.16-1.21,4.53,4.53,0,0,0,.9-.76c.18-.2.27-.31.25-.33s-.44.36-1.3.86a7.69,7.69,0,0,1-4,.93,9.14,9.14,0,0,1-5.63-2.16,16.41,16.41,0,0,1-4.43-6.1,68.53,68.53,0,0,1-2.53-7.3,36.27,36.27,0,0,0-2.32-6,16.14,16.14,0,0,0-2.43-3.57A4.89,4.89,0,0,0,194.86,120.87Z" style="fill:#1a2e35"/><path d="M198.68,226.47a4.52,4.52,0,0,0,.16-.86c.09-.64.19-1.45.33-2.46.27-2.14.62-5.24,1-9.08.81-7.67,1.8-18.29,2.63-30s1.36-22.39,1.64-30.1c.14-3.86.23-7,.26-9.14,0-1,0-1.84,0-2.48a3.44,3.44,0,0,0,0-.87,4.28,4.28,0,0,0-.1.86c0,.65-.09,1.47-.16,2.48-.12,2.25-.28,5.34-.49,9.12-.4,7.7-1,18.34-1.84,30.08s-1.74,22.35-2.42,30c-.34,3.77-.61,6.86-.81,9.1-.08,1-.14,1.83-.19,2.48A3.42,3.42,0,0,0,198.68,226.47Z" style="fill:#1a2e35"/><path d="M203,179.44c0,.19,4.19.77,9.41.9s9.46-.22,9.45-.41-4.23-.16-9.43-.3S203,179.24,203,179.44Z" style="fill:#1a2e35"/><path d="M206.36,179.85a4.91,4.91,0,0,0-.87,1.91,20,20,0,0,0-.57,2.21,3.33,3.33,0,0,0,0,1.47,1.65,1.65,0,0,0,1.28,1.17,1.15,1.15,0,0,0,1-.28,1.42,1.42,0,0,0,.45-.79,4.3,4.3,0,0,0,0-1.43,13.26,13.26,0,0,0-.43-2.25,4.37,4.37,0,0,0-.85-1.93,10.76,10.76,0,0,0,.36,2,19.25,19.25,0,0,1,.27,2.19,4.1,4.1,0,0,1-.05,1.22c-.09.37-.31.57-.61.52-.74-.13-.9-1-.75-1.83s.26-1.56.4-2.18A8,8,0,0,0,206.36,179.85Z" style="fill:#1a2e35"/><rect x="158.36" y="81.38" width="66.11" height="29.59" rx="9.59" transform="translate(379.54 198.62) rotate(-178.11)" style="fill:#1a2e35"/><path d="M213.47,82.71s-.12-.11-.39-.24a4.81,4.81,0,0,0-1.27-.39,7.38,7.38,0,0,0-4.74.89,13.59,13.59,0,0,0-5.36,4.77,18,18,0,0,0-2.54,8.4,15,15,0,0,0,1.74,8.6,12.12,12.12,0,0,0,5.13,5,10.92,10.92,0,0,0,4.67,1.24,7.83,7.83,0,0,0,1.32-.06c.3,0,.45-.08.45-.11s-.64,0-1.75-.11a11.62,11.62,0,0,1-4.45-1.4,12,12,0,0,1-4.79-4.88,14.67,14.67,0,0,1-1.61-8.23,17.9,17.9,0,0,1,2.39-8.11,13.55,13.55,0,0,1,5-4.67,7.38,7.38,0,0,1,4.47-1C212.88,82.47,213.45,82.78,213.47,82.71Z" style="fill:#375a64"/><path d="M188,81.15l6.89.35A8,8,0,0,0,190,84.2a13.52,13.52,0,0,0-2.66,5c-2.39,7.63.5,16.66,6.54,21.89l-5.57-.09S174.74,94.6,188,81.15" style="fill:#375a64"/><path d="M142.66,70.49c-2.82-6.81-3-18.64,1.34-24.87s12.35-10.33,19.75-11.92a6.32,6.32,0,0,1,3.73,0,2.5,2.5,0,0,1,1.53,3,15.82,15.82,0,0,1,4.72-2.27,5.36,5.36,0,0,1,4.92,1.09,3.28,3.28,0,0,1,.12,4.66,5.67,5.67,0,0,1,7.16,7.56,18.09,18.09,0,0,1-4.13,5.51c-1.55,1.42-1.81,2.9-1.55,5" style="fill:#1a2e35"/><path d="M144.43,58l-2,41.66a12.41,12.41,0,0,0,12.43,13h0a12.41,12.41,0,0,0,12.36-11.85c.15-3.13.27-5.75.31-6.07,0,0,10.65-.5,11.91-11,.61-5,1-15.57,1.27-25.09a19.63,19.63,0,0,0-17.52-20l-1-.11C151.25,38,144.67,47,144.43,58Z" style="fill:#ffbf9d"/><path d="M167.6,94.59a24.46,24.46,0,0,1-13.24-5.35S156.45,95.79,167,96Z" style="fill:#ff9a6c"/><path d="M176.94,65.38a1.49,1.49,0,0,1-1.6,1.35,1.43,1.43,0,0,1-1.4-1.51,1.52,1.52,0,0,1,1.6-1.36A1.45,1.45,0,0,1,176.94,65.38Z" style="fill:#1a2e35"/><path d="M178,63.59c-.21.18-1.25-.78-2.86-1s-2.88.51-3,.29.15-.43.7-.75a4.07,4.07,0,0,1,2.45-.47,3.93,3.93,0,0,1,2.25,1C177.92,63.14,178.05,63.51,178,63.59Z" style="fill:#1a2e35"/><path d="M161.09,64.22a1.5,1.5,0,0,1-1.6,1.36,1.45,1.45,0,0,1-1.4-1.52,1.51,1.51,0,0,1,1.61-1.35A1.43,1.43,0,0,1,161.09,64.22Z" style="fill:#1a2e35"/><path d="M162.09,62.19c-.21.17-1.25-.79-2.86-1s-2.88.51-3,.29.15-.43.7-.74a4.15,4.15,0,0,1,2.46-.48,4,4,0,0,1,2.25,1C162.06,61.74,162.19,62.11,162.09,62.19Z" style="fill:#1a2e35"/><path d="M166.64,74.75a11.49,11.49,0,0,1,2.67-.19c.42,0,.81,0,.91-.31a2.05,2.05,0,0,0-.14-1.24c-.28-1-.57-2.13-.88-3.27-1.21-4.63-2-8.43-1.85-8.48s1.32,3.68,2.53,8.32c.29,1.14.56,2.23.82,3.27a2.35,2.35,0,0,1,0,1.64A1,1,0,0,1,170,75a2.5,2.5,0,0,1-.71,0A10,10,0,0,1,166.64,74.75Z" style="fill:#1a2e35"/><path d="M161.79,75.36c.26,0,.07,1.76,1.44,3.16s3.24,1.41,3.23,1.65-.45.3-1.24.24a4.38,4.38,0,0,1-2.71-1.29,3.85,3.85,0,0,1-1.1-2.64C161.43,75.75,161.67,75.33,161.79,75.36Z" style="fill:#1a2e35"/><path d="M163.19,55.92c-.21.42-1.8,0-3.71.07s-3.49.37-3.7-.05c-.09-.2.22-.58.88-.94a6.4,6.4,0,0,1,5.64,0C163,55.34,163.28,55.72,163.19,55.92Z" style="fill:#1a2e35"/><path d="M177.86,58.87c-.33.33-1.39-.16-2.73-.33s-2.49,0-2.7-.43c-.1-.19.12-.54.65-.83a3.71,3.71,0,0,1,2.28-.36,3.81,3.81,0,0,1,2.1,1C177.89,58.31,178,58.7,177.86,58.87Z" style="fill:#1a2e35"/><path d="M144.45,65.85c-.17-.09-7-2.9-7.51,4.29s6.78,6.25,6.81,6S144.45,65.85,144.45,65.85Z" style="fill:#ffbf9d"/><path d="M141.76,73.29s-.13.08-.35.16a1.25,1.25,0,0,1-.94,0,3.11,3.11,0,0,1-1.22-2.89,4,4,0,0,1,.49-1.76,1.42,1.42,0,0,1,1-.89.63.63,0,0,1,.71.4c.08.2,0,.34.06.36s.17-.11.13-.41a.78.78,0,0,0-.25-.47.92.92,0,0,0-.68-.24,1.78,1.78,0,0,0-1.39,1,4.14,4.14,0,0,0-.58,2c-.07,1.45.57,2.86,1.59,3.24a1.36,1.36,0,0,0,1.16-.1C141.73,73.46,141.78,73.31,141.76,73.29Z" style="fill:#ff9a6c"/><path d="M186.37,45.48c.13,9.38-11.64,12.39-16.28,6.8-2.15-2.59-4-5.75-7-7.08a8.57,8.57,0,0,0-6.61.19l-.06,0c-3.08,1.32-5.09,4.61-5.8,7.88-1,4.56-.56,8.68-2.08,12.82a2.9,2.9,0,0,1-1,1.56c-.91.56-2.13-.09-2.78-.94a8.89,8.89,0,0,1-1.44-4.88,29.6,29.6,0,0,1,1.32-11.61,20.21,20.21,0,0,1,6.6-9.53,19.16,19.16,0,0,1,13.88-3.6,23.5,23.5,0,0,1,13,6.3A13.82,13.82,0,0,1,181.93,49" style="fill:#1a2e35"/><path d="M179.15,39.78a2.15,2.15,0,0,1,1,.11,5,5,0,0,1,2.28,1.51,6.06,6.06,0,0,1,1.5,3.75,6.88,6.88,0,0,1-1.73,4.63,9.07,9.07,0,0,1-4.12,2.74,12.61,12.61,0,0,1-4,.57,15.31,15.31,0,0,1-2.68-.29,3.17,3.17,0,0,1-1-.27c0-.1,1.39.21,3.63.17A13,13,0,0,0,177.9,52a8.77,8.77,0,0,0,3.87-2.61,6.52,6.52,0,0,0,1.64-4.25,5.86,5.86,0,0,0-1.29-3.52,5,5,0,0,0-2.05-1.55C179.5,39.87,179.15,39.83,179.15,39.78Z" style="fill:#375a64"/><path d="M174.6,36.12s.27-.06.67.17a2.26,2.26,0,0,1,1,1.62,4.28,4.28,0,0,1-.76,2.71,12.1,12.1,0,0,1-2.18,2.6A12.42,12.42,0,0,1,168,46.08a5.64,5.64,0,0,1-2.51.23c0-.09.95-.15,2.41-.61A13.7,13.7,0,0,0,173,42.81a13.23,13.23,0,0,0,2.12-2.46,4,4,0,0,0,.8-2.4,2.17,2.17,0,0,0-.74-1.48C174.83,36.21,174.59,36.16,174.6,36.12Z" style="fill:#375a64"/><path d="M144.14,138.44l3.38-24.63-48.4,9.72-44-15.27-11.9,12.23,46.87,24.13a21.6,21.6,0,0,0,13.43,1.72Z" style="fill:#ffbf9d"/><path d="M55.08,108.26s-16.84-8.05-17.92-8.32c-.83-.21-13.55-.89-19.34-1.19a1.82,1.82,0,0,0-.36,3.61l.22,0c3.23.27,10.35,1.89,10.35,1.89l-3.23,7.57a1.82,1.82,0,0,0,.59,2.18l9.8,7.25a8,8,0,0,0,8-.78h0l4.32.88Z" style="fill:#ffbf9d"/><path d="M24.75,112.28c.31,1.42,3.68,4.32,6.25,4.31a2.2,2.2,0,0,0,1.54-.55,1.4,1.4,0,0,0,.36-1.54,2.23,2.23,0,0,0-.74-.79l-5.74-4.46" style="fill:#ffbf9d"/><path d="M26.42,109.25a14.93,14.93,0,0,1,2.4,1.61l2.5,1.87c.47.37,1,.69,1.48,1.16a1.55,1.55,0,0,1,.48,1,1.75,1.75,0,0,1-.37,1.11,2.39,2.39,0,0,1-2,.81,5.24,5.24,0,0,1-1.87-.44,9.85,9.85,0,0,1-2.68-1.73A6.62,6.62,0,0,1,25,113c-.25-.45-.26-.75-.23-.76s.12.26.41.64a8.47,8.47,0,0,0,1.45,1.46,10.23,10.23,0,0,0,2.61,1.55,4.9,4.9,0,0,0,1.7.38,1.9,1.9,0,0,0,1.54-.6,1,1,0,0,0-.06-1.43c-.41-.39-.95-.77-1.4-1.14l-2.43-2A15.92,15.92,0,0,1,26.42,109.25Z" style="fill:#ff9a6c"/><path d="M38.35,116.66c-.05,0-.37-.19-.73-.74a4.92,4.92,0,0,1-.74-2.38,5,5,0,0,1,.52-2.45c.3-.57.61-.84.66-.8a10.45,10.45,0,0,0-.61,3.22A10.76,10.76,0,0,0,38.35,116.66Z" style="fill:#ff9a6c"/><path d="M31.62,112.77a2.21,2.21,0,0,0,4.06-1.19c0-1.23-1-2.22-1.9-3l-4.22-3.81" style="fill:#ffbf9d"/><path d="M29.56,104.73a8,8,0,0,1,1.77,1.33l1.81,1.55a15.28,15.28,0,0,1,2.13,2.08,3.44,3.44,0,0,1,.66,1.5,2.4,2.4,0,0,1-.28,1.53A2.37,2.37,0,0,1,33.48,114a2.32,2.32,0,0,1-1.55-.68c-.28-.29-.34-.51-.31-.52s.16.15.46.36a2.28,2.28,0,0,0,1.4.44,2,2,0,0,0,1.71-1.1,2.23,2.23,0,0,0-.38-2.44,16.79,16.79,0,0,0-2-2l-1.74-1.65A9,9,0,0,1,29.56,104.73Z" style="fill:#ff9a6c"/><path d="M38.83,104.09a32.19,32.19,0,0,0-9.6,4,.88.88,0,0,0-.43.44.79.79,0,0,0,.37.74,4.51,4.51,0,0,0,3.18.72,30.68,30.68,0,0,1,3.31-.34c1.93,0,3.71,1,5.57,1.47s4.12.5,5.39-.94" style="fill:#ffbf9d"/><path d="M46.62,110.2s0,.1-.17.26a3.06,3.06,0,0,1-.7.56,5.3,5.3,0,0,1-3.23.58,25.58,25.58,0,0,1-4.64-1.28,8.12,8.12,0,0,0-2.71-.37c-1,0-1.94.29-3,.36a4.58,4.58,0,0,1-3.08-.75,1.24,1.24,0,0,1-.54-.72.71.71,0,0,1,.08-.55A1.12,1.12,0,0,1,29,108c.42-.27.81-.5,1.21-.72a29.89,29.89,0,0,1,4.38-2,26.38,26.38,0,0,1,3.11-.94,4.53,4.53,0,0,1,1.17-.19c0,.1-1.62.48-4.14,1.5a34.76,34.76,0,0,0-4.27,2.11c-.38.22-.78.47-1.16.71-.17.13-.22.21-.19.31a.76.76,0,0,0,.34.4,4.11,4.11,0,0,0,2.72.62c1-.06,2-.29,3-.34a8.35,8.35,0,0,1,2.87.42,27.73,27.73,0,0,0,4.55,1.38,5.28,5.28,0,0,0,3.07-.37A9.36,9.36,0,0,0,46.62,110.2Z" style="fill:#ff9a6c"/><path d="M99.87,132.05a10.43,10.43,0,0,1-.78-4.34,10.29,10.29,0,0,1,.53-4.37c.16,0-.05,2,0,4.35S100,132,99.87,132.05Z" style="fill:#ff9a6c"/><path d="M142.22,102.39l-13.74,15.47s-7.33,53.45-7.86,57.64-1.91,17.62-1.91,21.28-3,29.92-3,29.92,58.28,12.09,68,0l-3-22.47,2.64-55.75s4.37-38.68-16-47.67C167.26,100.81,154.36,108.59,142.22,102.39Z" style="fill:#45c2e3"/><path d="M176.62,106.3s-4-4-16.86-.64c-13.52,3.5-20.66,16.16-17.3,52,2.77,29.56,14.46,33.81,14.46,33.81s-6.41-44.58-5.31-63.23c1.39-23.56,25-17.69,25-17.69C180,109.46,176.62,106.3,176.62,106.3Z" style="fill:#1a2e35"/><polygon points="142.22 102.39 130.35 105.66 103.64 122 111.25 146.15 126.93 144.44 142.22 102.39" style="fill:#45c2e3"/><path d="M126.77,119.15c.15,0-.52,8.65-1.51,19.28s-1.92,19.25-2.07,19.23.52-8.64,1.51-19.28S126.61,119.14,126.77,119.15Z" style="fill:#1a2e35"/><path d="M181.13,194.2s-3.79,12.18-17.19-7.93-11.52-11.12-11.52-11.12l-2.75,3.26s14.74,33.2,31.28,28Z" style="fill:#1a2e35"/><polygon points="126.23 124.96 115.66 145.67 124.39 144.71 126.23 124.96" style="opacity:0.30000000000000004"/><g style="opacity:0.30000000000000004"><path d="M121.38,180a99.26,99.26,0,0,0,27.13,20.83c4.26,2.23,9,4.18,13.73,3.57,5.24-.67,9.73-4.46,12.21-9.13s2.12-6.91,2.71-12.16c.65-5.78.65-13.5,1-18.77.06-.94.07-2,.07-3a5.18,5.18,0,0,1,3.69-5h0s-3.19-1.5-5.33-1.2-3.76,2.09-4.88,3.94c-5.95,9.79-3.36,24.16-14.7,30.26a19.11,19.11,0,0,1-12.16,1.78c-9.27-1.51-16.38-7.61-23.22-13.56"/></g><ellipse cx="134.2" cy="144.21" rx="5.14" ry="15.47" style="fill:#fafafa"/><path d="M137,413.15l1.18,25.46s-25.48,9.75-25.72,14.48l49.44-.52-.2-39.74Z" style="fill:#ebb31f"/><g style="opacity:0.6000000000000001"><path d="M153.4,436.31a2,2,0,0,1,1.42,2.29,1.94,1.94,0,0,1-2.26,1.43,2.14,2.14,0,0,1-1.49-2.44,2,2,0,0,1,2.51-1.22" style="fill:#fff"/></g><path d="M161.85,452.57l0-4-47.49,1.95s-2.19,1-1.93,2.53Z" style="fill:#fff;opacity:0.6000000000000001"/><path d="M137.33,438.37c0,.24,1.22.34,2.41,1.1s1.84,1.77,2.06,1.67-.15-1.48-1.61-2.38S137.27,438.15,137.33,438.37Z" style="fill:#1a2e35"/><path d="M132.16,440.57c0,.23,1,.63,1.83,1.64s1.08,2.09,1.32,2.08.38-1.38-.68-2.62S132.17,440.34,132.16,440.57Z" style="fill:#1a2e35"/><path d="M129.28,446.8c.22.05.55-1.16-.09-2.47s-1.77-1.83-1.87-1.63.61.9,1.11,2S129,446.78,129.28,446.8Z" style="fill:#1a2e35"/><path d="M137.7,432.54c.11.21,1.21-.13,2.58-.05s2.43.5,2.55.29-.9-1.06-2.51-1.13S137.58,432.35,137.7,432.54Z" style="fill:#1a2e35"/><polygon points="137.19 418.19 137.4 422.73 161.69 422.26 161.68 418.17 137.19 418.19" style="opacity:0.30000000000000004"/><path d="M137.56,427.4a4.76,4.76,0,0,0,2.48,0,11.22,11.22,0,0,0,2.58-.83,10.38,10.38,0,0,0,1.41-.77,2.52,2.52,0,0,0,.74-.59,1,1,0,0,0,.1-1.28,1.31,1.31,0,0,0-1.06-.54,3.14,3.14,0,0,0-.93.14,8.61,8.61,0,0,0-1.53.54,8.7,8.7,0,0,0-2.27,1.52c-1.14,1.08-1.52,2-1.44,2s.66-.68,1.82-1.57a9.81,9.81,0,0,1,2.2-1.27,8.61,8.61,0,0,1,1.41-.45c.53-.15,1-.16,1.11.08,0,.09.06.12-.05.27a2.2,2.2,0,0,1-.55.44,12.52,12.52,0,0,1-1.3.76,14.93,14.93,0,0,1-2.38.94A15.25,15.25,0,0,0,137.56,427.4Z" style="fill:#1a2e35"/><path d="M137.88,427.74a4.1,4.1,0,0,0,.63-2.4,7.94,7.94,0,0,0-1-4.2,2,2,0,0,0-1.59-1.24,1.17,1.17,0,0,0-1,.7,3.24,3.24,0,0,0-.24.91,5.49,5.49,0,0,0,0,1.67,5.75,5.75,0,0,0,1.09,2.55c1,1.27,2,1.55,2,1.47s-.77-.58-1.52-1.81a5.78,5.78,0,0,1-.81-2.32,5.3,5.3,0,0,1,0-1.43c.07-.52.27-.95.46-.9s.67.39.88.8a9,9,0,0,1,.63,1.34,8.73,8.73,0,0,1,.5,2.47C138,426.8,137.75,427.7,137.88,427.74Z" style="fill:#1a2e35"/><path d="M184.86,397.69l20,15.81s-9.35,25.63-5.94,28.91l32-37.66-30.14-25.91Z" style="fill:#ebb31f"/><g style="opacity:0.6000000000000001"><path d="M213.13,400.46a2,2,0,0,1,2.66.43,1.94,1.94,0,0,1-.41,2.64,2.12,2.12,0,0,1-2.81-.46,2,2,0,0,1,.72-2.7" style="fill:#fff"/></g><path d="M231,404.75l-3-2.59L198.27,439.3s-.7,2.29.64,3.11Z" style="fill:#fff;opacity:0.6000000000000001"/><path d="M204.14,414c.19.15,1.06-.7,2.42-1.1s2.54-.23,2.61-.46-1.22-.86-2.86-.35S203.94,413.84,204.14,414Z" style="fill:#1a2e35"/><path d="M202.41,419.29c.15.19,1.14-.34,2.45-.3s2.28.55,2.43.36-.79-1.19-2.42-1.2S202.24,419.13,202.41,419.29Z" style="fill:#1a2e35"/><path d="M205.23,425.55c.19-.13-.52-1.17-1.92-1.55s-2.55.13-2.46.34,1.08.13,2.23.47S205.06,425.72,205.23,425.55Z" style="fill:#1a2e35"/><path d="M200,409.84c.24.06.7-1,1.66-2s2-1.52,1.89-1.75-1.39,0-2.5,1.17S199.76,409.81,200,409.84Z" style="fill:#1a2e35"/><polygon points="188.82 400.82 192.38 403.64 207.96 384.99 204.86 382.31 188.82 400.82" style="opacity:0.30000000000000004"/><path d="M196,406.58c.07.06.81-.57,1.59-1.9a10.56,10.56,0,0,0,1.08-2.49,12.07,12.07,0,0,0,.34-1.57,2.88,2.88,0,0,0,0-.95,1,1,0,0,0-.9-.91,1.3,1.3,0,0,0-1.11.45,3,3,0,0,0-.5.79,8.62,8.62,0,0,0-.6,1.51,8.92,8.92,0,0,0-.34,2.71,4.12,4.12,0,0,0,.59,2.41c.13,0-.08-.94,0-2.4a9.61,9.61,0,0,1,.48-2.49,9.43,9.43,0,0,1,.59-1.37c.23-.48.52-.83.78-.78.1,0,.13,0,.18.22a2.9,2.9,0,0,1,0,.7,13,13,0,0,1-.28,1.48,14.38,14.38,0,0,1-.85,2.42A16.12,16.12,0,0,0,196,406.58Z" style="fill:#1a2e35"/><path d="M196.48,406.56c.08,0-.27-1-1.4-2.05a8.19,8.19,0,0,0-2.29-1.5,8.53,8.53,0,0,0-1.55-.49,2.05,2.05,0,0,0-2,.39,1.16,1.16,0,0,0-.14,1.24,3.43,3.43,0,0,0,.53.78,5.57,5.57,0,0,0,1.27,1.08,5.51,5.51,0,0,0,2.63.85,3.18,3.18,0,0,0,2.43-.55,19.59,19.59,0,0,1-2.36,0,5.51,5.51,0,0,1-2.28-.91,5,5,0,0,1-1.06-1c-.35-.4-.55-.82-.38-.94a1.41,1.41,0,0,1,1.18-.13,7.79,7.79,0,0,1,1.42.4,8.51,8.51,0,0,1,2.19,1.24C195.84,405.85,196.36,406.64,196.48,406.56Z" style="fill:#1a2e35"/><path d="M129.43,305.44s1.32-60.8,0-60.8-10.7-5.35-10.7-5.35L107,329.65S106,339.8,118.52,347,187.2,404,187.2,404l19-23.14s-36.93-38.49-52-51.22C142.37,319.7,129.43,305.44,129.43,305.44Z" style="fill:#1a2e35"/><path d="M163.84,291.28l1.28-9.63s9.25-19.46,10.57-27.79.45-26.27.45-26.27H117.72s.25,66,7.3,84.46c0,0,3.58,35.41,4.11,38.38,1.11,6.3,5,70.77,5,70.77l29.46-1.07s2.56-59.27.52-76.1c-1-8.33-1.5-17.21-1.72-24.56A173.64,173.64,0,0,1,163.84,291.28Z" style="fill:#1a2e35"/><path d="M119.32,246.83a1.11,1.11,0,0,1,0,.29c0,.22,0,.5.06.85,0,.79.09,1.89.15,3.28.12,2.85.32,7,.62,12.06.59,10.18,1.67,24.22,3.28,39.7s3.33,29.46,4.58,39.58c.62,5,1.12,9.11,1.47,12,.16,1.38.28,2.47.37,3.26,0,.35.06.63.09.85a1.59,1.59,0,0,1,0,.29.8.8,0,0,1-.07-.28l-.14-.85c-.12-.78-.28-1.87-.48-3.24-.39-2.87-.95-6.95-1.64-12-1.35-10.11-3.14-24.09-4.75-39.58s-2.63-29.54-3.12-39.73c-.24-5.09-.39-9.22-.44-12.07,0-1.39,0-2.49,0-3.29v-.85A.94.94,0,0,1,119.32,246.83Z" style="fill:#375a64"/><path d="M162.34,324.89s.07.33.17,1,.22,1.59.38,2.75c.29,2.4.66,5.87,1,10.18.7,8.61,1.22,20.53,1.42,33.7s-.05,25.11-.52,33.73c-.22,4.31-.5,7.79-.73,10.2-.13,1.16-.24,2.08-.31,2.76a6.33,6.33,0,0,1-.15,1,5.45,5.45,0,0,1,0-1c.05-.68.11-1.61.2-2.77.16-2.41.38-5.89.55-10.2.36-8.62.51-20.54.35-33.7s-.65-25.08-1.25-33.68c-.28-4.31-.58-7.78-.81-10.18-.12-1.17-.21-2.09-.28-2.77A6.4,6.4,0,0,1,162.34,324.89Z" style="fill:#375a64"/><path d="M173.83,104.94s9.56,2.55,11.59,16.8-1.73,18.32-1.73,18.32,1.55-26.53-10.33-30.14l.47-4.46" style="fill:#1a2e35"/><polygon points="108.68 151.48 59.32 150.53 59.9 152.92 108.44 153.63 108.68 151.48" style="fill:#1a2e35"/><path d="M168.53,109.42a8.66,8.66,0,0,0-5.54.48c-4,1.69-11.32,6.53-11.84,20.19l-.84,22.06,31.56,4.13S184.55,113.68,168.53,109.42Z" style="fill:#45c2e3"/><path d="M110.44,156.16l40,12,.6-16.11,24,3.49-1.33,26.2a17.05,17.05,0,0,1-13.16,16h0A17,17,0,0,1,148.2,196L105.67,171.8Z" style="fill:#ffbf9d"/><path d="M181.87,156.28s0-.14,0-.38,0-.62,0-1.06c0-1-.08-2.32-.14-4-.12-3.52-.28-8.55-.47-14.75-.09-3.11-.19-6.5-.3-10.14,0-.91,0-1.84-.07-2.78l-.15-1.4c-.1-.46-.17-.93-.29-1.4a14.66,14.66,0,0,0-13.53-10.89,11.56,11.56,0,0,0-6.33,1.81,16.42,16.42,0,0,0-4.9,4.82,24.4,24.4,0,0,0-3.6,9.2,65.15,65.15,0,0,0-1,9.51c-.18,6.22-.35,12.06-.5,17.37l-.2-.24L173.15,155l6.42.9,1.7.25.6.1-.55-.05-1.66-.19-6.37-.77-23-2.89-.22,0v-.22c.13-5.32.22-11.16.43-17.39a65.63,65.63,0,0,1,1-9.59,24.91,24.91,0,0,1,3.69-9.4,16.83,16.83,0,0,1,5.06-5,12.1,12.1,0,0,1,6.64-1.88,15.06,15.06,0,0,1,11.32,5.86,14.81,14.81,0,0,1,2.68,5.46c.12.48.2,1,.29,1.45l.15,1.45c0,1,0,1.89.06,2.81.07,3.68.14,7.11.21,10.25.11,6.2.19,11.24.25,14.77,0,1.7.05,3,.06,4v1A1.64,1.64,0,0,1,181.87,156.28Z" style="fill:#1a2e35"/><path d="M111.25,156.62l-9.62-7.1c-1.75-1.3-4.49-1-6.66-1.23-4.3-.39-11.41,2.21-11.68,2.66l2.91,2.32-18.69-.57a7.89,7.89,0,0,0,6.83,4.3s.6,4.22,6,5c0,0,1.41,3.42,4.42,4.42,0,0,.6,3.82,5.42,3.62l16.37,1.86Z" style="fill:#ffbf9d"/><path d="M86,157.7a32.09,32.09,0,0,1-5.91-.07,30.62,30.62,0,0,1-5.89-.63,32.24,32.24,0,0,1,5.92.07A30.45,30.45,0,0,1,86,157.7Z" style="fill:#ff9a6c"/><path d="M90.76,162.19a23.8,23.8,0,0,1-5.18.28,23.74,23.74,0,0,1-5.17-.28,24.51,24.51,0,0,1,5.17-.28A24.57,24.57,0,0,1,90.76,162.19Z" style="fill:#ff9a6c"/><path d="M95.84,166.44a23.35,23.35,0,0,1-5.17.29,23.4,23.4,0,0,1-5.18-.29,24.57,24.57,0,0,1,5.18-.28A24.51,24.51,0,0,1,95.84,166.44Z" style="fill:#ff9a6c"/><path d="M153.1,176.37a14.2,14.2,0,0,1-1.78-3.93,14.39,14.39,0,0,1-1-4.18,19.15,19.15,0,0,1,1.57,4A19.87,19.87,0,0,1,153.1,176.37Z" style="fill:#ff9a6c"/><path d="M156,174.81a23.5,23.5,0,0,1-3-3.38,22.77,22.77,0,0,1-2.78-3.59,15.43,15.43,0,0,1,3.21,3.23A15,15,0,0,1,156,174.81Z" style="fill:#ff9a6c"/></g></svg>