<svg xmlns="http://www.w3.org/2000/svg" viewBox="0 0 644.45 412.2"><title>asset-beranda-keuntungan</title><g id="OBJECTS"><rect x="33.34" y="276.3" width="26.48" height="11.19" style="fill:#ececec"/><rect x="18.57" y="290.41" width="26.48" height="11.19" style="fill:#ececec"/><rect x="374.05" y="170.28" width="26.48" height="11.19" style="fill:#ececec"/><rect x="359.28" y="184.39" width="26.48" height="11.19" style="fill:#ececec"/><rect x="344.56" y="170.28" width="26.48" height="11.19" style="fill:#ececec"/><rect x="599.4" y="290.41" width="26.48" height="11.19" style="fill:#ececec"/><rect x="584.63" y="16.53" width="26.48" height="11.19" style="fill:#ececec"/><rect x="599.4" y="30.64" width="26.48" height="11.19" style="fill:#ececec"/><rect x="33.34" y="16.53" width="26.48" height="11.19" style="fill:#ececec"/><path d="M160.44,183.12,154,197.3l4.34,2a3.72,3.72,0,0,1,2.16,3.23,22.74,22.74,0,0,0,.22,2.32,3.7,3.7,0,0,1-1.48,3.58l-3.87,2.78,9.07,12.66,3.87-2.78a3.72,3.72,0,0,1,3.87-.25,21.19,21.19,0,0,0,2.12,1,3.7,3.7,0,0,1,2.37,3.08l.47,4.75,15.5-1.53-.48-4.76a3.72,3.72,0,0,1,1.74-3.48c.32-.21.64-.42,1-.64l.91-.7a3.68,3.68,0,0,1,3.83-.52l4.38,2,6.43-14.18-4.35-2a3.69,3.69,0,0,1-2.15-3.24,22.11,22.11,0,0,0-.23-2.3,3.69,3.69,0,0,1,1.49-3.58l3.87-2.78L200,179.23,196.09,182a3.68,3.68,0,0,1-3.86.26,21.19,21.19,0,0,0-2.12-1,3.7,3.7,0,0,1-2.37-3.07l-.47-4.76L171.77,175l.47,4.76a3.68,3.68,0,0,1-1.73,3.46c-.32.21-.64.42-1,.65s-.61.45-.91.69a3.7,3.7,0,0,1-3.85.53Zm14.34,8a12.76,12.76,0,1,1-2.95,17.8A12.75,12.75,0,0,1,174.78,191.16Z" style="fill:#ececec"/><path d="M593.07,63.4l-6.52,3.77,1.16,2a1.79,1.79,0,0,1-.07,1.88c-.2.31-.39.64-.56,1a1.78,1.78,0,0,1-1.59,1h-2.31v7.54h2.31a1.78,1.78,0,0,1,1.59,1c.17.33.36.66.56,1a1.79,1.79,0,0,1,.07,1.88l-1.16,2,6.52,3.77,1.16-2a1.77,1.77,0,0,1,1.66-.87H597a1.76,1.76,0,0,1,1.65.87l1.16,2,6.53-3.77-1.16-2a1.79,1.79,0,0,1,.07-1.88,10.21,10.21,0,0,0,.56-1,1.79,1.79,0,0,1,1.59-1h2.31V73H607.4a1.78,1.78,0,0,1-1.59-1c-.17-.33-.36-.65-.56-1a1.78,1.78,0,0,1-.07-1.87l1.16-2-6.53-3.77-1.15,2a1.8,1.8,0,0,1-1.66.88l-.56,0-.55,0a1.8,1.8,0,0,1-1.66-.88Zm3.37,7.2a6.17,6.17,0,1,1-6.17,6.17A6.17,6.17,0,0,1,596.44,70.6Z" style="fill:#ececec"/><path d="M35.61,96.22l4.58,6L42,100.8a1.8,1.8,0,0,1,1.87-.18,9.53,9.53,0,0,0,1,.44,1.77,1.77,0,0,1,1.18,1.45l.3,2.28,7.47-1-.3-2.29a1.79,1.79,0,0,1,.78-1.7,8.47,8.47,0,0,0,.89-.69,1.8,1.8,0,0,1,1.86-.3l2.13.88,2.89-7L60,91.88a1.79,1.79,0,0,1-1.09-1.53c0-.18,0-.37,0-.55l-.09-.55a1.8,1.8,0,0,1,.65-1.75l1.85-1.41-4.58-6-1.83,1.4a1.8,1.8,0,0,1-1.87.18,10.44,10.44,0,0,0-1-.44,1.76,1.76,0,0,1-1.18-1.45l-.3-2.28-7.47,1,.3,2.29a1.79,1.79,0,0,1-.78,1.7,10,10,0,0,0-.89.68,1.79,1.79,0,0,1-1.85.31l-2.14-.88-2.89,7,2.14.89A1.77,1.77,0,0,1,38,92a5.32,5.32,0,0,0,.06.56c0,.18,0,.37.08.55a1.79,1.79,0,0,1-.65,1.76ZM42.32,92a6.17,6.17,0,1,1,6.91,5.32A6.16,6.16,0,0,1,42.32,92Z" style="fill:#ececec"/><rect x="168.09" y="29.82" width="81.05" height="98.31" style="fill:#ececec"/><rect x="177.36" y="38.8" width="62.53" height="80.37" style="fill:#fff"/><rect x="177.36" y="38.8" width="2.44" height="80.37" style="fill:#dcdcdc"/><rect x="249.15" y="29.82" width="2.44" height="98.31" style="fill:#dcdcdc"/><rect x="198.31" y="49.88" width="14.74" height="43.93" style="fill:#dcdcdc"/><rect x="191.88" y="79.78" width="39.31" height="21.52" style="fill:none;stroke:#ececec;stroke-miterlimit:10"/><rect x="392.87" y="29.82" width="81.05" height="98.31" style="fill:#ececec"/><rect x="402.13" y="38.8" width="62.53" height="80.37" style="fill:#fff"/><rect x="402.13" y="38.8" width="2.44" height="80.37" style="fill:#dcdcdc"/><rect x="473.92" y="29.82" width="2.44" height="98.31" style="fill:#dcdcdc"/><rect x="423.08" y="49.88" width="14.74" height="43.93" style="fill:#dcdcdc"/><rect x="416.65" y="79.78" width="39.31" height="21.52" style="fill:none;stroke:#ececec;stroke-miterlimit:10"/><rect x="280.48" y="29.82" width="81.05" height="98.31" style="fill:#ececec"/><rect x="289.74" y="38.8" width="62.53" height="80.37" style="fill:#fff"/><rect x="289.74" y="38.8" width="2.44" height="80.37" style="fill:#dcdcdc"/><rect x="361.53" y="29.82" width="2.44" height="98.31" style="fill:#dcdcdc"/><rect x="314.95" y="59.57" width="12.63" height="31.94" style="fill:#ececec"/><rect x="306.95" y="78.98" width="33.93" height="22.02" style="fill:none;stroke:#dcdcdc;stroke-miterlimit:10"/><ellipse cx="322.23" cy="387.52" rx="313.7" ry="24.69" style="fill:#ececec"/><rect x="138.27" y="256.62" width="31.65" height="68.38" style="fill:#45c2e3"/><g style="opacity:0.1"><rect x="162.67" y="256.62" width="7.25" height="68.38"/></g><rect x="179.97" y="230.78" width="31.65" height="94.23" style="fill:#45c2e3"/><g style="opacity:0.1"><rect x="204.37" y="230.78" width="7.25" height="94.23"/></g><rect x="96.65" y="272.02" width="31.65" height="52.98" style="fill:#45c2e3"/><g style="opacity:0.1"><rect x="121.06" y="272.02" width="7.25" height="52.98"/></g><rect x="221.67" y="196.36" width="31.65" height="128.64" style="fill:#45c2e3"/><g style="opacity:0.1"><rect x="246.08" y="196.36" width="7.25" height="128.64"/></g><path d="M85.44,304.47V291.28s115.29-7.56,161.87-105.91l4.64.92S221,287.1,85.44,304.47Z" style="fill:#ebb31f"/><polygon points="256.27 189.6 241.7 185.88 253.77 176.62 256.27 189.6" style="fill:#ebb31f"/><polygon points="0 324.8 80.56 324.56 161.11 324.47 322.23 324.3 483.34 324.47 563.89 324.56 644.45 324.8 563.89 325.04 483.34 325.13 322.23 325.3 161.11 325.13 80.56 325.04 0 324.8" style="fill:#1a2e35"/><path d="M603.55,264.81s9.34-33.53,16.81-44.92S641.73,196,641.73,196,641.4,247.69,603.55,264.81Z" style="fill:#45c2e3"/><path d="M604.22,264.24A161.85,161.85,0,0,0,612.74,248a113.08,113.08,0,0,1,4.64-17.64.09.09,0,0,1,.16.06c-1.24,5.3-2.68,10.55-4,15.84,3.77-8.17,7.36-16.43,11.85-24.15a51.84,51.84,0,0,1,4.33-10.73c0-.1.21-.05.16.06a69.78,69.78,0,0,0-2.91,8,79.34,79.34,0,0,1,7.1-9.81c.16-.19.49,0,.33.23-6,7.66-10.15,16.39-14.1,25.22A135.15,135.15,0,0,0,632,220.46a.05.05,0,1,1,.08.06,120.07,120.07,0,0,1-12.55,16.27c-2.88,6.47-5.7,13-9.13,19.12,6.85-5.79,12.12-13.28,17.33-20.51a.16.16,0,0,1,.26.18c-5.22,7.93-10.62,15.4-18.13,21.28a81.72,81.72,0,0,1-5,7.83A.4.4,0,0,1,604.22,264.24Z" style="fill:#1a2e35"/><path d="M598.53,264.86s16.79-30.92,11.91-60.9-10.1-40.66-10.1-40.66S573.94,209.93,598.53,264.86Z" style="fill:#45c2e3"/><path d="M591.63,216.25a145.9,145.9,0,0,0,6.49,25c0-11,.25-22,.55-33a84.61,84.61,0,0,1-3.17-20.49c0-.21.29-.2.31,0a117.3,117.3,0,0,0,2.94,17.63q.39-13.6.89-27.22c0-.15.24-.15.23,0,0,14.18,0,28.36-.09,42.54a112.7,112.7,0,0,0,4.84-16.84c0-.06.1,0,.1,0a66.09,66.09,0,0,1-5,19.17c-.06,9.06-.16,18.13-.36,27.19,2.84-9.64,5.87-19,6.69-29.15a.11.11,0,0,1,.22,0c-.23,11.23-3.12,22.63-6.82,33.19a.59.59,0,0,1-.19.26c-.09,3.32-.18,6.63-.29,9.94a.37.37,0,0,1-.74,0c-.13-6.78-.17-13.56-.16-20.33a90.89,90.89,0,0,1-6.62-27.84C591.48,216.18,591.62,216.16,591.63,216.25Z" style="fill:#1a2e35"/><path d="M592.78,211.46a58.06,58.06,0,0,1,1.18,8.17.08.08,0,0,1-.16,0,56,56,0,0,1-1.38-8.14C592.39,211.3,592.74,211.26,592.78,211.46Z" style="fill:#1a2e35"/><path d="M602.6,188.86c0-.1.16-.07.16,0a20.76,20.76,0,0,1-.84,5.64c0,.15-.26.08-.23-.07C602.06,192.59,602.29,190.72,602.6,188.86Z" style="fill:#1a2e35"/><path d="M594.21,266.6s-3.54-32.09-14.81-46.79S551.83,199,551.83,199,565.4,254.62,594.21,266.6Z" style="fill:#45c2e3"/><path d="M573.87,241.44a120.74,120.74,0,0,0,14.5,14.11c-2.69-6.3-5.67-12.45-8.89-18.47-5.75-3.83-11.47-7.84-15.44-13.59-.06-.1.07-.2.14-.11,4.12,5,9.23,8.8,14.57,12.38a250.19,250.19,0,0,0-16.45-26.15.2.2,0,0,1,.32-.25,154.93,154.93,0,0,1,9.94,13.55c-1.31-3.31-2.46-6.71-3.79-10a.08.08,0,1,1,.14-.06,58.35,58.35,0,0,1,5.56,13.07,163.57,163.57,0,0,1,11,20.84c-.87-4.77-1.8-9.5-2.93-14.22,0-.09.13-.13.16-.05a77.89,77.89,0,0,1,3.51,15.94q2.94,6.9,5.24,14c0,.13-.14.21-.19.08-.77-2-1.58-3.92-2.4-5.86,0,0-.07,0-.11,0-5.57-4.29-11-9.29-14.89-15.18A0,0,0,1,1,573.87,241.44Z" style="fill:#1a2e35"/><path d="M559.81,216.8c1.17,1,2.26,2,3.39,3a25.68,25.68,0,0,1,3,2.74.05.05,0,0,1-.06.08,15.52,15.52,0,0,1-3.45-2.61,25.51,25.51,0,0,1-3.06-3.09A.09.09,0,0,1,559.81,216.8Z" style="fill:#1a2e35"/><path d="M619.91,263.29l-1.16,15.29-3.52,46.22H584.55L581,278.58l-1.16-15.29h40Z" style="fill:#375a64"/><path d="M619.91,263.29l-1.16,15.29H581l-1.16-15.29h40Z" style="fill:#2b454e"/><rect x="577.14" y="255.78" width="45.5" height="11.72" transform="translate(1199.78 523.29) rotate(180)" style="fill:#375a64"/><path d="M186,370.37c-2.06.67-60.72.15-62.94-1.28-.85-.54-1.27-9.09-1.49-19.43,0-2.23-4.48-38.23-4.48-38.23l39.22.23,3.08,38.22S181.72,360.13,184,362,188,369.7,186,370.37Z" style="fill:#ff9581"/><path d="M186,370.38c-2.05.66-60.71.15-62.94-1.29-.66-.43-1.07-5.83-1.32-13.18,10,1.51,44,6.55,51.54,5.81,5.11-.5,1.82-3.65-1.85-6.22,5.71,2.72,11.52,5.58,12.61,6.46C186.26,363.8,188,369.71,186,370.38Z" style="fill:#1a2e35"/><path d="M61.21,166.1s44.59,78,45.74,83.49c1.77,8.38,12.1,99.72,12.1,99.72l43.88-.27s-8.68-81.55-16.12-105.62c-4.06-13.15-25.42-48.77-35.43-66.35-.9-1.57-.63-8.76-.63-8.76Z" style="fill:#375a64"/><path d="M158.71,341.72c-6.8-.13-27.4-.7-36.47,0a.07.07,0,0,0,0,.13c3.12.49,29.67.16,36.47,0A.1.1,0,1,0,158.71,341.72Z" style="fill:#1a2e35"/><path d="M68.9,173.31c2.92,4.71,6,9.34,9,14s6,9.37,8.92,14.08q8.83,14.13,17.23,28.5A85.7,85.7,0,0,1,111,243.79a84.64,84.64,0,0,1,3.82,14.92c.86,5.1,1.41,10.24,1.92,15.38q.83,8.21,1.63,16.42c1.11,11.2,3.64,31.08,4.75,42.28.14,1.37.27,2.74.39,4.12,0,.2-.34.24-.37,0-1.25-11.13-3.69-31-4.82-42.11l-1.68-16.64c-.53-5.16-1-10.32-1.76-15.46a102,102,0,0,0-3.15-15,72.6,72.6,0,0,0-6.37-14.58c-5.38-9.53-11.07-18.91-16.77-28.27S77,186.07,71,176.8c-.74-1.15-1.49-2.29-2.26-3.41C68.69,173.3,68.84,173.22,68.9,173.31Z" style="fill:#1a2e35"/><path d="M78.86,373.56C76.7,373.4,21.2,350.11,19.67,348a.77.77,0,0,1-.08-.41c0-1.92,4-8.59,7.31-17.36.21-.56,19.26-32.74,19.26-32.74l36.28,14.94-20.56,32.2S78.77,362.47,80.18,365,81,373.71,78.86,373.56Z" style="fill:#ff9581"/><path d="M78.86,373.56C76.7,373.4,21.2,350.12,19.67,348a.77.77,0,0,1-.08-.41c0-1.54,2.59-6.16,5.33-12.47,10,7.37,41.34,26.85,47.24,27.27,3.11.22.53-4.92-1.52-8.35,4.36,4.75,8.86,9.77,9.55,11C81.59,367.57,81,373.71,78.86,373.56Z" style="fill:#ebb31f"/><path d="M65.15,345.39l-40.61-17s53.87-82.31,54.31-87.84c.4-4.9-21.3-47.86-22-60.31-.78-13.44,5.82-23.75,13-30.11l40.93,18.16s-3.58,7.3-10.63,11.17c0,0,21,49.61,19.57,64.77S65.15,345.39,65.15,345.39Z" style="fill:#375a64"/><path d="M67.06,337.65c-5.87-2.61-4.15-1.94-10.05-4.49-2.89-1.24-21.87-9.41-24.76-10.1-.07,0-.11.09,0,.12,2.52,1.59,21.63,9.42,24.54,10.61,5.95,2.43,4.27,1.67,10.24,4A.09.09,0,1,0,67.06,337.65Z" style="fill:#1a2e35"/><path d="M107.06,178.67a78.64,78.64,0,0,0-12.87,4,.13.13,0,0,0,.08.25c4.32-1.2,8.71-2.32,13-3.75A.26.26,0,0,0,107.06,178.67Z" style="fill:#1a2e35"/><path d="M102.09,176.87a18.79,18.79,0,0,0-1.11,2.25,5.27,5.27,0,0,0-.58,1.88c0,.13.17.16.25.08a6.28,6.28,0,0,0,1.08-1.77c.37-.69.75-1.37,1.1-2.07C103.06,176.77,102.35,176.43,102.09,176.87Z" style="fill:#1a2e35"/><path d="M102.65,172.92c.27-.64.53-1.29.81-1.93s.63-1.31.87-2c0-.11.2,0,.16.08-.27.64-.44,1.33-.66,2s-.44,1.33-.67,2c-.43,1.23-1,2.46-1.49,3.65a4.62,4.62,0,0,0,2-.33,3.6,3.6,0,0,0,1.45-1.7c.38-.72.73-1.45,1.12-2.17a15.67,15.67,0,0,0,1.2-2.43c0-.1.2,0,.16.08a28,28,0,0,1-2.3,5.16c-.4.64-.72,1.31-1.44,1.55a5.89,5.89,0,0,1-2.4.13c-.1,0-.23,0-.19-.16A39.68,39.68,0,0,1,102.65,172.92Z" style="fill:#1a2e35"/><path d="M100.76,181.1c1.45,3.19,2.73,6.37,4.09,9.54s2.57,6.25,3.78,9.41c2.43,6.37,4.6,12.86,6.49,19.42q1.41,4.86,2.57,9.79a71,71,0,0,1,1.82,10,26.34,26.34,0,0,1-1,10c-1,3.31-6.4,14.54-7.94,17.63-.94,1.88-1.25,1.62-.79.67,1.29-2.7,8.73-18.3,9.11-24.75.2-3.34-1.2-8.07-1.92-11.33s-1.56-6.63-2.46-9.91c-1.8-6.46-3.94-12.8-6.15-19.14-1.23-3.54-2.56-7.06-3.82-10.6s-2.58-6.78-4-10.67C100.56,181.06,100.71,181,100.76,181.1Z" style="fill:#1a2e35"/><path d="M69.9,170.24c.73-.26,1.74.2,2.49.33a20,20,0,0,0,2.89.33,21.19,21.19,0,0,0,2.87-.06,6.22,6.22,0,0,0,2.75-.69,14,14,0,0,0,3.55-3.68,21.68,21.68,0,0,0,2.79-4.76c0-.1.19,0,.15.07-.32,1-.56,2-1,2.91a18.64,18.64,0,0,1-1.38,2.57,11.06,11.06,0,0,1-3.69,4.08c-1.7.95-3.88.86-5.77.73a22,22,0,0,1-3.24-.47c-.77-.18-2.07-.32-2.56-1A.25.25,0,0,1,69.9,170.24Z" style="fill:#1a2e35"/><path d="M36.29,320.77c6.83-10.07,35.58-59.57,42-69.95a43.94,43.94,0,0,0,4.29-7.73c1.09-3,.53-5.92-.39-8.88a146.46,146.46,0,0,0-6.07-15.92c-2.29-5.22-4.76-10.35-7.19-15.5a146.45,146.45,0,0,1-6.78-15.6,26.54,26.54,0,0,1-.91-15.69c1.43-5.23,4.44-9.9,7.57-14.26l2.5-3.44c.07-.08.2,0,.13.11-3.45,4.54-6.82,9.35-8.88,14.71a25.64,25.64,0,0,0-1.79,8.28A26.92,26.92,0,0,0,62,185.4c1.58,5.36,4.13,10.45,6.49,15.49s4.91,10.29,7.24,15.49a163.72,163.72,0,0,1,6.32,16c.79,2.43,1.68,5,1.59,7.56-.09,2.83-1.47,5.37-2.91,7.74C74.49,258,45.88,307.14,39.09,317.17L36.51,321C36.41,321.12,36.18,320.93,36.29,320.77Z" style="fill:#1a2e35"/><path d="M73.79,71.77c-8.62,7.39-6.22,18.17-9.82,24-2.2,3.57-9.37,7.35-10.8,11.46-2.34,6.77,3.4,9.2,2.11,12.88-1.81,5.21-8.79,4.81-10.05,13.33s8.13,17.6,30.39,20,34.49-5.69,35.29-12.92-6.61-9.64-7.11-15c-.32-3.45,4.25-5.85,4.48-12.2s-6-8.42-6.84-13.82,2-18.5-6-25.2S78,68.13,73.79,71.77Z" style="fill:#1a2e35"/><path d="M74.79,72a18.2,18.2,0,0,0-5.72,6.6,40.57,40.57,0,0,0-3.19,8.75,23.51,23.51,0,0,1-1.73,5.24,13.26,13.26,0,0,1-3,3.69c-2.41,2.18-5.29,3.83-7.45,6.28s-3.64,5.42-2.82,8.58c.44,1.72,1.57,3.12,2.28,4.72s.93,3.41-.37,4.67c-1.11,1.08-2.73,1.57-4,2.46a14.09,14.09,0,0,0-3.25,3.15,10.85,10.85,0,0,0-2,8.56c1.31,6.93,7.81,10.86,13.81,13.35l2.51,1c.13.05.24-.13.11-.19-6-2.7-13-5.86-15.32-12.59a10.17,10.17,0,0,1,1-8.94A13,13,0,0,1,48.85,124c1.21-.9,2.61-1.45,3.84-2.3A4.06,4.06,0,0,0,54.58,118a10,10,0,0,0-1.65-4.43,8.14,8.14,0,0,1-1.42-4.66,9,9,0,0,1,1.78-4.45c1.87-2.66,4.65-4.4,7.13-6.41a15,15,0,0,0,5.42-7.49c.46-1.59.75-3.22,1.15-4.83a42.79,42.79,0,0,1,1.33-4.4A20.93,20.93,0,0,1,73,73.6a11.55,11.55,0,0,1,1.84-1.51C74.94,72,74.86,71.92,74.79,72Z" style="fill:#1a2e35"/><path d="M111.9,135.28a8.36,8.36,0,0,0-1.54-3.24c-.77-1-1.71-1.81-2.57-2.71a6.39,6.39,0,0,1-1.82-3,6,6,0,0,1,1-4,30.2,30.2,0,0,0,2-3.88,14.07,14.07,0,0,0,.85-4.15,14.28,14.28,0,0,0-2.24-8.28c-.76-1.24-1.61-2.43-2.38-3.66a17.81,17.81,0,0,1-2-4.33c-1-3.35-1.22-6.89-2-10.28a53.1,53.1,0,0,0-3.62-10.1c0-.08-.15,0-.12.07a46,46,0,0,1,3.17,9.12c.7,3,1,6,1.5,9a19.42,19.42,0,0,0,3.06,8.06c1.51,2.45,3.06,4.87,3.48,7.78a13.58,13.58,0,0,1-1.44,8.33c-1.17,2.22-2.81,4.66-1.78,7.25.86,2.19,3,3.51,4.34,5.33a8.79,8.79,0,0,1,1.51,7c-1.2,6.24-7.45,9.33-13.3,9.64a.14.14,0,0,0,0,.28c5.09-.06,10.62-2.29,13-7.05A10.75,10.75,0,0,0,111.9,135.28Z" style="fill:#1a2e35"/><path d="M98.57,118.59c14,12.68,32.26,26,41.84,23.41,8.65-2.39,20.64-13.43,33.72-25.33,2.6-2.36-16.84-21.61-19.36-18.82-5,5.51-15,19.41-18.92,21.11-1.69.73-21.61-7.77-34.58-11.85C85.52,102.17,93,113.54,98.57,118.59Z" style="fill:#ff9581"/><path d="M184.65,112.14c-4.56,3.35-12,7.85-15.37,8.38-3.17.5-16.65-19.92-14.64-22.53,6.28-8.1,18.84-14,24.6-13.75S189.38,108.67,184.65,112.14Z" style="fill:#ff9581"/><path d="M19.54,287.65c10.64,5.76,30.13,8.09,39.08-9.31s33.54-112.65,35-114.8,92.26-82.23,94.2-83S468.29,6.1,468.29,6.1" style="fill:none;stroke:#1a2e35;stroke-miterlimit:10"/><path d="M170.3,85.65c-1.15,2.77,2.77,2.54,2.77,2.54s-5.56,1.69-5.64,5,4.65,2.74,5,2.71c-.29.1-5.36,1.79-5.1,5.12s4.94,2.21,5.24,2.13c-.24.17-3.51,2.53-2.73,5,1.33,4.28,9.84-1.51,13.38-.69,0,0,1.09,4.74,1.11,4.92,0,0,6.4-3.93,7.25-8.76a3.13,3.13,0,0,0-1.84-3.46s2.84-1.44,2.72-4.07c-.07-1.35-2.29-2.45-2.29-2.45a3.93,3.93,0,0,0,2-3.57c-.2-1.87-2.4-2.68-2.4-2.68s1.58-2.18.76-4C188.84,79.68,172.76,79.73,170.3,85.65Z" style="fill:#ff9581"/><path d="M189.4,87.23a0,0,0,1,0,0-.08,27.88,27.88,0,0,0-16.56,1c-.17.07-.13.37.07.33A57,57,0,0,1,189.4,87.23Z" style="fill:#1a2e35"/><path d="M190.24,93.63c.06,0,.07-.1,0-.11a26.07,26.07,0,0,0-18,2.25c-.19.1-.26.39,0,.28C176.07,94.28,185.06,93.2,190.24,93.63Z" style="fill:#1a2e35"/><path d="M172.25,103.5c5.44-2.75,11.22-3.49,17.26-3.39.08,0,.07-.11,0-.13-3-.85-6.8-.51-9.78,0a16.09,16.09,0,0,0-7.58,3.33C172.07,103.38,172.14,103.56,172.25,103.5Z" style="fill:#1a2e35"/><path d="M173.07,88.19a17.81,17.81,0,0,0-3,1.55A6,6,0,0,0,167.85,92a2.06,2.06,0,0,0-.13,1.44,2.91,2.91,0,0,0,.77,1.27,3.53,3.53,0,0,0,2.81.78l2.45-.26-2.21,1.1a10.17,10.17,0,0,0-2.66,1.88,3.62,3.62,0,0,0-1.22,2.67,2.06,2.06,0,0,0,1.64,2,6.26,6.26,0,0,0,3.11-.22l2.79-.82-2.36,1.69a9.42,9.42,0,0,0-1.77,1.63,3.93,3.93,0,0,0-1,2A1.86,1.86,0,0,0,171,109a4.11,4.11,0,0,0,2.27.31,32.16,32.16,0,0,0,4.93-1.06c.83-.22,1.66-.43,2.5-.61a6.11,6.11,0,0,1,2.55-.14,6.69,6.69,0,0,0-2.5.37c-.81.24-1.62.51-2.42.79a26.59,26.59,0,0,1-5,1.35,4.82,4.82,0,0,1-2.73-.28,2.63,2.63,0,0,1-1.35-2.55,4.73,4.73,0,0,1,1.13-2.55,10,10,0,0,1,1.94-1.85l.43.86a7.21,7.21,0,0,1-3.67.28,3,3,0,0,1-1.71-1.06,3.37,3.37,0,0,1-.66-1.88,4.55,4.55,0,0,1,1.54-3.39,11,11,0,0,1,3-2l.24.83A4.3,4.3,0,0,1,168,95.24a3.69,3.69,0,0,1-.87-1.63,2.58,2.58,0,0,1,.25-1.83,6.31,6.31,0,0,1,2.57-2.3A15.18,15.18,0,0,1,173.07,88.19Z" style="fill:#1a2e35"/><path d="M156.31,96S170,73.89,175.74,82.62c1.71,2.59,5.63,15.27,3.1,16.11-3.27,1.08-5.9-3.91-7.05-7.3,0,0-3.15,7.61-9.11,7A13.89,13.89,0,0,1,156.31,96Z" style="fill:#ff9581"/><path d="M175.22,81.92A12.72,12.72,0,0,1,177.14,85a26.38,26.38,0,0,1,1.32,3.43,42.21,42.21,0,0,1,1.67,7.17,7.08,7.08,0,0,1,0,2,2.67,2.67,0,0,1-.4,1,1.94,1.94,0,0,1-.42.45,1.91,1.91,0,0,1-.55.28,3,3,0,0,1-2.13-.12A5.84,5.84,0,0,1,175,98.11,11,11,0,0,1,172.78,95a25.92,25.92,0,0,1-1.39-3.43h.8A15.05,15.05,0,0,1,170.78,94,13.65,13.65,0,0,1,169,96.13a9.05,9.05,0,0,1-2.3,1.58,7.27,7.27,0,0,1-2.65.72,8.25,8.25,0,0,0,2.51-1,9.62,9.62,0,0,0,2.06-1.7,12.78,12.78,0,0,0,1.63-2.11,14.66,14.66,0,0,0,1.2-2.37l.39-1,.4,1a27.31,27.31,0,0,0,1.45,3.27,10.83,10.83,0,0,0,2,2.81,3,3,0,0,0,2.77,1c.8-.2.84-1.54.74-2.67a34.32,34.32,0,0,0-.55-3.55c-.23-1.18-.47-2.37-.77-3.53A23.45,23.45,0,0,0,175.22,81.92Z" style="fill:#1a2e35"/><path d="M121.72,138.2l7.54-21.73s-18.39-8.41-28.91-10.67S87.19,108,96.61,117.65,121.72,138.2,121.72,138.2Z" style="fill:#45c2e3"/><path d="M125.41,116c-1.34,2.81-2.44,5.75-3.53,8.67s-2.07,5.82-2.92,8.79c0,.06.07.09.09,0,1.21-2.88,2.31-5.8,3.39-8.73s2.17-5.78,3.08-8.73C125.53,115.92,125.43,115.89,125.41,116Z" style="fill:#1a2e35"/><path d="M125.59,127.05l-3.88,11.15S106,127.32,96.61,117.65c-3.24-3.33-5-6-5.61-8.07Z" style="opacity:0.1"/><path d="M111.49,169l-52.87-9.17s12.79-37.47,24-50.9c5.48-6.59,13.54-3.91,16.85-1,1,.91,11.36,15.14,12.38,21.07.87,5.23-2.7,10.82-2.7,10.82Z" style="fill:#45c2e3"/><path d="M100.68,137.64a49,49,0,0,0-7.12,1.19c-1.16.3-2.3.65-3.43,1l-1.71.52a7.67,7.67,0,0,1-1.84.35,0,0,0,0,0,0,.08,13,13,0,0,0,1.77,0,14,14,0,0,0,1.69-.32c1.17-.3,2.34-.64,3.51-1,2.38-.61,4.75-1.23,7.16-1.67C100.82,137.82,100.79,137.63,100.68,137.64Z" style="fill:#1a2e35"/><path d="M106.61,139.76a53.74,53.74,0,0,0-6-.28c-1,0-2,.09-3,.19-.47,0-.94.1-1.41.16s-1,.2-1.55.26c0,0,0,.09,0,.09.49,0,1,0,1.48,0l1.49,0c1,0,2,0,3-.08,2-.07,4-.12,5.94-.12C106.72,139.92,106.71,139.77,106.61,139.76Z" style="fill:#1a2e35"/><path d="M76.63,112.23c-20.19,17-39.46,54.87-31.2,59.56,7.56,4.28,33.06,4,43.68,2.67,3.11-.38-.36-24.6-3.69-24.19-4,.49-14.23.8-14.63.73-.86-.16,11.9-26.72,16-36.49C92.47,100.89,84.22,105.85,76.63,112.23Z" style="fill:#ff9581"/><path d="M117.32,148.38a3.76,3.76,0,0,1-.79,4.2,5.55,5.55,0,0,1,2.34,3c.63,2.2-2.55,4.14-2.55,4.14a6.86,6.86,0,0,1,2,3.52c.39,2.16-2.54,4.58-2.54,4.58a6,6,0,0,1-.21,4.19c-1.67,3.47-7.52,4.13-11.24,4.58s-14.68-1.73-16.82-1.94l-3.12-23.82s16.08-6.78,20.53-6.7C108.63,144.16,116,145.76,117.32,148.38Z" style="fill:#ff9581"/><path d="M116.31,152.22c-4-1-8-.84-12.07-.87a.07.07,0,0,0,0,.14c4,0,8,.77,12.05.92A.1.1,0,0,0,116.31,152.22Z" style="fill:#1a2e35"/><path d="M116.2,159.38a10.84,10.84,0,0,0-2.79-.08c-1,0-2,.1-3,.18q-3,.21-5.92.59c-.08,0-.09.14,0,.14q3-.22,5.92-.32l3-.07a12.39,12.39,0,0,0,2.79-.17A.14.14,0,0,0,116.2,159.38Z" style="fill:#1a2e35"/><path d="M115.66,167.78a7.32,7.32,0,0,0-2.51.07q-1.35.14-2.7.24c-1.8.15-3.6.3-5.4.39-.09,0-.09.15,0,.14,1.83-.08,3.67-.13,5.5-.23l2.69-.16a6.91,6.91,0,0,0,2.44-.36S115.7,167.8,115.66,167.78Z" style="fill:#1a2e35"/><path d="M54.94,133.74l21.14,9.08s9.7-17.74,12.71-28.08-1.23-13.28-11.55-4.57S54.94,133.74,54.94,133.74Z" style="fill:#45c2e3"/><path d="M76.83,138.29c-2.71-1.54-5.56-2.84-8.4-4.13s-5.66-2.49-8.56-3.55c0,0-.09.07,0,.1,2.79,1.4,5.62,2.71,8.46,4s5.62,2.59,8.5,3.7C76.85,138.42,76.89,138.32,76.83,138.29Z" style="fill:#1a2e35"/><path d="M86,122.51c-1.35,3.53-2.89,7-4.52,10.37q-1.22,2.55-2.54,5.06c-.9,1.66-1.77,3.33-2.78,4.93l-.06.09-.08,0-1.5-.76c.54.17,1.06.36,1.59.56l-.14,0,2.39-5.11,2.46-5.09c.83-1.69,1.65-3.38,2.53-5S85.09,124.16,86,122.51Z" style="fill:#1a2e35"/><path d="M82,131a16,16,0,0,1,1.49-2.61,15.61,15.61,0,0,1,1.9-2.33,16.77,16.77,0,0,1-1.49,2.61A16.25,16.25,0,0,1,82,131Z" style="fill:#1a2e35"/><path d="M86.53,108.13c.5.8,6.59,5.1,10.54,3.57,1.28-.5-1.13-7.63-1.13-7.63l-.06-.57-.82-7.94L84.52,92.89,83,92.57s.36,2.16.85,4.84c0,.13,0,.25.07.38s0,.3.07.44c.07.4.14.81.22,1.22s.11.61.18.93.14.65.2,1A54.34,54.34,0,0,0,86.53,108.13Z" style="fill:#ff9581"/><path d="M83.87,97.41a16,16,0,0,0,12,6.09l-.82-7.94L84.52,92.89,83,92.57S83.38,94.73,83.87,97.41Z" style="fill:#1a2e35"/><path d="M102.33,79.86c5.92,12.7-1,17.68-3.75,19-2.49,1.16-11.11,4.78-18.31-7.24s-3.18-18.79,2.37-21.74S96.4,67.16,102.33,79.86Z" style="fill:#ff9581"/><path d="M97.09,77.08a8.14,8.14,0,0,1-1,.22,1.5,1.5,0,0,1-1,0,.5.5,0,0,1-.26-.55,1.23,1.23,0,0,1,1-.77,1.85,1.85,0,0,1,1.31.09A.53.53,0,0,1,97.09,77.08Z" style="fill:#1a2e35"/><path d="M90.32,83.5c.32-.1.59-.23.9-.36a1.59,1.59,0,0,0,.85-.53A.5.5,0,0,0,92,82a1.24,1.24,0,0,0-1.25-.09,1.83,1.83,0,0,0-1,.83A.53.53,0,0,0,90.32,83.5Z" style="fill:#1a2e35"/><path d="M93,84.22s0,.07,0,.11c.45.84.82,1.88.19,2.55,0,0,0,.06,0,0C94.1,86.32,93.59,84.94,93,84.22Z" style="fill:#1a2e35"/><path d="M91.82,83.7c-1.43.58-.17,3.39,1.15,2.86S93,83.22,91.82,83.7Z" style="fill:#1a2e35"/><path d="M91.33,84.1c-.17.27-.29.66-.57.82s-.72,0-1.07-.17c0,0,0,0,0,0,.23.54.69,1,1.3.82s.72-.81.62-1.41C91.56,84.1,91.4,84,91.33,84.1Z" style="fill:#1a2e35"/><path d="M97.67,81.67s.09,0,.1,0c.36.89.92,1.84,1.83,1.79,0,0,.05,0,0,0C98.6,83.85,97.87,82.57,97.67,81.67Z" style="fill:#1a2e35"/><path d="M98.05,80.42c1.36-.72,2.71,2,1.45,2.72S96.91,81,98.05,80.42Z" style="fill:#1a2e35"/><path d="M98.72,80.32c.29,0,.64.2.91.09s.39-.53.44-.92c0,0,0,0,.06,0,.27.53.36,1.16-.1,1.51s-1,0-1.36-.43C98.6,80.49,98.6,80.3,98.72,80.32Z" style="fill:#1a2e35"/><path d="M96,91.33a1.41,1.41,0,0,0,1,.23,2.61,2.61,0,0,0,.87-.6,0,0,0,0,1,.05,0,1.27,1.27,0,0,1-.93.93,1,1,0,0,1-1-.51S96,91.32,96,91.33Z" style="fill:#1a2e35"/><path d="M98.2,86.53s.78,1.21,1.06,1.82c0,.06-.11.15-.31.26h0a3.18,3.18,0,0,1-3.32.22.07.07,0,0,1,0-.12,4.92,4.92,0,0,0,3-.47c0-.19-1.4-2-1.31-2.08a5.74,5.74,0,0,1,1.53-.33c-1.54-2.57-3.49-4.87-5-7.45,0-.09.08-.19.14-.11a48,48,0,0,1,5.72,7.79C100,86.4,98.49,86.52,98.2,86.53Z" style="fill:#1a2e35"/><path d="M98.48,88.64a3.63,3.63,0,0,1-.85,1.6,1.66,1.66,0,0,1-.87.45c-.72.12-1-.47-1.11-1a3.6,3.6,0,0,1-.05-.9A4.61,4.61,0,0,0,98.48,88.64Z" style="fill:#1a2e35"/><path d="M97.63,90.24a1.66,1.66,0,0,1-.87.45c-.72.12-1-.47-1.11-1A1.67,1.67,0,0,1,97.63,90.24Z" style="fill:#ff9cbf"/><path d="M81.65,92.27c3-1.73-1-11.75-1.54-13,.37.75,2.31,4.74,2.69,4.74a3.66,3.66,0,0,0,.88-.69h0a9.72,9.72,0,0,1-.63-1.46c-.08-.23.33.43.9,1.22l.49-.46a12.9,12.9,0,0,1-1.27-3.15c-.1-.41.87,1.2,2,2.48a41.91,41.91,0,0,1,7.38-5.67c.76-.44,1.43-.78,2-1.06a23.55,23.55,0,0,1-1.15-2.1A12,12,0,0,1,95,75c.33-.15.64-.28.92-.39C95.19,73,93,70.76,93.52,71a13,13,0,0,1,3.68,3.21c1.23-.37,1.66-.31,1.54-.62a14.08,14.08,0,0,0-8.2-7c-5.79-1.63-14.39,2.14-15.82,10,0,0-3.65,5.54-2.25,9.62S79.89,93.27,81.65,92.27Z" style="fill:#1a2e35"/><path d="M82.74,91.61s-4.37-3.06-5.86-1.35,2.84,6.87,5.33,6.89a2.37,2.37,0,0,0,2.54-2.29Z" style="fill:#ff9581"/><path d="M78.16,91.71a0,0,0,0,0,0,.06,6,6,0,0,1,4.2,2.46,1.3,1.3,0,0,0-2,.34s0,.09.07.06a1.46,1.46,0,0,1,1.68-.07,7.11,7.11,0,0,1,1.17,1c.12.11.34-.06.23-.2l0,0C82.85,93.32,80.33,91.14,78.16,91.71Z" style="fill:#1a2e35"/><path d="M96,104.06l-.92,6.85L85.37,105l-1.55,3.08s10.72,10.57,10.63,10l1.2-6,4.64,2.78-2.68-9.27Z" style="fill:#ececec"/><path d="M99.23,110.2c-.5-1.51-1-3.06-1.51-4.55,0-.05-.11-.05-.11,0,.07,1.57,2,7.36,2.34,8.78h0c-.19-.12-4.25-2.41-4.27-2.35-.34,1-1.23,5.36-1.27,5.75-1.7-1.68-8.75-8.21-10.64-9.73-.06,0-.13,0-.08.08,1.59,1.82,10.75,10.48,10.84,10.43a61.52,61.52,0,0,0,1.24-6.34,42.16,42.16,0,0,0,4.88,3A51.84,51.84,0,0,0,99.23,110.2Z" style="fill:#1a2e35"/><path d="M112.24,68.7A13.32,13.32,0,0,1,110,61.33c0-9.34,10.26-16.91,22.9-16.91s22.9,7.57,22.9,16.91-10.25,16.92-22.9,16.92a27.49,27.49,0,0,1-15.79-4.68l-7.89,2Z" style="fill:#ebb31f"/><path d="M141.1,61.33A2.38,2.38,0,1,0,143.47,59,2.37,2.37,0,0,0,141.1,61.33Z" style="fill:#1a2e35"/><circle cx="132.86" cy="61.33" r="2.37" style="fill:#1a2e35"/><circle cx="122.25" cy="61.33" r="2.37" style="fill:#1a2e35"/><g style="isolation:isolate"><path d="M265.78,342l-80.69,14.6c-43.4,7.25-95.2,9.27-170.25,1.59L96,344.62C161.56,350,222.39,349.25,265.78,342Z" style="fill:#45c2e3"/><path d="M270.81,368.36,184.2,382.61c29.41-4.92,60.14-13.38,81.88-24.08,120.6-58.31,171.31-260.27,172-262.2H535.2c-.72,1.93-12.16,35-60.59,127.25C444.66,278.4,400.39,318.78,347.19,345,325.45,355.67,300.22,363.44,270.81,368.36Z" style="fill:#45c2e3"/><g style="opacity:0.30000000000000004"><path d="M270.81,368.36,184.2,382.61c29.41-4.92,60.14-13.38,81.88-24.08,120.6-58.31,171.31-260.27,172-262.2H535.2c-.72,1.93-12.16,35-60.59,127.25C444.66,278.4,400.39,318.78,347.19,345,325.45,355.67,300.22,363.44,270.81,368.36Z" style="fill:#fff"/></g><path d="M415.55,86.21l22.56,10.12c-.72,1.93-48.49,200.44-172,262.2-75.29,37.63-139.68,35.38-250.45,26.23l-.79-26.58c107.61,8.89,190.19,2.38,241.67-24.58C372.7,272.79,415.38,86.67,415.55,86.21Z" style="fill:#45c2e3"/><g style="opacity:0.1"><path d="M415.55,86.21l22.56,10.12c-.72,1.93-48.49,200.44-172,262.2-75.29,37.63-139.68,35.38-250.45,26.23l-.79-26.58c107.61,8.89,190.19,2.38,241.67-24.58C372.7,272.79,415.38,86.67,415.55,86.21Z"/></g><polygon points="415.55 86.21 520.2 86.21 535.2 96.33 438.11 96.33 415.55 86.21" style="fill:#45c2e3"/></g><g style="isolation:isolate"><polygon points="495.26 21.16 563.31 107.48 402.94 107.05 495.26 21.16" style="fill:#45c2e3"/><g style="opacity:0.30000000000000004"><polygon points="495.26 21.16 563.31 107.48 402.94 107.05 495.26 21.16" style="fill:#fff"/></g><polygon points="402.94 107.05 375.36 85.89 467.68 0 495.26 21.16 402.94 107.05" style="fill:#45c2e3"/><g style="opacity:0.1"><polygon points="402.94 107.05 375.36 85.89 467.68 0 495.26 21.16 402.94 107.05"/></g></g><path d="M446.84,387.31c2,.64,59-.09,61.13-1.5.83-.52,1.21-8.83,1.37-18.88v-.32c0-2.07-5.26-36.82-5.26-36.82l-38.12.38,6.62,36.51,0,.62s-21.68,10-23.89,11.84S444.85,386.67,446.84,387.31Z" style="fill:#c36358"/><path d="M446.84,387.31c1,.33,16.51.29,31.64,0,3-.06,6.07-.13,8.95-.21,10.79-.3,19.71-.74,20.54-1.28s1.19-8.6,1.36-18.47c0-.13,0-.27,0-.41v-.33h0l-36.72.07,0,.63s-21.69,10-23.89,11.83S444.84,386.67,446.84,387.31Z" style="fill:#ebb31f"/><path d="M447.46,385.09c9.6-.36,48.36-.91,57.88-.53.08,0,.08.05,0,.06-9.5.56-48.27.8-57.88.63C447.26,385.25,447.26,385.1,447.46,385.09Z" style="fill:#1a2e35"/><path d="M468.49,366.84c3.77-.76,8.4-.24,11.32,2.42.11.1,0,.26-.16.22a53.29,53.29,0,0,0-11.14-2.17A.24.24,0,0,1,468.49,366.84Z" style="fill:#1a2e35"/><path d="M465.78,368.51c3.77-.75,8.4-.23,11.32,2.43.12.1,0,.26-.15.22A52.87,52.87,0,0,0,465.8,369,.24.24,0,0,1,465.78,368.51Z" style="fill:#1a2e35"/><path d="M463.07,370.19c3.77-.75,8.4-.23,11.33,2.43.11.1,0,.26-.16.22a52.78,52.78,0,0,0-11.14-2.17A.24.24,0,0,1,463.07,370.19Z" style="fill:#1a2e35"/><path d="M471.83,366.81h38.72s-13-81.61-12.64-83.28c.16-.87,50.07-89.14,50.07-89.14H504.19s-40.52,63.14-46.08,79C454.07,285,471.83,366.81,471.83,366.81Z" style="fill:#1a2e35"/><path d="M470.89,359.29c2.33-.19,4.66-.38,7-.49s4.67-.12,7-.17q7-.15,14-.22c1.33,0,2.66,0,4,0s2.67.13,4,0c.1,0,.09.15,0,.15-1.16,0-2.33.24-3.5.33s-2.33.2-3.49.27q-3.49.23-7,.37c-4.66.19-9.32.25-14,.27-2.66,0-5.32-.18-8-.37A.1.1,0,0,1,470.89,359.29Z" style="fill:#375a64"/><path d="M492.65,280.25a25.15,25.15,0,0,1,3.31-6.79l8.77-14.52q8.89-14.72,17.87-29.39c3-4.84,5.95-9.67,8.93-14.5,2.75-4.46,9-16.39,9.69-17.54,0-.08.19,0,.15.05-2,4.2-4.63,9.45-7.1,13.83-2.71,4.81-5.6,9.52-8.42,14.27-5.76,9.72-11.64,19.39-17.48,29.07-2.94,4.89-5.91,9.76-8.87,14.64-1.42,2.35-2.89,4.67-4.25,7.05a14.1,14.1,0,0,0-2.14,7.55,75.19,75.19,0,0,0,.9,8.33c.36,2.79.73,5.57,1.11,8.36q1.13,8.34,2.34,16.69,2.46,16.75,5.09,33.5c.22,1.38.45,2.77.68,4.16,0,.13-.18.18-.21.05-2-11.16-3.94-22.32-5.63-33.53s-3.23-22.45-4.71-33.69A20,20,0,0,1,492.65,280.25Z" style="fill:#375a64"/><path d="M632.84,390.4c-2,.63-59-.69-61.11-2.12-.82-.53-1.11-8.84-1.18-18.9v-.31c0-2.07-15.09-36.89-15.09-36.89l37.24.76,14.62,36.57,0,.62s21.58,10.26,23.76,12.08S634.84,389.79,632.84,390.4Z" style="fill:#c36358"/><path d="M632.84,390.4c-2,.63-59-.69-61.11-2.12-.82-.53-1.11-8.84-1.18-18.9v-.31s-2.54-7-2.55-7.27l36.77.65,2.55,7.06,0,.62s21.58,10.26,23.76,12.08S634.84,389.79,632.84,390.4Z" style="fill:#ececec"/><path d="M632.84,390.4c-2,.63-59-.69-61.11-2.12-.82-.53-1.11-8.84-1.18-18.9v-.31l36.77.44,0,.62s21.58,10.26,23.76,12.08S634.84,389.79,632.84,390.4Z" style="fill:#ebb31f"/><path d="M632.24,388.18c-9.59-.46-48.35-1.4-57.87-1.13-.08,0-.08.06,0,.06,9.5.67,48.26,1.3,57.87,1.23C632.44,388.33,632.45,388.19,632.24,388.18Z" style="fill:#1a2e35"/><path d="M611.4,369.71c-3.76-.79-8.39-.32-11.34,2.3-.12.11,0,.27.15.23a53,53,0,0,1,11.17-2.05A.24.24,0,0,0,611.4,369.71Z" style="fill:#1a2e35"/><path d="M614.09,371.42c-3.76-.8-8.39-.32-11.34,2.3-.12.1,0,.26.15.23a53.63,53.63,0,0,1,11.17-2.06A.24.24,0,0,0,614.09,371.42Z" style="fill:#1a2e35"/><path d="M616.78,373.12c-3.76-.79-8.39-.32-11.34,2.31-.12.1,0,.26.15.23a53,53,0,0,1,11.17-2.06A.24.24,0,0,0,616.78,373.12Z" style="fill:#1a2e35"/><path d="M508.79,194.39s5.25,32,5.61,33c0,0,2,.92,5.47,2.55L562.36,370l47,.16L553.57,194.39Z" style="fill:#1a2e35"/><path d="M512.69,226.41a76.09,76.09,0,0,1,11.73,6.14.13.13,0,0,1-.12.24c-4-1.92-8-3.77-11.85-5.91A.26.26,0,0,1,512.69,226.41Z" style="fill:#375a64"/><path d="M514.2,208.09c.65,3.82,1,7.71,1.44,11.57.1.92.21,1.85.31,2.77a5.34,5.34,0,0,0,.67,2.44,7.74,7.74,0,0,0,3.67,2.48c.15.07.09.31-.08.26a9,9,0,0,1-3.9-2.06c-1.23-1.31-1.19-3.28-1.38-5a106.74,106.74,0,0,1-.9-12.5A.09.09,0,0,1,514.2,208.09Z" style="fill:#375a64"/><path d="M518.86,209.26c.13,2.76.44,5.51.67,8.26.11,1.36.21,2.72.29,4.08a41.77,41.77,0,0,1,.2,4.18.09.09,0,0,1-.17,0c-.22-1.31-.25-2.67-.36-4s-.21-2.79-.29-4.19c-.15-2.78-.23-5.59-.48-8.36C518.71,209.17,518.85,209.17,518.86,209.26Z" style="fill:#375a64"/><path d="M524.86,235.82c3.26,7.94,38.07,121.77,38.44,122.76,0,.07-.09.13-.13.05-4.66-9.1-34.36-111.79-37.32-119.79l-1.11-3C524.71,235.8,524.83,235.75,524.86,235.82Z" style="fill:#375a64"/><path d="M562,362.12c1.36-.19,2.77-.18,4.13-.28s2.76-.12,4.14-.15c2.76-.07,5.52-.1,8.28-.13,5.48-.07,11-.09,16.44-.09,3.13,0,6.26.17,9.39.23a.08.08,0,0,1,0,.16c-2.76.11-5.51.28-8.27.38s-5.52.12-8.28.16c-5.56.08-11.13.17-16.69.16-1.54,0-3.08,0-4.63-.06s-3,0-4.53-.22C561.89,362.27,561.93,362.13,562,362.12Z" style="fill:#375a64"/><path d="M514.67,146.18c-9.35-6.63-23.45-22.78-26.24-29.15-3.59-8.2-9.89-36.47-7.05-39.77,1.56-1.82,22,.88,23.14,3.16s1.71,27.18,2,29.07,9.63,19.76,14.86,28.27C527.54,147.73,520.76,150.51,514.67,146.18Z" style="fill:#c36358"/><path d="M481.7,84a8.94,8.94,0,0,1-.95-5.44c.57-3,2.61-6.16,2-8-.9-2.88-3.67-7.48-2.59-8.52,2.24-2.15,5-.67,8.25,4.61.84,1.37,2.07,4.84,3.11,5,1.81.31,2.57-2.86,2.78-5.76.41-5.61-.14-13.84,3.58-14.9,1.4-.4,2.07,1.64,2.37,4.15.14-3.65.69-7.28,2.23-7.78a1.62,1.62,0,0,1,2,1,2.15,2.15,0,0,1,1.66-1.76c1.44-.24,2.44,1,3.14,2.85a1.22,1.22,0,0,1,1-.42c3.89.08,5.57,14.15,4.21,17.69a82,82,0,0,1-11.28,19.42C498.07,87.72,481.7,84,481.7,84Z" style="fill:#c36358"/><path d="M499.67,71.48a17.67,17.67,0,0,0,1.79-7.55c0-3.07-.84-6.08-1.14-9.12,0-.08-.14-.06-.13,0,.22,1.48.29,3,.45,4.49s.36,2.91.41,4.38a17.51,17.51,0,0,1-1.42,7.76S499.66,71.51,499.67,71.48Z" style="fill:#1a2e35"/><path d="M504.62,72.41a44.51,44.51,0,0,0,2.34-8.6c.42-3.23-.29-6.46-.95-9.61-.39-1.89-.83-3.77-1.3-5.64,0-.08-.15-.07-.13,0q1.05,4.83,1.81,9.72a23.28,23.28,0,0,1-.34,9.07c-.41,1.7-.94,3.37-1.48,5C504.56,72.42,504.61,72.44,504.62,72.41Z" style="fill:#1a2e35"/><path d="M509.66,72.16a22.41,22.41,0,0,0,2.22-7.74,39.52,39.52,0,0,0-1.11-9.83c-.38-1.73-.83-3.45-1.3-5.17,0-.07-.14,0-.12,0a93.1,93.1,0,0,1,2.15,11.71,18.72,18.72,0,0,1-.13,5.64,33.79,33.79,0,0,1-1.72,5.36S509.66,72.17,509.66,72.16Z" style="fill:#1a2e35"/><path d="M506.38,88.67l-25.85,5.47s5.47,20.25,7.71,25,20.11,25.14,27.09,28.81,11.58-.09,7.22-9.44-13.9-27.19-14.49-29.19S506.38,88.67,506.38,88.67Z" style="fill:#375a64"/><path d="M521,145.83a9.68,9.68,0,0,0-1.62,1.52,9.77,9.77,0,0,0,1.9-1.14,9.25,9.25,0,0,0,1.61-1.52A10,10,0,0,0,521,145.83Zm-6-10.28a10.48,10.48,0,0,0-.6,4.35,10.48,10.48,0,0,0,.6-4.35Zm-25.66-26.09a9.61,9.61,0,0,0-1.51-1.62,8.87,8.87,0,0,0,1.14,1.9,9.19,9.19,0,0,0,1.51,1.61A10,10,0,0,0,489.36,109.46Zm-4.77-16.18-.49.1a9.07,9.07,0,0,0,1.5,1.6A8.77,8.77,0,0,0,484.59,93.28Zm23.31,36.33a9.61,9.61,0,0,0-1.51-1.62,8.87,8.87,0,0,0,1.14,1.9A9.19,9.19,0,0,0,509,131.5,10,10,0,0,0,507.9,129.61Zm-5.38-17.87a9.19,9.19,0,0,0-1.61,1.51,9.5,9.5,0,0,0,1.89-1.14,9.19,9.19,0,0,0,1.61-1.51A9.5,9.5,0,0,0,502.52,111.74ZM498,90.45l-.15.17.53-.25Zm12.69,28.24a9.59,9.59,0,0,0-2.21-.07,10.48,10.48,0,0,0,4.35.6A9.57,9.57,0,0,0,510.66,118.69ZM492.78,99.25a9.59,9.59,0,0,0-2.21-.07,10.27,10.27,0,0,0,4.35.61A9.6,9.6,0,0,0,492.78,99.25Zm3,19.69a10.48,10.48,0,0,0-.6,4.35,10.48,10.48,0,0,0,.6-4.35ZM505.86,96a10.35,10.35,0,0,0-.61,4.36,10.79,10.79,0,0,0,.61-4.36Z" style="fill:#fff"/><path d="M505.29,95.9c-3.65,1-18.74,4.35-22.05,4.86-.23,0-.31-.1-.08-.17a205.76,205.76,0,0,1,22.09-4.83C505.34,95.74,505.38,95.88,505.29,95.9Z" style="fill:#1a2e35"/><path d="M515.33,147.9c-5-2.62-15.57-13.85-22-21.74l25.15,4c1.54,3.06,3,6,4.07,8.32C526.91,147.81,522.31,151.57,515.33,147.9Z" style="fill:#1a2e35"/><path d="M556.39,198.81S496,207.14,495.86,207c-.89-.71,2.25-65.27,4.64-70.81,2.57-5.94,10.57-9,15.08-6.52,11.29,6.31,25.61,32.08,29,40.08C550.26,183,556,195.21,556.39,198.81Z" style="fill:#375a64"/><path d="M507.9,129.61l0,0a3.34,3.34,0,0,0-.44.17l.09.13A9.19,9.19,0,0,0,509,131.5,10,10,0,0,0,507.9,129.61Zm-1.44,63.5a10.35,10.35,0,0,0-.61,4.36,10.79,10.79,0,0,0,.61-4.36Zm21-40.36a10.35,10.35,0,0,0-.61,4.36,10.79,10.79,0,0,0,.61-4.36ZM515,135.55a10.48,10.48,0,0,0-.6,4.35,10.48,10.48,0,0,0,.6-4.35Zm15.88,66.59a1.46,1.46,0,0,0-.07.19h.08A1.09,1.09,0,0,0,530.9,202.14Zm-13.57-26.46a10.48,10.48,0,0,0-.6,4.35,10.48,10.48,0,0,0,.6-4.35Zm-16-18a10.55,10.55,0,0,0-.6,4.36,10.55,10.55,0,0,0,.6-4.36Zm40.82,21.72a9,9,0,0,0-.54,2.15,9.57,9.57,0,0,0-.07,2.21,9.52,9.52,0,0,0,.53-2.15A9.06,9.06,0,0,0,542.16,179.4ZM531.63,147a6.79,6.79,0,0,0-.78,0,8,8,0,0,0,1,.32Zm-17.29,9a9.59,9.59,0,0,0-2.21-.07,10.27,10.27,0,0,0,4.35.61A9.6,9.6,0,0,0,514.34,156Zm17.95,19a9.59,9.59,0,0,0-2.21-.07,10.48,10.48,0,0,0,4.35.6A9.57,9.57,0,0,0,532.29,175Zm-33.83-3.44a12.43,12.43,0,0,0-1.38-.11c0,.1,0,.2,0,.3a12.72,12.72,0,0,0,1.34.27,9.59,9.59,0,0,0,2.21.07A9.52,9.52,0,0,0,498.46,171.53Zm36.78,24.54A9.59,9.59,0,0,0,533,196a10.55,10.55,0,0,0,4.36.6A9.79,9.79,0,0,0,535.24,196.07Zm-18.72-5.92a9.59,9.59,0,0,0-2.21-.07,10.55,10.55,0,0,0,4.36.6A9.79,9.79,0,0,0,516.52,190.15Zm-18.72-1.8a14,14,0,0,0-1.59-.11,2.18,2.18,0,0,0,0,.25,11.55,11.55,0,0,0,1.53.32,9.06,9.06,0,0,0,2.21.07A9.57,9.57,0,0,0,497.8,188.35ZM521,145.83a9.68,9.68,0,0,0-1.62,1.52,9.77,9.77,0,0,0,1.9-1.14,9.25,9.25,0,0,0,1.61-1.52A10,10,0,0,0,521,145.83Zm21.06,24.08a9.19,9.19,0,0,0-1.61,1.51,9.5,9.5,0,0,0,1.89-1.14,9.19,9.19,0,0,0,1.61-1.51A9.5,9.5,0,0,0,542.06,169.91Zm-18.51-3.1a9.19,9.19,0,0,0-1.61,1.51,9.5,9.5,0,0,0,1.89-1.14,9.19,9.19,0,0,0,1.61-1.51A9.5,9.5,0,0,0,523.55,166.81ZM548,194.39a8.83,8.83,0,0,0-1.61,1.51,10.67,10.67,0,0,0,3.51-2.65A8.87,8.87,0,0,0,548,194.39Zm-27,4.44a8.83,8.83,0,0,0-1.61,1.51,10.67,10.67,0,0,0,3.51-2.65A8.87,8.87,0,0,0,521,198.83Zm-15.53-18.76a8.83,8.83,0,0,0-1.61,1.51,10.67,10.67,0,0,0,3.51-2.65A8.87,8.87,0,0,0,505.46,180.07Zm19-42.48a3.25,3.25,0,0,0-.23-.29s0,0,0,0l-.81-.9,0,0a5,5,0,0,0-.42-.37,9.3,9.3,0,0,0,1.14,1.9,9.19,9.19,0,0,0,1.51,1.61A9.5,9.5,0,0,0,524.44,137.59Zm11.32,23.15a9.61,9.61,0,0,0-1.51-1.62,9.3,9.3,0,0,0,1.14,1.9,9.19,9.19,0,0,0,1.51,1.61A9.5,9.5,0,0,0,535.76,160.74Zm15.84,25.08h0a7.87,7.87,0,0,0-1.08-1.08,8.87,8.87,0,0,0,1.14,1.9c.2.25.38.49.6.73Zm-39,17.87a7.1,7.1,0,0,0,.56,1.06l.44-.06A7.27,7.27,0,0,0,512.56,203.69ZM498,202a9.61,9.61,0,0,0-1.51-1.62,8.87,8.87,0,0,0,1.14,1.9,9.19,9.19,0,0,0,1.51,1.61A10,10,0,0,0,498,202Zm31.44-15.66a9.61,9.61,0,0,0-1.51-1.62,8.87,8.87,0,0,0,1.14,1.9,9.19,9.19,0,0,0,1.51,1.61A10,10,0,0,0,529.46,186.35Zm-22.11-40a9.61,9.61,0,0,0-1.51-1.62,8.87,8.87,0,0,0,1.14,1.9,9.19,9.19,0,0,0,1.51,1.61A10,10,0,0,0,507.35,146.32Zm3.57,19.88a9.61,9.61,0,0,0-1.51-1.62,8.87,8.87,0,0,0,1.14,1.9,9.19,9.19,0,0,0,1.51,1.61A10,10,0,0,0,510.92,166.2Z" style="fill:#fff"/><path d="M503.32,139.18c2.83.47,10.11-5.11,11.39-9.63.09-.31-1-3.11-2.15-6.58-.69-2.11-1.42-4.48-1.92-6.68l-13.07,6.51a36,36,0,0,1,3.27,8.17,4.35,4.35,0,0,1,.11.92c0,.05,0,.1,0,.16C501.08,133.83,500.06,138.64,503.32,139.18Z" style="fill:#c36358"/><path d="M510,116.62c.2,3.1.27,13.21-7.56,15.18a9.49,9.49,0,0,1-1.44.25c0-.06,0-.11,0-.16a5.11,5.11,0,0,0-.11-.92,35.76,35.76,0,0,0-3.26-8.16Z" style="fill:#1a2e35"/><path d="M497.6,93.85s-5,.86-7,5.34-2,9.63-1.62,10S497.6,93.85,497.6,93.85Z" style="fill:#1a2e35"/><path d="M514.61,103.76c.37,5.25-5.46,18.82-9.67,21.18-6.11,3.42-14.49,2-17-5-2.43-6.75,5.49-24.31,10-26.28C504.71,90.73,514.06,96,514.61,103.76Z" style="fill:#c36358"/><path d="M498.12,109.77s.05.07,0,.11c-.44.89-.79,2-.1,2.66,0,0,0,.07,0,0C497.09,112,497.57,110.55,498.12,109.77Z" style="fill:#1a2e35"/><path d="M499.36,109.18c1.51.54.31,3.52-1.09,3S498.09,108.73,499.36,109.18Z" style="fill:#1a2e35"/><path d="M493,107.52s-.09,0-.11.06c-.34.93-.88,2-1.84,1.92,0,0-.05,0,0,0C492.13,109.82,492.85,108.46,493,107.52Z" style="fill:#1a2e35"/><path d="M492.58,106.23c-1.44-.71-2.75,2.23-1.42,2.88S493.79,106.82,492.58,106.23Z" style="fill:#1a2e35"/><path d="M501.78,106.82c-.44-.09-.83-.24-1.26-.37a2.05,2.05,0,0,1-1.22-.62.68.68,0,0,1,.06-.83,1.69,1.69,0,0,1,1.68-.27,2.52,2.52,0,0,1,1.49,1A.73.73,0,0,1,501.78,106.82Z" style="fill:#1a2e35"/><path d="M491.52,104.6c.33.31.68.54,1,.82a2.07,2.07,0,0,0,1.21.63.68.68,0,0,0,.64-.53,1.68,1.68,0,0,0-.76-1.52,2.47,2.47,0,0,0-1.67-.64A.72.72,0,0,0,491.52,104.6Z" style="fill:#1a2e35"/><path d="M496.34,117.94a1.48,1.48,0,0,1-1,.23,2.67,2.67,0,0,1-.9-.63s-.07,0-.06,0a1.33,1.33,0,0,0,1,1,1,1,0,0,0,1.05-.52S496.39,117.92,496.34,117.94Z" style="fill:#1a2e35"/><path d="M496.48,114.78a3.37,3.37,0,0,1-2.66.56,3.93,3.93,0,0,1-1.15-.4,1,1,0,0,1-.21-.11l-.19-.11a.24.24,0,0,1-.1-.28h0a.41.41,0,0,1,.05-.09h0l0-.08c.27-.72.77-1.77.77-1.77-.31,0-1.88.09-1.71-.27a51.56,51.56,0,0,1,5-9,.09.09,0,0,1,.16.09c-1.24,2.94-3,5.64-4.29,8.57a5.83,5.83,0,0,1,1.66.15c.09.07-1,2-1.1,2.35v0a4.65,4.65,0,0,0,3.66.3C496.51,114.64,496.56,114.73,496.48,114.78Z" style="fill:#1a2e35"/><path d="M493.23,114.75a4.07,4.07,0,0,0,1,1.76,1.84,1.84,0,0,0,1,.47c.82.1,1.11-.57,1.21-1.2a4.26,4.26,0,0,0,0-1A5.25,5.25,0,0,1,493.23,114.75Z" style="fill:#1a2e35"/><path d="M494.26,116.51a1.84,1.84,0,0,0,1,.47c.82.1,1.11-.57,1.21-1.2A1.85,1.85,0,0,0,494.26,116.51Z" style="fill:#ff9cbf"/><path d="M510,115.91c-1.67-.13-1.64-5.27-1.46-7.18.16-1.68,1.54-6.69,1.59-7s-8.15,1.74-11.48-.81-4.53-6.9-4-8.49,6.77-3.78,10.88-2.42,7.59,8.61,7.59,8.61a19.31,19.31,0,0,1-.86-3.09,4.73,4.73,0,0,1,2.09,3.94s.39-2.53.61-2.5,1.46,2.81.42,4.15c0,0,1.55,2.94.91,5.25S512,116.05,510,115.91Z" style="fill:#1a2e35"/><path d="M496.3,99.05a13.75,13.75,0,0,0,3.05,2.65,9.15,9.15,0,0,0,4.31.92,13.75,13.75,0,0,0,4.36-.73c1.24-.41,2.44-1,3.71-1.32.31-.07.46.4.22.58a14.53,14.53,0,0,1-8.76,2.37,8.34,8.34,0,0,1-6.92-4.44S496.28,99,496.3,99.05Z" style="fill:#1a2e35"/><path d="M508.94,114.78s4.33-3.76,6.12-2.1-2.27,7.66-4.93,8a2.55,2.55,0,0,1-3-2.16Z" style="fill:#c36358"/><path d="M513.85,114.37a0,0,0,0,1,0,.07c-1.88.26-3.17,1.62-4.21,3.1a1.41,1.41,0,0,1,2.14.13s0,.11-.07.08a1.57,1.57,0,0,0-1.81.12,7.75,7.75,0,0,0-1.14,1.15c-.11.13-.37,0-.27-.18l0,0C509,116.62,511.47,114,513.85,114.37Z" style="fill:#1a2e35"/><path d="M503.58,150.27c-12.09-2.37-35.64-12.78-39.31-15.48-7.68-5.67-23.32-33.43-22-37.87.75-2.45,21.77-3.25,23.92-1.55s11.43,22.5,12.58,24.2,24.88,17.71,30.08,22.27C518.28,150.09,511.45,151.8,503.58,150.27Z" style="fill:#c36358"/><path d="M464.74,103s4.44-7.93,7.1-13.26c1.49-3,3.58-8.29,3.67-11,.13-4-1.86-20.87-5.95-20.48-3.71.36-.17,14.63-.17,14.63s-2.3-14.72-6.69-13.47,1.76,16.84,1.76,16.84-2.71-15.06-7-13.06c-3.26,1.52,1.51,16,1.51,16s-2.42-12.93-5.84-11.52c-3.79,1.56-.21,15.16-.21,15.16-8.1,5.06-11.36,8.61-10.68,15C442.32,98.88,464.74,103,464.74,103Z" style="fill:#c36358"/><path d="M470.92,79.21c-.21-1.74-.41-3.5-.77-5.21s-.79-3.42-1.31-5.09a29.54,29.54,0,0,0-2.64-6.32,64.14,64.14,0,0,1,3.48,11.52c.36,1.71.81,3.4,1.17,5.11C470.86,79.27,470.92,79.25,470.92,79.21Z" style="fill:#1a2e35"/><path d="M464.75,80.63c-.36-2.21-.64-4.41-1.1-6.61s-1.2-5.22-1.81-7.36c0-.17-.3-.17-.26,0,.52,2.17,1.14,5.3,1.63,7.47s1.08,4.33,1.49,6.51A0,0,0,1,0,464.75,80.63Z" style="fill:#1a2e35"/><path d="M459.68,82.8a50.43,50.43,0,0,0-2.45-10c-.06-.16-.14,0-.1.12.88,3.3,1.6,5.88,2.43,9.86C459.58,82.88,459.69,82.87,459.68,82.8Z" style="fill:#1a2e35"/><path d="M444.72,106.85,472.17,104s5.71,13.23,6.85,14.81,26.87,18.54,32,22.79,4.24,12.18-6.81,10c-9.53-1.87-35.29-12.55-40.16-15.81S444.72,106.85,444.72,106.85Z" style="fill:#375a64"/><path d="M507.35,146.32a9.61,9.61,0,0,0-1.51-1.62,8.87,8.87,0,0,0,1.14,1.9,9.19,9.19,0,0,0,1.51,1.61A10,10,0,0,0,507.35,146.32Zm-11-.48a9.19,9.19,0,0,0-1.61,1.51,9.5,9.5,0,0,0,1.89-1.14,9.19,9.19,0,0,0,1.61-1.51A9.5,9.5,0,0,0,496.36,145.84ZM497.54,135a9.59,9.59,0,0,0-2.21-.07,10.27,10.27,0,0,0,4.35.61A9.6,9.6,0,0,0,497.54,135Zm-9.8,5a10.55,10.55,0,0,0-.6,4.36,10.55,10.55,0,0,0,.6-4.36Zm-34.37-29.54a9.61,9.61,0,0,0-1.51-1.62,8.87,8.87,0,0,0,1.14,1.9,9.19,9.19,0,0,0,1.51,1.61A10,10,0,0,0,453.37,110.39Zm28.41,13.81a9.61,9.61,0,0,0-1.51-1.62,9.3,9.3,0,0,0,1.14,1.9,9.19,9.19,0,0,0,1.51,1.61A9.5,9.5,0,0,0,481.78,124.2Zm-12.21,3.5a9.19,9.19,0,0,0-1.61,1.51,9.5,9.5,0,0,0,1.89-1.14,9.19,9.19,0,0,0,1.61-1.51A9.5,9.5,0,0,0,469.57,127.7Zm18.51,3.1a9.19,9.19,0,0,0-1.61,1.51,9.5,9.5,0,0,0,1.89-1.14,9.19,9.19,0,0,0,1.61-1.51A9.5,9.5,0,0,0,488.08,130.8ZM467,106.72a9.68,9.68,0,0,0-1.62,1.52,9.77,9.77,0,0,0,1.9-1.14,9.25,9.25,0,0,0,1.61-1.52A10,10,0,0,0,467,106.72Zm9.89,29.47a9.59,9.59,0,0,0-2.21-.07,10.48,10.48,0,0,0,4.35.6A9.57,9.57,0,0,0,476.91,136.19Zm-15.8-17.26a9.59,9.59,0,0,0-2.21-.07,10.27,10.27,0,0,0,4.35.61A9.6,9.6,0,0,0,461.11,118.93Zm5.39,16.62a8.38,8.38,0,0,0-.41,1.44l.4.21A8.26,8.26,0,0,0,466.5,135.55Zm6.94-21.91a10.35,10.35,0,0,0-.61,4.36,10.79,10.79,0,0,0,.61-4.36Z" style="fill:#fff"/><path d="M450.43,113.31c3.76-.28,19.13-2,22.43-2.6.23,0,.26-.2,0-.18a205.39,205.39,0,0,0-22.45,2.63C450.33,113.18,450.33,113.32,450.43,113.31Z" style="fill:#1a2e35"/><path d="M509.39,154.2a45.8,45.8,0,0,1-6.6-2.82,55.75,55.75,0,0,1-6.21-3.61,66.4,66.4,0,0,1,6.55,2.94c1.06.54,2.12,1.1,3.16,1.68S508.36,153.58,509.39,154.2Z" style="fill:#1a2e35"/><path d="M502.72,150.93a10.77,10.77,0,0,1-4.36-1.37,9.44,9.44,0,0,1,2.26.45A9.78,9.78,0,0,1,502.72,150.93Z" style="fill:#1a2e35"/><path d="M511,141.62a17.9,17.9,0,0,1-5.42-4.88,15.94,15.94,0,0,1,3,2.16A16.8,16.8,0,0,1,511,141.62Z" style="fill:#1a2e35"/></g></svg>