<svg xmlns="http://www.w3.org/2000/svg" viewBox="0 0 454.78 454.24"><title>asset-beranda-download</title><g id="OBJECTS"><rect x="90.33" y="373.18" width="8.25" height="61.72" transform="translate(-309.59 498.49) rotate(-90)" style="fill:#e0e0e0"/><path d="M72,400.26c.21,0,.38,1.73.38,3.86S72.21,408,72,408s-.39-1.73-.39-3.87S71.78,400.26,72,400.26Z" style="fill:#fafafa"/><path d="M70.65,400.09c.22,0,.39,1.73.39,3.87s-.17,3.86-.39,3.86-.39-1.73-.39-3.86S70.44,400.09,70.65,400.09Z" style="fill:#fafafa"/><path d="M120.54,400.26c.21,0,.38,1.73.38,3.86s-.17,3.87-.38,3.87-.39-1.73-.39-3.87S120.32,400.26,120.54,400.26Z" style="fill:#fafafa"/><path d="M119.19,400.09c.22,0,.39,1.73.39,3.87s-.17,3.86-.39,3.86-.39-1.73-.39-3.86S119,400.09,119.19,400.09Z" style="fill:#fafafa"/><path d="M111.13,404.29c0,.22-7.07.39-15.79.39s-15.79-.17-15.79-.39,7.07-.39,15.79-.39S111.13,404.08,111.13,404.29Z" style="fill:#fafafa"/><rect x="85.94" y="414.43" width="16.49" height="61.72" transform="translate(-351.11 539.47) rotate(-90)" style="fill:#e0e0e0"/><path d="M125.83,448.89s-.11.08-.33.2l-1,.47a18.11,18.11,0,0,1-4.19,1.19,10.86,10.86,0,0,1-6.79-1,9,9,0,0,1-3.22-2.92,6.81,6.81,0,0,1-1.12-4.75,5,5,0,0,1,1.13-2.46,3.26,3.26,0,0,1,2.6-1.18,3.76,3.76,0,0,1,2.62,1.41,5.12,5.12,0,0,1,1.19,2.81,7.48,7.48,0,0,1-2.12,5.85,9.45,9.45,0,0,1-5.93,2.9,15.82,15.82,0,0,1-6.89-.86,12.75,12.75,0,0,1-6-4,6.64,6.64,0,0,1-1.4-3.56,4.65,4.65,0,0,1,1.32-3.71,3,3,0,0,1,1.93-.84,3.44,3.44,0,0,1,2,.57,5.34,5.34,0,0,1,2.28,3.32,7.77,7.77,0,0,1-2.44,7.27,12.14,12.14,0,0,1-7,2.82,17.1,17.1,0,0,1-7.2-.7,10,10,0,0,1-5.48-4.26,7.32,7.32,0,0,1-.69-6.56,3.48,3.48,0,0,1,2.52-2.13,4,4,0,0,1,3.11.75,5.17,5.17,0,0,1,1.47,5.56,9.55,9.55,0,0,1-3.11,4.38,14,14,0,0,1-8.46,3.29,13.67,13.67,0,0,1-10.21-4.11c-.34-.37-.59-.66-.74-.86a1.53,1.53,0,0,1-.21-.32,15.53,15.53,0,0,0,4.58,3.5,13.36,13.36,0,0,0,14.68-1.91,9.16,9.16,0,0,0,2.9-4.14A4.56,4.56,0,0,0,84.35,440a3.31,3.31,0,0,0-2.59-.61,2.74,2.74,0,0,0-2,1.75,6.62,6.62,0,0,0,.67,5.91A9.21,9.21,0,0,0,85.52,451a16.34,16.34,0,0,0,6.88.66A11.46,11.46,0,0,0,98.91,449a7,7,0,0,0,2.2-6.52,4.57,4.57,0,0,0-1.93-2.85,2.34,2.34,0,0,0-3,.19,3.84,3.84,0,0,0-1.08,3.09,5.82,5.82,0,0,0,1.24,3.15,12.05,12.05,0,0,0,5.65,3.8,15.21,15.21,0,0,0,6.56.85,8.74,8.74,0,0,0,5.52-2.66,6.82,6.82,0,0,0,2-5.31c-.15-1.81-1.53-3.58-3.2-3.69a2.65,2.65,0,0,0-2.14,1,4.49,4.49,0,0,0-1,2.17,6.32,6.32,0,0,0,1,4.39,8.75,8.75,0,0,0,3,2.81,10.69,10.69,0,0,0,6.54,1,18.88,18.88,0,0,0,4.17-1C125.34,449.07,125.82,448.87,125.83,448.89Z" style="fill:#fafafa"/><rect x="82.63" y="394.6" width="28.61" height="56.21" transform="translate(-325.77 519.64) rotate(-90)" style="fill:#ebebeb"/><path d="M78.17,409.38c.22,0,.39,6.2.39,13.85s-.17,13.85-.39,13.85-.39-6.2-.39-13.85S78,409.38,78.17,409.38Z" style="fill:#e0e0e0"/><path d="M82.43,409c.22,0,.39,6.12.39,13.67s-.17,13.67-.39,13.67S82,430.25,82,422.7,82.22,409,82.43,409Z" style="fill:#e0e0e0"/><path d="M118.69,408.11c.21,0,.39,6.45.39,14.4s-.18,14.39-.39,14.39-.39-6.44-.39-14.39S118.47,408.11,118.69,408.11Z" style="fill:#e0e0e0"/><path d="M113.68,408.5c.21,0,.39,6.28.39,14s-.18,14-.39,14-.39-6.28-.39-14S113.46,408.5,113.68,408.5Z" style="fill:#e0e0e0"/><path d="M416.24,345.94c5.82-3,12.68-3.39,19.15-2.32,3.48.57,7.1,1.61,9.47,4.22s2.81,7.2.09,9.45c-1.61,1.33-3.87,1.54-6,1.51-5.07-.06-10.69-.95-14.73,2.1-2.31,1.74-3.85,4.63-6.61,5.48s-5.74-.76-7.18-3.19a11.2,11.2,0,0,1-.81-8.23A12.59,12.59,0,0,1,416.24,345.94Z" style="fill:#ebebeb"/><path d="M402.89,320.17c3.56,5.09,10.48,3.41,13.69.3s4.57-7.61,5.81-11.9c2.82-9.81,5.67-20.1,3.57-30.09a16.78,16.78,0,0,0-3.85-8.18,8.73,8.73,0,0,0-8.27-2.75c-3.49.92-5.66,4.34-7.23,7.59a71.83,71.83,0,0,0-7.09,30.78c0,5,.57,10.16,3.37,14.25" style="fill:#ebebeb"/><path d="M393.1,327.48c3.87-4.6,4.6-11.29,2.88-17s-5.61-10.65-10.09-14.64a54.28,54.28,0,0,0-18.07-10.67,19.32,19.32,0,0,0-8.13-1.38,8.56,8.56,0,0,0-6.82,4.13c-1.9,3.63-.08,8,1.89,11.62a138.58,138.58,0,0,0,11.87,18.07c3.56,4.59,7.64,9.11,13.06,11.19s11.05,1.82,13.93-1.94" style="fill:#ebebeb"/><path d="M402.64,396.94a10.72,10.72,0,0,0,.33-2.32c.16-1.68.37-3.79.61-6.31a89.49,89.49,0,0,1,1.42-9.25,73.28,73.28,0,0,1,3.36-10.93,40.48,40.48,0,0,1,5.58-9.88,21,21,0,0,1,7.06-5.87,19.76,19.76,0,0,1,5.94-1.84,11.14,11.14,0,0,0,2.3-.34,11.76,11.76,0,0,0-2.34,0,18,18,0,0,0-6.2,1.61,20.79,20.79,0,0,0-7.44,5.91,39.35,39.35,0,0,0-5.78,10.09,66.51,66.51,0,0,0-3.34,11.1,78.22,78.22,0,0,0-1.23,9.37c-.2,2.68-.28,4.85-.31,6.35A11.28,11.28,0,0,0,402.64,396.94Z" style="fill:#e0e0e0"/><path d="M403.08,392.08a5,5,0,0,0,.06-1.07c0-.81,0-1.82,0-3.07,0-2.66,0-6.52.14-11.27.24-9.52,1.05-19.76,2.64-34.2,1.5-13.58,3.51-29.38,5.63-39.65.46-2.34.91-4.44,1.35-6.28s.76-3.44,1.1-4.73l.72-3a4.63,4.63,0,0,0,.18-1.06,4.55,4.55,0,0,0-.37,1c-.23.77-.53,1.74-.89,2.94s-.8,2.85-1.26,4.69-1,3.93-1.49,6.26a348.87,348.87,0,0,0-5.92,36.8c-1.59,14.47-2.3,27.64-2.36,37.18-.06,4.77,0,8.63.16,11.3.08,1.25.14,2.26.19,3.07A4.44,4.44,0,0,0,403.08,392.08Z" style="fill:#e0e0e0"/><path d="M403.14,366.67a19.13,19.13,0,0,0,0-3.2c-.12-2.06-.4-5-1-8.69a115.47,115.47,0,0,0-2.83-12.65,101.48,101.48,0,0,0-5.29-15A79.67,79.67,0,0,0,378.49,303a39.17,39.17,0,0,0-3.66-3.4c-.56-.47-1.05-.95-1.56-1.32l-1.42-1a21.3,21.3,0,0,0-2.69-1.73c-.16.21,3.82,2.55,8.84,7.89a84.05,84.05,0,0,1,15.15,24.11,117.81,117.81,0,0,1,5.32,14.83,126.31,126.31,0,0,1,3,12.53c.67,3.61,1,6.55,1.28,8.6A21.85,21.85,0,0,0,403.14,366.67Z" style="fill:#e0e0e0"/><polygon points="376.88 407.63 379.43 442.52 424.24 442.52 426.79 407.63 376.88 407.63" style="fill:#ebebeb"/><rect x="372.55" y="393.89" width="59.58" height="13.75" style="fill:#ebebeb"/><polygon points="372.55 441.18 372.55 445 375.35 445 431.15 445 431.15 441.18 372.55 441.18" style="fill:#e0e0e0"/><polygon points="378.1 451.28 375.35 444.57 429.02 444.57 425.81 451.28 378.1 451.28" style="fill:#e0e0e0"/><path d="M426,419a3.57,3.57,0,0,1-.21.32l-.67.88-2.61,3.34-.12.15-.11-.15-6.42-8.87h.37l-6.31,8.94-.2.28-.22-.26L402,414.76h.43l-.41.52-6.7,8.39-.22.28-.21-.29-6.31-8.94.36,0c-3.11,3.55-5.75,6.56-7.78,8.86l-.13.16-.11-.18-2.44-4.09-.62-1.09a1.62,1.62,0,0,1-.19-.39,2.14,2.14,0,0,1,.26.35l.69,1,2.56,4-.24,0,7.65-9,.19-.22.18.24,6.37,8.9h-.43c2.12-2.67,4.37-5.49,6.68-8.41l.42-.52.21-.26.22.26c2.62,3.13,5.14,6.15,7.47,8.92l-.42,0,6.37-8.9.19-.26.18.26,6.28,9h-.23l2.72-3.25c.29-.34.53-.62.73-.84S426,419,426,419Z" style="fill:#f5f5f5"/><path d="M427.41,407.4c0,.16-11.23.28-25.08.28s-25.08-.12-25.08-.28,11.23-.27,25.08-.27S427.41,407.25,427.41,407.4Z" style="fill:#f5f5f5"/><path d="M171.92,44a.77.77,0,0,1-.26-.07l-.72-.29-2.77-1.15L158,38.17,124.71,23.65l-1.16-.51h.24l-32.66,14-9.88,4.15-2.7,1.1a6.58,6.58,0,0,1-1,.35,5.62,5.62,0,0,1,.9-.46l2.65-1.2L91,36.72l32.59-14.13.12-.05.12.05,1.16.51,33.26,14.68,10.06,4.51L171,43.55l.7.34A1,1,0,0,1,171.92,44Z" style="fill:#e0e0e0"/><rect x="9.83" y="39.24" width="214.09" height="160.3" style="fill:#e0e0e0"/><rect x="17.31" y="46.69" width="199.93" height="146.26" style="fill:#fafafa"/><path d="M61.47,110.59s.21,24.56,1.46,32l30.79-1.46S91,117,92.06,110.59Z" style="fill:#e0e0e0"/><path d="M76.64,114.06h.44a8,8,0,0,1,1.29.06,6.92,6.92,0,0,1,1.95.59,6.26,6.26,0,0,1,2.13,1.68,7.48,7.48,0,0,1,1.48,3,7.16,7.16,0,0,1-.32,3.8,11.16,11.16,0,0,1-.87,1.9c-.34.62-.69,1.25-1,1.92a16.57,16.57,0,0,0-1.25,4.37v.11h-.1l-3,.05-3.19,0h-.11v-.12a9.1,9.1,0,0,0-1.48-4.21c-.37-.63-.77-1.22-1.15-1.82a17,17,0,0,1-1.08-1.76,5.92,5.92,0,0,1-.48-3.75A8,8,0,0,1,71,116.81a5.8,5.8,0,0,1,2-1.8,7.68,7.68,0,0,1,3.15-.94h.44l-.11,0-.33,0a8.64,8.64,0,0,0-1.24.25,7.55,7.55,0,0,0-1.85.75,5.8,5.8,0,0,0-1.94,1.79,7.77,7.77,0,0,0-1.13,3,5.75,5.75,0,0,0,.48,3.63,19.64,19.64,0,0,0,1.08,1.74c.38.59.79,1.19,1.16,1.82a9.29,9.29,0,0,1,1.52,4.32l-.11-.11,3.18-.06,3.05,0-.12.1a16.77,16.77,0,0,1,1.27-4.44,20.62,20.62,0,0,1,1-1.93,11.13,11.13,0,0,0,.85-1.87,6.91,6.91,0,0,0,.34-3.7,7.3,7.3,0,0,0-1.42-2.9,6.31,6.31,0,0,0-2.06-1.68,7.42,7.42,0,0,0-1.92-.6,9.12,9.12,0,0,0-1.27-.11h-.44Z" style="fill:#fff"/><path d="M78.22,131.17a.65.65,0,0,1,0-.1l0-.28c0-.26-.09-.63-.17-1.1-.13-1-.34-2.34-.48-4.06,0-.44-.06-.89-.08-1.36s0-1,0-1.47a4,4,0,0,1,.34-1.54,2.38,2.38,0,0,1,1.18-1.18,1.57,1.57,0,0,1,1.67.32,1.18,1.18,0,0,1,.36.85,1.52,1.52,0,0,1-.31.88,2.16,2.16,0,0,1-.74.6,4.13,4.13,0,0,1-.92.3,11.3,11.3,0,0,1-1.94.23,11.6,11.6,0,0,1-2-.1,3.25,3.25,0,0,1-.92-.27,2.4,2.4,0,0,1-.78-.55,1.75,1.75,0,0,1-.45-.82,1.42,1.42,0,0,1,.11-.91,1.25,1.25,0,0,1,.65-.63,1.1,1.1,0,0,1,.87,0,1.63,1.63,0,0,1,.66.56,2.2,2.2,0,0,1,.32.76,8.71,8.71,0,0,1,.16,1.57q.07,1.53.15,2.82c.08,1.73.15,3.12.2,4.09,0,.48,0,.85.05,1.11v.29a.67.67,0,0,1,0,.1.45.45,0,0,1,0-.1c0-.07,0-.17,0-.29s0-.63-.06-1.11c-.06-1-.14-2.36-.24-4.08,0-.86-.1-1.81-.16-2.82a8.34,8.34,0,0,0-.16-1.56,2.23,2.23,0,0,0-.31-.73,1.59,1.59,0,0,0-.62-.53,1,1,0,0,0-.81,0,1.23,1.23,0,0,0-.6.59,1.37,1.37,0,0,0-.1.85,1.72,1.72,0,0,0,.43.78,2.79,2.79,0,0,0,1.65.79,11.32,11.32,0,0,0,1.94.09,11.07,11.07,0,0,0,1.92-.22,3.73,3.73,0,0,0,.89-.3,1.89,1.89,0,0,0,.71-.57,1.4,1.4,0,0,0,.3-.82,1.07,1.07,0,0,0-.33-.78,1.46,1.46,0,0,0-1.58-.3,2.22,2.22,0,0,0-1.13,1.13,4,4,0,0,0-.35,1.5c0,.51,0,1,0,1.47s0,.92.07,1.35c.13,1.72.33,3.11.45,4.06.07.48.12.85.15,1.1l0,.29A.82.82,0,0,1,78.22,131.17Z" style="fill:#fff"/><path d="M74.16,131.33a7.27,7.27,0,0,1,.08,1c0,.74.09,1.63.14,2.66l0-.06,2.07,2.39-.11,0,2.4-.13-.1.05,1.19-1.46.6-.73,0,.09c0-1.4-.06-2.73-.09-3.94l.13.12-4.48,0H74.65a2.86,2.86,0,0,1-.49,0,2.55,2.55,0,0,1,.43,0l1.26-.07,4.56-.17h.13v.13c0,1.21.08,2.54.12,4v0l0,0-.6.73-1.2,1.46,0,0h-.07l-2.39.11h-.07l0,0c-.74-.88-1.43-1.7-2-2.43l0,0v0c0-1.06,0-2,0-2.74S74.15,131.32,74.16,131.33Z" style="fill:#fff"/><path d="M80.35,134.8l-.23-.1c-.14-.06-.35-.15-.62-.24a6.05,6.05,0,0,0-4.3.13c-.27.11-.47.21-.61.28a.85.85,0,0,1-.22.11,1.72,1.72,0,0,1,.2-.14,5.26,5.26,0,0,1,.6-.31,5.78,5.78,0,0,1,2.16-.5,6,6,0,0,1,2.19.36,4.29,4.29,0,0,1,.62.28Z" style="fill:#fff"/><path d="M80.35,133.84l-.23-.1c-.14-.06-.35-.15-.62-.24a6.08,6.08,0,0,0-4.31.13c-.26.11-.46.21-.6.28l-.22.11.2-.14a5.26,5.26,0,0,1,.6-.31,5.66,5.66,0,0,1,4.35-.13,6.12,6.12,0,0,1,.62.27Z" style="fill:#fff"/><path d="M80.29,132.93l-.22-.1c-.15-.06-.36-.15-.63-.24a6.05,6.05,0,0,0-4.3.13l-.61.28c-.14.08-.21.12-.22.11a1.72,1.72,0,0,1,.2-.14,5.26,5.26,0,0,1,.6-.31,5.78,5.78,0,0,1,2.17-.5,5.85,5.85,0,0,1,2.19.36,4.63,4.63,0,0,1,.61.28C80.22,132.88,80.3,132.92,80.29,132.93Z" style="fill:#fff"/><path d="M27.17,70.45S27.38,95,28.63,102.5L59.43,101S56.72,76.9,57.76,70.45Z" style="fill:#ebebeb"/><path d="M53.12,80.77a90.32,90.32,0,0,1-10.31.92c-5.71.34-10.35.49-10.36.32s4.61-.58,10.32-.92S53.11,80.6,53.12,80.77Z" style="fill:#fff"/><path d="M53.13,86a90.35,90.35,0,0,1-10.32.92c-5.7.34-10.34.49-10.35.32s4.61-.58,10.32-.92S53.12,85.8,53.13,86Z" style="fill:#fff"/><path d="M47.89,91.07c0,.17-2.61.46-5.87.66s-5.89.22-5.9,0A29.43,29.43,0,0,1,42,91.13,29.54,29.54,0,0,1,47.89,91.07Z" style="fill:#fff"/><path d="M25.72,142.69s.2,24.55,1.45,32L58,173.28s-2.71-24.14-1.67-30.59Z" style="fill:#ebebeb"/><path d="M51.66,153c0,.17-4.61.58-10.31.93a91.62,91.62,0,0,1-10.35.32c0-.17,4.6-.58,10.31-.93A91.62,91.62,0,0,1,51.66,153Z" style="fill:#fff"/><path d="M51.67,158.2c0,.17-4.61.58-10.31.93a91.64,91.64,0,0,1-10.35.32c0-.17,4.6-.58,10.31-.93A91.62,91.62,0,0,1,51.67,158.2Z" style="fill:#fff"/><path d="M46.44,163.31c0,.17-2.62.46-5.87.65a29.65,29.65,0,0,1-5.91.06c0-.17,2.62-.46,5.87-.66S46.43,163.14,46.44,163.31Z" style="fill:#fff"/><polygon points="109.87 76.96 112.92 147.78 201.33 148.84 197.36 77.9 109.87 76.96" style="fill:#ebebeb"/><rect x="108.85" y="76.45" width="87.82" height="66.31" style="fill:#f5f5f5"/><path d="M196.67,142.77s0-.43,0-1.23,0-2,0-3.54c0-3.11,0-7.64-.06-13.42,0-11.56-.08-28.11-.13-48.13l.25.25-87.81.06h0l.3-.31c0,23.85,0,46.43,0,66.31l-.27-.27,63.34.14,18,.07,4.79,0,1.24,0a3.62,3.62,0,0,1,.43,0h-.4l-1.21,0-4.74,0-17.95.07-63.52.14h-.27v-.28c0-19.88,0-42.46,0-66.31v-.3h.31l87.81.06h.24v.24c0,20.09-.09,36.68-.12,48.28,0,5.76,0,10.27-.07,13.37,0,1.51,0,2.68,0,3.49S196.67,142.77,196.67,142.77Z" style="fill:#e0e0e0"/><rect x="119.44" y="90.5" width="35.6" height="44.8" style="fill:#f5f5f5"/><path d="M155,135.3a2,2,0,0,1,0-.22l0-.64c0-.59,0-1.41,0-2.45,0-2.16,0-5.27-.07-9.19,0-7.89-.08-19-.14-32.3l.27.27-35.59,0,.29-.29h0V102.7c0,4,0,7.86,0,11.63,0,7.52,0,14.57,0,21l-.25-.25,25.78.13,7.23.07,1.92,0,.67,0a4.52,4.52,0,0,1-.62,0l-1.87,0-7.18.07-25.93.13h-.25v-.26c0-6.4,0-13.45,0-21q0-5.65,0-11.63V90.52h0c-.27.27.37-.38.31-.31l35.59,0h.27v.27c-.05,13.33-.1,24.55-.13,32.47l-.07,9.14c0,1,0,1.81,0,2.39,0,.25,0,.45,0,.61S155.05,135.31,155,135.3Z" style="fill:#e0e0e0"/><rect x="120.81" y="80.25" width="68.22" height="6.46" style="fill:#f5f5f5"/><path d="M189,86.71a2.37,2.37,0,0,1,0-.45c0-.31,0-.72,0-1.25,0-1.12,0-2.71-.07-4.76l.12.12c-11.51.11-37.73.18-68.22.18h0l.3-.3h0v6.44l-.3-.3,48.35.12,14.52.09,3.95,0,1,0a1.61,1.61,0,0,1,.37,0l-.33,0-1,0-3.88,0-14.45.09L120.81,87h-.3v-.3c0-1,0-2.09,0-3.17V80.27h0l.31-.3h0c30.49,0,56.71.07,68.22.18h.12v.12c0,2.08-.05,3.69-.07,4.83,0,.52,0,.92,0,1.23A1.71,1.71,0,0,1,189,86.71Z" style="fill:#e0e0e0"/><rect x="159.4" y="90.5" width="29.63" height="27" style="fill:#f5f5f5"/><path d="M189,117.5a3.69,3.69,0,0,1,0-.52c0-.37,0-.86,0-1.46,0-1.32,0-3.17-.07-5.51,0-4.75-.07-11.46-.13-19.51l.26.26-29.63,0c-.07.07.57-.57.3-.29h0v7.24c0,2.38,0,4.7,0,7,0,4.53,0,8.82,0,12.78l-.27-.26,21.37.13,6.07.07,1.61,0,.58,0a3.2,3.2,0,0,1-.52,0l-1.56,0-6,.07-21.54.13h-.26v-.27c0-4,0-8.25,0-12.78,0-2.27,0-4.59,0-7V90.51h0c-.27.26.36-.38.3-.31l29.63,0h.26v.25c-.06,8.12-.1,14.89-.14,19.68,0,2.3-.05,4.14-.06,5.44,0,.59,0,1.06,0,1.42A2.36,2.36,0,0,1,189,117.5Z" style="fill:#e0e0e0"/><rect x="159.4" y="121.74" width="29.63" height="13.57" style="fill:#f5f5f5"/><path d="M189,135.3a7.89,7.89,0,0,1-.05-1l0-2.72c0-2.4-.07-5.75-.12-9.86l.22.22L159.4,122l.3-.3h0v7c0,2.27,0,4.47,0,6.57l-.29-.28,21.19.13,6.17.08,1.67,0,.6,0a1.83,1.83,0,0,1-.53,0l-1.61,0-6.11.07-21.38.14h-.29v-.29c0-2.1,0-4.3,0-6.57v-7h0l.3-.3,29.63.08h.22v.22c-.05,4.17-.09,7.56-.12,10,0,1.12,0,2,0,2.68A5.56,5.56,0,0,1,189,135.3Z" style="fill:#e0e0e0"/><path d="M154.16,90.58c-11,15.22-23.7,29.5-34.72,44.72" style="fill:#fff"/><path d="M119.44,135.3a3.27,3.27,0,0,1,.29-.5c.26-.36.56-.82.93-1.36.82-1.18,2-2.86,3.57-4.91,3.06-4.12,7.43-9.69,12.34-15.78S145.89,101.14,149,97.1l3.71-4.8,1-1.29a2.26,2.26,0,0,1,.39-.43,1.94,1.94,0,0,1-.29.5l-.93,1.36c-.81,1.18-2,2.86-3.56,4.92-3.06,4.11-7.44,9.68-12.34,15.77s-9.33,11.61-12.47,15.65l-3.72,4.8c-.4.52-.74.95-1,1.3S119.46,135.32,119.44,135.3Z" style="fill:#e0e0e0"/><line x1="119.44" y1="90.5" x2="155.04" y2="135.3" style="fill:#fff"/><path d="M155,135.3c-.13.11-8.2-9.84-18-22.21s-17.7-22.48-17.57-22.59,8.21,9.84,18,22.22S155.17,135.2,155,135.3Z" style="fill:#e0e0e0"/><path d="M112.92,90.6A5.57,5.57,0,1,1,107.35,85,5.57,5.57,0,0,1,112.92,90.6Z" style="fill:#e0e0e0"/><path d="M204,77.08a5.57,5.57,0,1,1-5.57-5.57A5.57,5.57,0,0,1,204,77.08Z" style="fill:#e0e0e0"/><rect x="357.68" y="115.87" width="64.18" height="93.02" style="fill:#e0e0e0"/><rect x="354.47" y="115.87" width="64.18" height="93.02" style="fill:#f5f5f5"/><rect x="362.44" y="125.94" width="48.23" height="72.87" style="fill:#fff"/><path d="M410.67,198.82s0-.13,0-.36,0-.58,0-1c0-.92,0-2.26,0-4,0-3.49,0-8.58,0-15,0-12.85,0-31-.08-52.48l.16.16-48.22,0h0l.18-.18c0,27.5,0,52.84,0,72.88l-.14-.14,35.11.07,9.7,0h2.54l.88,0h-.85l-2.52,0-9.67,0-35.19.08h-.14v-.14c0-20,0-45.38,0-72.88v-.17h48.56v.16c0,21.48-.06,39.71-.08,52.58,0,6.42,0,11.5,0,15,0,1.73,0,3.06,0,4,0,.44,0,.77,0,1S410.67,198.82,410.67,198.82Z" style="fill:#e0e0e0"/><path d="M418.83,115.87a12.08,12.08,0,0,1-1.15,1.66c-.74,1-1.8,2.35-3,3.82s-2.34,2.77-3.17,3.69a12.4,12.4,0,0,1-1.41,1.44,11.05,11.05,0,0,1,1.22-1.6l3.09-3.75,3.09-3.75A11.17,11.17,0,0,1,418.83,115.87Z" style="fill:#e0e0e0"/><path d="M410.92,198.58a59.21,59.21,0,0,0,8.41,10.52" style="fill:#fff"/><path d="M419.33,209.1a9.24,9.24,0,0,1-1.47-1.33,47.46,47.46,0,0,1-3.17-3.58,44,44,0,0,1-2.79-3.88,9.35,9.35,0,0,1-1-1.73,16.17,16.17,0,0,1,1.18,1.59c.71,1,1.7,2.35,2.86,3.8s2.27,2.72,3.08,3.63A13.08,13.08,0,0,1,419.33,209.1Z" style="fill:#e0e0e0"/><path d="M354.46,208.82l8.4-10.37" style="fill:#fff"/><path d="M362.86,198.45a61.72,61.72,0,0,1-4.06,5.29,64.1,64.1,0,0,1-4.34,5.08,61.68,61.68,0,0,1,4.07-5.3A66.27,66.27,0,0,1,362.86,198.45Z" style="fill:#e0e0e0"/><path d="M354.47,115.87a58.82,58.82,0,0,1,4.08,4.88,55.29,55.29,0,0,1,3.8,5.09,58.82,58.82,0,0,1-4.08-4.88A57.61,57.61,0,0,1,354.47,115.87Z" style="fill:#e0e0e0"/><rect x="379.5" y="140.74" width="16.15" height="45.85" style="fill:#e0e0e0"/><rect x="398" y="17.07" width="9.19" height="45.71" transform="translate(-0.21 2.16) rotate(-0.31)" style="fill:#e0e0e0"/><rect x="318.36" y="17.23" width="23.79" height="25.24" transform="translate(-0.16 1.77) rotate(-0.31)" style="fill:#ebebeb"/><rect x="342.03" y="17.1" width="23.79" height="25.24" transform="translate(-0.15 1.9) rotate(-0.31)" style="fill:#f5f5f5"/><path d="M318.33,24.26Q342,24.46,365.8,24a.25.25,0,0,0,0-.5q-23.71-.13-47.47.29a.22.22,0,0,0,0,.43Z" style="fill:#e0e0e0"/><rect x="303.51" y="42.1" width="43.22" height="20.57" transform="translate(-0.28 1.74) rotate(-0.31)" style="fill:#ebebeb"/><rect x="346.53" y="41.87" width="43.22" height="20.57" transform="translate(-0.27 1.97) rotate(-0.31)" style="fill:#f5f5f5"/><path d="M303.49,47.93c28.71.33,57.53,0,86.24-.42a.26.26,0,0,0,0-.51c-28.72-.15-57.54-.13-86.24.5a.22.22,0,0,0,0,.43Z" style="fill:#e0e0e0"/><rect x="287.32" y="62.78" width="167.46" height="7.37" style="fill:#e0e0e0"/><rect x="314.74" y="66.32" width="6.8" height="25.14" style="fill:#e0e0e0"/><rect x="416.22" y="66.32" width="6.8" height="25.14" style="fill:#e0e0e0"/><rect x="407.01" y="0.02" width="9.19" height="62.87" transform="translate(-0.16 2.21) rotate(-0.31)" style="fill:#ebebeb"/><rect x="416.25" y="11.74" width="14.27" height="50.95" transform="translate(-0.19 2.27) rotate(-0.31)" style="fill:#f5f5f5"/><path d="M430.29,21.52a50.88,50.88,0,0,1-7.14.25,50.88,50.88,0,0,1-7.14-.25,102.08,102.08,0,0,1,14.28,0Z" style="fill:#e0e0e0"/><path d="M430.29,19.38a50.88,50.88,0,0,1-7.14.25,50.88,50.88,0,0,1-7.14-.25,102.08,102.08,0,0,1,14.28,0Z" style="fill:#e0e0e0"/><path d="M430.29,55A102.08,102.08,0,0,1,416,55a102.08,102.08,0,0,1,14.28,0Z" style="fill:#e0e0e0"/><path d="M430.29,52.85a53.87,53.87,0,0,1-7.14.24,53.87,53.87,0,0,1-7.14-.24,102.08,102.08,0,0,1,14.28,0Z" style="fill:#e0e0e0"/><path d="M423.38,48.18c-.14,0-.25-5.14-.25-11.48s.11-11.48.25-11.48.25,5.14.25,11.48S423.52,48.18,423.38,48.18Z" style="fill:#e0e0e0"/><rect x="430.44" y="24.22" width="15.54" height="38.46" style="fill:#ebebeb"/><path d="M438.65,52.7a3.34,3.34,0,0,1-3.47-3.46,3,3,0,0,1,1.26-2.59l.35.48a2.51,2.51,0,0,0-1,2.11,2.88,2.88,0,0,0,5.76,0,2.51,2.51,0,0,0-1-2.11l.35-.48a3,3,0,0,1,1.26,2.59A3.34,3.34,0,0,1,438.65,52.7Z" style="fill:#fafafa"/><path d="M441.24,45.69l-.52-.3a4,4,0,0,0,.83-2.46c0-1.45-.52-2-1.29-2-2,0-.52,4.53-3.21,4.53-1,0-1.87-.86-1.87-2.59a4.18,4.18,0,0,1,.67-2.35l.52.3a3.55,3.55,0,0,0-.62,2.06c0,1.34.55,1.93,1.29,1.93,2.06,0,.6-4.54,3.21-4.54,1.11,0,1.87,1,1.87,2.7A4.28,4.28,0,0,1,441.24,45.69Z" style="fill:#fafafa"/><path d="M441.24,39.43l-.52-.3a4,4,0,0,0,.83-2.47c0-1.44-.52-2-1.29-2-2,0-.52,4.53-3.21,4.53-1,0-1.87-.86-1.87-2.59a4.18,4.18,0,0,1,.67-2.35l.52.3a3.55,3.55,0,0,0-.62,2.06c0,1.33.55,1.92,1.29,1.92,2.06,0,.6-4.53,3.21-4.53,1.11,0,1.87,1,1.87,2.7A4.28,4.28,0,0,1,441.24,39.43Z" style="fill:#fafafa"/><circle cx="411.3" cy="10.73" r="2.64" style="fill:#e0e0e0"/><rect x="410.48" y="18" width="1.63" height="37.4" style="fill:#e0e0e0"/><path d="M129.14,76.25c-17.59,27.67-16.44,66,2.78,92.6,12.81,17.71,32,29.58,47.3,45.23s26.85,38.71,18.8,59c-8.2,20.69-32.22,29.1-50.21,42.21a94.89,94.89,0,0,0-22.88,129.6H311.75s32.82-62.55-9.38-110.21-64.85-48.45-63.29-79.7,23.44-41.42,35.95-53.14,73.45-39.07,37.5-125.62Z" style="fill:#fafafa"/><path d="M129.14,76.25l3.22,0,9.47,0,36.45-.06,134.25-.09h.14l.05.12a175,175,0,0,1,7,20.23,118.33,118.33,0,0,1,4,22,87,87,0,0,1-1.19,23.21A74.41,74.41,0,0,1,314,164.15a82.06,82.06,0,0,1-7,10.21,96.81,96.81,0,0,1-8.6,9.21,127.89,127.89,0,0,1-9.77,8.26c-3.4,2.64-6.95,5.12-10.41,7.75-1.74,1.3-3.32,2.77-5,4.24s-3.37,2.84-5.1,4.22c-3.45,2.76-6.94,5.52-10.23,8.54a54.64,54.64,0,0,0-15.34,22A53.75,53.75,0,0,0,239.62,252c-.09,1.16-.24,2.31-.29,3.47s-.08,2.32,0,3.49A40.63,40.63,0,0,0,240,266a31.87,31.87,0,0,0,5.61,12.8,71.6,71.6,0,0,0,9.69,10.49c7.09,6.48,14.62,12.67,21.82,19.36s14.28,13.66,21.05,21a127.09,127.09,0,0,1,9.72,11.55,81.53,81.53,0,0,1,7.83,13.06,85.55,85.55,0,0,1,8,29.62A108.15,108.15,0,0,1,321.94,415a127.66,127.66,0,0,1-4,15.28A111.4,111.4,0,0,1,312,445.05l-.07.16h-5l-182,0h-.15l-.08-.12A96.22,96.22,0,0,1,109.06,401a92.9,92.9,0,0,1,6.46-44.51,97,97,0,0,1,24.69-35.28,112.65,112.65,0,0,1,16.86-12.29c5.84-3.62,11.72-7,17.28-10.64s10.88-7.58,15.21-12.37A41.5,41.5,0,0,0,199,269.57a40.57,40.57,0,0,0,.74-18.21,59.69,59.69,0,0,0-5.77-16.74,82.23,82.23,0,0,0-9.41-14.28,112.56,112.56,0,0,0-11.38-11.87c-7.91-7.28-16-13.65-23.28-20.2-3.65-3.26-7.11-6.55-10.29-9.94a93.48,93.48,0,0,1-8.53-10.51,80.17,80.17,0,0,1-10.69-22.16,82.78,82.78,0,0,1-3.64-21c-.15-1.64-.09-3.24-.09-4.8s0-3.09.14-4.57.22-2.93.33-4.34.4-2.75.59-4.08A78,78,0,0,1,125,83.63a29.36,29.36,0,0,1,1.69-3.26l1.34-2.29c.72-1.22,1.09-1.83,1.09-1.83s-.38.67-1.06,1.87l-1.31,2.29a31.37,31.37,0,0,0-1.67,3.26,78.38,78.38,0,0,0-7.23,23.25c-.18,1.32-.41,2.68-.58,4.07s-.21,2.85-.32,4.33-.11,3-.12,4.56-.06,3.16.1,4.78a82.31,82.31,0,0,0,3.67,20.92,80,80,0,0,0,10.68,22.06,93.12,93.12,0,0,0,8.51,10.47c3.18,3.37,6.64,6.65,10.28,9.91,7.29,6.53,15.39,12.88,23.32,20.17a114.37,114.37,0,0,1,11.43,11.9,82.1,82.1,0,0,1,9.46,14.35,59.45,59.45,0,0,1,5.83,16.85,41.12,41.12,0,0,1-.74,18.4,41.83,41.83,0,0,1-9.5,16.5c-4.37,4.83-9.73,8.76-15.28,12.45s-11.46,7-17.28,10.65a112.43,112.43,0,0,0-16.79,12.26A96.56,96.56,0,0,0,116,356.65a92.53,92.53,0,0,0-6.41,44.27,95.9,95.9,0,0,0,15.57,43.85l-.22-.12H311.75l-.25.15a111.73,111.73,0,0,0,5.89-14.67,124.68,124.68,0,0,0,4-15.21,108.09,108.09,0,0,0,1.82-31,85.12,85.12,0,0,0-8-29.44,80.43,80.43,0,0,0-7.78-13A126.63,126.63,0,0,0,297.76,330q-10.14-11-21-21c-7.2-6.67-14.71-12.86-21.82-19.36a71.84,71.84,0,0,1-9.76-10.58,32.16,32.16,0,0,1-5.69-13,39.82,39.82,0,0,1-.71-7c-.06-1.18,0-2.35,0-3.52s.2-2.33.3-3.5a54,54,0,0,1,3-13.58,55.24,55.24,0,0,1,15.49-22.21c3.31-3,6.81-5.8,10.26-8.56,1.73-1.38,3.44-2.76,5.09-4.2s3.25-2.95,5-4.26c3.48-2.64,7-5.12,10.42-7.74a126.89,126.89,0,0,0,9.73-8.23,94.58,94.58,0,0,0,8.57-9.15,82.19,82.19,0,0,0,7-10.15A74.28,74.28,0,0,0,322,141.5a87.31,87.31,0,0,0,1.19-23.08,117.71,117.71,0,0,0-3.94-21.91,172.8,172.8,0,0,0-6.92-20.18l.18.12-134.17-.1-36.48,0-9.5,0C130.24,76.27,129.14,76.25,129.14,76.25Z" style="fill:#263238"/><path d="M305.08,127c27.51,4.52-15.87,53.26-40.43,72.49-14.22,11.13-29.49,23.21-36.24,40-7.66,19-2,40.36-5.7,59.48a2.66,2.66,0,0,1-5.26-.56c.18-12.55-.15-25.09-2.23-37.44-2.95-17.52-9.69-34.86-22-47.7-10-10.48-23.17-17.45-33.86-27.24-15.61-14.31-31.65-32.76-33.21-53.88,0,0,30-24.14,46.61-21.1,19.45,3.57,38.59,33.57,68.72,30.13C262.54,138.74,273.16,121.75,305.08,127Z" style="fill:#45c2e3"/><path d="M307.52,387.85c-.7-6.89-2.53-14.67-8.64-17.92-3.7-2-8.2-1.75-12.25-.68s-7.86,2.91-11.88,4.1a38.92,38.92,0,0,1-24.3-.77c-7.46-2.74-13.87-7.7-20.8-11.6s-15.05-6.8-22.77-4.88c-13.31,3.31-20.23,19.33-33.39,23.2-5.85,1.72-12.13.76-18.07-.59s-11.92-3.08-18-2.85c-4.77.18-9.74,1.83-13.08,5.1l0,0-.09.1a13.44,13.44,0,0,0-1.51,1.77c-4.08,5.44-4.74,12.76-3.48,19.4,1.41,7.44,4.88,14.31,8.61,20.9,4.39,7.76,9.38,15.49,16.64,20.66,9,6.38,20.23,2,31.2,2.84,25.57,2,53.09,3.4,78.68,1.41,13.51-1,26.17.42,36.9-7.87,7.54-5.83,12.45-14.62,14.81-23.86S308.48,397.33,307.52,387.85Z" style="fill:#45c2e3"/><g style="opacity:0.24"><path d="M259.25,374.67c-1.45,2.21-2.06,5.17-.67,7.41s3.27,4.29,3.88,6.86c.94,4-1.49,8-3.3,11.72a37.43,37.43,0,0,0-3.63,21.63,29.45,29.45,0,0,0,10.74,18.89c2.6,2,6,3.56,9.1,2.58,2.95-.93,4.86-3.92,5.44-6.95s.11-6.16-.28-9.23a143.38,143.38,0,0,1,1.08-42.83c.42-2.36.82-5.06-.68-6.93a7.93,7.93,0,0,0-3.93-2.24c-5.7-1.9-11.85.21-17.75-.91"/></g><path d="M111.21,453.4s-.51-8.57,10.67-13.34H318.39s10.25,5.18,11.51,13.17Z" style="fill:#263238"/><path d="M314.22,77.29l-.31.15L129.14,76.25s-.66-.42-1.64-1.19a7,7,0,0,1,4.37-12.52L311.21,64C318.61,64.05,320.92,74.13,314.22,77.29Z" style="fill:#263238"/><g style="opacity:0.24"><path d="M284.65,147.78c.37.71-1,2.25-3.66,4.6s-6.54,5.58-11.47,9.56a150.77,150.77,0,0,1-18.62,13.13,76.13,76.13,0,0,1-12.76,5.86,59.38,59.38,0,0,1-7.34,2,49.4,49.4,0,0,1-7.92,1A42.46,42.46,0,0,1,207,181.81a57.66,57.66,0,0,1-12.8-6.53c-3.69-2.45-6.86-4.86-9.85-7.16s-5.7-4.55-8.13-6.64c-9.7-8.41-14.81-14.6-13.82-15.79s7.88,2.69,18.59,9.27l8.75,5.37c3.13,1.91,6.51,4,9.95,6a55.57,55.57,0,0,0,10.8,4.87,34.34,34.34,0,0,0,11.88,1.4c8.41-.43,16.58-3.39,23.66-6.81s13.47-7.41,19-10.52a96.77,96.77,0,0,1,13.73-6.7C282.18,147.32,284.29,147.09,284.65,147.78Z"/></g><path d="M217.59,321.83a3.1,3.1,0,1,1-.16.06" style="fill:#45c2e3"/><path d="M151.5,178.36a5.81,5.81,0,0,1-.65-.66l-1.79-2c-.76-.88-1.76-1.88-2.77-3.17s-2.21-2.74-3.49-4.34-2.55-3.5-3.91-5.51l-2-3.19c-.34-.55-.71-1.1-1-1.67l-1-1.78a74.08,74.08,0,0,1-6.81-16.39,69.1,69.1,0,0,1-2.58-17.56c0-1.37.07-2.7.1-4,0-.65,0-1.29.09-1.91s.13-1.24.19-1.84c.14-1.21.24-2.38.4-3.5s.39-2.17.58-3.19c.31-2,.85-3.84,1.24-5.43.21-.8.37-1.54.58-2.21s.42-1.27.6-1.83c.35-1,.64-1.89.84-2.52a4.73,4.73,0,0,1,.34-.86,6.65,6.65,0,0,1-.23.9l-.74,2.55c-.16.55-.35,1.17-.55,1.83s-.34,1.42-.53,2.22c-.36,1.59-.87,3.38-1.16,5.42q-.25,1.53-.54,3.18c-.14,1.11-.23,2.28-.36,3.48l-.18,1.83c-.06.62,0,1.26-.07,1.9,0,1.29-.08,2.61-.07,4a69.8,69.8,0,0,0,2.6,17.41,75.5,75.5,0,0,0,6.72,16.29l1,1.78c.32.58.69,1.12,1,1.67l2,3.19c1.34,2,2.66,3.83,3.83,5.53l3.41,4.38c1,1.3,2,2.33,2.69,3.22l1.71,2A5.29,5.29,0,0,1,151.5,178.36Z" style="fill:#263238"/><path d="M141.09,341.22a2.39,2.39,0,0,1,.21-.36l.65-1,1.08-1.67.69-1.07c.27-.36.59-.72.9-1.12l2.16-2.63c.84-.91,1.81-1.85,2.82-2.88a75.82,75.82,0,0,1,7.53-6.34c5.82-4.41,13.32-8.79,21.46-13.9a122.77,122.77,0,0,0,12.31-8.68,57.68,57.68,0,0,0,11-11.67,55.15,55.15,0,0,0,8.93-29.41,69.67,69.67,0,0,0-4.2-25,93.74,93.74,0,0,0-7.26-15.57c-1-1.76-1.85-3.1-2.43-4l-.64-1a2.19,2.19,0,0,1-.2-.36,2.4,2.4,0,0,1,.25.33l.69,1c.61.89,1.47,2.21,2.52,4a89.65,89.65,0,0,1,7.45,15.55,69.39,69.39,0,0,1,4.35,25.13,57.22,57.22,0,0,1-.61,7.4,53.23,53.23,0,0,1-1.6,7.57,51.89,51.89,0,0,1-6.77,14.75A58.42,58.42,0,0,1,191.25,302a121.4,121.4,0,0,1-12.38,8.68c-8.17,5.1-15.68,9.44-21.5,13.79a77.48,77.48,0,0,0-7.55,6.24c-1,1-2,1.94-2.84,2.84l-2.18,2.58c-.33.39-.65.75-.92,1.1l-.71,1-1.12,1.64-.7,1A2.49,2.49,0,0,1,141.09,341.22Z" style="fill:#263238"/><path d="M130.9,360.59a3,3,0,0,1-.24.51l-.78,1.39c-.36.6-.77,1.33-1.2,2.22s-1,1.87-1.44,3c-.24.57-.5,1.16-.77,1.78s-.48,1.29-.74,2c-.53,1.36-1,2.85-1.42,4.42A58.84,58.84,0,0,0,122.38,397c.18,1.63.31,3.18.59,4.6.13.72.22,1.42.37,2.08s.3,1.29.43,1.89c.25,1.22.61,2.28.87,3.23s.53,1.75.77,2.4l.52,1.51a2,2,0,0,1,.14.55,2.59,2.59,0,0,1-.25-.5l-.62-1.48a23.19,23.19,0,0,1-.86-2.39c-.3-.94-.69-2-1-3.22-.15-.61-.31-1.24-.47-1.9s-.26-1.36-.4-2.08c-.31-1.44-.46-3-.66-4.64a57.48,57.48,0,0,1,2-21.26c.49-1.58.93-3.08,1.49-4.44.27-.68.5-1.36.77-2l.82-1.78c.48-1.15,1.06-2.12,1.52-3a21,21,0,0,1,1.29-2.18c.35-.54.64-1,.87-1.35S130.88,360.58,130.9,360.59Z" style="fill:#263238"/><path d="M266.43,386.93s-.07.07-.22.16l-.68.43-2.66,1.6-1.93,1.14c-.72.4-1.53.78-2.38,1.21-1.73.83-3.64,1.89-5.9,2.74l-3.5,1.44c-1.22.49-2.54.87-3.88,1.33-2.67,1-5.63,1.67-8.71,2.48a102.51,102.51,0,0,1-41.23,1.07c-3.13-.64-6.12-1.18-8.83-2-1.36-.4-2.7-.71-3.95-1.13L179,396.14c-2.3-.74-4.27-1.7-6-2.44-.88-.38-1.71-.72-2.44-1.07l-2-1.05-2.74-1.45-.7-.39a1,1,0,0,1-.23-.15.84.84,0,0,1,.25.09l.74.35,2.78,1.36,2,1c.74.34,1.58.66,2.45,1,1.78.71,3.75,1.64,6,2.35l3.56,1.21c1.25.41,2.58.71,3.94,1.09,2.71.81,5.69,1.33,8.8,1.95a103.91,103.91,0,0,0,41-1.07c3.07-.78,6-1.46,8.68-2.41,1.34-.45,2.65-.82,3.87-1.29l3.5-1.4c2.26-.83,4.18-1.85,5.92-2.66.85-.41,1.67-.78,2.39-1.16l1.95-1.09,2.71-1.51.71-.37A.92.92,0,0,1,266.43,386.93Z" style="fill:#263238"/><path d="M277.87,154.92a1.56,1.56,0,0,1-.23.22l-.72.59-2.8,2.24c-2.44,1.92-6,4.72-10.42,8.05a151.33,151.33,0,0,1-16.31,10.78,72.91,72.91,0,0,1-10.5,4.83,47.86,47.86,0,0,1-12.12,2.7,46.16,46.16,0,0,1-23.29-4.84,79.22,79.22,0,0,1-9-5.35c-2.68-1.89-5.12-3.72-7.28-5.47-4.34-3.48-7.74-6.43-10.1-8.45l-2.71-2.34-.7-.62c-.15-.15-.23-.22-.22-.23a1.33,1.33,0,0,1,.26.18l.73.58,2.78,2.26c2.4,2,5.85,4.87,10.21,8.3,2.17,1.73,4.62,3.53,7.3,5.4a79.55,79.55,0,0,0,9,5.26,45.87,45.87,0,0,0,23,4.75,47.7,47.7,0,0,0,12-2.65,75.8,75.8,0,0,0,10.44-4.77,158.1,158.1,0,0,0,16.32-10.64c4.48-3.29,8-6,10.52-7.91l2.87-2.15.75-.55A1.63,1.63,0,0,1,277.87,154.92Z" style="fill:#263238"/><g style="opacity:0.24"><path d="M179,396.14c5.19-4,12.49-3,18.92-1.69s12.89,3.55,19.39,2.64c4.89-.69,9.39-3.1,14.22-4.14s10.7-.28,13.38,3.88a104.16,104.16,0,0,1-65.91-.69"/></g><path d="M360.29,366.39,336.68,340l-.24,32.13,7.1,20.61L272.92,405l-3-55.72-5.09-42.8a11.62,11.62,0,0,1,7.29-12.18l19.43-7.65,27.37,5,11,4.18a30.17,30.17,0,0,1,12,8.35l33.15,37.91" style="fill:#45c2e3"/><path d="M335,333.64a38.61,38.61,0,0,0,4-.28,16.19,16.19,0,0,0,13.27-12.24,38.83,38.83,0,0,0,.61-4,3.71,3.71,0,0,1,.1,1.09,14.34,14.34,0,0,1-.31,3,15.84,15.84,0,0,1-13.61,12.55,13.94,13.94,0,0,1-3,.06A3.61,3.61,0,0,1,335,333.64Z" style="fill:#fff"/><path d="M337.09,370.72c.16,0,.2-11.13.09-24.86s-.34-24.86-.5-24.85-.21,11.13-.1,24.86S336.92,370.73,337.09,370.72Z" style="fill:#263238"/><path d="M334.5,378.89l-42.67-17.18a9.74,9.74,0,0,1-6.08-8.3l-3.13-40.91s.37-17.4-10.49-18.25l-6.19,2.44c-8,4.24-10,15.87-8.88,24.86,1.54,12.76,2.19,30.82,3.92,41.9,1.41,9.06,6.6,17,15.47,19.37L329,394.19Z" style="fill:#45c2e3"/><path d="M283.24,318.74a6.45,6.45,0,0,1,.13.94c.07.66.16,1.56.27,2.69l.91,9.92c.36,4.21.79,9.19,1.26,14.72q.18,2.08.36,4.26a32.74,32.74,0,0,0,.54,4.38,7.35,7.35,0,0,0,2.12,3.83,14.53,14.53,0,0,0,3.94,2.45c11.77,5.09,22.61,9.3,30.49,12.24l9.34,3.45,2.54.93a5.79,5.79,0,0,1,.88.37,5.57,5.57,0,0,1-.92-.26l-2.57-.83c-2.24-.74-5.46-1.85-9.41-3.28-7.92-2.85-18.78-7-30.59-12.1a15.13,15.13,0,0,1-4.09-2.56,7.86,7.86,0,0,1-2.27-4.12,31.93,31.93,0,0,1-.54-4.45c-.12-1.45-.23-2.87-.34-4.26-.43-5.53-.82-10.52-1.15-14.73s-.54-7.54-.72-9.94c-.07-1.14-.12-2-.17-2.71A5.18,5.18,0,0,1,283.24,318.74Z" style="fill:#263238"/><path d="M258.79,341a2.47,2.47,0,0,1,.08.55c0,.43.09,1,.14,1.58.13,1.46.3,3.42.51,5.8s.53,5.37,1,8.59a82.32,82.32,0,0,0,1.93,10.36,15.62,15.62,0,0,0,2.08,4.94,28.62,28.62,0,0,0,3.19,3.92,27.26,27.26,0,0,0,6.83,5.12,26.13,26.13,0,0,0,7.5,2.46,2.19,2.19,0,0,1-.56,0,10.47,10.47,0,0,1-1.58-.2,20.53,20.53,0,0,1-5.54-1.88,26.52,26.52,0,0,1-7-5.11,28.28,28.28,0,0,1-3.28-4,16.06,16.06,0,0,1-2.17-5.11,78.88,78.88,0,0,1-1.9-10.44c-.39-3.24-.65-6.17-.83-8.62s-.28-4.45-.33-5.83c0-.63,0-1.16,0-1.58A2,2,0,0,1,258.79,341Z" style="fill:#263238"/><path d="M277,369.61a6.63,6.63,0,0,1,.78-2.28,14.63,14.63,0,0,1,8.66-7.39,6.37,6.37,0,0,1,2.37-.41c0,.09-.88.27-2.24.79a17.33,17.33,0,0,0-4.84,2.88,17.06,17.06,0,0,0-3.59,4.33C277.44,368.78,277.13,369.64,277,369.61Z" style="fill:#263238"/><path d="M285.43,338.5a1.17,1.17,0,0,1,.27.12l.76.4a29.09,29.09,0,0,0,3.05,1.29,24.08,24.08,0,0,0,12,1,23.59,23.59,0,0,0,14.86-9.24,19.57,19.57,0,0,0,3.9-9.67,13.42,13.42,0,0,0-.57-5.47,11.17,11.17,0,0,0-3.08-4.7,9.27,9.27,0,0,0-5-2.43,6,6,0,0,0-5,1.41,3.21,3.21,0,0,0-1,2.27,4,4,0,0,0,.83,2.35,6.39,6.39,0,0,0,4.34,2.26,17.52,17.52,0,0,0,9.32-1.33,17.3,17.3,0,0,0,9.83-11,18.55,18.55,0,0,0,.81-5.13,19.86,19.86,0,0,0-.24-3.3l-.15-.84a.94.94,0,0,1,0-.3,13.87,13.87,0,0,1,.65,4.44,18,18,0,0,1-20.26,18,6.89,6.89,0,0,1-4.7-2.46,4.51,4.51,0,0,1-.94-2.67,3.81,3.81,0,0,1,1.14-2.67,6.5,6.5,0,0,1,5.49-1.57,9.79,9.79,0,0,1,5.31,2.57,11.71,11.71,0,0,1,3.24,4.94,13.76,13.76,0,0,1,.58,5.71,20,20,0,0,1-4,9.92,23.58,23.58,0,0,1-27.33,8.12A17.58,17.58,0,0,1,285.43,338.5Z" style="fill:#fff"/><path d="M257.48,327.58a3.74,3.74,0,0,1,.7-.87,15.65,15.65,0,0,1,2.3-2,19.38,19.38,0,0,1,9.44-3.34,18.23,18.23,0,0,1,5.57.23,17,17,0,0,1,4.28,1.51,17.61,17.61,0,0,1,2.61,1.59,3.8,3.8,0,0,1,.86.72c-.06.09-1.34-.88-3.64-2a17.84,17.84,0,0,0-9.62-1.53,20.18,20.18,0,0,0-9.27,3.11C258.6,326.44,257.55,327.66,257.48,327.58Z" style="fill:#fff"/><path d="M264.3,298.33a17.84,17.84,0,0,0,3.45,2.51,12.61,12.61,0,0,0,4.4,1.29,11,11,0,0,0,9.94-4.11,12.61,12.61,0,0,0,2.2-4,17.65,17.65,0,0,0,.67-4.22,3.93,3.93,0,0,1,.14,1.16,10.53,10.53,0,0,1-.43,3.18,12.26,12.26,0,0,1-2.17,4.23,11.23,11.23,0,0,1-10.41,4.3,12.2,12.2,0,0,1-4.53-1.45,10.51,10.51,0,0,1-2.54-1.95A3.9,3.9,0,0,1,264.3,298.33Z" style="fill:#fff"/><path d="M301.49,365.6a4.47,4.47,0,0,1,.08-.81,9.27,9.27,0,0,1,.76-2.2,12.17,12.17,0,0,1,6.39-5.55,18.65,18.65,0,0,1,12.54-.45c2.26.67,4.85,1.5,6.54,3.7a4,4,0,0,1,.48,4,6.37,6.37,0,0,1-3,2.87,9.71,9.71,0,0,1-4,1,5.94,5.94,0,0,1-3.88-1.21,4.92,4.92,0,0,1-1.73-3.51,8.78,8.78,0,0,1,.58-3.7,16.57,16.57,0,0,1,8.79-8.9,17.24,17.24,0,0,1,8.4-1.44,11.52,11.52,0,0,1,3.06.64c0,.08-1.08-.29-3.08-.42a17.48,17.48,0,0,0-8.21,1.59,16.94,16.94,0,0,0-4.79,3.25,15.3,15.3,0,0,0-3.68,5.46,8.32,8.32,0,0,0-.53,3.47,4.43,4.43,0,0,0,1.55,3.13,5.3,5.3,0,0,0,3.51,1.07,9.3,9.3,0,0,0,3.8-.94,5.92,5.92,0,0,0,2.78-2.6,3.41,3.41,0,0,0-.42-3.45,7.92,7.92,0,0,0-2.86-2.27,20.14,20.14,0,0,0-3.37-1.25,18.43,18.43,0,0,0-12.25.31,12.15,12.15,0,0,0-6.34,5.28A11.88,11.88,0,0,0,301.49,365.6Z" style="fill:#fff"/><path d="M273.07,381c0-.11,1.63-.25,4.1-1.13a20.38,20.38,0,0,0,13.09-14.48c.62-2.54.6-4.19.71-4.18a4.36,4.36,0,0,1,.06,1.15,17.93,17.93,0,0,1-.38,3.12,19.71,19.71,0,0,1-13.35,14.78,17.6,17.6,0,0,1-3.07.68A4.27,4.27,0,0,1,273.07,381Z" style="fill:#fff"/><path d="M259.25,349.21a1.9,1.9,0,0,1,.51-.21c.34-.11.86-.27,1.52-.44a18.61,18.61,0,0,1,5.82-.59,12.1,12.1,0,0,1,3.95,1,9.12,9.12,0,0,1,3.69,2.89,7.65,7.65,0,0,1,1.43,5,6,6,0,0,1-.85,2.67,4.21,4.21,0,0,1-2.23,1.87,3,3,0,0,1-2.89-.57,3.79,3.79,0,0,1-1-2.66,11.33,11.33,0,0,1,1-5.07,11.13,11.13,0,0,1,6.23-5.91,11.33,11.33,0,0,1,5.8-.57,9.85,9.85,0,0,1,1.54.39,1.85,1.85,0,0,1,.51.22c0,.06-.73-.22-2.08-.39a11.6,11.6,0,0,0-5.63.73,10.83,10.83,0,0,0-5.89,5.74,11.1,11.1,0,0,0-.92,4.84,3.31,3.31,0,0,0,.82,2.27,2.4,2.4,0,0,0,2.32.44,3.69,3.69,0,0,0,1.93-1.62,5.69,5.69,0,0,0,.77-2.42,7.09,7.09,0,0,0-1.3-4.62,8.63,8.63,0,0,0-3.46-2.77,11.89,11.89,0,0,0-3.79-1,19.53,19.53,0,0,0-5.73.41C260,349.05,259.26,349.25,259.25,349.21Z" style="fill:#fff"/><g style="opacity:0.30000000000000004"><path d="M322.24,374c-4.57-2.58-9-4.56-13.8-6.73s-9.45-5-12.57-9.16c-5.89-7.94-5.22-19.39-11.24-27.23q.58,7.91,1.18,15.8c.36,4.83-.38,9.6,2.73,12.89,2.62,2.76,7.72,4.88,11.34,6.07,7.27,2.4,15.09,6,22.36,8.36"/></g><path d="M396.38,434.15s35.71,9.88,37.14,10.38c2.15.76,1.79,8.64-1.56,8.52-1.58-.06-27.42,1-30.69.75s-13.11-4.08-13.11-4.08Z" style="fill:#45c2e3"/><path d="M411.26,447.77c.18,0,.42-1.86,1.57-3.83a33.3,33.3,0,0,1,2.53-3.29c-.07-.14-1.84.87-3.05,3A6.39,6.39,0,0,0,411.26,447.77Z" style="fill:#263238"/><path d="M407.54,446.08c.17,0,.53-1.66,1.48-3.52s2.08-3.17,2-3.29a6.68,6.68,0,0,0-2.48,3C407.49,444.26,407.38,446.07,407.54,446.08Z" style="fill:#263238"/><path d="M404,445.15a24.79,24.79,0,0,1,.84-3.78c.76-2,2.07-3.2,1.94-3.34a6.73,6.73,0,0,0-2.78,7.12Z" style="fill:#263238"/><path d="M404.68,440.53a6.33,6.33,0,0,0,.38-2.65,12.46,12.46,0,0,0-.36-2.91,12.72,12.72,0,0,0-.53-1.66,2.14,2.14,0,0,0-.57-.88,1,1,0,0,0-1.23.06,1.61,1.61,0,0,0-.48,1,7.71,7.71,0,0,0,0,.95,8,8,0,0,0,.22,1.74,10.27,10.27,0,0,0,1.1,2.73,7.19,7.19,0,0,0,1.6,2.15c.08-.05-.52-.88-1.23-2.34a11.74,11.74,0,0,1-.94-2.66,7.76,7.76,0,0,1-.17-1.63c0-.55,0-1.23.33-1.49a.33.33,0,0,1,.47,0,1.55,1.55,0,0,1,.4.62,13.3,13.3,0,0,1,.54,1.57,14.89,14.89,0,0,1,.47,2.79C404.74,439.51,404.58,440.52,404.68,440.53Z" style="fill:#263238"/><path d="M404.63,440.17a5.05,5.05,0,0,0-2.3-.37,10.12,10.12,0,0,0-2.53.31,5.12,5.12,0,0,0-1.46.54,1.51,1.51,0,0,0-.81,1.63,1.77,1.77,0,0,0,1.29,1.27,3.21,3.21,0,0,0,1.6,0,6.29,6.29,0,0,0,2.32-1.14,6.42,6.42,0,0,0,1.66-1.64,18.19,18.19,0,0,0-1.9,1.29,6.29,6.29,0,0,1-2.19.95,2.84,2.84,0,0,1-1.33,0,1.19,1.19,0,0,1-.87-.85.91.91,0,0,1,.53-1,5.41,5.41,0,0,1,1.3-.51,12,12,0,0,1,2.4-.42C403.74,440.12,404.62,440.27,404.63,440.17Z" style="fill:#263238"/><path d="M416.74,448.15a20.4,20.4,0,0,1,.71-3.22,18.18,18.18,0,0,1,1.75-2.79c-.06-.15-1.56.7-2.31,2.57A4.14,4.14,0,0,0,416.74,448.15Z" style="fill:#263238"/><path d="M391.83,449.8a7.51,7.51,0,0,0,1.38.65,30.13,30.13,0,0,0,4,1.23A56.5,56.5,0,0,0,410.82,453c5.35-.06,10.17-.3,13.67-.44l4.13-.22a7.28,7.28,0,0,0,1.52-.16,7.08,7.08,0,0,0-1.52-.07l-4.15,0-13.66.27a64.55,64.55,0,0,1-13.53-1.11C393.87,450.57,391.87,449.69,391.83,449.8Z" style="fill:#263238"/><path d="M390.78,450.61c0,.09,1-.49,2.67-1.21a12.38,12.38,0,0,1,6.76-1.12,10.75,10.75,0,0,1,5.84,3.47,21.47,21.47,0,0,0,2.05,2.1,10.76,10.76,0,0,0-1.74-2.38,14.77,14.77,0,0,0-2.37-2.22,8.45,8.45,0,0,0-3.69-1.56,11.82,11.82,0,0,0-7,1.33A9.3,9.3,0,0,0,390.78,450.61Z" style="fill:#263238"/><path d="M358.49,424.29s-33.79,22.12-35,23c-1.82,1.38.27,7.93,3.42,6.79,1.49-.53,29.84-8.42,32.89-9.61s11.25-7.87,11.25-7.87Z" style="fill:#45c2e3"/><path d="M348.45,441.79c.15,0-.45-2-2.26-3.62a6.39,6.39,0,0,0-3.8-1.92c-.07.17,1.72.81,3.4,2.36A31.13,31.13,0,0,1,348.45,441.79Z" style="fill:#263238"/><path d="M351.49,439.05a8.95,8.95,0,0,0-5.34-5.46c-.09.16,1.39,1.05,2.85,2.55S351.33,439.13,351.49,439.05Z" style="fill:#263238"/><path d="M354.53,437.09a6.73,6.73,0,0,0-4.81-5.93c-.08.17,1.54.93,2.87,2.59S354.35,437.14,354.53,437.09Z" style="fill:#263238"/><path d="M352.52,432.89c.09,0-.37-.95-.76-2.53a14.81,14.81,0,0,1-.4-2.8,13.32,13.32,0,0,1,0-1.66,1.54,1.54,0,0,1,.18-.71.36.36,0,0,1,.47-.11c.38.15.58.81.76,1.33a7.9,7.9,0,0,1,.34,1.6,12.17,12.17,0,0,1-.09,2.82c-.24,1.6-.55,2.58-.46,2.61a7.45,7.45,0,0,0,.88-2.54,10.59,10.59,0,0,0,.21-2.93,7.91,7.91,0,0,0-.32-1.74,5.6,5.6,0,0,0-.33-.88,1.58,1.58,0,0,0-.76-.82,1,1,0,0,0-1.18.32,1.93,1.93,0,0,0-.28,1,11.27,11.27,0,0,0,0,1.74,12.84,12.84,0,0,0,.54,2.89A6.36,6.36,0,0,0,352.52,432.89Z" style="fill:#263238"/><path d="M352.46,432.53c0,.09.83-.31,2.19-.64a11,11,0,0,1,2.42-.33,5.36,5.36,0,0,1,1.39.08.94.94,0,0,1,.81.79,1.2,1.2,0,0,1-.57,1.07,2.81,2.81,0,0,1-1.26.42,6.16,6.16,0,0,1-2.37-.23,15.49,15.49,0,0,0-2.21-.65,6.53,6.53,0,0,0,2.08,1,6,6,0,0,0,2.56.38A3.29,3.29,0,0,0,359,434a1.78,1.78,0,0,0,.83-1.6,1.49,1.49,0,0,0-1.26-1.31,5.52,5.52,0,0,0-1.55-.07,10.4,10.4,0,0,0-2.51.47A5,5,0,0,0,352.46,432.53Z" style="fill:#263238"/><path d="M331.21,452.88c0,.05.57-.34.83-1.31a5,5,0,0,0-.63-3.67,13.63,13.63,0,0,0-1.14-1.68,6,6,0,0,0-1.14-1.24,2,2,0,0,0-1.08-.45c-.29,0-.43.06-.42.09s.6.05,1.22.69a7.13,7.13,0,0,1,1,1.23c.34.5.72,1,1.05,1.65a5.14,5.14,0,0,1,.74,3.29C331.5,452.36,331.13,452.82,331.21,452.88Z" style="fill:#263238"/><path d="M343.34,443.82c.16,0,.11-1.7-1.19-3.24s-3-1.91-3-1.75a19.58,19.58,0,0,1,2.51,2.13A18.11,18.11,0,0,1,343.34,443.82Z" style="fill:#263238"/><path d="M367.58,437.82a11.69,11.69,0,0,0-1.49,1,40.92,40.92,0,0,1-4.16,2.55,54.6,54.6,0,0,1-6.62,2.95c-2.56,1-5.43,1.85-8.46,2.73-6.08,1.75-11.58,3.35-15.55,4.54l-4.7,1.45a10.86,10.86,0,0,0-1.7.6,10.81,10.81,0,0,0,1.77-.38l4.74-1.26c4-1.09,9.52-2.62,15.61-4.38,3-.88,5.92-1.8,8.49-2.79a50.17,50.17,0,0,0,6.62-3.09,33,33,0,0,0,4.1-2.73A9.91,9.91,0,0,0,367.58,437.82Z" style="fill:#263238"/><path d="M368.83,438.27a9.69,9.69,0,0,0-2.86-.76,11.84,11.84,0,0,0-7.1.87,8.51,8.51,0,0,0-3,2.61,14.07,14.07,0,0,0-1.59,2.83,10.69,10.69,0,0,0-.93,2.8,21.75,21.75,0,0,0,1.32-2.62,10.66,10.66,0,0,1,4.51-5.09,12.42,12.42,0,0,1,6.77-1A27.67,27.67,0,0,0,368.83,438.27Z" style="fill:#263238"/><path d="M428.7,370.34s10.13,3.62,10.18,15c.08,21.77-44,45.77-44,45.77l-58.64-38.86-3.68-1.49S411.73,361,428.7,370.34Z" style="fill:#263238"/><path d="M366,411.86a10.9,10.9,0,0,0,1.53-1c1-.7,2.33-1.73,4-3,3.36-2.59,7.93-6.27,12.84-10.49s9.24-8.18,12.32-11.11c1.53-1.46,2.76-2.66,3.6-3.5a11.19,11.19,0,0,0,1.25-1.36,11.17,11.17,0,0,0-1.41,1.19l-3.73,3.36c-3.14,2.85-7.51,6.75-12.42,11s-9.42,7.93-12.71,10.61l-3.89,3.18A10.22,10.22,0,0,0,366,411.86Z" style="fill:#455a64"/><path d="M412.14,378.47a11.65,11.65,0,0,0-5.65.52c-3.06.89-5.12,2.52-5,2.64s2.23-1.21,5.19-2.07S412.15,378.66,412.14,378.47Z" style="fill:#455a64"/><path d="M407.09,375a7.08,7.08,0,0,0-3.47,2.62,7,7,0,0,0-1.83,3.95c.17.06.81-1.77,2.29-3.58S407.19,375.2,407.09,375Z" style="fill:#455a64"/><path d="M431.92,444c0-.06-.7-.21-1.51.46a5.45,5.45,0,0,0-1.69,3.41,6.7,6.7,0,0,0,.53,3.75c.42.89.87,1.31.92,1.27s-.24-.55-.53-1.43a7.61,7.61,0,0,1-.33-3.51,5.88,5.88,0,0,1,1.38-3.17C431.32,444.09,431.94,444.07,431.92,444Z" style="fill:#263238"/><polygon points="415.21 334.77 394.32 387.72 304.39 389.18 302.73 384.32 334.24 383.18 349.39 336.21 415.21 334.77" style="fill:#ebb31f"/><path d="M373.21,357.69a4,4,0,0,1,4.33.47,3.5,3.5,0,0,1,.84,3.83,3.79,3.79,0,0,1-3.25,2.27A3.41,3.41,0,0,1,371.7,362c-.41-1.42,0-3.55,1.51-4.3" style="fill:#ebebeb"/><path d="M400.44,433.73s-82.85-54.35-86.25-55.48-11.59-6.5-19.79-4.24-15.55,9.62-19.22,20.36c-2.1,6.14-3.09,16.61-3.56,24.46a36.28,36.28,0,0,0,8.49,25.88,23.32,23.32,0,0,0,10.33,7.34c.87.26,1.76.5,2.68.7,15.67,3.39,31.77-3.64,40.57-17l1.93-2.94s54.2,19.91,55.05,19.63Z" style="fill:#263238"/><path d="M297.94,418.77s.15.08.45.2l1.36.54,5.25,2,19.52,7.36c8.29,3.09,18.23,6.77,29.37,10.83s23.5,8.5,36.69,13l.24.08.11-.22,6.48-12.36,3.3-6.31.12-.24-.23-.15-63.2-40.12-19-12-5.16-3.22-1.34-.82c-.31-.19-.47-.27-.47-.27a4.61,4.61,0,0,0,.43.31l1.32.88,5.1,3.31,18.88,12.13L400.28,434l-.1-.39-3.3,6.31c-2.22,4.23-4.4,8.41-6.47,12.36l.36-.14c-13.19-4.45-25.54-8.88-36.7-12.9l-29.41-10.7-19.58-7.19-5.29-1.92-1.38-.49C298.1,418.81,297.94,418.77,297.94,418.77Z" style="fill:#455a64"/><path d="M306.54,225.78c1.41-3.82,4.53-5.48,8.49-6.44a12.69,12.69,0,0,1,11.36,2.93c2,1.84,3.48,4.38,6,5.5,4.09,1.86,9.32-.85,13.19,1.41a5.78,5.78,0,0,1-3.73,10.72c2.66,1.26,3.16,5.27,1.33,7.57s-5.22,2.93-8.06,2.13a16.29,16.29,0,0,1-7.18-4.94c-2-2.16-3.75-4.55-5.92-6.55a12.57,12.57,0,0,0-7.81-3.7c-4-.15-7.65,2.52-9.74,5.92s-2.87,7.41-3.46,11.35-1,8-2.54,11.65c-.18.43-.43.91-.89,1-.66.14-1.15-.59-1.41-1.21a58.37,58.37,0,0,1-4.67-22.26c0-4.43.44-8.58,3.2-12.05s9.1-5.64,11.88-3" style="fill:#263238"/><path d="M297.19,243.46l-6.09,44.26a13.31,13.31,0,0,0,12,15.06h0a13.31,13.31,0,0,0,14.33-11.45c.45-3.34.84-6.11.91-6.45,0,0,11.41.49,13.76-10.55,1.14-5.34,2.58-16.52,3.77-26.65a21,21,0,0,0-16.77-23.05l-1.07-.22C306.39,222.79,298.5,231.77,297.19,243.46Z" style="fill:#ffbe9d"/><path d="M318.4,284.72a26.27,26.27,0,0,1-13.61-7s1.82,8.64,13.06,9.85Z" style="fill:#eb996e"/><path d="M331.17,254.45a1.61,1.61,0,0,1-1.84,1.29A1.55,1.55,0,0,1,328,254a1.61,1.61,0,0,1,1.84-1.29A1.54,1.54,0,0,1,331.17,254.45Z" style="fill:#263238"/><path d="M332.41,252.64c-.23.17-1.25-1-3-1.29s-3.11.26-3.26,0,.2-.45.83-.73a4.36,4.36,0,0,1,2.66-.27,4.18,4.18,0,0,1,2.3,1.28C332.42,252.16,332.53,252.57,332.41,252.64Z" style="fill:#263238"/><path d="M314.37,251.7a1.61,1.61,0,0,1-1.84,1.29,1.54,1.54,0,0,1-1.34-1.75,1.62,1.62,0,0,1,1.84-1.3A1.55,1.55,0,0,1,314.37,251.7Z" style="fill:#263238"/><path d="M315.63,249.62c-.24.16-1.26-1-3-1.3s-3.12.27-3.26,0,.2-.44.82-.73a4.56,4.56,0,0,1,2.67-.27,4.28,4.28,0,0,1,2.3,1.29C315.64,249.13,315.75,249.54,315.63,249.62Z" style="fill:#263238"/><path d="M319.28,263.46a11.28,11.28,0,0,1,2.87.06c.44,0,.87,0,1-.25a2.27,2.27,0,0,0,0-1.34l-.63-3.57c-.84-5.06-1.36-9.19-1.15-9.22s1.05,4,1.89,9.11c.2,1.25.39,2.43.57,3.57a2.61,2.61,0,0,1-.12,1.75,1.1,1.1,0,0,1-.84.49,3,3,0,0,1-.76,0A11,11,0,0,1,319.28,263.46Z" style="fill:#263238"/><path d="M314,263.64c.28,0-.08,1.89,1.24,3.51s3.32,1.82,3.28,2.08-.51.27-1.34.13a4.76,4.76,0,0,1-2.77-1.63,4.09,4.09,0,0,1-.91-2.92C313.62,264,313.92,263.6,314,263.64Z" style="fill:#263238"/><path d="M317.4,243c-.26.43-1.91-.13-4-.29s-3.76.06-3.94-.4c-.08-.23.28-.6,1-.92a7,7,0,0,1,6,.52C317.22,242.4,317.52,242.83,317.4,243Z" style="fill:#263238"/><path d="M332.77,247.59c-.38.33-1.47-.31-2.87-.61s-2.66-.26-2.85-.72c-.08-.22.18-.57.78-.83a4.28,4.28,0,0,1,4.61,1.07C332.86,247,332.94,247.43,332.77,247.59Z" style="fill:#263238"/><path d="M296.46,251.84c-.17-.12-7.16-3.77-8.43,3.84s6.64,7.32,6.69,7.11S296.46,251.84,296.46,251.84Z" style="fill:#ffbe9d"/><path d="M292.87,259.51s-.14.07-.39.14a1.33,1.33,0,0,1-1-.15c-.76-.43-1.22-1.82-1-3.19a4.41,4.41,0,0,1,.69-1.84,1.54,1.54,0,0,1,1.17-.85.68.68,0,0,1,.72.49c.07.23,0,.37,0,.39s.19-.1.18-.42a.92.92,0,0,0-.22-.53,1,1,0,0,0-.7-.31,1.88,1.88,0,0,0-1.59.95,4.59,4.59,0,0,0-.81,2c-.21,1.54.34,3.11,1.39,3.61a1.43,1.43,0,0,0,1.24,0C292.83,259.69,292.9,259.53,292.87,259.51Z" style="fill:#eb996e"/><path d="M338.68,245.85a16.27,16.27,0,0,1-13.56-6c-2.24-2.82-3.66-6.52-6.83-8.23a9.15,9.15,0,0,0-7.06-.44,17.75,17.75,0,0,0-6.17,3.75c1,6-1.68,12-4.3,17.59a3,3,0,0,1-1.23,1.57c-1,.51-2.26-.29-2.88-1.27a9.55,9.55,0,0,1-1.07-5.34,31.79,31.79,0,0,1,2.53-12.26,21.53,21.53,0,0,1,8-9.53,20.46,20.46,0,0,1,15.14-2.51,25.19,25.19,0,0,1,13.28,8,14.72,14.72,0,0,1,3.58,6.28" style="fill:#263238"/><path d="M31.88,424.43a2.25,2.25,0,0,1,.19-.46l.62-1.33a32.77,32.77,0,0,0,1.83-5.3c1.21-4.71,1.63-11.92-.16-20.47a108.84,108.84,0,0,0-3.8-13.76c-1.6-4.88-3.47-10.05-5-15.65a60.54,60.54,0,0,1-2.47-18c.23-6.37,2.11-12.73,4.19-19s4.21-12.53,4.85-18.76a28.66,28.66,0,0,0-3.44-17.33c-2.75-5.05-6.2-9.38-8.78-13.86a47.85,47.85,0,0,1-5.28-13.32,49.6,49.6,0,0,1-.33-20.64,38.09,38.09,0,0,1,2.15-7.29,2.45,2.45,0,0,1-.13.49c-.11.34-.25.8-.43,1.39a51.8,51.8,0,0,0-1.34,5.46A50.2,50.2,0,0,0,15.09,267a47.73,47.73,0,0,0,5.3,13.16c2.58,4.42,6,8.73,8.84,13.84a29.26,29.26,0,0,1,3.55,17.68c-.65,6.34-2.8,12.57-4.87,18.9S24,343.22,23.74,349.48a60.58,60.58,0,0,0,2.41,17.82c1.5,5.57,3.35,10.75,4.93,15.64a109.81,109.81,0,0,1,3.74,13.84c1.74,8.62,1.24,15.89,0,20.62a31.05,31.05,0,0,1-2,5.3l-.68,1.3A3.89,3.89,0,0,1,31.88,424.43Z" style="fill:#263238"/><path d="M23.43,284.88s-5.25-16.77,4.16-26.6a.59.59,0,0,1,1,.29C29.09,261.34,29.72,269.78,23.43,284.88Z" style="fill:#45c2e3"/><path d="M26.57,263.87a15.4,15.4,0,0,1-.35,3.1c-.35,2.13-.75,4.63-1.2,7.4l-1.18,7.4a16,16,0,0,1-.55,3.06,12.55,12.55,0,0,1,.09-3.12c.18-1.92.51-4.55,1-7.45s1-5.5,1.39-7.38A13.85,13.85,0,0,1,26.57,263.87Z" style="fill:#263238"/><path d="M29.59,324.45s3.21-17.28,16.12-21.56a.58.58,0,0,1,.75.72C45.61,306.29,42.21,314,29.59,324.45Z" style="fill:#45c2e3"/><path d="M42.19,307.35a15,15,0,0,1-1.76,2.57l-4.52,6-4.49,6a17,17,0,0,1-1.93,2.45A13.22,13.22,0,0,1,31,321.63c1-1.62,2.59-3.79,4.36-6.13s3.44-4.4,4.68-5.87A13.79,13.79,0,0,1,42.19,307.35Z" style="fill:#263238"/><path d="M26.1,367.81s-2-17.47,9.16-25.32a.59.59,0,0,1,.93.47C36.15,345.78,35.16,354.18,26.1,367.81Z" style="fill:#45c2e3"/><path d="M33.19,347.78a14.2,14.2,0,0,1-.93,3l-2.59,7c-1,2.63-1.83,5-2.56,7a18.41,18.41,0,0,1-1.13,2.9,12.54,12.54,0,0,1,.68-3.05c.54-1.84,1.37-4.37,2.39-7.12s2-5.21,2.77-7A14.59,14.59,0,0,1,33.19,347.78Z" style="fill:#263238"/><path d="M35.83,411.42s-1.33-17.53,10.06-25a.59.59,0,0,1,.91.51C46.66,389.76,45.37,398.13,35.83,411.42Z" style="fill:#45c2e3"/><path d="M43.63,391.66a14.83,14.83,0,0,1-1,2.93l-2.84,6.94-2.81,7a15.66,15.66,0,0,1-1.24,2.85,13.26,13.26,0,0,1,.8-3c.6-1.83,1.53-4.32,2.64-7s2.2-5.13,3-6.87A14.39,14.39,0,0,1,43.63,391.66Z" style="fill:#263238"/><path d="M15.89,270.14S.31,262,0,248.4a.58.58,0,0,1,.91-.5C3.22,249.5,9.64,255,15.89,270.14Z" style="fill:#45c2e3"/><path d="M3.24,253.08a16.34,16.34,0,0,1,1.94,2.43l4.39,6.08L14,267.64a16.3,16.3,0,0,1,1.77,2.56,12.93,12.93,0,0,1-2.14-2.27c-1.23-1.48-2.86-3.58-4.57-6s-3.21-4.58-4.25-6.19A13.45,13.45,0,0,1,3.24,253.08Z" style="fill:#263238"/><path d="M32.62,306.17s-16-7.17-17.18-20.73a.59.59,0,0,1,.88-.56C18.73,286.34,25.47,291.46,32.62,306.17Z" style="fill:#45c2e3"/><path d="M19,289.91A14.17,14.17,0,0,1,21,292.22l4.75,5.8,4.77,5.77a16.59,16.59,0,0,1,1.93,2.45,13.18,13.18,0,0,1-2.28-2.14c-1.32-1.4-3.07-3.39-4.93-5.67s-3.47-4.37-4.61-5.92A14.79,14.79,0,0,1,19,289.91Z" style="fill:#263238"/><path d="M23.38,346.36s-11-13.7-5.85-26.28a.59.59,0,0,1,1-.1C20.05,322.38,23.72,330,23.38,346.36Z" style="fill:#45c2e3"/><path d="M18.63,325.66a15.08,15.08,0,0,1,.8,3c.46,2.11,1,4.58,1.59,7.32s1.15,5.21,1.61,7.32a17.11,17.11,0,0,1,.61,3.05,13.14,13.14,0,0,1-1.06-2.94c-.53-1.84-1.18-4.42-1.8-7.29s-1.1-5.48-1.41-7.38A14,14,0,0,1,18.63,325.66Z" style="fill:#263238"/><path d="M34.3,393.65s-15.93-7.44-16.83-21a.59.59,0,0,1,.89-.55C20.74,373.59,27.39,378.82,34.3,393.65Z" style="fill:#45c2e3"/><path d="M20.91,377.16A16,16,0,0,1,23,379.51l4.65,5.87c1.75,2.19,3.32,4.18,4.67,5.86a16.32,16.32,0,0,1,1.89,2.48,12.4,12.4,0,0,1-2.24-2.17c-1.3-1.43-3-3.45-4.84-5.76s-3.4-4.43-4.51-6A14.1,14.1,0,0,1,20.91,377.16Z" style="fill:#263238"/><path d="M66,324.54a1.73,1.73,0,0,1,0,.39c0,.31,0,.68,0,1.12-.05,1.06-.11,2.49-.19,4.27-.21,3.74-.49,9-.83,15.22h0v0c-1.14,6.36-4.38,13.41-8.73,20.26-3.19,5-6.53,9.63-9.42,13.89a97.6,97.6,0,0,0-7.06,11.68A49.14,49.14,0,0,0,36.46,400c-.28,1-.49,1.87-.61,2.43a4.61,4.61,0,0,1-.23.84,3.57,3.57,0,0,1,.1-.87c.08-.57.25-1.4.49-2.47a45.37,45.37,0,0,1,3.14-8.71,92.79,92.79,0,0,1,7-11.81c2.86-4.29,6.19-8.88,9.37-13.9,4.33-6.81,7.55-13.75,8.73-20v0c.44-6.24.81-11.46,1.07-15.2.14-1.78.26-3.2.34-4.26q.08-.66.12-1.11C66,324.67,66,324.54,66,324.54Z" style="fill:#263238"/><path d="M56.53,364.52s6.75-16.23-1.74-26.87a.58.58,0,0,0-1,.2C53,340.56,51.63,348.91,56.53,364.52Z" style="fill:#45c2e3"/><path d="M55.31,343.31a14.46,14.46,0,0,1,.53,3.07c.24,1.91.51,4.55.72,7.48s.3,5.58.3,7.51a13.42,13.42,0,0,1-.18,3.11,15.8,15.8,0,0,1-.28-3.1c-.14-2.15-.31-4.68-.5-7.47s-.37-5.33-.52-7.48A15.36,15.36,0,0,1,55.31,343.31Z" style="fill:#263238"/><g style="opacity:0.30000000000000004"><path d="M56.53,364.52s6.75-16.23-1.74-26.87a.58.58,0,0,0-1,.2C53,340.56,51.63,348.91,56.53,364.52Z"/></g><path d="M35.65,403.64s5.4-16.73-3.92-26.64a.58.58,0,0,0-1,.28C30.21,380,29.5,388.48,35.65,403.64Z" style="fill:#45c2e3"/><path d="M32.7,382.6a13.89,13.89,0,0,1,.78,3c.4,1.88.88,4.49,1.32,7.39s.76,5.54.92,7.46a12.65,12.65,0,0,1,.06,3.12,18.29,18.29,0,0,1-.52-3.07c-.32-2.14-.69-4.64-1.11-7.41s-.8-5.28-1.12-7.41A15.18,15.18,0,0,1,32.7,382.6Z" style="fill:#263238"/><g style="opacity:0.30000000000000004"><path d="M35.65,403.64s5.4-16.73-3.92-26.64a.58.58,0,0,0-1,.28C30.21,380,29.5,388.48,35.65,403.64Z"/></g><path d="M65.12,344.68s14.4-10.08,12.95-23.6a.58.58,0,0,0-1-.38C75,322.58,69.36,328.88,65.12,344.68Z" style="fill:#45c2e3"/><g style="opacity:0.30000000000000004"><path d="M65.12,344.68s14.4-10.08,12.95-23.6a.58.58,0,0,0-1-.38C75,322.58,69.36,328.88,65.12,344.68Z"/></g><path d="M75.46,326.13A13.33,13.33,0,0,1,74.27,329c-.82,1.73-2,4.11-3.41,6.69s-2.73,4.87-3.77,6.5a12.5,12.5,0,0,1-1.83,2.52A17.3,17.3,0,0,1,66.69,342c1-1.89,2.25-4.12,3.59-6.58s2.54-4.69,3.57-6.59A15.57,15.57,0,0,1,75.46,326.13Z" style="fill:#263238"/><path d="M41.45,387.06s17.37-2.71,22-15.49a.58.58,0,0,0-.7-.77C60.07,371.57,52.22,374.74,41.45,387.06Z" style="fill:#45c2e3"/><g style="opacity:0.30000000000000004"><path d="M41.45,387.06s17.37-2.71,22-15.49a.58.58,0,0,0-.7-.77C60.07,371.57,52.22,374.74,41.45,387.06Z"/></g><path d="M58.91,375A14,14,0,0,1,56.57,377c-1.5,1.2-3.62,2.8-6,4.51s-4.6,3.17-6.24,4.17a13.73,13.73,0,0,1-2.76,1.47,16.37,16.37,0,0,1,2.5-1.86L50.18,381l6.11-4.34A15.6,15.6,0,0,1,58.91,375Z" style="fill:#263238"/><polygon points="24.88 419.02 19.82 453.12 51.39 453.12 47.3 419.02 24.88 419.02" style="fill:#455a64"/><path d="M48.56,429.59c0,.18-5.7.32-12.73.32s-12.73-.14-12.73-.32,5.7-.33,12.73-.33S48.56,429.4,48.56,429.59Z" style="fill:#263238"/><path d="M49.19,432.3c0,.18-5.89.33-13.15.33s-13.15-.15-13.15-.33S28.77,432,36,432,49.19,432.12,49.19,432.3Z" style="fill:#263238"/></g></svg>