<svg xmlns="http://www.w3.org/2000/svg" viewBox="0 0 439.98 453.4"><title>asset-beranda-akseptasi</title><g id="OBJECTS"><path d="M84.26,148.32a19,19,0,0,1,4.66-2l1-4.62,7.8-.13,1.12,4.57a19.89,19.89,0,0,1,4.73,1.86l3.94-2.58,5.61,5.42-2.44,4a19,19,0,0,1,2,4.66l4.62,1,.13,7.8-4.57,1.12a19.72,19.72,0,0,1-1.86,4.73l2.58,3.94-5.42,5.61-4-2.44a18.64,18.64,0,0,1-4.66,2l-1,4.62-7.8.14-1.12-4.58a18.92,18.92,0,0,1-4.73-1.86l-3.94,2.58-5.61-5.42,2.44-4a19.28,19.28,0,0,1-2-4.67l-4.61-1-.14-7.8,4.58-1.12a19.08,19.08,0,0,1,1.86-4.73l-2.58-3.94,5.42-5.61,4,2.44Zm4.15,10.39a8.37,8.37,0,1,0,11.83-.21A8.37,8.37,0,0,0,88.41,158.71Z" style="fill:#e0e0e0"/><path d="M88.41,158.71A6.33,6.33,0,0,1,90,157.34a8.39,8.39,0,0,1,5.46-1.29,8.5,8.5,0,0,1,6.71,4.7,8.41,8.41,0,0,1,.76,2.35,7.9,7.9,0,0,1,0,2.57A8.52,8.52,0,0,1,95.88,173a8.22,8.22,0,0,1-2.57,0,7.87,7.87,0,0,1-2.38-.68A8.47,8.47,0,0,1,86,165.81a8.38,8.38,0,0,1,1.1-5.5,6.37,6.37,0,0,1,1.31-1.6s-.5.55-1.15,1.7a8.35,8.35,0,0,0-.92,5.35A8.16,8.16,0,0,0,91.11,172a7.73,7.73,0,0,0,2.26.63,7.64,7.64,0,0,0,2.43-.05,8.12,8.12,0,0,0,6.68-6.92,8,8,0,0,0,0-2.44,8.07,8.07,0,0,0-.71-2.23,8.16,8.16,0,0,0-6.35-4.55,8.32,8.32,0,0,0-5.32,1.11C88.94,158.19,88.45,158.75,88.41,158.71Z" style="fill:#e0e0e0"/><path d="M84.26,148.32a1.56,1.56,0,0,1-.26-.13l-.78-.45-3-1.79.09,0-5.38,5.65v-.16c.79,1.2,1.66,2.52,2.6,3.93l0,.08,0,.07a19.34,19.34,0,0,0-1.84,4.7l0,.09-.09,0L71,161.45l.13-.17q.07,3.69.16,7.8l-.15-.18,4.61.95.12,0,0,.12a18.62,18.62,0,0,0,2,4.61l.06.1-.06.11-2.44,4,0-.26L81.05,184l-.27,0,3.93-2.58.12-.08.12.07a19.09,19.09,0,0,0,4.68,1.83l.13,0,0,.13c.35,1.44.73,3,1.12,4.58l-.23-.18,7.8-.14-.23.19c.3-1.46.63-3,1-4.61l0-.15.13,0a18.69,18.69,0,0,0,4.6-2h0l.12-.07.13.07,4,2.45-.3,0,5.42-5.61,0,.29-2.58-3.94-.08-.12.07-.12a19.06,19.06,0,0,0,1.84-4.68l0-.13.13,0,4.58-1.11-.17.22q-.07-4-.13-7.8l.17.22-4.61-1-.13,0,0-.12a19.11,19.11,0,0,0-2-4.62l-.07-.1.07-.11,2.45-4,0,.25-5.6-5.43.23,0-3.95,2.57-.08.06-.1-.06a19,19,0,0,0-4.68-1.85l-.09,0,0-.09-1.1-4.58.14.11-7.8.1.1-.09c-.39,1.84-.72,3.35-1,4.61v.05h0a20.21,20.21,0,0,0-3.57,1.37l-.84.44a1.13,1.13,0,0,1-.27.14l.26-.17c.17-.11.44-.28.82-.48a18.83,18.83,0,0,1,3.56-1.45l-.06.06c.26-1.26.56-2.77.93-4.62l0-.08h.09l7.79-.17h.12l0,.11c.35,1.42.73,2.91,1.14,4.58l-.11-.12a19.43,19.43,0,0,1,4.77,1.86h-.18l3.94-2.59.12-.08.11.1,5.62,5.4.11.12-.08.13-2.44,4v-.21a19,19,0,0,1,2.06,4.71l-.16-.15,4.61.95.18,0v.18c0,2.53.09,5.13.14,7.79v.19l-.18,0-4.58,1.13.17-.17a18.94,18.94,0,0,1-1.88,4.78V174l2.59,3.94.1.16-.13.14-5.42,5.61-.13.14-.16-.1-4-2.45h.24a19.81,19.81,0,0,1-4.71,2.05l.16-.19c-.33,1.59-.65,3.16-1,4.62l0,.18h-.19l-7.79.13h-.19l-.05-.18c-.38-1.58-.76-3.14-1.12-4.58l.17.17a19.52,19.52,0,0,1-4.78-1.88H85L81,184.34l-.15.09-.13-.12-5.6-5.42-.12-.12.09-.15c.85-1.4,1.69-2.77,2.44-4v.21a19.77,19.77,0,0,1-2-4.71l.15.14-4.61-1-.15,0v-.16c0-2.73-.08-5.34-.12-7.79v-.14l.13,0L75.49,160l-.11.11a19.31,19.31,0,0,1,1.89-4.76v.15c-.92-1.42-1.78-2.76-2.56-3.95l-.06-.08.07-.07,5.45-5.58,0-.05.06,0,3,1.84.77.49Z" style="fill:#e0e0e0"/><path d="M313.17,203.67a11.68,11.68,0,0,1,2.79-1.21l.57-2.76,4.67-.08.67,2.74a11.41,11.41,0,0,1,2.83,1.11l2.36-1.55,3.36,3.25L329,207.58a11.29,11.29,0,0,1,1.21,2.79l2.76.57.09,4.67-2.74.67a11.5,11.5,0,0,1-1.12,2.84l1.55,2.35-3.24,3.36-2.42-1.46a11.29,11.29,0,0,1-2.79,1.21l-.57,2.77-4.67.08-.67-2.74a11.06,11.06,0,0,1-2.83-1.12l-2.36,1.55-3.36-3.24,1.46-2.41a11.52,11.52,0,0,1-1.21-2.8l-2.76-.57-.09-4.67,2.75-.67a11.41,11.41,0,0,1,1.11-2.83l-1.55-2.36,3.25-3.36,2.41,1.46Zm2.49,6.22a5,5,0,1,0,7.08-.12A5,5,0,0,0,315.66,209.89Z" style="fill:#f5f5f5"/><path d="M315.66,209.89a3.75,3.75,0,0,1,.93-.82,5,5,0,0,1,3.26-.77,5.14,5.14,0,0,1,2.23.79,5.2,5.2,0,0,1,1.79,2,5.07,5.07,0,0,1,.46,1.41,4.68,4.68,0,0,1,0,1.54A5.1,5.1,0,0,1,323,217a5.22,5.22,0,0,1-2.83,1.49,4.69,4.69,0,0,1-1.54,0,4.81,4.81,0,0,1-1.43-.4,5.21,5.21,0,0,1-2.08-1.72,5.1,5.1,0,0,1-.87-2.2,5,5,0,0,1,.66-3.29,4,4,0,0,1,.79-1,8.9,8.9,0,0,0-.69,1,5,5,0,0,0,.3,5.29,5,5,0,0,0,2,1.62,4.74,4.74,0,0,0,1.35.37,4.48,4.48,0,0,0,1.46,0,4.94,4.94,0,0,0,2.68-1.41,5,5,0,0,0,1.32-2.73,4.76,4.76,0,0,0,0-1.46,4.61,4.61,0,0,0-.43-1.33,4.94,4.94,0,0,0-1.69-1.94,4.85,4.85,0,0,0-2.11-.79,5,5,0,0,0-3.18.67A11.81,11.81,0,0,0,315.66,209.89Z" style="fill:#f5f5f5"/><path d="M313.17,203.67s-.06,0-.16-.08l-.46-.27-1.82-1.07h.06l-3.22,3.38v-.09c.48.71,1,1.5,1.56,2.35l0,0,0,.05a11.34,11.34,0,0,0-1.09,2.81l0,.06h0l-2.74.68.08-.1c0,1.47.06,3,.09,4.67l-.09-.11,2.76.57h.07l0,.07a11.44,11.44,0,0,0,1.21,2.76l0,.07,0,.06-1.46,2.41,0-.15,3.36,3.23h-.17l2.36-1.55.07-.05.07,0a11.19,11.19,0,0,0,2.8,1.1l.08,0,0,.08c.21.86.44,1.8.68,2.74l-.14-.1,4.67-.09-.14.12c.18-.88.38-1.82.57-2.77l0-.08.08,0a11.68,11.68,0,0,0,2.76-1.2h0l.08-.05.07.05,2.41,1.46-.18,0,3.25-3.35,0,.17L329,219.19l0-.07,0-.07a11.73,11.73,0,0,0,1.1-2.8l0-.08.08,0,2.74-.67-.1.13c0-1.59-.05-3.15-.08-4.66l.11.12-2.76-.57-.08,0,0-.07a11.44,11.44,0,0,0-1.2-2.77l0-.06,0-.07c.51-.82,1-1.62,1.47-2.4l0,.14L327,202l.13,0-2.36,1.54-.05,0-.06,0a11.18,11.18,0,0,0-2.8-1.11l-.06,0v-.05l-.66-2.74.08.06-4.67.06.07,0c-.24,1.1-.43,2-.6,2.76v0h0a10.79,10.79,0,0,0-2.13.82l-.51.26c-.11.06-.16.09-.16.08l.15-.1c.11-.07.27-.17.49-.29a11.54,11.54,0,0,1,2.14-.86l0,0c.16-.75.34-1.66.56-2.77v-.05h0l4.67-.1h.07v.07c.21.84.44,1.74.68,2.73l-.07-.06a11.18,11.18,0,0,1,2.86,1.11h-.1l2.35-1.55.08-.05.06.07,3.36,3.23.07.07-.05.08c-.47.78-.95,1.59-1.45,2.41v-.13a11.7,11.7,0,0,1,1.23,2.82l-.1-.09,2.76.58.1,0v.1c0,1.52.05,3.08.08,4.67v.11l-.11,0-2.74.68.1-.1a11.64,11.64,0,0,1-1.12,2.86V219l1.55,2.36.06.09-.08.08c-1.06,1.11-2.15,2.23-3.24,3.36l-.08.09-.1-.06L325,223.49h.15a11.81,11.81,0,0,1-2.83,1.22l.1-.11c-.19.95-.39,1.89-.57,2.77l0,.11h-.11l-4.67.08h-.11l0-.11-.67-2.74.11.1a11.45,11.45,0,0,1-2.87-1.13h.14l-2.36,1.54-.09.06-.07-.07L307.71,222l-.07-.07.05-.09,1.47-2.41v.13a11.52,11.52,0,0,1-1.23-2.82l.09.08-2.76-.58-.09,0v-.09c0-1.64-.05-3.2-.07-4.67v-.08l.08,0,2.74-.66-.07.07a11.39,11.39,0,0,1,1.14-2.85V208l-1.54-2.36,0-.05,0,0,3.26-3.34,0,0,0,0,1.78,1.11.45.29Z" style="fill:#f5f5f5"/><path d="M349.81,32.31a14.49,14.49,0,0,1,3.6-1.56l.74-3.56,6-.1.86,3.52a14.61,14.61,0,0,1,3.65,1.44l3-2L372,34.23l-1.88,3.11a15,15,0,0,1,1.56,3.59l3.55.74.11,6-3.53.86a15,15,0,0,1-1.43,3.65l2,3-4.18,4.32-3.1-1.88a14.49,14.49,0,0,1-3.6,1.56l-.74,3.56-6,.1-.87-3.53a14.57,14.57,0,0,1-3.65-1.43l-3,2-4.33-4.17,1.89-3.11a14.84,14.84,0,0,1-1.57-3.59l-3.55-.74-.11-6,3.53-.87a14.54,14.54,0,0,1,1.44-3.64l-2-3,4.18-4.32,3.1,1.88Zm3.21,8a6.45,6.45,0,1,0,9.11-.16A6.45,6.45,0,0,0,353,40.31Z" style="fill:#f5f5f5"/><path d="M353,40.31a4.78,4.78,0,0,1,1.2-1.05,6.53,6.53,0,0,1,7.06,0,6.55,6.55,0,0,1,2.31,2.61,6,6,0,0,1,.59,1.81,6.25,6.25,0,0,1,0,2,6.58,6.58,0,0,1-5.44,5.64,6.05,6.05,0,0,1-2,0,6.14,6.14,0,0,1-1.83-.52,6.63,6.63,0,0,1-2.68-2.22,6.49,6.49,0,0,1-.27-7.06,4.83,4.83,0,0,1,1-1.24s-.39.43-.89,1.31a6.45,6.45,0,0,0-.71,4.13,6.34,6.34,0,0,0,3.68,4.77,5.82,5.82,0,0,0,1.74.48,5.6,5.6,0,0,0,1.87,0,6.25,6.25,0,0,0,5.15-5.33,5.92,5.92,0,0,0,0-1.88,5.79,5.79,0,0,0-.54-1.71,6.31,6.31,0,0,0-4.9-3.51,6.44,6.44,0,0,0-4.1.85C353.43,39.91,353.05,40.35,353,40.31Z" style="fill:#f5f5f5"/><path d="M349.81,32.31l-.2-.11-.59-.34-2.34-1.38h.07l-4.15,4.35V34.7c.61.92,1.28,1.94,2,3l0,.05,0,.06a14.6,14.6,0,0,0-1.41,3.62l0,.07-.07,0-3.53.88.1-.13c0,1.89.08,3.9.12,6l-.11-.14,3.56.74.09,0,0,.09a14.8,14.8,0,0,0,1.55,3.55l.05.08-.05.08c-.58,1-1.22,2-1.88,3.11l0-.2,4.33,4.17-.22,0,3-2,.09-.06.09.06a14.76,14.76,0,0,0,3.6,1.41l.11,0,0,.1c.28,1.11.57,2.31.87,3.53l-.18-.14,6-.11-.18.15c.24-1.12.49-2.34.74-3.56l0-.11.1,0A14.32,14.32,0,0,0,365,57.51h0l.1-.06.09.06,3.11,1.88-.23,0,4.18-4.32,0,.23-2-3-.06-.09.06-.1a14.59,14.59,0,0,0,1.42-3.6l0-.1.11,0,3.53-.86-.14.17q0-3.07-.1-6l.14.17-3.56-.75-.09,0,0-.09A14.74,14.74,0,0,0,370,37.42l-.05-.08.05-.09,1.89-3.1,0,.19-4.31-4.18.17,0-3,2-.07,0-.07,0A15,15,0,0,0,361,30.73l-.07,0,0-.07c-.31-1.28-.59-2.44-.85-3.53l.11.09-6,.07.08-.06c-.31,1.42-.56,2.58-.76,3.55v0h0a15.38,15.38,0,0,0-2.74,1.05l-.65.34-.22.11a1.72,1.72,0,0,1,.2-.14c.14-.08.35-.21.64-.36a13.94,13.94,0,0,1,2.74-1.12l0,0c.2-1,.43-2.14.72-3.57v-.06h.07l6-.13h.09l0,.09c.27,1.09.56,2.24.88,3.52l-.09-.08a14.64,14.64,0,0,1,3.68,1.43h-.14l3-2,.09-.06.08.08,4.33,4.16.09.09-.06.1-1.88,3.11v-.17a15.27,15.27,0,0,1,1.59,3.64l-.13-.12,3.56.73.13,0v.14c0,1.95.08,4,.12,6v.14l-.14,0-3.53.87.13-.13a14.88,14.88,0,0,1-1.44,3.69v-.19l2,3,.08.12-.1.1-4.17,4.33-.11.11-.12-.08L365,57.83h.19a15.45,15.45,0,0,1-3.64,1.58l.13-.14c-.25,1.22-.5,2.43-.74,3.55l0,.15h-.14l-6,.1h-.15l0-.14c-.3-1.22-.59-2.43-.86-3.53l.13.13a14.8,14.8,0,0,1-3.69-1.46h.18l-3,2-.11.08-.1-.1-4.32-4.18-.1-.09.07-.11,1.89-3.1v.16a14.62,14.62,0,0,1-1.57-3.63l.11.11-3.55-.75-.12,0v-.12c0-2.11-.06-4.12-.09-6v-.1l.1,0,3.53-.85-.09.08a15,15,0,0,1,1.46-3.67v.12l-2-3.05,0-.06.05-.05,4.2-4.3,0,0,0,0L349,31.8l.58.37A1,1,0,0,1,349.81,32.31Z" style="fill:#f5f5f5"/><path d="M251.72,58.94a11.68,11.68,0,0,1,2.79-1.21l.58-2.76,4.66-.08.67,2.74a11.47,11.47,0,0,1,2.84,1.11l2.36-1.55L269,60.44l-1.46,2.41a10.93,10.93,0,0,1,1.21,2.79l2.77.57.08,4.67-2.74.67a11.13,11.13,0,0,1-1.12,2.84l1.55,2.35L266,80.1l-2.41-1.46a11.62,11.62,0,0,1-2.79,1.21l-.58,2.77-4.67.08L254.9,80a11.06,11.06,0,0,1-2.83-1.12l-2.36,1.55-3.36-3.24,1.46-2.41a11.92,11.92,0,0,1-1.21-2.8l-2.76-.57-.08-4.67L246.5,66a11.41,11.41,0,0,1,1.11-2.83l-1.54-2.36,3.24-3.36,2.41,1.46Zm2.49,6.22a5,5,0,1,0,7.08-.12A5,5,0,0,0,254.21,65.16Z" style="fill:#f5f5f5"/><path d="M254.21,65.16a3.75,3.75,0,0,1,.93-.82,5,5,0,0,1,3.27-.77,5.1,5.1,0,0,1,2.22.79,5,5,0,0,1,1.79,2,4.76,4.76,0,0,1,.46,1.41,5,5,0,0,1,0,1.54,5.16,5.16,0,0,1-1.39,2.89,5.28,5.28,0,0,1-2.84,1.49,4.69,4.69,0,0,1-1.54,0,4.75,4.75,0,0,1-1.42-.4,5.18,5.18,0,0,1-2.09-1.72,5.11,5.11,0,0,1-.21-5.49,4,4,0,0,1,.79-1,10.9,10.9,0,0,0-.69,1,4.91,4.91,0,0,0-.55,3.2,4.75,4.75,0,0,0,.86,2.09,4.94,4.94,0,0,0,2,1.62,4.74,4.74,0,0,0,1.35.37,4.48,4.48,0,0,0,1.46,0,4.85,4.85,0,0,0,4-4.14,4.76,4.76,0,0,0,0-1.46,4.9,4.9,0,0,0-4.23-4.06,5,5,0,0,0-3.18.67C254.53,64.85,254.23,65.19,254.21,65.16Z" style="fill:#f5f5f5"/><path d="M251.72,58.94s-.05,0-.16-.08l-.46-.27-1.82-1.07h.06l-3.22,3.38V60.8l1.55,2.35,0,0,0,.05a11.35,11.35,0,0,0-1.1,2.81v.06h-.06l-2.74.68.08-.1c0,1.47.06,3,.09,4.67l-.09-.11,2.77.57h.07l0,.07a11,11,0,0,0,1.2,2.76l0,.07,0,.06-1.46,2.41,0-.15,3.36,3.23h-.16L252,78.73l.07,0,.08,0a11,11,0,0,0,2.79,1.1l.09,0,0,.08.67,2.74-.14-.1,4.67-.09-.14.12c.18-.88.38-1.82.57-2.77l0-.08.09,0a11.44,11.44,0,0,0,2.75-1.2h0l.08,0,.07,0L266.09,80l-.17,0,3.24-3.35,0,.17-1.54-2.36-.05-.07,0-.07a11,11,0,0,0,1.1-2.8l0-.08.09,0,2.74-.67-.11.13c0-1.59-.05-3.15-.08-4.66l.11.12-2.76-.57-.08,0,0-.07a11.82,11.82,0,0,0-1.19-2.77l0-.06,0-.07,1.46-2.4,0,.14-3.35-3.25.14,0-2.37,1.54-.05,0-.05,0a11.24,11.24,0,0,0-2.81-1.11l0,0,0-.05c-.24-1-.45-1.9-.66-2.74l.08.06-4.66.06.06-.05c-.24,1.1-.43,2-.59,2.76v0h0a11.06,11.06,0,0,0-2.13.82l-.5.26c-.12.06-.17.09-.17.08l.16-.1a4.51,4.51,0,0,1,.49-.29,11.38,11.38,0,0,1,2.13-.86l0,0L255,55V54.9h.05l4.67-.1h.07l0,.07c.21.84.43,1.74.68,2.73l-.07-.06a11.18,11.18,0,0,1,2.86,1.11h-.11l2.36-1.55.07-.05.06.07,3.37,3.23.07.07-.05.08c-.48.78-1,1.59-1.46,2.41v-.13a11.7,11.7,0,0,1,1.23,2.82l-.1-.09,2.76.58.11,0v.1c0,1.52.06,3.08.09,4.67V71l-.11,0-2.74.67.1-.1a11.64,11.64,0,0,1-1.12,2.86v-.14l1.55,2.36.06.09-.08.08q-1.59,1.66-3.24,3.36l-.08.09-.1-.06-2.41-1.47h.15A11.65,11.65,0,0,1,260.85,80l.11-.11c-.2,1-.4,1.89-.58,2.77l0,.11h-.12l-4.66.08h-.12l0-.11c-.24-.94-.46-1.88-.67-2.74l.1.1A11.61,11.61,0,0,1,252,79h.14l-2.36,1.54-.09.06-.07-.07-3.36-3.25-.07-.07.05-.09,1.47-2.41v.13A11.47,11.47,0,0,1,246.49,72l.09.08-2.76-.58-.09,0v-.09c0-1.64,0-3.2-.08-4.67v-.08l.08,0,2.74-.66-.06.07a11.38,11.38,0,0,1,1.13-2.85v.08L246,60.88l0-.05,0,0,3.26-3.34,0,0,0,0,1.78,1.11.45.29Z" style="fill:#f5f5f5"/><path d="M37.83,141.26a11.68,11.68,0,0,1,2.79-1.21l.58-2.76,4.66-.08.68,2.74a11.56,11.56,0,0,1,2.83,1.11l2.36-1.54,3.35,3.24-1.46,2.41A11.32,11.32,0,0,1,54.84,148l2.76.58.08,4.66-2.74.68a11.56,11.56,0,0,1-1.11,2.83l1.54,2.36-3.24,3.35L49.72,161a11.49,11.49,0,0,1-2.79,1.22l-.58,2.76-4.67.08L41,162.28a11.06,11.06,0,0,1-2.83-1.12l-2.36,1.55-3.36-3.24,1.47-2.41a11.66,11.66,0,0,1-1.22-2.79L30,153.69,29.87,149l2.74-.67a11.41,11.41,0,0,1,1.11-2.83l-1.54-2.36,3.24-3.36,2.41,1.46Zm2.49,6.22a5,5,0,1,0,7.08-.12A5,5,0,0,0,40.32,147.48Z" style="fill:#f5f5f5"/><path d="M40.32,147.48a3.75,3.75,0,0,1,.93-.82,5.07,5.07,0,0,1,7.28,2,4.76,4.76,0,0,1,.46,1.41,5,5,0,0,1,0,1.54A5.1,5.1,0,0,1,44.79,156a5,5,0,0,1-1.54,0,4.85,4.85,0,0,1-1.42-.41,5.18,5.18,0,0,1-2.09-1.72,5.1,5.1,0,0,1-.21-5.49,4,4,0,0,1,.79-1s-.3.33-.69,1a4.91,4.91,0,0,0-.55,3.2,4.75,4.75,0,0,0,.86,2.09,4.9,4.9,0,0,0,2,1.62,4.3,4.3,0,0,0,1.34.37,4.48,4.48,0,0,0,1.46,0,4.85,4.85,0,0,0,4-4.14,4.76,4.76,0,0,0,0-1.46,4.9,4.9,0,0,0-4.23-4.06,5,5,0,0,0-3.18.67C40.64,147.17,40.34,147.51,40.32,147.48Z" style="fill:#f5f5f5"/><path d="M37.83,141.26s0,0-.16-.08l-.46-.26-1.82-1.08h.06l-3.22,3.38v-.09l1.55,2.35,0,.05,0,0a11.35,11.35,0,0,0-1.1,2.81v.06h-.06l-2.74.68L30,149c0,1.47.06,3,.09,4.67l-.09-.11,2.77.57h.07l0,.07A11,11,0,0,0,34,157l0,.07,0,.06-1.46,2.41,0-.15,3.36,3.23h-.16l2.36-1.55.06,0,.08,0a11.26,11.26,0,0,0,2.8,1.09l.08,0,0,.09.67,2.74-.14-.11,4.67-.09-.14.12c.18-.87.38-1.82.58-2.76v-.09l.09,0a11.05,11.05,0,0,0,2.75-1.2h0l.08-.05.07.05,2.41,1.46-.17,0L55.27,159l0,.17-1.54-2.36-.05-.07,0-.07a10.8,10.8,0,0,0,1.1-2.8l0-.08.09,0,2.74-.67-.11.14c0-1.6,0-3.15-.07-4.67l.1.13-2.76-.58-.08,0,0-.07a11.82,11.82,0,0,0-1.19-2.77l0-.06,0-.06L55,142.7l0,.14-3.35-3.25.14,0-2.37,1.54-.05,0,0,0A11.48,11.48,0,0,0,46.51,140h0l0-.06c-.24-1-.45-1.89-.66-2.74l.09.06-4.67.06.06,0c-.24,1.1-.43,2-.59,2.76v0h0a11.06,11.06,0,0,0-2.13.82l-.5.26c-.12.06-.17.09-.17.08l.16-.1a3.46,3.46,0,0,1,.49-.28,10.62,10.62,0,0,1,2.13-.87l0,0,.55-2.76v-.05h.06l4.66-.1h.07l0,.07.68,2.74-.07-.07A11.56,11.56,0,0,1,49.42,141h-.11l2.36-1.56.07,0,.06.06,3.37,3.23.07.07-.05.08c-.48.78-1,1.59-1.46,2.41v-.12A11.53,11.53,0,0,1,55,147.93l-.1-.09,2.76.57.11,0v.1c0,1.52.06,3.08.09,4.67v.11l-.11,0L55,154l.1-.1A11.47,11.47,0,0,1,54,156.78v-.15L55.49,159l.06.09-.08.08q-1.59,1.67-3.24,3.36l-.08.09-.1-.06c-.79-.49-1.6-1-2.41-1.46h.15A11.75,11.75,0,0,1,47,162.31l.1-.11c-.2,1-.4,1.89-.58,2.77l0,.11h-.12l-4.66.08h-.12l0-.11-.67-2.74.1.1a11.23,11.23,0,0,1-2.87-1.13h.15l-2.37,1.54-.08.06-.08-.07-3.36-3.25-.07-.07.05-.09L33.82,157v.13a11.47,11.47,0,0,1-1.22-2.82l.09.08-2.76-.58-.09,0v-.09c0-1.63-.05-3.19-.07-4.66v-.09l.08,0,2.75-.66-.07.07a11.53,11.53,0,0,1,1.13-2.85v.09l-1.53-2.37,0,0,0,0,3.27-3.34,0,0,0,0,1.78,1.11.46.29Z" style="fill:#f5f5f5"/><path d="M59.65,213.89a36.24,36.24,0,0,1,8.85-3.84l1.82-8.76L85.11,201l2.13,8.69a36,36,0,0,1,9,3.53l7.47-4.9,10.65,10.27-4.64,7.64a36.67,36.67,0,0,1,3.85,8.85l8.75,1.82.26,14.79-8.69,2.13a36,36,0,0,1-3.53,9l4.9,7.48L105,280.94l-7.64-4.63a36.24,36.24,0,0,1-8.85,3.84l-1.82,8.75-14.79.26-2.13-8.68a36.71,36.71,0,0,1-9-3.53l-7.47,4.9L42.65,271.57l4.63-7.64a36.6,36.6,0,0,1-3.85-8.84l-8.75-1.83-.26-14.78,8.69-2.13a36.23,36.23,0,0,1,3.53-9l-4.9-7.47L52,209.26l7.64,4.63Zm7.89,19.7A15.87,15.87,0,1,0,90,233.2,15.87,15.87,0,0,0,67.54,233.59Z" style="fill:none;stroke:#e0e0e0;stroke-miterlimit:10;stroke-width:0.05px"/><path d="M67.54,233.59A12,12,0,0,1,70.49,231a15.78,15.78,0,0,1,10.35-2.45,16.07,16.07,0,0,1,7,2.5,16.34,16.34,0,0,1,5.69,6.41,16.34,16.34,0,0,1,1.53,9.34,16.19,16.19,0,0,1-13.39,13.88,15.45,15.45,0,0,1-4.89.08,15.28,15.28,0,0,1-4.5-1.29A16.21,16.21,0,0,1,65.71,254a16,16,0,0,1-.66-17.37,12,12,0,0,1,2.49-3,38.7,38.7,0,0,0-2.18,3.22A15.82,15.82,0,0,0,63.6,247a15.56,15.56,0,0,0,9.06,11.74,15.5,15.5,0,0,0,8.9,1.09,15.39,15.39,0,0,0,12.66-13.12,15.47,15.47,0,0,0-1.4-8.85,15.53,15.53,0,0,0-12-8.64,15.82,15.82,0,0,0-10.09,2.11C68.54,232.6,67.61,233.68,67.54,233.59Z" style="fill:#ebebeb"/><path d="M59.65,213.89a3.41,3.41,0,0,1-.49-.26l-1.47-.85-5.76-3.4.18,0L41.9,220.06l0-.29,4.93,7.46.09.13-.08.14a36.26,36.26,0,0,0-3.47,8.92l0,.17-.17,0-8.68,2.15.25-.32c.09,4.66.19,9.6.29,14.79l-.28-.35,8.75,1.81.22,0,.07.22a36.12,36.12,0,0,0,3.81,8.75l.13.2-.13.2c-1.43,2.38-3,5-4.62,7.65l-.06-.5,10.65,10.26-.53-.05,7.47-4.9.22-.15.23.13a36.44,36.44,0,0,0,8.87,3.48l.26.06.06.26c.67,2.72,1.4,5.69,2.14,8.68l-.45-.33,14.79-.27-.43.36c.57-2.77,1.19-5.75,1.82-8.75l.06-.27.26-.08a36,36,0,0,0,8.73-3.79h0l.24-.15.23.15,7.65,4.63-.57.07q5.22-5.39,10.28-10.64l0,.56-4.9-7.47-.15-.23.13-.24a35.56,35.56,0,0,0,3.5-8.86l.06-.26.26-.06,8.68-2.12-.33.43q-.12-7.57-.24-14.79l.33.4-8.75-1.83-.24,0-.07-.24a35.89,35.89,0,0,0-3.78-8.75l-.13-.21.13-.2,4.64-7.63.06.47c-3.73-3.63-7.26-7.05-10.62-10.3l.44,0-7.49,4.88-.17.11-.17-.1A36.14,36.14,0,0,0,87.16,210L87,210l0-.17c-.77-3.16-1.45-6-2.1-8.69l.26.2-14.79.2.2-.16c-.75,3.49-1.37,6.35-1.88,8.74l0,.08-.08,0a37.39,37.39,0,0,0-6.77,2.6l-1.59.83a3.61,3.61,0,0,1-.53.27,4,4,0,0,1,.5-.33c.33-.21.85-.52,1.55-.9a34.32,34.32,0,0,1,6.76-2.75l-.11.11c.49-2.39,1.06-5.27,1.77-8.77l0-.16h.16l14.79-.32h.22l.05.21c.67,2.68,1.37,5.52,2.16,8.68l-.22-.22A36.39,36.39,0,0,1,96.37,213L96,213l7.46-4.92.24-.15.2.19,10.66,10.25.22.21-.16.26L110,226.47v-.41a37,37,0,0,1,3.9,8.94l-.31-.29,8.75,1.81.33.07v.33q.14,7.22.27,14.79v.35l-.34.08L114,254.28l.32-.33a36.72,36.72,0,0,1-3.57,9.09v-.46l4.9,7.47.2.3-.25.26-10.27,10.64-.26.26-.31-.18-7.64-4.64h.47a36.63,36.63,0,0,1-9,3.88l.32-.34c-.63,3-1.25,6-1.83,8.75l-.07.36h-.36l-14.79.26h-.36l-.08-.34c-.73-3-1.46-6-2.12-8.69l.32.32a36.28,36.28,0,0,1-9.08-3.58H61l-7.48,4.89-.29.19-.24-.24L42.36,271.86l-.23-.22.17-.28,4.64-7.63v.4a36.8,36.8,0,0,1-3.87-8.94l.29.26-8.75-1.83-.28-.06v-.29c-.08-5.19-.15-10.13-.22-14.79v-.26l.26-.06,8.68-2.1-.21.21a36.68,36.68,0,0,1,3.58-9v.28L41.54,220l-.1-.16.13-.13,10.34-10.58.08-.09.1.06,5.62,3.51,1.45.92A4.8,4.8,0,0,1,59.65,213.89Z" style="fill:#ebebeb"/><path d="M314.66,64.66a24.15,24.15,0,0,1,6.41,1l4.17-4.33,8.51,5.16-1.9,5.7a24.28,24.28,0,0,1,3.83,5.23l6-.1L344.06,87l-5.37,2.69a25,25,0,0,1-1,6.41l4.32,4.17-5.15,8.51-5.71-1.9a24.66,24.66,0,0,1-5.23,3.84l.11,6-9.67,2.36-2.68-5.37a24.5,24.5,0,0,1-6.41-1L303.1,117l-8.51-5.16,1.91-5.71a24.08,24.08,0,0,1-3.84-5.23l-6,.11-2.37-9.66,5.38-2.69a24.09,24.09,0,0,1,1-6.41l-4.33-4.18,5.16-8.51,5.7,1.91a24.32,24.32,0,0,1,5.23-3.84l-.1-6L312,59.28l2.69,5.38Zm-2.59,14A10.67,10.67,0,1,0,325,86.53,10.68,10.68,0,0,0,312.07,78.7Z" style="fill:#e0e0e0"/><path d="M312.07,78.7a8,8,0,0,1,2.61-.42,10.62,10.62,0,0,1,6.77,2.33,10.77,10.77,0,0,1,4,9.63A10.79,10.79,0,0,1,323,96.1a10.86,10.86,0,0,1-12.59,3.09,10.24,10.24,0,0,1-2.81-1.7,10.13,10.13,0,0,1-2.1-2.35,10.87,10.87,0,0,1-1.8-5.48,10.79,10.79,0,0,1,5.85-10.12,8.22,8.22,0,0,1,2.51-.84,25.46,25.46,0,0,0-2.39,1A10.65,10.65,0,0,0,305,84.9a10.44,10.44,0,0,0-.82,4.73,10.57,10.57,0,0,0,1.76,5.2A10.22,10.22,0,0,0,308,97a9.57,9.57,0,0,0,2.67,1.6,10.35,10.35,0,0,0,11.9-2.92,10.28,10.28,0,0,0,2.38-5.54,10.45,10.45,0,0,0-3.75-9.24,10.65,10.65,0,0,0-6.5-2.42C313,78.5,312.08,78.77,312.07,78.7Z" style="fill:#e0e0e0"/><path d="M314.66,64.66a1.5,1.5,0,0,1-.19-.32c-.13-.25-.31-.58-.53-1l-2.06-4,.11.05-9.65,2.42.12-.15c0,1.82.08,3.84.13,6v.11l-.09,0a24.39,24.39,0,0,0-5.18,3.82l-.08.09-.12,0-5.71-1.89.25-.09-5.13,8.52,0-.3,4.33,4.17.11.1,0,.15a24.48,24.48,0,0,0-1,6.35v.16l-.14.07-5.38,2.69.15-.31c.74,3,1.55,6.31,2.38,9.66l-.29-.22,6-.11h.18l.09.15a24.2,24.2,0,0,0,3.79,5.17l.13.13-.06.17c-.6,1.78-1.25,3.73-1.9,5.7l-.13-.35,8.51,5.16-.38,0,4.18-4.32.13-.14.17.06a24.5,24.5,0,0,0,6.33,1h.19l.08.16,2.69,5.38-.35-.16L326,116.4l-.23.3c0-2-.07-4-.11-6v-.18l.16-.09a24.33,24.33,0,0,0,5.17-3.79l.13-.12.17.06,5.7,1.91-.34.12,5.16-8.5.05.35-4.32-4.19-.12-.11.05-.16a24,24,0,0,0,1-6.34v-.16l.15-.07L344,86.74l-.13.29c-.83-3.4-1.61-6.61-2.35-9.67l.23.18-6,.09h-.13l-.07-.11a24.11,24.11,0,0,0-3.79-5.2l-.08-.08,0-.12c.69-2.07,1.32-3.94,1.92-5.7l.08.21-8.49-5.19.17,0c-1.68,1.71-3.06,3.12-4.2,4.3l-.05,0,0,0a25.67,25.67,0,0,0-4.78-.94l-1.21-.1a2,2,0,0,1-.39,0h.4c.26,0,.67,0,1.21,0a23.74,23.74,0,0,1,4.82.86l-.09,0,4.14-4.35.08-.08.09.05,8.53,5.13.13.07-.05.14c-.58,1.76-1.2,3.63-1.88,5.71L332,72a24.75,24.75,0,0,1,3.89,5.27l-.2-.12,6-.12h.19l0,.18c.76,3.06,1.55,6.26,2.39,9.66l.05.2-.18.09-5.38,2.69.15-.23a24.73,24.73,0,0,1-1,6.48l-.07-.27,4.33,4.17.16.16-.11.19-5.15,8.51-.13.2-.22-.07-5.7-1.9.3-.07a24.65,24.65,0,0,1-5.29,3.89l.15-.27c0,2,.07,4,.11,6v.24l-.24.06-9.66,2.37-.24.06-.11-.22-2.68-5.38.26.17h0a24.75,24.75,0,0,1-6.49-1l.31-.08-4.18,4.33-.17.17-.21-.12-8.5-5.17-.21-.12.08-.23,1.91-5.7.07.3a24.36,24.36,0,0,1-3.88-5.3l.26.15-6,.1h-.22l-.06-.22c-.82-3.36-1.61-6.63-2.35-9.67l-.06-.21.2-.1,5.38-2.67-.14.23a24.5,24.5,0,0,1,1-6.48l.07.25-4.32-4.18-.14-.14.1-.16,5.18-8.5.09-.15.17.06,5.7,1.92-.21,0a25.13,25.13,0,0,1,5.29-3.85l-.1.16c0-2.16-.05-4.19-.08-6v-.12l.12,0L312,59.19l.07,0,0,.07,1.94,4c.21.45.38.79.5,1S314.66,64.65,314.66,64.66Z" style="fill:#e0e0e0"/><path d="M342.56,254.18a8.21,8.21,0,0,1,2.64-.42,10.72,10.72,0,0,1,6.83,2.35,10.83,10.83,0,0,1,3.13,4,11,11,0,0,1,.95,5.74,10,10,0,0,1-.79,3.08,10.24,10.24,0,0,1-1.71,2.84,11,11,0,0,1-12.72,3.12,10.29,10.29,0,0,1-2.83-1.73,10.11,10.11,0,0,1-2.12-2.37,10.91,10.91,0,0,1-.88-10.51,10.72,10.72,0,0,1,5-5.23,8.2,8.2,0,0,1,2.53-.85,25,25,0,0,0-2.42,1.06,10.74,10.74,0,0,0-4.68,5.2,10.51,10.51,0,0,0,1,10,10.54,10.54,0,0,0,4.71,3.85,10.43,10.43,0,0,0,12-2.95,9.67,9.67,0,0,0,1.64-2.68,9.49,9.49,0,0,0,.76-2.91,10.47,10.47,0,0,0-3.79-9.32A10.73,10.73,0,0,0,345.2,254C343.5,254,342.57,254.26,342.56,254.18Z" style="fill:#ebebeb"/><path d="M345.17,240a2.22,2.22,0,0,1-.19-.33c-.13-.24-.31-.58-.53-1q-.74-1.41-2.08-4l.11.05-9.74,2.45.12-.16c0,1.84.09,3.88.13,6.07v.11l-.1,0a24.24,24.24,0,0,0-5.22,3.86l-.09.09-.12,0-5.76-1.91.26-.09c-1.64,2.7-3.37,5.58-5.19,8.59l0-.3,4.37,4.21.12.11-.05.15a24.8,24.8,0,0,0-1,6.4v.16l-.15.07-5.42,2.72.14-.31c.76,3.06,1.57,6.37,2.4,9.75l-.28-.22,6.07-.11h.17l.09.15a24.29,24.29,0,0,0,3.83,5.21l.12.13-.05.17-1.92,5.76-.13-.35,8.59,5.2-.38,0,4.21-4.37.13-.13.18.05a24.46,24.46,0,0,0,6.38,1h.2l.08.17,2.71,5.42-.35-.16,9.76-2.39-.24.31c0-2.05-.07-4.07-.1-6.07v-.18l.16-.09a24.45,24.45,0,0,0,5.21-3.82l.13-.13.17.06,5.76,1.92-.35.13,5.22-8.58.05.35-4.37-4.22-.12-.12.05-.16a24.5,24.5,0,0,0,1-6.39v-.17l.14-.07,5.44-2.7-.14.29c-.83-3.43-1.62-6.67-2.37-9.76l.23.18-6.06.09h-.14l-.06-.12a24.27,24.27,0,0,0-3.83-5.24l-.08-.09,0-.12c.7-2.09,1.34-4,1.94-5.75l.08.22-8.57-5.25.18,0-4.25,4.34,0,0-.06,0a25.33,25.33,0,0,0-4.82-.95l-1.22-.1a2.19,2.19,0,0,1-.4,0h.4c.27,0,.68,0,1.22.05a24.16,24.16,0,0,1,4.88.86l-.1,0c1.14-1.2,2.51-2.64,4.19-4.39l.07-.08.1.05,8.61,5.17.12.08,0,.14-1.91,5.76,0-.2a24.87,24.87,0,0,1,3.92,5.31l-.2-.12,6.07-.12h.19l0,.18,2.41,9.75,0,.2-.19.09-5.42,2.72.15-.23a24.77,24.77,0,0,1-1,6.54l-.07-.28,4.37,4.21.16.16-.11.19q-2.54,4.2-5.2,8.6l-.12.2-.23-.08-5.76-1.92.31-.06a24.75,24.75,0,0,1-5.34,3.92l.16-.27c0,2,.07,4,.1,6.07v.24l-.24.06L347,295.22l-.24.06-.11-.22-2.71-5.43.27.17h0a24.78,24.78,0,0,1-6.54-1l.31-.08-4.22,4.37-.17.17-.21-.12c-3-1.8-5.87-3.56-8.59-5.21l-.2-.13.07-.23c.67-2,1.33-3.95,1.93-5.76l.07.31a24.84,24.84,0,0,1-3.92-5.35l.27.16-6.07.1h-.23l-.06-.22c-.82-3.39-1.63-6.69-2.37-9.76l-.06-.21.2-.1,5.43-2.7-.14.23a25,25,0,0,1,1-6.54l.07.26-4.36-4.23-.14-.13.1-.17,5.23-8.57.09-.15.17.05,5.75,1.94-.2.05a24.39,24.39,0,0,1,5.33-3.89l-.1.16c0-2.18-.06-4.22-.08-6.06v-.13l.12,0,9.77-2.33.07,0,0,.07c.85,1.76,1.51,3.11,2,4.05l.5,1C345.12,239.88,345.17,240,345.17,240Z" style="fill:#ebebeb"/><path d="M53.68,33.08A48.37,48.37,0,0,1,65.44,28L67.9,16.41l19.64-.28,2.78,11.54a48,48,0,0,1,11.9,4.73l10-6.47,14.08,13.69-6.19,10.12a48,48,0,0,1,5.06,11.76L136.73,64,137,83.6l-11.54,2.78a48,48,0,0,1-4.73,11.9l6.47,10-13.68,14.08-10.13-6.19a48,48,0,0,1-11.76,5.06L89.18,132.8l-19.63.27-2.79-11.54a48.14,48.14,0,0,1-11.9-4.73l-9.94,6.48L30.84,109.59,37,99.46A48,48,0,0,1,32,87.7L20.35,85.24l-.28-19.63,11.54-2.79a48.14,48.14,0,0,1,4.73-11.9L29.87,41,43.56,26.9l10.12,6.18Z" style="fill:#45c2e3;fill-rule:evenodd"/><path d="M90.13,68.82a26.63,26.63,0,0,0-.63-4.13,16.58,16.58,0,0,0-1.9-4.48,16.79,16.79,0,0,0-20.18-7.13,16.15,16.15,0,0,0-4.24,2.28A19.26,19.26,0,0,0,61.29,57a18.9,18.9,0,0,0-1.64,1.94,16.66,16.66,0,0,0,0,19.8,18.9,18.9,0,0,0,1.64,1.94,19.26,19.26,0,0,0,1.89,1.62,16.15,16.15,0,0,0,4.24,2.28A16.85,16.85,0,0,0,87.6,77.43,16.58,16.58,0,0,0,89.5,73a26.63,26.63,0,0,0,.63-4.13,1.16,1.16,0,0,1,0,.28c0,.21,0,.48,0,.81A7.5,7.5,0,0,1,90,71.22,13,13,0,0,1,89.7,73a15.91,15.91,0,0,1-1.85,4.57,17.09,17.09,0,0,1-11.54,8.16,17.17,17.17,0,0,1-9-.72,16,16,0,0,1-4.37-2.33,22,22,0,0,1-2-1.66,21.86,21.86,0,0,1-1.7-2,17.14,17.14,0,0,1,0-20.4,19.2,19.2,0,0,1,1.69-2,20.38,20.38,0,0,1,2-1.65,16.08,16.08,0,0,1,4.37-2.34,17.1,17.1,0,0,1,16.27,2.53,16.93,16.93,0,0,1,4.32,4.91,15.85,15.85,0,0,1,1.85,4.58A12.64,12.64,0,0,1,90,66.42a7.5,7.5,0,0,1,.11,1.31c0,.34,0,.6,0,.81A1.16,1.16,0,0,1,90.13,68.82Z" style="fill:#fff"/><path d="M84.77,81.21c.1-.11,3.81,3.43,8.28,7.9s8,8.17,7.9,8.27-3.8-3.43-8.27-7.9S84.67,81.31,84.77,81.21Z" style="fill:#fff"/><path d="M187.92,107.39a62,62,0,0,1,15.1-6.5L206.17,86l25.21-.35L235,100.44a61.54,61.54,0,0,1,15.27,6.07L263,98.2l18.07,17.58-7.94,13a61.65,61.65,0,0,1,6.5,15.1L294.53,147l.35,25.21-14.81,3.57A61.54,61.54,0,0,1,274,191.07l8.31,12.77-17.57,18.07-13-7.94a61.58,61.58,0,0,1-15.09,6.5l-3.16,14.91-25.2.35-3.58-14.81a61.54,61.54,0,0,1-15.27-6.07l-12.77,8.31L158.6,205.58l7.94-13a62,62,0,0,1-6.5-15.1l-14.9-3.15-.36-25.21,14.81-3.57a61.54,61.54,0,0,1,6.07-15.27l-8.3-12.77,17.57-18.07,13,7.94Z" style="fill:#45c2e3;fill-rule:evenodd"/><path d="M211.31,186.94h.3l.86,0,3.31,0,12.36-.09L228,187c-.05-2.13-.11-4.52-.17-7.08v-.11l.11-.06a38.27,38.27,0,0,0,10.59-7.23,27.07,27.07,0,0,0,4.43-5.69,19.48,19.48,0,0,0,2.44-7.23,24,24,0,0,0-3.78-15.84,28.8,28.8,0,0,0-13.8-11,23.81,23.81,0,0,0-13.24-.92,26.09,26.09,0,0,0-11.5,5.32,23.51,23.51,0,0,0-6.95,9.59c-.3.91-.7,1.78-.92,2.69s-.45,1.82-.66,2.71a28.06,28.06,0,0,0-.47,5.35,24.21,24.21,0,0,0,.63,5,23.21,23.21,0,0,0,1.62,4.47,25.63,25.63,0,0,0,5,6.91,34.12,34.12,0,0,0,10.31,7l.07,0V181c-.11,1.92-.2,3.39-.26,4.41,0,.48-.06.85-.08,1.13l0,.39a1.53,1.53,0,0,1,0-.36q0-.41,0-1.11c0-1,.09-2.52.16-4.47l.05.09a34,34,0,0,1-10.47-7,26,26,0,0,1-5.1-7,23.59,23.59,0,0,1-1.67-4.55,25,25,0,0,1-.67-5.12,28.12,28.12,0,0,1,.46-5.43c.21-.9.43-1.82.66-2.75s.62-1.82.93-2.74a23.89,23.89,0,0,1,7.06-9.8,26.4,26.4,0,0,1,11.72-5.44,24.22,24.22,0,0,1,13.53.94,29.28,29.28,0,0,1,14,11.21,23.8,23.8,0,0,1,3.37,7.94,14.73,14.73,0,0,1,.37,2.07,13.21,13.21,0,0,1,.21,2.07c0,.69.06,1.38.06,2.06l-.18,2a20.23,20.23,0,0,1-2.52,7.4,27.44,27.44,0,0,1-4.54,5.76A38.15,38.15,0,0,1,228.07,180l.11-.16c0,2.55.08,4.94.12,7.07v.16h-.16L215.69,187l-3.28,0h-.83A1.15,1.15,0,0,1,211.31,186.94Z" style="fill:#fff"/><path d="M228.39,191.62a69.41,69.41,0,0,1-8.65.27,70.57,70.57,0,0,1-8.65-.26,73,73,0,0,1,8.65-.26A74.62,74.62,0,0,1,228.39,191.62Z" style="fill:#fff"/><path d="M222.79,198.17a7,7,0,0,1-3.07.35,6.67,6.67,0,0,1-3-.55,15.86,15.86,0,0,1,3.05,0A14.38,14.38,0,0,1,222.79,198.17Z" style="fill:#fff"/><path d="M214.83,186.94a1.45,1.45,0,0,1,0-.28v-.84c0-.77,0-1.85.05-3.22.07-2.83.16-6.86.28-11.83.07-2.5.14-5.23.22-8.17a5.37,5.37,0,0,0-.29-2.11,1.38,1.38,0,0,0-1.52-1A2,2,0,0,0,212.2,161a3.15,3.15,0,0,0,.28,2.2,5,5,0,0,0,3.87,2.57,5.09,5.09,0,0,0,4.49-1.8,7.62,7.62,0,0,0,1.9-4.84,4.51,4.51,0,0,0-.53-2.55,1.88,1.88,0,0,0-2.12-.91,1.91,1.91,0,0,0-1,2.08,5.1,5.1,0,0,0,1.2,2.34,9.62,9.62,0,0,0,4.17,3.23,5.37,5.37,0,0,0,2.5.29,4.92,4.92,0,0,0,2.28-.95,3.88,3.88,0,0,0,1.43-1.9,2.81,2.81,0,0,0-.13-2.24,2,2,0,0,0-1.71-1.17,2.42,2.42,0,0,0-1.79,1.07c-.82,1.23-.83,2.85-1.05,4.27-.32,2.92-.52,5.64-.71,8.13-.34,5-.61,9-.8,11.81-.09,1.36-.16,2.43-.22,3.21,0,.34-.05.61-.06.83a1.18,1.18,0,0,1,0,.28.84.84,0,0,1,0-.28c0-.22,0-.5,0-.84,0-.77.07-1.85.12-3.21.12-2.8.31-6.83.63-11.82.17-2.5.35-5.23.65-8.16.09-.73.16-1.47.29-2.23a5.53,5.53,0,0,1,.82-2.25,2.82,2.82,0,0,1,2.15-1.28,2.43,2.43,0,0,1,2.15,1.42,3.36,3.36,0,0,1,.17,2.62,4.48,4.48,0,0,1-1.6,2.14,5.51,5.51,0,0,1-2.5,1,6,6,0,0,1-2.75-.31,10.12,10.12,0,0,1-4.41-3.39,5.74,5.74,0,0,1-1.31-2.59,2.43,2.43,0,0,1,1.35-2.64,2.39,2.39,0,0,1,2.74,1.12,5.18,5.18,0,0,1,.61,2.85,8.13,8.13,0,0,1-2,5.16,5.62,5.62,0,0,1-4.93,2,5.53,5.53,0,0,1-4.24-2.86,3.61,3.61,0,0,1-.3-2.54,2.44,2.44,0,0,1,1.71-1.83,1.65,1.65,0,0,1,1.28.28,2.11,2.11,0,0,1,.74,1,5.88,5.88,0,0,1,.31,2.29c-.1,2.93-.2,5.67-.28,8.17-.19,5-.34,9-.44,11.82q-.1,2.05-.15,3.21c0,.35,0,.62,0,.84A1.18,1.18,0,0,1,214.83,186.94Z" style="fill:#fff"/><path d="M226.86,194.9a48.09,48.09,0,0,1-7,.26,48.18,48.18,0,0,1-7-.26,46.55,46.55,0,0,1,7-.26A46.46,46.46,0,0,1,226.86,194.9Z" style="fill:#fff"/><path d="M353.43,147.63a40.18,40.18,0,0,1,9.73-4.37l1.9-9.7,16.34-.49,2.47,9.57a40.24,40.24,0,0,1,10,3.79l8.2-5.52,11.9,11.21-5,8.51a39.8,39.8,0,0,1,4.37,9.73l9.7,1.9.49,16.34-9.57,2.47a40.24,40.24,0,0,1-3.79,10l5.52,8.2-11.21,11.9-8.51-5a39.8,39.8,0,0,1-9.73,4.37l-1.9,9.7-16.34.49-2.47-9.57a40.21,40.21,0,0,1-10-3.78l-8.2,5.51-11.9-11.21,5-8.51a39.8,39.8,0,0,1-4.37-9.73l-9.7-1.9-.49-16.34,9.57-2.47a40.76,40.76,0,0,1,3.78-10l-5.51-8.2,11.21-11.9,8.51,5Z" style="fill:#45c2e3;fill-rule:evenodd"/><path d="M396.59,199.47a3.71,3.71,0,0,1-.79.05l-2.28,0-8.36.08-27.59.08h-2.23v-.26c0-10.31.06-19.55.08-26.28,0-3.3.06-6,.08-7.9,0-.89,0-1.6.05-2.14a3.33,3.33,0,0,1,.05-.74,4.35,4.35,0,0,1,0,.74c0,.54,0,1.25.05,2.14,0,1.92,0,4.6.08,7.9,0,6.73.05,16,.08,26.28l-.26-.26h2l27.59.08,8.36.08,2.28,0A3.71,3.71,0,0,1,396.59,199.47Z" style="fill:#fff"/><path d="M392,171.4a11.43,11.43,0,0,1-1.23,1.17l-3.46,3c-2.94,2.55-7,6-11.54,9.87l-.69.58-.17.15-.17-.16-5.14-4.77H370l-7.54,6.22-2.19,1.75a5,5,0,0,1-.81.58,4.86,4.86,0,0,1,.71-.7l2.1-1.86,7.42-6.36.16-.14.16.15,5.16,4.74h-.34l.68-.58c4.53-3.83,8.65-7.28,11.64-9.75l3.57-2.92A10.14,10.14,0,0,1,392,171.4Z" style="fill:#fff"/><path d="M392,180a12.24,12.24,0,0,1-.18-2.56c-.05-1.58-.08-3.78-.08-6.23l.26.26h-.45c-2.55,0-4.86,0-6.53-.08a13.67,13.67,0,0,1-2.7-.18,13.67,13.67,0,0,1,2.7-.18c1.67-.05,4-.08,6.53-.08h.71v.26c0,2.45,0,4.65-.08,6.23A13.15,13.15,0,0,1,392,180Z" style="fill:#fff"/><path d="M127.52,200.9a8.6,8.6,0,0,1-1.16-2.78,8.73,8.73,0,0,1-.67-2.94,8.87,8.87,0,0,1,1.16,2.78A9,9,0,0,1,127.52,200.9Z" style="fill:#ebb31f"/><path d="M138.13,222.3a25.87,25.87,0,0,1-3.37-5,24.94,24.94,0,0,1-2.59-5.4,52.36,52.36,0,0,1,3,5.15A54,54,0,0,1,138.13,222.3Z" style="fill:#ebb31f"/><path d="M153.74,240.37a39.16,39.16,0,0,1-8.39-8.53,53.7,53.7,0,0,1,4.24,4.22A56.67,56.67,0,0,1,153.74,240.37Z" style="fill:#ebb31f"/><path d="M173.51,253.76a39,39,0,0,1-10.34-6,52.15,52.15,0,0,1,5.2,3A52.83,52.83,0,0,1,173.51,253.76Z" style="fill:#ebb31f"/><path d="M196.22,261.08a33.9,33.9,0,0,1-5.93-.94,36.2,36.2,0,0,1-5.7-1.87,33.17,33.17,0,0,1,5.82,1.37A35.89,35.89,0,0,1,196.22,261.08Z" style="fill:#ebb31f"/><path d="M220.09,261.61a26.51,26.51,0,0,1-6,.7,25.67,25.67,0,0,1-6-.18,53.25,53.25,0,0,1,6-.34A51.84,51.84,0,0,1,220.09,261.61Z" style="fill:#ebb31f"/><path d="M243.42,256.45a42.78,42.78,0,0,1-11.53,3.23,48.69,48.69,0,0,1,5.74-1.71A49.27,49.27,0,0,1,243.42,256.45Z" style="fill:#ebb31f"/><path d="M265.06,246.31a25.76,25.76,0,0,1-5.06,3.22,26.39,26.39,0,0,1-5.48,2.46,51.19,51.19,0,0,1,5.23-2.92A53.5,53.5,0,0,1,265.06,246.31Z" style="fill:#ebb31f"/><path d="M283.62,231.29a24.88,24.88,0,0,1-4.07,4.41,24.43,24.43,0,0,1-4.71,3.72,56.72,56.72,0,0,1,4.36-4.1A57.37,57.37,0,0,1,283.62,231.29Z" style="fill:#ebb31f"/><path d="M296.83,211.44a25.81,25.81,0,0,1-2.46,5.47,23.75,23.75,0,0,1-3.32,5c-.12-.08,1.28-2.36,2.86-5.25A52.62,52.62,0,0,1,296.83,211.44Z" style="fill:#ebb31f"/><path d="M305,189a34.78,34.78,0,0,1-1.62,5.77,35.09,35.09,0,0,1-2.11,5.6,34.22,34.22,0,0,1,1.62-5.77A35.09,35.09,0,0,1,305,189Z" style="fill:#ebb31f"/><path d="M312.68,166.28a45.18,45.18,0,0,1-1.84,5.69,36.47,36.47,0,0,1-2.21,5.57,34.1,34.1,0,0,1,1.72-5.74c.52-1.57,1.1-3,1.53-4A5.6,5.6,0,0,1,312.68,166.28Z" style="fill:#ebb31f"/><path d="M323.29,144.85a54.58,54.58,0,0,1-2.83,5.27,50,50,0,0,1-3,5.19,26.92,26.92,0,0,1,2.53-5.44A26.2,26.2,0,0,1,323.29,144.85Z" style="fill:#ebb31f"/><path d="M339.26,127.18c.08.12-2,1.78-4.43,4s-4.24,4.19-4.36,4.09a22.68,22.68,0,0,1,4-4.47A21.62,21.62,0,0,1,339.26,127.18Z" style="fill:#ebb31f"/><path d="M360.82,117.08a58.62,58.62,0,0,1-5.62,2c-3.11,1.11-5.57,2.15-5.64,2a23.89,23.89,0,0,1,5.46-2.5A24.42,24.42,0,0,1,360.82,117.08Z" style="fill:#ebb31f"/><path d="M384.52,114.44c0,.15-2.68.08-6,.2s-6,.34-6,.19a23.53,23.53,0,0,1,6-.71A22.84,22.84,0,0,1,384.52,114.44Z" style="fill:#ebb31f"/><path d="M407.59,120.34a58,58,0,0,1-5.65-2,58.89,58.89,0,0,1-5.62-2,38.55,38.55,0,0,1,11.27,4Z" style="fill:#ebb31f"/><path d="M428,132.79c-.09.11-2.2-1.54-4.88-3.45a55.79,55.79,0,0,1-4.85-3.5,24.69,24.69,0,0,1,5.15,3.08A23.14,23.14,0,0,1,428,132.79Z" style="fill:#ebb31f"/><path d="M440,146.06a10.17,10.17,0,0,1-1.93-2.3,10.06,10.06,0,0,1-1.63-2.52,8,8,0,0,1,2,2.21A7.64,7.64,0,0,1,440,146.06Z" style="fill:#ebb31f"/><path d="M0,60.32s.05-.3.19-.9.33-1.49.6-2.65a68.14,68.14,0,0,1,3.32-9.89,75.08,75.08,0,0,1,8.28-14.27A81.9,81.9,0,0,1,27.65,17,81.08,81.08,0,0,1,50.9,4.41,86.2,86.2,0,0,1,65.27.94,93.3,93.3,0,0,1,80.91,0,81.87,81.87,0,0,1,97.25,2.1a74.62,74.62,0,0,1,16.19,5.72,73.64,73.64,0,0,1,14.8,9.86,70.21,70.21,0,0,1,12.3,13.57,67.92,67.92,0,0,1,8.24,16.36A77.25,77.25,0,0,1,152.53,65c.11,1.46.26,2.91.33,4.36s.07,2.88.1,4.32-.08,2.86-.11,4.28-.22,2.83-.41,4.22a63.11,63.11,0,0,1-4.29,15.9,123.46,123.46,0,0,1-7.11,14l-7.46,12.73a75,75,0,0,0-8.72,24.8A107.16,107.16,0,0,0,123.44,161c-.28,3.64-.39,7.07-.41,10.29a113.49,113.49,0,0,0,.78,16.45,63.83,63.83,0,0,0,2.28,10.15c.36,1.14.68,2,.91,2.56.11.28.21.49.26.63l.09.22A23.73,23.73,0,0,1,126,198a63.74,63.74,0,0,1-2.39-10.16,111.37,111.37,0,0,1-.86-16.48c0-3.22.1-6.67.37-10.31a110.21,110.21,0,0,1,1.38-11.49,75.2,75.2,0,0,1,8.72-24.94l7.44-12.75a123.3,123.3,0,0,0,7-13.92A62.49,62.49,0,0,0,152,82.12c.18-1.38.27-2.79.4-4.19s.13-2.83.11-4.25-.07-2.86-.11-4.3-.22-2.88-.33-4.33a76.75,76.75,0,0,0-3.73-17.27,67.59,67.59,0,0,0-8.18-16.23,69.8,69.8,0,0,0-12.2-13.48,72.49,72.49,0,0,0-14.7-9.79A73.39,73.39,0,0,0,97.14,2.59,81,81,0,0,0,80.9.51a92.44,92.44,0,0,0-15.56.88A86.34,86.34,0,0,0,51,4.82,80.71,80.71,0,0,0,27.87,17.29a81.77,81.77,0,0,0-15.25,15.5A75,75,0,0,0,4.3,47,69.85,69.85,0,0,0,.89,56.8c-.29,1.15-.5,2-.65,2.63S0,60.32,0,60.32Z" style="fill:#ebb31f"/><path d="M243.39,428.05l15,5.26-.16,14.43c-7.19,2-8.19,5.66-8.19,5.66l15-.34,13.07-26.57-10.34-6.76-19.32-8.45" style="fill:#ebb31f"/><g style="opacity:0.6000000000000001"><polygon points="278.13 426.49 265.06 453.06 250.05 453.4 251.69 451.11 263.88 450.16 275.93 425.05 278.13 426.49" style="fill:#fff"/></g><path d="M258.19,441.14c.11.15,1-.36,2.13-.36s2,.47,2.13.32-.72-1-2.14-1S258,441,258.19,441.14Z" style="fill:#1a2e35"/><path d="M258.35,437.55c.15.11.8-.79,2-1.06s2.16.27,2.26.11-.13-.31-.56-.53a2.81,2.81,0,0,0-3.42.76C258.33,437.21,258.27,437.51,258.35,437.55Z" style="fill:#1a2e35"/><path d="M258.15,433c.16.08.66-.8,1.69-1.18s2-.07,2.06-.24-.16-.28-.58-.43a2.59,2.59,0,0,0-1.71.05,2.66,2.66,0,0,0-1.32,1.1C258.08,432.65,258.07,432.93,258.15,433Z" style="fill:#1a2e35"/><path d="M257,433c.19,0,.07-1,.52-2s1.19-1.6,1.09-1.77-1.17.25-1.69,1.51S256.88,433,257,433Z" style="fill:#1a2e35"/><path d="M255.26,431.26a6.09,6.09,0,0,0,.36-2c.06-.72.13-1.45.2-2.19a5,5,0,0,0,0-1.4,1.2,1.2,0,0,0-.53-.75,1,1,0,0,0-1,0,2.79,2.79,0,0,0-.85,1.33,5.07,5.07,0,0,0,.12,3.63c.54,1.23,1.29,1.67,1.32,1.61a16.29,16.29,0,0,1-.88-1.77,5.15,5.15,0,0,1-.22-2.06,4.74,4.74,0,0,1,.27-1.19,2.4,2.4,0,0,1,.61-1,.27.27,0,0,1,.32,0,.55.55,0,0,1,.24.34,4.74,4.74,0,0,1,0,1.2c0,.75,0,1.48-.06,2.21A6.64,6.64,0,0,0,255.26,431.26Z" style="fill:#1a2e35"/><path d="M255,431.92c.06,0-.38-.7-1.54-1.08a3.77,3.77,0,0,0-4.26,1.52.7.7,0,0,0,.07.59.88.88,0,0,0,.39.32,2.62,2.62,0,0,0,.7.14,7.21,7.21,0,0,0,1.23,0,6.5,6.5,0,0,0,2-.51c1.08-.47,1.58-1,1.53-1.07a17,17,0,0,0-1.69.63,7.29,7.29,0,0,1-3,.31,2.55,2.55,0,0,1-.51-.1c-.13-.08-.09-.06-.09-.11s.16-.22.3-.35a2.94,2.94,0,0,1,.44-.35,3.56,3.56,0,0,1,1-.47,3.71,3.71,0,0,1,1.82-.1A11.55,11.55,0,0,1,255,431.92Z" style="fill:#1a2e35"/><g style="opacity:0.6000000000000001"><path d="M266.14,426.3a1.78,1.78,0,1,0,1.74-1.82A1.79,1.79,0,0,0,266.14,426.3Z" style="fill:#fff"/></g><path d="M166.39,422l.2,19.67s-19.91,6.81-20.23,10.44l38.14,1,.94-30.65Z" style="fill:#ebb31f"/><g style="opacity:0.6000000000000001"><path d="M178.43,440.32a1.57,1.57,0,0,1,1,1.81,1.5,1.5,0,0,1-1.78,1,1.63,1.63,0,0,1-1.08-1.92,1.54,1.54,0,0,1,2-.87" style="fill:#fff"/></g><g style="opacity:0.6000000000000001"><path d="M184.5,453.1l0-3.1-36.55.23s-1.72.69-1.56,1.89Z" style="fill:#fff"/></g><path d="M166,441.47c0,.18.93.29,1.83.91s1.37,1.42,1.54,1.35-.07-1.15-1.18-1.89S165.94,441.29,166,441.47Z" style="fill:#1a2e35"/><path d="M161.94,443c-.05.18.75.51,1.36,1.32s.77,1.64,1,1.64.33-1.06-.45-2S162,442.84,161.94,443Z" style="fill:#1a2e35"/><path d="M159.54,447.75c.17,0,.45-.88,0-1.91s-1.31-1.47-1.39-1.31.44.71.8,1.56S159.36,447.72,159.54,447.75Z" style="fill:#1a2e35"/><path d="M166.43,437c.07.17.93-.06,2,0s1.86.46,2,.3-.67-.84-1.91-.94S166.34,436.83,166.43,437Z" style="fill:#1a2e35"/><g style="opacity:0.30000000000000004"><polygon points="166.43 425.91 166.47 429.41 185.21 429.72 185.32 426.57 166.43 425.91"/></g><path d="M166.46,433a3.57,3.57,0,0,0,1.91,0,9,9,0,0,0,2-.56,8.89,8.89,0,0,0,1.11-.56,2.08,2.08,0,0,0,.59-.43.82.82,0,0,0,.11-1,1,1,0,0,0-.81-.45,2.57,2.57,0,0,0-.72.09,6.59,6.59,0,0,0-3,1.48c-.9.8-1.22,1.49-1.16,1.53s.53-.51,1.45-1.17a7.72,7.72,0,0,1,1.73-.91,6.12,6.12,0,0,1,1.1-.31c.41-.1.75-.09.85.09s0,.1-.05.21a1.77,1.77,0,0,1-.43.32,11.4,11.4,0,0,1-1,.55,11.17,11.17,0,0,1-1.87.66A14,14,0,0,0,166.46,433Z" style="fill:#1a2e35"/><path d="M166.7,433.29a3.12,3.12,0,0,0,.55-1.84,6.12,6.12,0,0,0-.21-2.09,6.39,6.39,0,0,0-.46-1.18,1.56,1.56,0,0,0-1.19-1,.87.87,0,0,0-.81.51,2.62,2.62,0,0,0-.21.7,4,4,0,0,0,0,1.28,4.44,4.44,0,0,0,.77,2c.72,1,1.49,1.25,1.51,1.18s-.58-.47-1.13-1.43a4.44,4.44,0,0,1-.55-1.81,3.74,3.74,0,0,1,.06-1.1c.07-.41.23-.73.38-.68s.5.31.65.64a5.93,5.93,0,0,1,.45,1,6.74,6.74,0,0,1,.32,1.91C166.81,432.56,166.6,433.25,166.7,433.29Z" style="fill:#1a2e35"/><polygon points="255.04 411.99 211.13 395.66 257.29 389.18 259.62 366.69 173.29 374.23 161.09 391.78 164.31 413.8 248.42 435.18 255.04 411.99" style="fill:#1a2e35"/><path d="M161.93,427.73l-4.2-80.37A22.58,22.58,0,0,1,169,328.46h0a22.63,22.63,0,0,1,18.48-1.89l56,18.68,30.74,7.9s5.24,12.92,2.16,23c-3,9.82-13.78,16.36-23.25,13.55-11.77-3.49-65.78-26.72-65.78-26.72v65.45Z" style="fill:#1a2e35"/><path d="M252.32,389.87a1.57,1.57,0,0,1-.34-.11l-1-.37-3.67-1.47-13.47-5.49-44.37-18.31-2.26-.94.36-.24c0,18.18-.06,34.53-.08,46.37,0,5.89-.06,10.65-.08,14,0,1.62,0,2.89,0,3.79,0,.41,0,.73,0,1a2.3,2.3,0,0,1,0,.34,1.55,1.55,0,0,1,0-.34c0-.25,0-.57,0-1,0-.9,0-2.17-.05-3.79,0-3.32-.05-8.08-.08-14,0-11.84,0-28.19-.08-46.37v-.39l.36.15,2.26.94L234,382.09l13.41,5.65,3.63,1.56.94.41Z" style="fill:#375a64"/><path d="M200.59,390a15,15,0,0,1,5.75,2,14.86,14.86,0,0,1,4.77,3.8c-.11.12-2.1-1.74-5-3.34S200.54,390.12,200.59,390Z" style="fill:#375a64"/><path d="M182.47,352.07a39.26,39.26,0,0,1,5.05,11.26c-.14.05-1.16-2.51-2.56-5.61S182.34,352.14,182.47,352.07Z" style="fill:#375a64"/><polygon points="182.6 316.65 172.69 314.8 162.29 325.41 164.21 332.18 176.34 327.71 182.6 316.65" style="fill:#ffbf9d"/><path d="M146,198.82l-2.68.23s-4.83.79-4.83.89-2.12,3.07-2.13,3.08l-1.94,3a2.78,2.78,0,0,0,2.71-.5l-.67,1.51a3,3,0,0,0,3.73-1.45,35.32,35.32,0,0,1,2.1-3l.88-.08c.07.18,3.46,5,3.53,4.85s2.89-2.83,2.89-2.83Z" style="fill:#ff9a6c"/><path d="M153.16,219.64l.8-14.83-7.52-8.53-8.27.51-3.38,2.36c.17.82,2.51,1.38,5,.64a12.72,12.72,0,0,1,5.21-.17l3.18,5.55-2.1,2.32,2.7,14.23Z" style="fill:#ffbf9d"/><path d="M131.22,200.09H158.1a1.23,1.23,0,0,1,1.22,1.23h0a1.23,1.23,0,0,1-1.22,1.23H131.22l-2.64-1.23Z" style="fill:#1a2e35"/><path d="M144.82,223.63l-2.73-6.73a6.26,6.26,0,0,1-.46-2.7c.11-2.42.29-7.27-.08-8.39-.5-1.51-2.5-6.64-1.38-7.4s2.69-1,3.79,2,4.48,9.52,4.48,9.52L151,220.68Z" style="fill:#ffbf9d"/><path d="M148.1,209.28a21.41,21.41,0,0,1-1.55-2.87c-.9-1.79-2.13-4.38-3.43-7.06a1.94,1.94,0,0,0-1.59-1,1.44,1.44,0,0,0-1.33,1,3.88,3.88,0,0,0,.05,1.76c.11.58.23,1.11.36,1.6.52,1.92,1.07,3.05,1,3.09a2.68,2.68,0,0,1-.45-.76,15.21,15.21,0,0,1-.89-2.23,14.35,14.35,0,0,1-.43-1.61,4.05,4.05,0,0,1-.09-2,1.92,1.92,0,0,1,1.78-1.37,2.46,2.46,0,0,1,2,1.26c1.39,2.84,2.49,5.32,3.32,7.18A20,20,0,0,1,148.1,209.28Z" style="fill:#ff9a6c"/><polygon points="273.37 352.97 270.63 348.16 241.32 340.82 244.77 346.78 273.37 352.97" style="fill:#ffbf9d"/><path d="M142.27,223.63l18.45,43.72a17,17,0,0,0,9.2,9.1l39.8,16.35L219,267.15l-38.76-13.72L155,217.52Z" style="fill:#45c2e3"/><path d="M202.21,267.59c0,1-4.3,32.83-4.3,39.33s12.45,13.55,12.45,13.55L224,349.41h48.54l-16.59-31.16-7.51-25a58.79,58.79,0,0,0-15.06-25l-8.1-5.42Z" style="fill:#45c2e3"/><path d="M216.31,292.71l8.15,34.2-41.11-11.59-7,12.39,53.5,24.36A15,15,0,0,0,248.38,347h0a15,15,0,0,0,2.25-12.36l-12-46.8a11.45,11.45,0,0,0-14.73-8h0A11.45,11.45,0,0,0,216.31,292.71Z" style="fill:#45c2e3"/><path d="M210.36,320.47a1.54,1.54,0,0,1-.48-.2c-.3-.15-.74-.38-1.29-.69a37.58,37.58,0,0,1-4.51-3,18.31,18.31,0,0,1-5.31-6c-1.32-2.85-1.22-6.35-.74-9.78s1.21-6.68,1.62-9.66.78-5.66.94-7.93.21-4.1.2-5.37,0-2,0-2a1.74,1.74,0,0,1,.09.51c0,.33.08.83.11,1.46a49.25,49.25,0,0,1,0,5.41c-.12,2.28-.4,5-.83,8s-1.09,6.24-1.59,9.66-.56,6.8.67,9.51a18.49,18.49,0,0,0,5.1,5.94,45.87,45.87,0,0,0,4.38,3.1C209.77,320.08,210.37,320.44,210.36,320.47Z" style="fill:#1a2e35"/><path d="M233,283.63a22.9,22.9,0,0,0-5.53-1.33,23.15,23.15,0,0,0-5.67.57,11.43,11.43,0,0,1,11.2.76Z" style="fill:#1a2e35"/><path d="M227.47,265.18a5.08,5.08,0,0,1-.75.83c-.5.51-1.24,1.23-2.17,2.1-1.87,1.75-4.52,4.08-7.56,6.52s-5.9,4.52-8,6c-1.06.72-1.92,1.29-2.53,1.67a4.75,4.75,0,0,1-1,.54,4.79,4.79,0,0,1,.86-.71l2.42-1.8c2.05-1.52,4.86-3.64,7.9-6.07s5.71-4.71,7.64-6.38l2.29-2A4.23,4.23,0,0,1,227.47,265.18Z" style="fill:#1a2e35"/><path d="M180.21,253.52c0,.15-1.44.78-3.09,1.87s-2.84,2.19-3,2.08a10.38,10.38,0,0,1,6-4Z" style="fill:#1a2e35"/><path d="M220.24,308.2a2.91,2.91,0,0,1-.89.29,17.32,17.32,0,0,1-2.52.44,24,24,0,0,1-3.8.11,24.59,24.59,0,0,1-9-2.26,24.21,24.21,0,0,1-3.3-1.88,18,18,0,0,1-2-1.58c-.44-.41-.67-.65-.65-.68s1.06.81,2.87,1.95a26.77,26.77,0,0,0,7.62,3.24,27,27,0,0,0,8.26.74C218.92,308.42,220.22,308.11,220.24,308.2Z" style="fill:#fafafa"/><path d="M223,323.24a5.13,5.13,0,0,1-1.84.34,16.85,16.85,0,0,1-8.79-1.79,5.44,5.44,0,0,1-1.57-1,39.38,39.38,0,0,0,5.94,2A38.51,38.51,0,0,0,223,323.24Z" style="fill:#fafafa"/><path d="M244.28,313.9a2.92,2.92,0,0,1-.76.46,22.94,22.94,0,0,1-2.21,1,33.73,33.73,0,0,1-15.7,2.17c-1-.11-1.84-.23-2.4-.35a2.7,2.7,0,0,1-.85-.24c0-.08,1.26.1,3.28.22a40.32,40.32,0,0,0,7.88-.3,40.93,40.93,0,0,0,7.67-1.85C243.1,314.34,244.25,313.82,244.28,313.9Z" style="fill:#fafafa"/><path d="M240.5,297.15c0,.08-1.27-.16-3.31-.4a50.95,50.95,0,0,0-16,.58c-2,.39-3.26.71-3.28.63a3.23,3.23,0,0,1,.84-.33c.55-.19,1.35-.42,2.36-.66a41.43,41.43,0,0,1,16.1-.58c1,.17,1.84.33,2.4.48A3,3,0,0,1,240.5,297.15Z" style="fill:#fafafa"/><path d="M249,344a5.76,5.76,0,0,1-1.17-.23c-.74-.18-1.8-.5-3.1-1a40.85,40.85,0,0,1-17.35-12.19,30.42,30.42,0,0,1-2-2.59,5.34,5.34,0,0,1-.61-1c.07-.06,1,1.33,2.84,3.37a47,47,0,0,0,7.9,7.05,46.34,46.34,0,0,0,9.32,5C247.35,343.42,249,343.86,249,344Z" style="fill:#fafafa"/><path d="M212.1,343.43a11.07,11.07,0,0,1-.12-2.85,31.82,31.82,0,0,1,3.46-13.23,10.36,10.36,0,0,1,1.51-2.41,26.61,26.61,0,0,1-1.17,2.58,40,40,0,0,0-2.29,6.39,41.14,41.14,0,0,0-1.15,6.69A24.35,24.35,0,0,1,212.1,343.43Z" style="fill:#fafafa"/><path d="M187.35,332.18a8.12,8.12,0,0,1,0-2.4,13.71,13.71,0,0,1,1.77-5.51A17.77,17.77,0,0,1,193,320a9.64,9.64,0,0,1,1.94-1.39,13.11,13.11,0,0,1-1.7,1.67,21.35,21.35,0,0,0-3.66,4.3,15.35,15.35,0,0,0-1.86,5.3A18.33,18.33,0,0,1,187.35,332.18Z" style="fill:#fafafa"/><path d="M269.29,343.17a14.09,14.09,0,0,1-2.89,1.28,54.58,54.58,0,0,1-7.3,2.19,31.53,31.53,0,0,1-7.59.83c-.49,0-.93-.05-1.32-.09a9,9,0,0,1-1-.14c-.54-.11-.83-.18-.82-.22s1.2.11,3.13.08a38.28,38.28,0,0,0,7.48-1c2.88-.64,5.45-1.43,7.29-2A25.35,25.35,0,0,1,269.29,343.17Z" style="fill:#fafafa"/><path d="M258.31,323.41c.06,0-.26.63-1.1,1.24a14.85,14.85,0,0,1-3.53,1.86,21.94,21.94,0,0,1-3.81,1.12,6.4,6.4,0,0,1-1.22.13c-.29,0-.46-.1-.44-.12s.6-.08,1.57-.37,2.29-.7,3.71-1.25a21.2,21.2,0,0,0,3.51-1.67C257.86,323.84,258.24,323.36,258.31,323.41Z" style="fill:#fafafa"/><path d="M251.44,303.33s0,.17-.15.36a3.29,3.29,0,0,1-.81.65,16.31,16.31,0,0,1-3,1.41,18.08,18.08,0,0,1-3.21.87c-.85.14-1.41,0-1.4,0a11.45,11.45,0,0,1,1.32-.33c.81-.21,1.91-.56,3.11-1s2.28-.88,3-1.24a5,5,0,0,0,.84-.48C251.33,303.42,251.39,303.31,251.44,303.33Z" style="fill:#fafafa"/><path d="M215.78,292.72a8.77,8.77,0,0,1-2.35.09,29.05,29.05,0,0,1-5.62-.79,29.82,29.82,0,0,1-5.38-1.82,8.23,8.23,0,0,1-2.06-1.14c.07-.15,3.28,1.46,7.56,2.46S215.79,292.55,215.78,292.72Z" style="fill:#fafafa"/><path d="M244.58,283.67c.1.15-1.34,1.12-3.29,1.89s-3.64,1.12-3.67.95,1.56-.63,3.47-1.43S244.51,283.58,244.58,283.67Z" style="fill:#fafafa"/><path d="M222.16,270.68a4.35,4.35,0,0,1,1.39,1.1,12.79,12.79,0,0,1,3.51,7.7,4.36,4.36,0,0,1-.08,1.77,23.39,23.39,0,0,0-1.49-5.7A22.81,22.81,0,0,0,222.16,270.68Z" style="fill:#fafafa"/><path d="M190.65,284.89a3.18,3.18,0,0,1-.46-.94,17,17,0,0,1-.8-2.74,25.13,25.13,0,0,1,.07-9.4,49.66,49.66,0,0,1,2.72-9c.45-1.12.83-2,1.1-2.62a4.25,4.25,0,0,1,.47-.94,3.79,3.79,0,0,1-.28,1l-.94,2.68a62.55,62.55,0,0,0-2.56,9,27.23,27.23,0,0,0-.22,9.23C190.14,283.49,190.74,284.86,190.65,284.89Z" style="fill:#fafafa"/><path d="M167.13,275.28a4.09,4.09,0,0,1,.18-1,23.39,23.39,0,0,1,.78-2.67,34.32,34.32,0,0,1,10.42-15,25.82,25.82,0,0,1,2.23-1.66,4,4,0,0,1,.89-.52c.05.08-1.14.91-2.88,2.46a39,39,0,0,0-6,6.79,39.69,39.69,0,0,0-4.28,8C167.59,273.9,167.22,275.3,167.13,275.28Z" style="fill:#fafafa"/><path d="M170.91,240.15c0,.09-1.14.15-2.89.65a26.52,26.52,0,0,0-6.5,2.9,30.92,30.92,0,0,0-5.65,4.35c-1.3,1.29-2,2.22-2,2.17s.11-.27.4-.7a6.59,6.59,0,0,1,.56-.77,11.86,11.86,0,0,1,.81-.95,25.71,25.71,0,0,1,5.64-4.55,23.42,23.42,0,0,1,6.68-2.81,9.63,9.63,0,0,1,1.23-.23,7.51,7.51,0,0,1,.94-.09C170.63,240.1,170.91,240.11,170.91,240.15Z" style="fill:#fafafa"/><path d="M161.58,226.52a30.85,30.85,0,0,0-8.59.66,31.31,31.31,0,0,0-7.88,3.5,8.41,8.41,0,0,1,2-1.58,20.25,20.25,0,0,1,5.72-2.43,20.55,20.55,0,0,1,6.19-.58A7.86,7.86,0,0,1,161.58,226.52Z" style="fill:#fafafa"/><path d="M216.31,292.71a4.78,4.78,0,0,1,.2.65c.12.47.29,1.11.5,1.91.43,1.71,1,4.13,1.78,7.13,1.48,6.13,3.55,14.66,5.92,24.45l.1.42-.42-.12-10.48-2.94-30.61-8.7.21-.09-5.2,9-1.44,2.43-.38.63a1.07,1.07,0,0,1-.15.21s0-.09.1-.23l.34-.66,1.35-2.49,5.06-9.1.07-.13.14,0,30.65,8.57,10.48,3-.32.3-5.74-24.49c-.69-3-1.24-5.45-1.63-7.17-.18-.81-.31-1.45-.42-1.93A3.11,3.11,0,0,1,216.31,292.71Z" style="fill:#1a2e35"/><path d="M238.84,290.58a2.93,2.93,0,0,1,.2.58c.12.45.28,1,.47,1.71l1.66,6.3c1.36,5.4,3.22,12.74,5.27,20.85,1,4.08,2,8,2.83,11.5a27.2,27.2,0,0,1,.78,9.65,13.58,13.58,0,0,1-2.3,6.11,7.06,7.06,0,0,1-1.64,1.74,17.41,17.41,0,0,0,1.48-1.86,13.83,13.83,0,0,0,2.09-6,27.47,27.47,0,0,0-.88-9.51c-.88-3.53-1.85-7.41-2.86-11.48-2-8.12-3.8-15.47-5.13-20.88-.62-2.63-1.12-4.78-1.49-6.34-.16-.71-.28-1.28-.38-1.73A2.19,2.19,0,0,1,238.84,290.58Z" style="fill:#1a2e35"/><g style="opacity:0.30000000000000004"><path d="M246.3,349.41c6,.55,9.51-2.88,10.15-7.58.36-2.59-.5-5.17-1.34-7.64-3.69-10.82-7.42-21.73-13.28-31.55,2.22,9.82,5,19.26,7.25,29.08a30.3,30.3,0,0,1,.93,8.37,15,15,0,0,1-3.71,9.32"/></g><path d="M224.15,260.81a12.23,12.23,0,0,0,15.55-9.3,7.18,7.18,0,0,0,6.21,1.65A11.84,11.84,0,0,0,251.7,250a14.48,14.48,0,0,0,4.86-10.86,10.6,10.6,0,0,0-6.57-9.52c-3.85-1.38-8.73.42-10.32,4.19-.71-2.14,1.13-5,.69-7.25-.88-4.45-3.54-7-5.8-7.14" style="fill:#1a2e35"/><path d="M229,259.66c4.4-7.67,5.66-17.9,6.78-26.75.52-4.16,1.44-10.09-1.4-12.7-3-2.79-3.33-7.09-6.82-9.24s-8.24-2.34-11.53.13" style="fill:#1a2e35"/><path d="M206.1,274.94v-12s-12.55-2.22-13.3-12.28-.48-33.27-.48-33.27h0a33.07,33.07,0,0,1,34.34,2.17l-.51,35.4,0,11.53-10.27,8.34-9.8,7.72Z" style="fill:#ffbf9d"/><path d="M202.48,238.31c1.68-2.15,4.41-3,6.66-1.52a6,6,0,0,1,1.91,7.31,7.48,7.48,0,0,1-4.77,3.74s4.52,8.25,7.39,10.43c3.43,2.6,5,3.88,9.26,4.39s3.65.53,6.06-3a13.83,13.83,0,0,0,2.35-8.17q.18-11.13.38-22.25a33.26,33.26,0,0,0-.51-8,10.82,10.82,0,0,0-4.1-6.59c-2.38-1.6-5.38-1.73-8.09-2.62-3.38-1.12-6.25-3.42-9.41-5.08s-7-2.64-10.21-1c-2.27,1.19-3.79,3.53-6,4.84-3.15,1.86-7.44,1.45-9,6.24a8.34,8.34,0,0,0,.07,5.11c2.15,6.5,10,9.1,15.59,6.27.11,1.11-.93,3.56.2,7,.37,1.11.5,2.81,2.18,2.83" style="fill:#1a2e35"/><path d="M204.25,244.59s0,.19.13.43a1.43,1.43,0,0,0,1.09.56A2.73,2.73,0,0,0,208,242.8a3,3,0,0,0-.72-2.13,2.87,2.87,0,0,0-1.53-.9c-1-.22-1.58.17-1.54.23s.6-.05,1.4.26a2.49,2.49,0,0,1,1.69,2.5,2.32,2.32,0,0,1-1.82,2.31C204.65,245.12,204.32,244.52,204.25,244.59Z" style="fill:#ff9a6c"/><path d="M255.24,239.31a2.87,2.87,0,0,1-.29.94,10.42,10.42,0,0,1-1.33,2.34,11.7,11.7,0,0,1-7.47,4.58,11.51,11.51,0,0,1-8.48-2.19,10.63,10.63,0,0,1-1.94-1.87,2.63,2.63,0,0,1-.53-.83,20.79,20.79,0,0,0,2.69,2.4,11.64,11.64,0,0,0,8.18,2,11.85,11.85,0,0,0,7.26-4.29A23.44,23.44,0,0,0,255.24,239.31Z" style="fill:#375a64"/><path d="M253.85,237.68a2.33,2.33,0,0,1-.35.77,10.41,10.41,0,0,1-1.36,1.87,12.49,12.49,0,0,1-6.5,3.88,12.28,12.28,0,0,1-7.53-.71,10.28,10.28,0,0,1-2-1.13,2.67,2.67,0,0,1-.64-.56c0-.08,1,.67,2.79,1.35a12.78,12.78,0,0,0,7.28.54,13.06,13.06,0,0,0,6.35-3.62C253.21,238.7,253.77,237.63,253.85,237.68Z" style="fill:#375a64"/><path d="M237,250.6s-.13.1-.41.24a4.92,4.92,0,0,1-1.33.34,7.14,7.14,0,0,1-4.79-1.32A14,14,0,0,1,226,244c-1.22-2.5-2.19-5.44-4.08-8a9.71,9.71,0,0,0-3.44-2.93,12.23,12.23,0,0,0-4.1-1.08c-2.73-.28-5.26-.1-7.36-.39a12,12,0,0,1-4.77-1.48,7.29,7.29,0,0,1-1.09-.83c-.22-.21-.33-.33-.32-.35s.5.43,1.51,1a12.33,12.33,0,0,0,4.71,1.3c2.07.24,4.57,0,7.37.27a12.65,12.65,0,0,1,4.28,1.1,10.07,10.07,0,0,1,3.62,3.08c2,2.63,2.92,5.6,4.11,8.08a13.8,13.8,0,0,0,4.28,5.76,7.18,7.18,0,0,0,4.56,1.42A8.08,8.08,0,0,0,237,250.6Z" style="fill:#375a64"/><path d="M236,247a1.94,1.94,0,0,1-.45,0,5.09,5.09,0,0,1-1.28-.16,8.11,8.11,0,0,1-3.91-2.65,14.84,14.84,0,0,1-1.88-2.69c-.57-1-1.1-2.17-1.68-3.34a22.9,22.9,0,0,0-2-3.52,10.1,10.1,0,0,0-1.43-1.57,6.16,6.16,0,0,0-.87-.65,4.47,4.47,0,0,0-.93-.57,11.68,11.68,0,0,0-4.13-1.22,31.88,31.88,0,0,0-4.08-.21,55,55,0,0,1-7-.18,12.56,12.56,0,0,1-4.53-1.36,9.58,9.58,0,0,1-1.07-.72,1.92,1.92,0,0,1-.34-.29s.54.32,1.51.83a13.06,13.06,0,0,0,4.47,1.17,62.44,62.44,0,0,0,6.95.07,31.23,31.23,0,0,1,4.15.19,12,12,0,0,1,4.31,1.25,5.61,5.61,0,0,1,1,.61,6.8,6.8,0,0,1,.91.69,11.08,11.08,0,0,1,1.5,1.65,22.54,22.54,0,0,1,2.06,3.62c.58,1.18,1.08,2.32,1.63,3.34a15.2,15.2,0,0,0,1.78,2.66,8.21,8.21,0,0,0,3.69,2.69A12.58,12.58,0,0,0,236,247Z" style="fill:#375a64"/><path d="M238.47,252.11s-.23-.13-.55-.46a10.06,10.06,0,0,1-1.22-1.55,12.33,12.33,0,0,1-.49-12.47A9.57,9.57,0,0,1,237.3,236c.29-.36.49-.53.51-.51s-.58.84-1.27,2.31a13,13,0,0,0,.48,12.12C237.82,251.32,238.54,252.05,238.47,252.11Z" style="fill:#45c2e3"/><path d="M377.63,390.56c6.9,2.41,15.9.26,21.8-4.05s10.15-10.49,13.92-16.75c1.6-2.67,3.17-5.46,3.68-8.54s-.24-6.54-2.63-8.54c-3.71-3.12-9.39-1.54-13.6.86a46.91,46.91,0,0,0-23.17,37" style="fill:#45c2e3"/><path d="M385,407.07c4.14,5.47,11.26,7.9,18.11,8.22s13.63-1.58,20-4c2.32-.89,4.86-2.11,5.66-4.47a5.71,5.71,0,0,0-1.21-5.27,11.8,11.8,0,0,0-4.63-3.15,31.53,31.53,0,0,0-20.15-1.09c-6.63,1.72-12.43,5.56-17.81,9.8" style="fill:#45c2e3"/><path d="M377.53,361c5.71.12,10-4.88,12.62-10a37,37,0,0,0,3.4-23.07c-.52-2.91-1.62-6.06-4.23-7.46S383.21,320,381,322s-3.44,4.93-4.33,7.81c-3.06,9.92-2.4,21.32.88,31.16" style="fill:#45c2e3"/><path d="M358.77,392.59c9.74-16.57,11.36-36.85,5.61-55.19-.93-3-2.69-6.38-5.8-6.57-3.45-.22-5.61,3.62-6.56,6.94-3.34,11.65-2.63,24-1.89,36.11.45,7.45,3,13.82,8.64,18.71" style="fill:#45c2e3"/><path d="M348.65,399.41A39.86,39.86,0,0,0,325,374.35c-2.59-1-5.87-1.53-7.8.45s-1.31,5.19-.1,7.61c2,3.91,5.15,7.06,8.32,10.08,2.88,2.74,5.88,5.5,9.53,7.09s10.34,2,13.68-.17" style="fill:#45c2e3"/><path d="M409,356.83l-.17.16-.53.4-2,1.53L404.8,360c-.53.41-1.09.89-1.7,1.38-1.2,1-2.63,2.09-4.06,3.46l-2.3,2.08c-.79.73-1.55,1.56-2.38,2.37-1.68,1.61-3.3,3.5-5.05,5.44a107.15,107.15,0,0,0-17.79,28.79c-1,2.43-1.92,4.72-2.61,6.94-.36,1.11-.75,2.16-1.05,3.2l-.84,3c-.58,1.89-.91,3.65-1.27,5.18-.17.77-.35,1.48-.48,2.14s-.22,1.26-.32,1.81l-.45,2.51c-.05.26-.09.47-.13.65a.78.78,0,0,1-.06.22,1,1,0,0,1,0-.23c0-.17.05-.39.09-.66.09-.61.21-1.45.37-2.52.08-.55.17-1.16.27-1.82s.29-1.38.44-2.15c.34-1.54.66-3.31,1.22-5.21l.81-3c.29-1,.68-2.1,1-3.21.68-2.23,1.63-4.54,2.58-7A104.25,104.25,0,0,1,389,374.46c1.76-1.94,3.4-3.82,5.09-5.43.83-.81,1.61-1.63,2.41-2.35l2.32-2.08c1.46-1.35,2.9-2.42,4.12-3.41.62-.48,1.19-.95,1.73-1.35l1.51-1.07,2.09-1.45c.22-.15.4-.28.55-.37Z" style="fill:#1a2e35"/><path d="M421.91,402.77a3.11,3.11,0,0,1-.67-.11c-.43-.08-1.06-.25-1.89-.38a51.6,51.6,0,0,0-48.82,16.51,54.81,54.81,0,0,0-4.36,5.61c-.48.69-.81,1.25-1.06,1.62a3.57,3.57,0,0,1-.39.55,3,3,0,0,1,.31-.6c.23-.38.53-1,1-1.67a47.5,47.5,0,0,1,4.27-5.72,50.6,50.6,0,0,1,42-17.49,47.23,47.23,0,0,1,7.06,1c.83.17,1.46.36,1.89.47A4.87,4.87,0,0,1,421.91,402.77Z" style="fill:#1a2e35"/><path d="M386,327.1a.74.74,0,0,1,0,.26l-.15.74c-.16.69-.37,1.64-.64,2.86-.56,2.47-1.42,6-2.49,10.45-2.15,8.83-5.27,21-8.51,34.43-1.62,6.74-3.08,13.17-4.34,19s-2.29,11.17-3.07,15.64c-.42,2.23-.74,4.26-1,6s-.54,3.31-.72,4.57L364.5,424c-.05.31-.1.55-.13.75a.83.83,0,0,1-.06.25,1.28,1.28,0,0,1,0-.26c0-.19.05-.44.09-.75.08-.7.21-1.67.36-2.91s.37-2.79.65-4.58.57-3.81,1-6.05c.74-4.48,1.77-9.79,3-15.67s2.69-12.31,4.3-19.05c3.25-13.47,6.42-25.6,8.64-34.4,1.11-4.38,2-7.93,2.63-10.43.31-1.2.55-2.15.73-2.83l.2-.73A.76.76,0,0,1,386,327.1Z" style="fill:#1a2e35"/><path d="M363.59,423.68a.63.63,0,0,1-.06-.2c0-.16-.08-.36-.14-.6q-.17-.86-.48-2.31c-.41-2-1-4.91-1.58-8.52-1.25-7.21-2.73-17.22-3.64-28.36-.44-5.57-.68-10.89-.79-15.72s0-9.21.11-12.86c.05-1.83.17-3.48.25-4.94s.17-2.7.27-3.71.16-1.78.21-2.35c0-.25.05-.45.07-.61a.71.71,0,0,1,0-.21.72.72,0,0,1,0,.21c0,.17,0,.37,0,.62,0,.57-.07,1.36-.13,2.35s-.14,2.27-.19,3.72-.15,3.1-.18,4.93c-.1,3.65-.11,8,0,12.84s.39,10.14.83,15.7c.91,11.11,2.34,21.12,3.5,28.34.58,3.61,1.08,6.53,1.44,8.54.17,1,.3,1.75.39,2.32,0,.25.07.44.1.61A.83.83,0,0,1,363.59,423.68Z" style="fill:#1a2e35"/><path d="M364.31,425.78a3.42,3.42,0,0,1-.25-.57c-.16-.42-.38-1-.64-1.67l-.46-1.2c-.19-.44-.4-.9-.63-1.4s-.46-1-.71-1.61-.58-1.15-.89-1.77l-1-1.93c-.38-.65-.78-1.33-1.18-2-.79-1.42-1.8-2.84-2.77-4.39a102.56,102.56,0,0,0-7.34-9.37A115.36,115.36,0,0,0,340,391.4c-1.4-1.18-2.68-2.36-4-3.35l-1.84-1.47-1.75-1.29c-1.11-.84-2.15-1.54-3.06-2.15s-1.7-1.15-2.36-1.55l-1.51-.95a4.44,4.44,0,0,1-.51-.36,2.47,2.47,0,0,1,.56.28l1.55.88c.68.38,1.49.88,2.41,1.49s2,1.27,3.11,2.1l1.77,1.27,1.87,1.45c1.31,1,2.6,2.16,4,3.34a110,110,0,0,1,8.48,8.43,101.33,101.33,0,0,1,7.34,9.44c1,1.56,2,3,2.74,4.44.41.71.8,1.4,1.17,2.06l1,2c.3.62.62,1.21.87,1.78l.68,1.64.59,1.42c.16.44.3.85.42,1.22.24.7.42,1.27.57,1.7A2.79,2.79,0,0,1,364.31,425.78Z" style="fill:#1a2e35"/><path d="M405.41,376.05a27.76,27.76,0,0,1-3.08.18,59.57,59.57,0,0,0-7.35.89,57,57,0,0,0-7.17,1.87,29.65,29.65,0,0,1-2.92,1,2.75,2.75,0,0,1,.73-.4c.48-.23,1.19-.53,2.09-.87a43.69,43.69,0,0,1,14.61-2.77c.95,0,1.73,0,2.26,0A3.4,3.4,0,0,1,405.41,376.05Z" style="fill:#1a2e35"/><path d="M412.75,411.93a27.84,27.84,0,0,0-4-6,28.25,28.25,0,0,0-5.73-4.45,6.81,6.81,0,0,1,2,.88,17.33,17.33,0,0,1,4.09,3.25,17.58,17.58,0,0,1,2.95,4.32A6.76,6.76,0,0,1,412.75,411.93Z" style="fill:#1a2e35"/><path d="M387.7,340.55c.1.1-1.7,1.88-3.65,4.29s-3.35,4.51-3.47,4.44a20,20,0,0,1,3.11-4.73A20.46,20.46,0,0,1,387.7,340.55Z" style="fill:#1a2e35"/><path d="M381.82,330.39a17.69,17.69,0,0,1,.89,3.85,16.9,16.9,0,0,1,.43,3.92,17.69,17.69,0,0,1-.89-3.85A16.86,16.86,0,0,1,381.82,330.39Z" style="fill:#1a2e35"/><path d="M363.6,362.28a46.86,46.86,0,0,1-2.85,6,47.64,47.64,0,0,1-3.25,5.79,46.59,46.59,0,0,1,2.85-6A48,48,0,0,1,363.6,362.28Z" style="fill:#1a2e35"/><path d="M352.76,351.45a26.72,26.72,0,0,1,2.42,4.34,26.35,26.35,0,0,1,2,4.54,27.12,27.12,0,0,1-2.41-4.33A27.81,27.81,0,0,1,352.76,351.45Z" style="fill:#1a2e35"/><path d="M336.83,388.47c0,.13-2-.24-4.38-.41s-4.37-.08-4.38-.21a12.4,12.4,0,0,1,4.42-.25A12.74,12.74,0,0,1,336.83,388.47Z" style="fill:#1a2e35"/><path d="M347.71,421.2l5.42,28.5a4,4,0,0,0,3.93,3.25h16a4,4,0,0,0,3.94-3.34l4.71-28.41Z" style="fill:#1a2e35"/><polygon points="349.47 430.46 380.1 430.46 381.73 421.2 347.71 421.2 349.47 430.46" style="fill:#375a64"/><polygon points="349.47 430.46 350.11 433.84 379.63 433.84 380.1 430.46 349.47 430.46" style="fill:#fafafa"/></g></svg>