<svg xmlns="http://www.w3.org/2000/svg" viewBox="0 0 433.12 414.32"><title>asset-beranda-cetak</title><g id="OBJECTS"><rect x="383.97" y="14.11" width="26.48" height="11.19" transform="translate(794.42 39.41) rotate(-180)" style="fill:#ececec"/><rect x="398.74" width="26.48" height="11.19" transform="translate(823.96 11.19) rotate(180)" style="fill:#ececec"/><rect x="77.13" y="118.13" width="26.48" height="11.19" transform="translate(180.74 247.45) rotate(180)" style="fill:#ececec"/><rect x="91.9" y="104.02" width="26.48" height="11.19" transform="translate(210.28 219.23) rotate(180)" style="fill:#ececec"/><rect x="106.9" y="118.13" width="26.48" height="11.19" transform="translate(240.28 247.45) rotate(180)" style="fill:#ececec"/><rect x="7.9" width="26.48" height="11.19" transform="translate(42.28 11.19) rotate(180)" style="fill:#ececec"/><rect x="22.67" y="226.01" width="26.48" height="11.19" transform="translate(71.83 463.22) rotate(180)" style="fill:#ececec"/><rect x="7.9" y="211.9" width="26.48" height="11.19" transform="translate(42.28 435) rotate(180)" style="fill:#ececec"/><rect x="383.97" y="226.01" width="26.48" height="11.19" transform="translate(794.41 463.22) rotate(-180)" style="fill:#ececec"/><polygon points="343.25 90.26 278.48 89.83 279.02 6.69 327.11 7.01 343.79 7.12 343.69 22.96 343.25 90.26" style="fill:#ececec"/><rect x="285.24" y="20.86" width="52.76" height="2.14" transform="translate(623.09 45.89) rotate(-179.63)" style="fill:#dcdcdc"/><rect x="285.21" y="26.24" width="52.76" height="2.14" transform="translate(622.99 56.66) rotate(-179.62)" style="fill:#dcdcdc"/><rect x="285.17" y="31.63" width="52.76" height="2.14" transform="translate(622.88 67.44) rotate(-179.63)" style="fill:#dcdcdc"/><rect x="285.14" y="37.02" width="52.76" height="2.13" transform="translate(622.78 78.22) rotate(-179.63)" style="fill:#dcdcdc"/><rect x="285.1" y="42.41" width="52.76" height="2.14" transform="translate(622.67 88.99) rotate(-179.62)" style="fill:#dcdcdc"/><rect x="285.06" y="47.8" width="52.76" height="2.14" transform="translate(622.57 99.77) rotate(-179.63)" style="fill:#dcdcdc"/><rect x="285.03" y="53.19" width="52.76" height="2.14" transform="translate(622.46 110.55) rotate(-179.62)" style="fill:#dcdcdc"/><rect x="284.99" y="58.58" width="52.76" height="2.14" transform="translate(622.35 121.33) rotate(-179.62)" style="fill:#dcdcdc"/><rect x="284.96" y="63.97" width="52.76" height="2.14" transform="translate(622.25 132.1) rotate(-179.62)" style="fill:#dcdcdc"/><rect x="284.92" y="69.35" width="52.76" height="2.13" transform="translate(622.14 142.88) rotate(-179.63)" style="fill:#dcdcdc"/><rect x="284.89" y="74.74" width="52.76" height="2.14" transform="translate(622.04 153.66) rotate(-179.62)" style="fill:#dcdcdc"/><rect x="284.85" y="80.13" width="52.76" height="2.13" transform="translate(621.93 164.43) rotate(-179.62)" style="fill:#dcdcdc"/><polygon points="353.3 116.99 289.9 103.71 306.94 22.33 354.01 32.19 367.09 51.11 353.3 116.99" style="fill:#ececec"/><polygon points="354.01 32.19 367.09 51.11 350.77 47.7 354.01 32.19" style="fill:#dcdcdc"/><rect x="309.67" y="40.95" width="36.01" height="2.13" transform="translate(639.78 150.3) rotate(-168.17)" style="fill:#dcdcdc"/><rect x="308.57" y="46.22" width="36.01" height="2.13" transform="translate(636.52 160.51) rotate(-168.17)" style="fill:#dcdcdc"/><rect x="307.46" y="51.5" width="36.01" height="2.14" transform="translate(633.25 170.72) rotate(-168.17)" style="fill:#dcdcdc"/><rect x="306.18" y="58.49" width="52.76" height="2.14" transform="translate(645.85 186.01) rotate(-168.17)" style="fill:#dcdcdc"/><rect x="305.07" y="63.76" width="52.76" height="2.14" transform="translate(642.59 196.22) rotate(-168.17)" style="fill:#dcdcdc"/><rect x="303.97" y="69.04" width="52.76" height="2.14" transform="translate(639.32 206.43) rotate(-168.17)" style="fill:#dcdcdc"/><rect x="302.87" y="74.31" width="52.76" height="2.14" transform="translate(636.05 216.64) rotate(-168.17)" style="fill:#dcdcdc"/><rect x="301.76" y="79.59" width="52.76" height="2.13" transform="translate(632.79 226.85) rotate(-168.17)" style="fill:#dcdcdc"/><rect x="300.66" y="84.86" width="52.76" height="2.14" transform="translate(629.52 237.06) rotate(-168.17)" style="fill:#dcdcdc"/><rect x="299.55" y="90.14" width="52.76" height="2.14" transform="translate(626.25 247.27) rotate(-168.17)" style="fill:#dcdcdc"/><rect x="298.45" y="95.41" width="52.76" height="2.14" transform="translate(622.99 257.48) rotate(-168.17)" style="fill:#dcdcdc"/><rect x="297.34" y="100.69" width="52.76" height="2.13" transform="translate(619.72 267.69) rotate(-168.17)" style="fill:#dcdcdc"/><polygon points="102.29 93.08 179.31 94.34 180.1 42.82 103.08 41.57 102.29 93.08" style="fill:#ececec"/><polygon points="105.54 89.92 176.17 91.08 176.85 45.98 106.22 44.83 105.54 89.92" style="fill:#fff"/><path d="M112.41,59a7.69,7.69,0,1,0,7.81-7.56A7.69,7.69,0,0,0,112.41,59Z" style="fill:#dcdcdc"/><polygon points="127.47 90.35 176.12 91.14 152.33 57.78 127.47 90.35" style="fill:#dcdcdc"/><polygon points="108.4 90.06 148.57 90.71 128.83 68.91 108.4 90.06" style="fill:#ececec"/><polygon points="73.95 130.29 149.02 113.02 137.41 62.83 62.34 80.1 73.95 130.29" style="fill:#ececec"/><polygon points="76.35 126.45 145.18 110.61 135.01 66.67 66.18 82.51 76.35 126.45" style="fill:#fff"/><path d="M75.59,94.77a7.68,7.68,0,1,0,5.76-9.21A7.69,7.69,0,0,0,75.59,94.77Z" style="fill:#dcdcdc"/><polygon points="97.74 121.6 145.15 110.69 114.05 84.01 97.74 121.6" style="fill:#dcdcdc"/><polygon points="79.15 125.89 118.3 116.89 93.91 100.46 79.15 125.89" style="fill:#ececec"/><ellipse cx="216.56" cy="393.87" rx="188.66" ry="20.46" style="fill:#ececec"/><polygon points="0 254.82 54.14 254.58 108.28 254.49 216.56 254.32 324.84 254.49 378.98 254.58 433.12 254.82 378.98 255.07 324.84 255.15 216.56 255.32 108.28 255.15 54.14 255.06 0 254.82" style="fill:#1a2e35"/><path d="M404.7,190.62A51.91,51.91,0,0,0,403,200c.09.16.07.74,0,.58,0,.52-.81.42-.81-.08,0-.34,0-.67,0-1-1.84-2.28-4.51-3.72-6.66-5.7a12.54,12.54,0,0,1-3.65-5.81c-1.79-6.16-.11-12.68-2.26-18.83-1.85-5.29-5.18-9.9-8-14.7-3-5.07-5.16-10.41-5.38-16.35-.17-4.55.37-10.62,3.84-14,3.67-3.62,8.23-.9,11,2.32,8.16,9.37,11.94,21.2,13.46,33.29.84,6.7,1.72,13.44,1.51,20.2A53.71,53.71,0,0,1,404.7,190.62Z" style="fill:#45c2e3"/><path d="M403.08,202.47a116.64,116.64,0,0,0-.22-19,.15.15,0,0,0,0-.07c.1-5.12.51-10.23.31-15.36a91.64,91.64,0,0,0-2.26-16.49.05.05,0,0,0-.1,0,107.59,107.59,0,0,1,1.78,16.12q.17,4.34-.07,8.69c-.05.94-.13,1.89-.2,2.84h0a101.5,101.5,0,0,0-15.25-40.37c-.11-.17-.41,0-.3.18A105.8,105.8,0,0,1,399.22,169c-3.93-7.27-9.85-13.25-14.25-20.23,0,0-.09,0-.07,0,4,7.77,10.48,13.9,14.64,21.56.72,3.13,1.31,6.28,1.75,9.45a104.69,104.69,0,0,1,.94,13.12c-2.38-4.47-4.86-8.74-6.82-13.46-.05-.13-.23,0-.19.08a52.48,52.48,0,0,0,7,14.38c0,3.1-.08,6.21-.26,9.31-.49,8.29-1.9,16.46-2.56,24.71a.19.19,0,0,0,.38,0A190.48,190.48,0,0,0,403.08,202.47Z" style="fill:#1a2e35"/><path d="M394.28,138.61c0-.06-.11,0-.09,0a130.41,130.41,0,0,1,3.46,12.71.16.16,0,0,0,.32-.06A45.52,45.52,0,0,0,394.28,138.61Z" style="fill:#1a2e35"/><path d="M432.7,156.14a65.37,65.37,0,0,1-3.48,7.14c-2.73,4.95-5.57,9.48-6.08,15.24a35,35,0,0,1-1.1,7.63,22.49,22.49,0,0,1-3,6c-2.95,4.3-6.64,8-9.38,12.47a52.75,52.75,0,0,0-6.23,15c-.07.29-.52.21-.45-.08a.13.13,0,0,0,0-.06.11.11,0,0,1,0-.06c-.44-12.35.55-24.8,4.31-36.63a126,126,0,0,1,6-15.23,36,36,0,0,1,8.07-11.62c2.3-2.07,7.29-6,10.56-3.92C433.43,153,433.31,154.59,432.7,156.14Z" style="fill:#45c2e3"/><path d="M420.28,184.13a101.6,101.6,0,0,1-7.17,10.32c-1.2,1.56-2.41,3.11-3.6,4.67-.57.74-1.2,1.47-1.72,2.27.33-1.3.65-2.6,1-3.9a151,151,0,0,1,5.5-18.53,124.76,124.76,0,0,1,8.57-16.81c.08-.14-.15-.25-.23-.11-2.61,4.29-5.26,8.58-7.45,13.1a68.93,68.93,0,0,0-3.17,7.78,120.62,120.62,0,0,1,4.21-16.61c0-.05-.05-.09-.07,0a56.84,56.84,0,0,0-4.37,17.28,0,0,0,0,0,0,0c-.54,1.6-1,3.22-1.49,4.85-1.94,6.91-3.65,13.89-5.24,20.9a74.58,74.58,0,0,1,1.2-13.74c0-.1-.14-.13-.17,0A43.8,43.8,0,0,0,404.88,210c-.6,2.67-1.18,5.33-1.75,8-1.21,5.7-2.7,11.49-3.41,17.27a.12.12,0,0,0,.23,0c.84-3.12,1.35-6.35,2.05-9.5s1.41-6.33,2.14-9.48q1.62-6.9,3.34-13.76a25.14,25.14,0,0,1,3.36-4.57c1.21-1.55,2.43-3.09,3.61-4.66a69.41,69.41,0,0,0,5.94-9.2C420.43,184.11,420.32,184.07,420.28,184.13Z" style="fill:#1a2e35"/><path d="M420.81,178.85a64,64,0,0,0-7,11.16c0,.05,0,.1.08.05,2.37-3.7,4.69-7.43,7.05-11.14C421,178.86,420.85,178.79,420.81,178.85Z" style="fill:#1a2e35"/><path d="M368.24,167.84c1.6,2.76,3.43,6.07,2.74,9.38-.44,2.1-2,3.8-2.25,5.93-.62,4.72,4.08,7.84,7.49,10.07,8.48,5.56,20.11,10.52,21.65,21.88.06.4.75.3.7-.09,0,0,0,0,0-.07s0,0,0-.07a43.74,43.74,0,0,0-.16-17.36,55.39,55.39,0,0,0-6.84-16.26c-5.1-8.7-10.51-17.62-18.22-24.29-2.14-1.84-6.51-5.16-8.22-1S366.28,164.48,368.24,167.84Z" style="fill:#45c2e3"/><path d="M376,186.3c5.62,6.09,14.56,9.5,19.4,16.32a68.24,68.24,0,0,0-14.91-28,.22.22,0,0,1,.31-.31A55.21,55.21,0,0,1,393,192a78.4,78.4,0,0,0-5.24-13.42.14.14,0,0,1,.25-.14,51,51,0,0,1,5.65,15.08c6.38,15.44,7,33.54,5.63,49.81,0,.23-.37.24-.36,0,.36-12.82.16-25.87-2.92-38.39-.06-.26-.13-.52-.2-.78-5.26-7.34-14.16-10.74-19.89-17.71C375.85,186.33,375.94,186.24,376,186.3Z" style="fill:#1a2e35"/><path d="M374.7,181.08c2.95,2.7,5.85,5.47,8.81,8.18,0,0,0,.08,0,.06a43.23,43.23,0,0,1-9-8.07A.12.12,0,0,1,374.7,181.08Z" style="fill:#1a2e35"/><path d="M374.23,169.34a92.3,92.3,0,0,0,8.83,12.15,0,0,0,1,1-.07.07,42.69,42.69,0,0,1-8.92-12.12C374,169.33,374.17,169.24,374.23,169.34Z" style="fill:#1a2e35"/><polygon points="387.52 254.76 413.37 254.76 409.89 219.98 391.5 219.98 387.52 254.76" style="fill:#375a64"/><polygon points="390.85 225.63 410.46 225.63 409.89 219.98 391.5 219.98 390.85 225.63" style="fill:#1a2e35"/><rect x="388.33" y="216.12" width="24.23" height="5.55" transform="translate(800.89 437.8) rotate(180)" style="fill:#375a64"/><rect x="66.99" y="133.97" width="299.13" height="120.86" style="fill:#45c2e3"/><rect x="60.7" y="140.64" width="6.29" height="114.19" style="fill:#1a2e35"/><rect x="366.13" y="140.64" width="6.29" height="114.19" style="fill:#1a2e35"/><rect x="114.77" y="133.97" width="203.58" height="120.86" style="opacity:0.1"/><rect x="79.55" y="239.47" width="22.66" height="7.05" style="fill:#375a64"/><rect x="137.37" y="206.36" width="158.38" height="48.47" style="fill:#375a64"/><rect x="143.19" y="212.53" width="146.73" height="42.3" style="fill:#2b454e"/><rect x="143.19" y="212.53" width="146.73" height="18.06" style="fill:#1a2e35"/><rect x="66.99" y="140.64" width="299.13" height="11.71" style="fill:#fcfdff;opacity:0.4"/><rect x="66.99" y="157.63" width="299.13" height="3.65" style="fill:#fcfdff;opacity:0.4"/><circle cx="342.24" cy="175.76" r="8.06" style="fill:#375a64"/><rect x="138.33" y="65.48" width="156.46" height="68.49" style="fill:#375a64"/><rect x="148.83" y="35.77" width="135.47" height="98.2" style="fill:#fff"/><path d="M284.29,35.77,216.46,36l-67.63.11.36-.35.14,98.2-.5-.5,135.46.19-.3.31.11-49Zm0,0,.19,49L284.6,134v.3h-.31l-135.46.19h-.5V134l.14-98.2v-.36h.36l67.83.11Z" style="fill:#1a2e35"/><rect x="333.3" y="188.93" width="17.88" height="2.57" style="fill:#375a64"/><rect x="333.3" y="193.84" width="17.88" height="2.57" style="fill:#375a64"/><polygon points="341.18 307.96 91.94 307.96 137.37 254.83 295.75 254.83 341.18 307.96" style="fill:#1a2e35"/><rect x="91.94" y="307.96" width="249.24" height="7.18" style="fill:#2b454e"/><path d="M63.57,122.81a22.93,22.93,0,0,1-.78-4.13,38.88,38.88,0,0,1,0-8.26,23.26,23.26,0,0,1,.78-4.13,21.6,21.6,0,0,1,.78,4.13,35.84,35.84,0,0,1,.22,4.13,38,38,0,0,1-.22,4.13A22.09,22.09,0,0,1,63.57,122.81Z" style="fill:#1a2e35"/><path d="M76.59,128.29A22.82,22.82,0,0,1,79,124.82c.87-1.07,1.79-2.1,2.76-3.08A38.58,38.58,0,0,1,84.8,119a21.87,21.87,0,0,1,3.47-2.37,21.87,21.87,0,0,1-2.37,3.47,38.58,38.58,0,0,1-2.76,3.08,40.4,40.4,0,0,1-3.08,2.76A22.34,22.34,0,0,1,76.59,128.29Z" style="fill:#1a2e35"/><path d="M45,141.16a22.93,22.93,0,0,1-4.13.78,38.78,38.78,0,0,1-8.25,0,22.93,22.93,0,0,1-4.13-.78,21.31,21.31,0,0,1,4.13-.78,35.54,35.54,0,0,1,4.12-.22,40.66,40.66,0,0,1,4.13.22A22.09,22.09,0,0,1,45,141.16Z" style="fill:#1a2e35"/><path d="M50.49,128.14A22.82,22.82,0,0,1,47,125.77,40.25,40.25,0,0,1,44,123a36.85,36.85,0,0,1-2.77-3.08,21.87,21.87,0,0,1-2.37-3.47,22.43,22.43,0,0,1,3.48,2.37,40.25,40.25,0,0,1,3.07,2.76c1,1,1.89,2,2.76,3.08A22.82,22.82,0,0,1,50.49,128.14Z" style="fill:#1a2e35"/><path d="M153.21,230l128.51-.13c22.84,29.48,16.34,59,40.72,88.46H110.35C135.47,288.9,129.63,259.47,153.21,230Z" style="fill:#fff"/><path d="M153.21,230l128.37-.32h.31l.14.19c23,29.48,16.56,59,41.2,88.46l.27.29h-.8l-212.53-.09h-.55l.19-.2c13.1-14.74,17.15-29.48,21.64-44.22C136.39,259.43,141.76,244.73,153.21,230Zm0,0c-11.31,14.74-16.46,29.48-21.2,44.22-4.34,14.7-8.28,29.4-21.12,44.11l-.36-.21,211.65-.09-.53.3c-24.13-29.49-17.59-59-40.24-88.46l.45.19Z" style="fill:#1a2e35"/><path d="M118,308.25l197,0c1,1.72,2.18,3.44,3.44,5.16h-204C115.77,311.68,117,310,118,308.25Z" style="fill:#1a2e35"/><path d="M315,308.23H207.49q4.66-2.78,9.1-5.54H312C312.89,304.54,313.89,306.39,315,308.23Z" style="fill:#1a2e35"/><path d="M319.21,314.42H207l4.73-2h106C318.2,313.05,318.7,313.73,319.21,314.42Z" style="fill:#ebb31f"/><path d="M317,311.4H258.38l3.93-2H315.7C316.13,310,316.57,310.72,317,311.4Z" style="fill:#ebb31f"/><path d="M146.36,277.92l141.05-.05c.34,1.45.67,2.9,1,4.34l-143.19.05C145.62,280.81,146,279.37,146.36,277.92Z" style="fill:#fff"/><path d="M145.24,282.26l143.19-.05c.34,1.45.69,2.9,1.05,4.34l-145.4,0C144.48,285.15,144.87,283.7,145.24,282.26Z" style="fill:#45c2e3"/><path d="M147.47,273.59l138.93-.06c.34,1.45.67,2.9,1,4.34l-141,.05Z" style="fill:#dcdcdc"/><path d="M148.62,269.25l136.73-.06c.36,1.45.71,2.9,1,4.34l-138.93.06C147.85,272.14,148.23,270.7,148.62,269.25Z" style="fill:#fff"/><path d="M149.84,264.92l134.4-.07c.38,1.45.75,2.89,1.11,4.34l-136.73.06C149,267.81,149.42,266.36,149.84,264.92Z" style="fill:#dcdcdc"/><path d="M151.16,260.58,283,260.51c.42,1.45.82,2.89,1.21,4.34l-134.4.07C150.26,263.47,150.7,262,151.16,260.58Z" style="fill:#fff"/><path d="M152.59,256.25l129.1-.08c.47,1.45.91,2.89,1.34,4.34l-131.87.07C151.61,259.14,152.09,257.69,152.59,256.25Z" style="fill:#dcdcdc"/><path d="M154.18,251.91l88.25-.06c.19,1.45.38,2.9.56,4.34l-90.4.06C153.1,254.8,153.62,253.36,154.18,251.91Z" style="fill:#45c2e3"/><path d="M243,256.19l38.7,0c3.23,10.13,5.19,20.26,7.79,30.38l-43.59,0C244.92,276.44,244.21,266.32,243,256.19Z" style="fill:#c8c8c8"/><path d="M287.41,277.87l-70.53.08-70.52,0,70.53-.08Z" style="fill:#1a2e35"/><path d="M286.4,273.53l-69.46.08-69.47,0,69.47-.08Z" style="fill:#1a2e35"/><path d="M285.35,269.19l-68.36.09-68.37,0,68.37-.08Z" style="fill:#1a2e35"/><path d="M284.24,264.85l-67.2.09-67.2,0,67.2-.09Z" style="fill:#1a2e35"/><path d="M283,260.51l-65.94.09-65.93,0,65.93-.09Z" style="fill:#1a2e35"/><path d="M281.69,256.17l-64.55.09H152.59l64.55-.1Z" style="fill:#1a2e35"/><path d="M281.22,284.39c-4.59.09-9.2.1-13.8.11s-9.22,0-13.84-.11c4.6-.09,9.2-.09,13.8-.11S276.6,284.3,281.22,284.39Z" style="fill:#1a2e35"/><path d="M280.31,280.05c-3.42.09-6.85.1-10.28.11s-6.87,0-10.32-.11c3.42-.09,6.85-.1,10.28-.11S276.86,280,280.31,280.05Z" style="fill:#1a2e35"/><path d="M279.41,275.71c-4.45.09-8.92.1-13.39.11s-8.95,0-13.43-.1c4.46-.1,8.93-.1,13.39-.12S274.92,275.62,279.41,275.71Z" style="fill:#1a2e35"/><path d="M278.5,271.37c-3.61.09-7.23.09-10.85.11s-7.25,0-10.89-.11c3.61-.09,7.23-.1,10.85-.11S274.86,271.28,278.5,271.37Z" style="fill:#1a2e35"/><path d="M277.54,267c-4.31.1-8.63.11-13,.12s-8.67,0-13-.1c4.32-.1,8.64-.1,13-.12S273.2,266.94,277.54,267Z" style="fill:#1a2e35"/><path d="M276.51,262.68c-4.23.1-8.48.11-12.73.12s-8.51,0-12.77-.1c4.23-.1,8.48-.1,12.73-.12S272.24,262.6,276.51,262.68Z" style="fill:#1a2e35"/><path d="M275.39,258.34c-2.51.09-5,.11-7.57.12s-5.07,0-7.62-.11c2.52-.09,5-.11,7.57-.11S272.84,258.26,275.39,258.34Z" style="fill:#1a2e35"/><path d="M235.58,284.4c-3.46.09-6.92.1-10.38.11s-6.93,0-10.39-.1c3.46-.1,6.92-.1,10.38-.12S232.12,284.31,235.58,284.4Z" style="fill:#1a2e35"/><path d="M235.35,280.06c-3.41.09-6.82.1-10.23.11s-6.82,0-10.23-.1c3.41-.09,6.82-.1,10.23-.12S231.94,280,235.35,280.06Z" style="fill:#1a2e35"/><path d="M235.13,275.72c-3.36.09-6.72.1-10.08.12s-6.72,0-10.08-.11c3.36-.09,6.72-.1,10.08-.11S231.76,275.63,235.13,275.72Z" style="fill:#1a2e35"/><path d="M234.9,271.38c-3.31.1-6.61.1-9.92.12s-6.62,0-9.93-.11c3.31-.09,6.62-.1,9.92-.11S231.59,271.29,234.9,271.38Z" style="fill:#1a2e35"/><path d="M234.66,267c-3.25.1-6.51.1-9.76.12s-6.51,0-9.76-.11c3.25-.09,6.5-.1,9.75-.11S231.4,267,234.66,267Z" style="fill:#1a2e35"/><path d="M234.39,262.71c-3.19.09-6.38.1-9.58.11s-6.39,0-9.59-.1c3.2-.1,6.39-.1,9.58-.12S231.19,262.62,234.39,262.71Z" style="fill:#1a2e35"/><path d="M234.1,258.37c-3.13.09-6.26.1-9.39.11s-6.27,0-9.4-.1c3.13-.09,6.26-.1,9.39-.12S231,258.28,234.1,258.37Z" style="fill:#1a2e35"/><path d="M205.56,284.41c-3.46.09-6.93.1-10.39.11s-6.92,0-10.38-.11c3.47-.09,6.94-.09,10.4-.11S202.11,284.32,205.56,284.41Z" style="fill:#1a2e35"/><path d="M200.55,258.39c-1,.08-2,.1-3,.11s-2,0-3-.11c1-.09,2-.11,3-.11S199.56,258.3,200.55,258.39Z" style="fill:#1a2e35"/><path d="M200.16,262.72c-1,.09-2,.11-3.07.12s-2,0-3.05-.11c1-.09,2.05-.11,3.07-.11S199.15,262.64,200.16,262.72Z" style="fill:#1a2e35"/><path d="M199.81,267.06c-1.05.09-2.09.11-3.13.11s-2.08,0-3.11-.11c1.05-.08,2.09-.1,3.13-.11S198.77,267,199.81,267.06Z" style="fill:#1a2e35"/><path d="M199.47,271.4c-1.07.08-2.12.1-3.18.11s-2.11,0-3.16-.11c1.06-.09,2.12-.11,3.18-.11S198.42,271.31,199.47,271.4Z" style="fill:#1a2e35"/><path d="M199.14,275.74c-1.08.08-2.15.1-3.23.11s-2.14,0-3.2-.11c1.08-.09,2.15-.11,3.22-.11S198.08,275.65,199.14,275.74Z" style="fill:#1a2e35"/><path d="M198.82,280.07c-1.09.09-2.19.11-3.27.11s-2.18,0-3.26-.1c1.09-.09,2.19-.11,3.27-.12S197.74,280,198.82,280.07Z" style="fill:#1a2e35"/><path d="M199.23,254.05c-1.74.09-3.47.11-5.2.11s-3.46,0-5.18-.1c1.75-.09,3.48-.11,5.21-.12S197.51,254,199.23,254.05Z" style="fill:#1a2e35"/><path d="M175.55,284.42c-3.48.09-6.94.1-10.41.11s-6.92,0-10.36-.11c3.48-.09,6.94-.1,10.4-.11S172.1,284.33,175.55,284.42Z" style="fill:#1a2e35"/><path d="M176.22,280.08c-3.43.09-6.84.1-10.25.11s-6.82,0-10.21-.1c3.43-.1,6.84-.1,10.25-.12S172.82,280,176.22,280.08Z" style="fill:#1a2e35"/><path d="M176.88,275.74c-3.38.1-6.74.1-10.1.12s-6.72,0-10.06-.11c3.38-.09,6.74-.1,10.1-.11S173.53,275.65,176.88,275.74Z" style="fill:#1a2e35"/><path d="M177.54,271.41c-3.32.09-6.63.1-9.94.11s-6.61,0-9.9-.1c3.33-.1,6.63-.1,9.94-.12S174.25,271.32,177.54,271.41Z" style="fill:#1a2e35"/><path d="M178.24,267.07c-3.27.09-6.52.1-9.78.12s-6.51,0-9.74-.11c3.27-.09,6.53-.1,9.78-.11S175,267,178.24,267.07Z" style="fill:#1a2e35"/><path d="M179,262.74c-3.21.09-6.41.09-9.61.11s-6.38,0-9.56-.1c3.22-.1,6.42-.11,9.61-.12S175.81,262.65,179,262.74Z" style="fill:#1a2e35"/><path d="M179.79,258.4c-3.15.09-6.28.1-9.42.11s-6.26,0-9.37-.1c3.16-.09,6.29-.1,9.42-.12S176.68,258.31,179.79,258.4Z" style="fill:#1a2e35"/><path d="M180.68,254.06c-3.09.09-6.15.1-9.22.12s-6.12,0-9.16-.11c3.09-.09,6.16-.1,9.22-.11S177.63,254,180.68,254.06Z" style="fill:#1a2e35"/><path d="M295.5,305c-4.65.1-9.32.14-14,.17s-9.36,0-14.05.06-9.38,0-14.08-.05l-7.05-.06c-2.34,0-4.69-.06-7-.11,2.34,0,4.68-.07,7-.11l7-.06c4.67,0,9.35,0,14-.05s9.36,0,14.05.05S290.78,304.93,295.5,305Z" style="fill:#fff"/><path d="M296.47,307.17c-5.35.09-10.72.13-16.1.16s-10.77,0-16.16.06-10.79,0-16.19-.05l-8.1-.06c-2.7,0-5.4-.06-8.1-.11,2.69-.05,5.38-.07,8.07-.11L248,307c5.37,0,10.75,0,16.13-.05s10.76,0,16.16.05S291,307.08,296.47,307.17Z" style="fill:#fff"/><path d="M291.58,294.21c-4.12.07-8.24.1-12.37.13s-8.26,0-12.39,0-8.28,0-12.41,0-8.28-.06-12.42-.13c4.12-.07,8.25-.1,12.38-.13l12.38,0c4.13,0,8.26,0,12.4,0S287.43,294.14,291.58,294.21Z" style="fill:#1a2e35"/><path d="M291,292.36c-2.55.07-5.11.1-7.68.13s-5.14,0-7.71,0-5.15,0-7.73,0-5.16-.05-7.74-.12c2.56-.07,5.12-.1,7.69-.13s5.14,0,7.7,0,5.15,0,7.73,0S288.44,292.3,291,292.36Z" style="fill:#1a2e35"/><path d="M290.52,290.51c-3.54.07-7.09.1-10.64.13s-7.1,0-10.66,0l-10.67,0c-3.56,0-7.12-.06-10.68-.13,3.54-.07,7.09-.1,10.64-.13l10.65,0c3.55,0,7.11,0,10.67,0S287,290.45,290.52,290.51Z" style="fill:#1a2e35"/><path d="M279,248.48c-2.16.07-4.33.1-6.51.13s-4.37,0-6.56,0l-6.57,0c-2.2,0-4.39-.06-6.6-.12,2.17-.07,4.35-.11,6.53-.14l6.54,0c2.19,0,4.38,0,6.57,0S276.75,248.41,279,248.48Z" style="fill:#1a2e35"/><path d="M278.23,246.63c-2.47.07-5,.1-7.45.13s-5,0-7.49,0-5,0-7.51,0-5-.05-7.52-.12c2.48-.07,5-.1,7.46-.13s5,0,7.47-.05,5,0,7.5,0S275.7,246.56,278.23,246.63Z" style="fill:#1a2e35"/><path d="M275,239.25c-3.67.08-7.37.11-11.07.14l-11.13.05-11.15,0c-3.72,0-7.43,0-11.15-.12,3.7-.07,7.4-.1,11.1-.13l11.1,0,11.13,0C267.49,239.16,271.21,239.19,275,239.25Z" style="fill:#1a2e35"/><path d="M277.46,244.78c-1.48.07-3,.1-4.46.13s-3,0-4.5,0-3,0-4.53,0-3-.06-4.56-.13c1.49-.07,3-.1,4.47-.13s3,0,4.5,0,3,0,4.52,0S275.93,244.71,277.46,244.78Z" style="fill:#1a2e35"/><path d="M202.23,243c-3.7.07-7.4.11-11.1.14l-11.09,0-11.07,0c-3.69,0-7.37-.06-11-.12,3.72-.07,7.42-.11,11.12-.14l11.08,0,11.05,0C194.87,242.92,198.55,243,202.23,243Z" style="fill:#1a2e35"/><path d="M202,244.84c-3,.07-6.09.1-9.14.13s-6.09,0-9.13,0-6.08,0-9.12,0-6.06,0-9.08-.12c3.07-.07,6.12-.1,9.16-.13s6.08,0,9.12,0,6.07,0,9.1,0S199,244.77,202,244.84Z" style="fill:#1a2e35"/><path d="M202.47,241.16c-2.78.07-5.57.11-8.35.14s-5.57,0-8.35,0-5.56,0-8.33,0-5.54-.05-8.29-.12c2.8-.07,5.59-.1,8.37-.13s5.56,0,8.34-.05,5.54,0,8.31,0S199.71,241.1,202.47,241.16Z" style="fill:#1a2e35"/><path d="M202.72,239.32c-2,.07-3.93.1-5.9.13s-3.93,0-5.9,0-3.92,0-5.87,0-3.91-.06-5.85-.12q3-.1,5.92-.13c2,0,3.92,0,5.88-.05s3.92,0,5.87,0S200.77,239.25,202.72,239.32Z" style="fill:#1a2e35"/><path d="M274.48,240.77c-.92.36-1.88.7-2.9,1a20.88,20.88,0,0,1-3.33.79c-.16,0-.33,0-.49,0a1.11,1.11,0,0,1-.59-.09.88.88,0,0,1-.42-.49,2.76,2.76,0,0,1-.16-1,10.64,10.64,0,0,1,.15-1.87,17.57,17.57,0,0,1,1-3.6,3.19,3.19,0,0,1,.48-.86.82.82,0,0,1,.24-.2.54.54,0,0,1,.28-.08.85.85,0,0,1,.25.05l.14.05a1.26,1.26,0,0,1,.52.51,3.13,3.13,0,0,1,.25,1.9,4.84,4.84,0,0,1-.64,1.78,4.12,4.12,0,0,1-1.63,1.57,4.52,4.52,0,0,1-1.65.42,5.26,5.26,0,0,1-1,0,2.39,2.39,0,0,1-.86-.36,4.19,4.19,0,0,0-.69-.38,1.57,1.57,0,0,0-.83-.13,5.46,5.46,0,0,0-1.48.47l-.69.28a2.23,2.23,0,0,1-.39.13,1,1,0,0,1-.54,0c-.31-.16-.3-.33-.47-.47a.93.93,0,0,0-.74-.2,4.41,4.41,0,0,0-1.25.61c-.37.23-.73.47-1.09.71-.72.48-1.44,1-2.2,1.44-.39.24-.78.47-1.21.7a5.67,5.67,0,0,1-.7.31,2.3,2.3,0,0,1-.42.13.86.86,0,0,1-.29,0,.65.65,0,0,1-.33-.07.56.56,0,0,1-.26-.51,2,2,0,0,1,0-.48,5.64,5.64,0,0,1,.31-.93,6.24,6.24,0,0,1,1.11-1.76,1.91,1.91,0,0,1,.5-.4,1.05,1.05,0,0,1,.55-.11,3.19,3.19,0,0,1,.54.07,2.73,2.73,0,0,1,1.55.78.21.21,0,0,1,0,.29.39.39,0,0,1-.22.12,1.24,1.24,0,0,1-.33,0,8.2,8.2,0,0,1-1.05-.12c-.66-.11-1.3-.23-1.94-.36s-1.27-.26-1.9-.37c-.31-.06-.63-.12-.94-.16a3.59,3.59,0,0,0-.44,0,1,1,0,0,0-.35,0,5.22,5.22,0,0,0-1.16.66,2.22,2.22,0,0,1-1,.24.85.85,0,0,1-.42-.06c-.15-.07-.17-.14-.18-.19a.68.68,0,0,1,0-.26c.06-.15.06-.33,0-.33a2.36,2.36,0,0,0-.74,0,6.35,6.35,0,0,0-1.57.42c-.24.09-.49.19-.78.27a2.8,2.8,0,0,1-1.07.13,6,6,0,0,1-1.79-.59,6.27,6.27,0,0,0-.74-.29.64.64,0,0,0-.26,0l-.36.12c-.48.18-.94.39-1.38.6a13,13,0,0,0-2.37,1.42c-.3.26-.6.54-.55.82s.67.41,1.31.46a22.41,22.41,0,0,0,3.93,0c.64-.06,1.27-.14,1.86-.25a5.58,5.58,0,0,0,.81-.22c.23-.09.43-.21.34-.33a1.51,1.51,0,0,0-.69-.27c-.29-.07-.62-.12-.94-.18-.64-.1-1.28-.19-1.93-.26-2.62-.29-5.28-.29-7.92-.36v0c2.63,0,5.3,0,7.95.27.66.07,1.32.16,2,.26.32.06.65.1,1,.17a1.79,1.79,0,0,1,.85.36c.15.21-.16.37-.4.47a5.52,5.52,0,0,1-.87.24,18.65,18.65,0,0,1-1.91.28,24,24,0,0,1-4.07.05,5.47,5.47,0,0,1-1-.16c-.34-.09-.6-.28-.63-.47-.06-.37.27-.67.58-.94a11.71,11.71,0,0,1,2.41-1.47c.45-.22.91-.43,1.43-.63.13,0,.25-.09.43-.13a1.45,1.45,0,0,1,.68,0,7,7,0,0,1,.84.33,6,6,0,0,0,1.54.53,3.85,3.85,0,0,0,1.49-.37,7.57,7.57,0,0,1,1.71-.46,3,3,0,0,1,1.16,0c.26.1.3.24.3.32a.85.85,0,0,1-.05.25.63.63,0,0,0,0,.21s0,0,0,0,0,0,.06,0a1.58,1.58,0,0,0,.66-.18,4.83,4.83,0,0,1,1.28-.69,1.69,1.69,0,0,1,.57-.06,4.08,4.08,0,0,1,.53.06c.34,0,.66.1,1,.16l1.9.38c.63.13,1.27.26,1.9.36a8.46,8.46,0,0,0,.92.11c.22,0,.31-.08.21-.22a2.33,2.33,0,0,0-1.28-.65,3,3,0,0,0-.43-.06.49.49,0,0,0-.27.07,2.1,2.1,0,0,0-.46.36,5.75,5.75,0,0,0-1.13,1.72,4.52,4.52,0,0,0-.33.91,1.8,1.8,0,0,0-.05.46.45.45,0,0,0,.18.42c.11.09.47,0,.69-.1s.46-.2.68-.3c.42-.22.82-.45,1.21-.69.77-.47,1.49-1,2.23-1.43l1.11-.71a4.78,4.78,0,0,1,1.32-.62,1.18,1.18,0,0,1,.92.25c.17.15.23.34.43.43a.61.61,0,0,0,.37,0,3,3,0,0,0,.36-.12c.24-.09.46-.19.68-.29a5.73,5.73,0,0,1,1.53-.49,2,2,0,0,1,1,.14,6.85,6.85,0,0,1,.73.4,2,2,0,0,0,.74.31,4.07,4.07,0,0,0,.92,0,4,4,0,0,0,1.52-.4,4.06,4.06,0,0,0,1.55-1.53,4.87,4.87,0,0,0,.59-1.77,3.07,3.07,0,0,0-.27-1.84,1.09,1.09,0,0,0-.4-.4l-.06,0s0,0,0,0a.17.17,0,0,0-.07,0,.69.69,0,0,0-.18.16,3.22,3.22,0,0,0-.47.82,16.78,16.78,0,0,0-1,3.58,10.26,10.26,0,0,0-.2,1.84,3,3,0,0,0,.14.93.81.81,0,0,0,.34.43.54.54,0,0,0,.35,0,3.57,3.57,0,0,0,.46,0,22.94,22.94,0,0,0,3.33-.74c1-.3,2-.63,3-1Z" style="fill:#1a2e35"/><path d="M314,291.54H118.78c8.41-9.86,13.05-19.71,16.59-29.56,3.42-9.51,5.82-19,9.6-28.52.5-1.26,1-2.51,1.58-3.76H287.8C296.34,250.31,297,270.92,314,291.54Z" style="fill:#fff"/><path d="M314.77,291.54c-17.23-20.62-17.93-41.23-26.57-61.84h-.79c6.48,15.81,8.33,31.62,16.46,47.43.87,1.7,1.81,3.4,2.85,5.1.21.35.42.69.64,1,.39.63.8,1.26,1.21,1.88l.61.9c.21.31.43.63.66.94s.44.63.68.94c.81,1.12,1.67,2.23,2.58,3.35h.7l-.49.27-.21-.27-193.66.09-.16.18-.34-.18h.5q1.89-2.19,3.51-4.37c1.19-1.58,2.26-3.17,3.25-4.75A88.55,88.55,0,0,0,135.37,262c1.2-3.68,2.27-7.37,3.35-11.05,1.88-5.83,3.82-11.65,6.25-17.47.52-1.26,1.06-2.51,1.64-3.76h-.25a193.12,193.12,0,0,0-8.16,21.13c-4.13,13.57-7.86,27.14-19.92,40.71l-.17.19h.5l195.67.08H315Z" style="fill:#1a2e35"/><path d="M125.85,282.25l181.34,0c1,1.58,2,3.17,3.17,4.75H122.57Q124.37,284.62,125.85,282.25Z" style="fill:#1a2e35"/><path d="M307.19,282.23h-99c2.87-1.7,5.65-3.4,8.38-5.11H304.4Q305.66,279.68,307.19,282.23Z" style="fill:#1a2e35"/><path d="M311.07,287.92H207.78l4.36-1.89h97.55C310.13,286.67,310.59,287.29,311.07,287.92Z" style="fill:#ebb31f"/><path d="M309.06,285.14h-54l3.62-1.88h49.15C308.23,283.89,308.64,284.52,309.06,285.14Z" style="fill:#ebb31f"/><path d="M151.93,254.33l129.86-.05.93,4-131.82,0C151.25,257,151.59,255.66,151.93,254.33Z" style="fill:#fff"/><path d="M150.9,258.32l131.82,0c.32,1.33.64,2.66,1,4l-133.86,0C150.2,261,150.55,259.65,150.9,258.32Z" style="fill:#ebb31f"/><path d="M153,250.33l127.9-.05.93,4-129.86.05C152.27,253,152.61,251.66,153,250.33Z" style="fill:#dcdcdc"/><path d="M154,246.34l125.87-.05c.33,1.33.65,2.66,1,4l-127.9.05C153.3,249,153.65,247.67,154,246.34Z" style="fill:#fff"/><path d="M155.14,242.35l123.73-.06c.35,1.33.69,2.66,1,4L154,246.34C154.38,245,154.75,243.68,155.14,242.35Z" style="fill:#dcdcdc"/><path d="M156.35,238.36l121.4-.07c.39,1.34.76,2.67,1.12,4l-123.73.06C155.52,241,155.93,239.69,156.35,238.36Z" style="fill:#fff"/><path d="M157.67,234.37l118.85-.07q.64,2,1.23,4l-121.4.07Q157,236.37,157.67,234.37Z" style="fill:#dcdcdc"/><path d="M159.13,230.38l81.24-.06c.18,1.34.36,2.67.52,4l-83.22.05C158.13,233,158.62,231.71,159.13,230.38Z" style="fill:#ebb31f"/><path d="M240.89,234.32l35.63,0c3,9.32,4.78,18.65,7.17,28H243.56C242.67,253,242,243.64,240.89,234.32Z" style="fill:#c8c8c8"/><path d="M281.79,254.28l-64.93.07-64.93,0,64.93-.08Z" style="fill:#1a2e35"/><path d="M280.86,250.28l-64,.08-63.95,0,63.95-.07Z" style="fill:#1a2e35"/><path d="M279.89,246.29l-62.94.08-62.93,0,62.93-.08Z" style="fill:#1a2e35"/><path d="M278.87,242.29l-61.87.08-61.86,0,61.86-.08Z" style="fill:#1a2e35"/><path d="M277.75,238.29l-60.7.09-60.7,0,60.7-.08Z" style="fill:#1a2e35"/><path d="M276.52,234.3l-59.42.08H157.67l59.43-.09Z" style="fill:#1a2e35"/><path d="M276.09,260.28c-4.23.08-8.47.09-12.71.1s-8.48,0-12.74-.1c4.23-.08,8.47-.09,12.71-.1S271.83,260.19,276.09,260.28Z" style="fill:#1a2e35"/><path d="M275.25,256.28c-3.15.08-6.31.09-9.47.1s-6.32,0-9.49-.09c3.15-.09,6.3-.09,9.46-.11S272.07,256.2,275.25,256.28Z" style="fill:#1a2e35"/><path d="M274.42,252.28c-4.1.09-8.21.1-12.33.11s-8.23,0-12.36-.1c4.11-.08,8.22-.09,12.33-.1S270.29,252.2,274.42,252.28Z" style="fill:#1a2e35"/><path d="M273.58,248.29c-3.31.08-6.65.09-10,.1s-6.68,0-10-.09c3.32-.09,6.66-.1,10-.11S270.23,248.21,273.58,248.29Z" style="fill:#1a2e35"/><path d="M272.7,244.29c-4,.09-7.95.09-11.93.11s-8,0-12-.1c4-.08,8-.09,11.94-.1S268.7,244.21,272.7,244.29Z" style="fill:#1a2e35"/><path d="M271.76,240.3c-3.9.08-7.81.09-11.73.1s-7.83,0-11.76-.09c3.9-.09,7.82-.1,11.73-.11S267.82,240.21,271.76,240.3Z" style="fill:#1a2e35"/><path d="M270.72,236.3c-2.31.08-4.64.1-7,.1s-4.66,0-7-.09c2.31-.08,4.64-.1,7-.11S268.37,236.22,270.72,236.3Z" style="fill:#1a2e35"/><path d="M234.07,260.29c-3.18.08-6.37.09-9.56.1s-6.37,0-9.56-.1c3.19-.08,6.37-.09,9.56-.1S230.88,260.21,234.07,260.29Z" style="fill:#1a2e35"/><path d="M233.86,256.29c-3.14.09-6.28.09-9.42.11s-6.28,0-9.42-.1c3.14-.09,6.28-.09,9.42-.1S230.72,256.21,233.86,256.29Z" style="fill:#1a2e35"/><path d="M233.65,252.3c-3.09.08-6.18.09-9.27.1s-6.19,0-9.28-.09c3.09-.09,6.18-.1,9.27-.11S230.56,252.22,233.65,252.3Z" style="fill:#1a2e35"/><path d="M233.44,248.3c-3,.09-6.08.1-9.13.11s-6.09,0-9.14-.1c3.05-.08,6.09-.09,9.14-.1S230.39,248.22,233.44,248.3Z" style="fill:#1a2e35"/><path d="M233.22,244.31c-3,.09-6,.09-9,.11s-6,0-9-.1c3-.09,6-.09,9-.11S230.22,244.23,233.22,244.31Z" style="fill:#1a2e35"/><path d="M233,240.32c-2.94.08-5.88.09-8.83.1s-5.88,0-8.82-.09c2.94-.09,5.88-.1,8.82-.11S230,240.23,233,240.32Z" style="fill:#1a2e35"/><path d="M232.71,236.32c-2.88.09-5.76.09-8.65.11s-5.77,0-8.65-.1c2.88-.08,5.76-.09,8.65-.1S229.82,236.24,232.71,236.32Z" style="fill:#1a2e35"/><path d="M206.44,260.3c-3.2.08-6.38.09-9.57.1s-6.38,0-9.56-.1c3.2-.08,6.39-.09,9.57-.1S203.26,260.21,206.44,260.3Z" style="fill:#1a2e35"/><path d="M201.82,236.34c-.93.08-1.85.1-2.77.1s-1.84,0-2.75-.1c.93-.08,1.85-.1,2.77-.1S200.91,236.26,201.82,236.34Z" style="fill:#1a2e35"/><path d="M201.46,240.33c-.94.08-1.88.1-2.82.1s-1.88,0-2.81-.09c.95-.08,1.89-.1,2.83-.11S200.53,240.25,201.46,240.33Z" style="fill:#1a2e35"/><path d="M201.13,244.33c-1,.07-1.92.09-2.87.1s-1.92,0-2.86-.1c1-.08,1.92-.1,2.87-.1S200.18,244.25,201.13,244.33Z" style="fill:#1a2e35"/><path d="M200.82,248.32c-1,.08-1.95.1-2.92.1s-2,0-2.91-.1c1-.08,1.95-.1,2.92-.1S199.86,248.24,200.82,248.32Z" style="fill:#1a2e35"/><path d="M200.52,252.31c-1,.08-2,.1-3,.1s-2,0-3-.1c1-.08,2-.09,3-.1S199.54,252.23,200.52,252.31Z" style="fill:#1a2e35"/><path d="M200.23,256.3c-1,.08-2,.1-3,.11s-2,0-3-.1c1-.08,2-.1,3-.11S199.23,256.23,200.23,256.3Z" style="fill:#1a2e35"/><path d="M200.61,232.35c-1.61.08-3.2.1-4.8.1s-3.18,0-4.76-.1c1.61-.08,3.2-.1,4.79-.1S199,232.27,200.61,232.35Z" style="fill:#1a2e35"/><path d="M178.8,260.3c-3.2.09-6.39.09-9.58.11s-6.37,0-9.54-.1c3.2-.09,6.39-.09,9.58-.1S175.63,260.22,178.8,260.3Z" style="fill:#1a2e35"/><path d="M179.42,256.31c-3.15.09-6.3.09-9.44.11s-6.28,0-9.4-.1c3.16-.09,6.3-.09,9.44-.11S176.29,256.23,179.42,256.31Z" style="fill:#1a2e35"/><path d="M180,252.32c-3.1.08-6.2.09-9.29.1s-6.19,0-9.26-.09c3.11-.09,6.2-.1,9.3-.11S177,252.24,180,252.32Z" style="fill:#1a2e35"/><path d="M180.64,248.33c-3.06.08-6.11.09-9.16.1s-6.08,0-9.11-.1c3.06-.08,6.11-.09,9.15-.1S177.61,248.24,180.64,248.33Z" style="fill:#1a2e35"/><path d="M181.28,244.33c-3,.09-6,.1-9,.11s-6,0-9-.1c3-.08,6-.09,9-.1S178.3,244.25,181.28,244.33Z" style="fill:#1a2e35"/><path d="M182,240.34c-3,.09-5.91.09-8.85.11s-5.88,0-8.8-.1c3-.08,5.9-.09,8.84-.1S179,240.26,182,240.34Z" style="fill:#1a2e35"/><path d="M182.71,236.35c-2.9.09-5.79.09-8.67.11s-5.77,0-8.63-.1c2.91-.09,5.79-.09,8.67-.11S179.84,236.27,182.71,236.35Z" style="fill:#1a2e35"/><path d="M183.52,232.36c-2.84.08-5.66.09-8.48.1s-5.64,0-8.43-.09c2.84-.09,5.66-.09,8.48-.11S180.72,232.28,183.52,232.36Z" style="fill:#1a2e35"/><path d="M289.23,279.28c-4.28.08-8.58.12-12.88.15s-8.63,0-12.94.05-8.64,0-13,0l-6.49-.06c-2.16,0-4.32-.05-6.48-.1,2.15,0,4.3-.06,6.45-.1l6.46-.06c4.3,0,8.61,0,12.91,0s8.62,0,12.94,0S284.89,279.19,289.23,279.28Z" style="fill:#fff"/><path d="M290.13,281.25c-4.92.08-9.87.12-14.82.15s-9.92,0-14.88.05-9.94,0-14.91,0l-7.46-.06c-2.48,0-5-.05-7.45-.1l7.43-.1,7.42,0c4.95,0,9.91,0,14.85-.05s9.92,0,14.88,0S285.13,281.16,290.13,281.25Z" style="fill:#fff"/><path d="M285.62,269.32c-3.78.07-7.58.1-11.38.12s-7.61,0-11.41,0-7.62,0-11.43,0-7.62-.05-11.43-.11c3.8-.06,7.6-.09,11.4-.12l11.4,0c3.8,0,7.6,0,11.41,0S281.8,269.26,285.62,269.32Z" style="fill:#1a2e35"/><path d="M285.12,267.62c-2.35.06-4.71.09-7.07.12s-4.73,0-7.1,0l-7.12,0c-2.37,0-4.74-.05-7.12-.11,2.35-.07,4.72-.1,7.08-.12s4.73,0,7.09,0l7.11,0C280.36,267.53,282.74,267.56,285.12,267.62Z" style="fill:#1a2e35"/><path d="M284.65,265.92c-3.26.06-6.52.09-9.79.12s-6.54,0-9.82,0-6.55,0-9.82,0-6.56-.05-9.84-.11c3.27-.07,6.53-.1,9.8-.12s6.54,0,9.81,0,6.54,0,9.81,0S281.36,265.85,284.65,265.92Z" style="fill:#1a2e35"/><path d="M274.49,397.7c-2.38.92-71.46,2.17-74.16.63-.3-.17-.22-3.22-1.23-11.11,0-.38-1.63-1.84-4.09-3.9-9.24-7.75-30.95-24.07-30.95-24.07l34.48-29.95L232,362.14l8.69,8.53s28.22,15.24,31,17.26S276.87,396.79,274.49,397.7Z" style="fill:#c36358"/><path d="M274.49,397.7c-2.38.92-71.46,2.17-74.16.63-.3-.17-.21-3.22-1.24-11.11,0-.38-1.62-1.84-4.08-3.91-3.21-2.69-4.74-3.92-9.52-7.64l43.83-16.11,2.63,2.58,8.68,8.54s28.23,15.23,31,17.25S276.87,396.79,274.49,397.7Z" style="fill:#ececec"/><path d="M279.25,398.66c-2.4.83-76,1.64-78.65,0-.63-.38-1.2-4.65-1.65-10.51-.06-.73-7.52-6.69-8.54-7.8l45.11-15.19,5.69,5.36s33.2,15.45,35.91,17.55S281.65,397.82,279.25,398.66Z" style="fill:#45c2e3"/><path d="M278.23,395.91c-11.56-.15-62.86.34-74.3,1.07-.09,0-.09.07,0,.08,11.46.39,62.75-.48,74.3-1C278.48,396.09,278.47,395.91,278.23,395.91Z" style="fill:#1a2e35"/><path d="M244.89,371c-4.56-.8-10.11,0-13.55,3.25-.14.12,0,.31.19.26a64.85,64.85,0,0,1,13.35-2.94A.29.29,0,0,0,244.89,371Z" style="fill:#1a2e35"/><path d="M248.2,373c-4.56-.8-10.12,0-13.56,3.25-.13.12.05.31.2.26a64.56,64.56,0,0,1,13.35-2.94A.29.29,0,0,0,248.2,373Z" style="fill:#1a2e35"/><path d="M251.5,374.89c-4.55-.8-10.11,0-13.55,3.25-.13.13.05.31.2.26a64.62,64.62,0,0,1,13.34-2.94A.29.29,0,0,0,251.5,374.89Z" style="fill:#1a2e35"/><path d="M254.81,376.83c-4.56-.8-10.11,0-13.55,3.25-.14.13.05.31.19.26a64.85,64.85,0,0,1,13.35-2.94A.29.29,0,0,0,254.81,376.83Z" style="fill:#1a2e35"/><path d="M253.17,360.39c-1.82-2.44-5.13-1.3-7,.32a24.31,24.31,0,0,0-6.89,10.5c0,.1,0,.15.11.17,0,.34.33.71.72.56,3.74-1.44,7.92-2.51,11.11-5.05C253.07,365.41,254.89,362.7,253.17,360.39Zm-7.84,8.21c-1.82.75-3.67,1.41-5.47,2.23,1.35-2.05,2.61-4.14,4.16-6.05a25.79,25.79,0,0,1,2.38-2.63c1.34-1.25,6.67-3.93,5.92,1.07C251.91,366,247.5,367.71,245.33,368.6Z" style="fill:#1a2e35"/><path d="M227.7,370.16c3.76,1.56,8.07,1.42,12.07,1.76.41,0,.61-.4.53-.73.07,0,.12-.11.06-.19a24.27,24.27,0,0,0-9.53-8.18c-2.25-1-5.76-1.21-6.82,1.64S225.5,369.25,227.7,370.16Zm-2.09-3.22c-2.11-4.6,3.76-3.5,5.39-2.67a26.13,26.13,0,0,1,3,1.87c2,1.4,3.8,3.06,5.67,4.65-1.95-.29-3.91-.4-5.87-.62C231.48,369.92,226.76,369.48,225.61,366.94Z" style="fill:#1a2e35"/><path d="M232.42,360.3l-42.61,22.08s-44.4-40.18-48.46-40.48-63.8,40.23-93.86,40.35c-31.15.13-32.72-32.49-32.72-32.49L60.2,339.32c32.74-16.14,66.85-45.12,89.16-42.42C173.59,299.84,232.42,360.3,232.42,360.3Z" style="fill:#2b454e"/><path d="M222,354.68c-7.19,3.55-5.17,2.44-12.33,6.07-3.5,1.78-21.12,10.67-24.11,12.87a.08.08,0,0,0,.07.14c3.52-1.18,20.94-10.45,24.41-12.29,7.09-3.76,5-2.76,12.06-6.59A.11.11,0,1,0,222,354.68Z" style="fill:#1a2e35"/><path d="M182.26,372.2c-8.33-7.34-35.63-31.26-36.74-32.15a15.5,15.5,0,0,0-2.84-2.13,3,3,0,0,0-2.63.22c-1.26.58-2.5,1.23-3.75,1.84l-7.38,3.61c-9.55,4.66-19,9.44-28.66,13.94C91,361.87,84.4,366,74.74,369.28a145.17,145.17,0,0,1-29.65,7.07c-1.24.15-2.49.28-3.74.4a.07.07,0,1,0,0,.14,118.83,118.83,0,0,0,29.17-5.43c9.57-2.94,16.07-6.76,25.16-10.94,9.42-4.34,18.71-9,28-13.59,4.9-2.44,9.79-4.9,14.71-7.31,1.11-.55,2.7-1.73,4-1.14a7,7,0,0,1,1.47,1.08l1.63,1.36c2.11,1.75,35.57,30.57,36.67,31.4A.08.08,0,1,0,182.26,372.2Z" style="fill:#1a2e35"/><path d="M14.68,349.76s-5.1,29.46,9.64,41S147,401,163.35,395.68s16.89-31.72-1-37.84c-17-5.83-89.47-8.66-91.26-9.37-.44-.18,6.43-4.3,6.4-4.55l-16.49-5Z" style="fill:#2b454e"/><path d="M37,349c0-.12-.22-.08-.22,0a14.56,14.56,0,0,1-3.4,9.36c-2.51,2.89-6.21,4.51-9.56,6.21-.32.16-.08.67.26.57A30.31,30.31,0,0,0,30,362.64a14.35,14.35,0,0,0,4.45-3.7A12.73,12.73,0,0,0,37,349Z" style="fill:#1a2e35"/><path d="M69.9,345.36c-.75-.95-1.57-1.86-2.35-2.79-1.84-2.19-3.69-4.4-5.63-6.52-.18-.2-.54.09-.37.31,1.3,1.7,2.68,3.35,4,5,.69.85,1.39,1.7,2.09,2.54a16.07,16.07,0,0,1,2,2.48c.5.94-.16,1.75-1.14,1.86a3.45,3.45,0,0,1-2.36-.87,31.67,31.67,0,0,1-4-4.27c-.78-.88-1.56-1.75-2.35-2.61s-1.73-1.79-2.56-2.71c-.06-.06-.16,0-.11.09.73,1,1.4,2.05,2.13,3.06s1.48,2,2.23,3,1.46,1.85,2.22,2.74a9.17,9.17,0,0,0,2.25,2c1.4.83,3.83,1,4.58-.8A2.56,2.56,0,0,0,69.9,345.36Z" style="fill:#1a2e35"/><path d="M161.11,395.78c-5.64.1-11.27.43-16.91.55s-11.19.15-16.78.1q-16.86-.17-33.68-1.31c-11.33-.78-23.54-1.91-34.79-3.47-5.39-.75-10.85-1.37-16.17-2.51A25.56,25.56,0,0,1,30,382.63c-7.28-7.07-10.12-17.46-11.28-27.39-.16-1.33-.28-2.67-.39-4,0-.1-.15-.09-.14,0,.66,10.18,2.24,20.79,8.64,29a25.5,25.5,0,0,0,10.43,8.1c5,2,10.64,2.49,16,3.21,11.29,1.53,23.56,2.72,34.92,3.6s22.9,1.44,34.36,1.61,22.94,0,34.4-.56c1.39-.07,2.79-.15,4.19-.27A.07.07,0,0,0,161.11,395.78Z" style="fill:#1a2e35"/><path d="M125.56,352.47c-3.55-.52-7.09-1-10.66-1.4s-7.21-.7-10.82-1c-7.14-.6-14.3-1.14-21.46-1.48-4.07-.19-8.13-.21-12.2-.16-.13,0-.12.19,0,.2,7.16.65,14.32,1.1,21.49,1.58s14.3,1.1,21.44,1.78c4.05.39,8.1.69,12.15,1C125.8,353,125.86,352.51,125.56,352.47Z" style="fill:#1a2e35"/><path d="M78.32,343.56A56,56,0,0,0,70.1,348a65.54,65.54,0,0,0-7.6,5.32c-.07.06,0,.14.09.11,2.79-1.29,5.47-2.9,8.12-4.45a76.23,76.23,0,0,0,7.78-5C78.67,343.81,78.56,343.46,78.32,343.56Z" style="fill:#1a2e35"/><path d="M49.29,286.28c4.3,18.89,13.22,41.54,17,45.22,4.83,4.66,36.88,13.25,38.47,13.43,4,.41,12-28.08,7.75-28.7-6.42-.94-29.76-2.26-31.15-3.7s-11.27-13.95-21.37-28C53.06,274.8,46.63,274.56,49.29,286.28Z" style="fill:#ff9581"/><path d="M101.63,343.39a86.75,86.75,0,0,0,11.3,4.83c3.09.91,12,3.27,13.38,0,.91-2.25-4.19-4.25-7.77-5.76-1.89-.79-4.21-2.77-3.65-4,1-2.12,5.83,0,9,1.89,6.17,3.6,14.38,10.08,18.16,7,1.43-1.18-.22-3.35-2.64-5.47,3.93,2.48,8.12,4.51,9.76,3.26a2.07,2.07,0,0,0,.46-2.81,2.76,2.76,0,0,0,3-.47c1.28-1.33.66-3.31-.73-5.33a1.55,1.55,0,0,0,1.16-.76c2.72-4.12-10.8-16-15.48-17.12a118.72,118.72,0,0,0-28.3-2.74C103.91,320.17,101.62,343.38,101.63,343.39Z" style="fill:#ff9581"/><path d="M121.93,330.75a23.22,23.22,0,0,1,9.18,3.56c3.49,2.31,5.8,5,8.73,7.74.07.07,0,.19-.11.12-1.4-1.29-7.17-6.16-8.67-7.27a22.24,22.24,0,0,0-9.15-4.1S121.89,330.74,121.93,330.75Z" style="fill:#1a2e35"/><path d="M124.51,324.9a55.63,55.63,0,0,1,10.68,3.73c3.68,1.89,6.55,4.95,9.38,7.9,1.69,1.77,3.35,3.58,5,5.42.07.08,0,.2-.1.12q-4.31-4.56-8.87-8.87a29.64,29.64,0,0,0-9.74-6.17c-2.07-.79-4.2-1.43-6.33-2.06C124.45,325,124.47,324.89,124.51,324.9Z" style="fill:#1a2e35"/><path d="M128.39,319.8c3.52.73,6.59,1.36,9.7,3.25a50,50,0,0,1,9.48,8.22c1.54,1.65,3,3.35,4.48,5.07.06.07-.06.18-.12.11a117.12,117.12,0,0,0-10.71-10.66,23.29,23.29,0,0,0-6-3.92,41.84,41.84,0,0,0-6.85-2.05S128.37,319.8,128.39,319.8Z" style="fill:#1a2e35"/><path d="M107.12,314.68l-9.93,31.21s-26.68-7.68-31.55-12.95-13.8-32.46-16.42-45.63,4-12.83,10.14-4.52S80.65,311.26,81.5,311.7,107.12,314.68,107.12,314.68Z" style="fill:#45c2e3"/><path d="M70.83,298.14c-.84,1.59-1.59,3.22-2.3,4.87-1.39,3.22-2.63,6.51-4,9.75-.3.68-.6,1.37-.92,2-.05.12-.11.24-.16.35a35.88,35.88,0,0,1-3.72,6.32c-.09-.22-.17-.45-.27-.67A35.1,35.1,0,0,0,63,314.67c.05-.12.11-.23.16-.34.28-.6.55-1.21.81-1.82,1.38-3.22,2.62-6.51,4-9.75.7-1.62,1.43-3.22,2.25-4.79l.21-.38Zm26.31,44.57a16.31,16.31,0,0,1-5-1.43,27.81,27.81,0,0,1-4.51-2.61l-.39-.28-.44-.32a68,68,0,0,1-7.14-6.22c-5-4.93-9.6-10.26-14.46-15.35-.54-.57-1.09-1.13-1.65-1.7-.15-.16-.3-.32-.46-.47-1.76-1.79-3.57-3.53-5.47-5.18-1.06-.93-2.15-1.83-3.27-2.68,0,.15.1.31.14.46,1,.78,2,1.6,2.93,2.44,1.91,1.69,3.73,3.47,5.51,5.3l.46.48c.52.53,1,1.07,1.54,1.61,4.83,5.1,9.4,10.45,14.39,15.43a69,69,0,0,0,7,6.16l.46.33c.19.15.39.29.59.43a28.34,28.34,0,0,0,4.58,2.69,16.37,16.37,0,0,0,5.14,1.46,7.26,7.26,0,0,0,.93.06l.17-.54A9.08,9.08,0,0,1,97.14,342.71Zm7.62-28.27c-2.86,5.62-5.68,11.3-9.57,16.24a35,35,0,0,1-3.53,3.87,26.37,26.37,0,0,1-4.15,3.15l-.67.37-.53.28a18.31,18.31,0,0,1-3.56,1.44,11.55,11.55,0,0,1-2.45.54l1,.38a12.4,12.4,0,0,0,1.59-.42,19.2,19.2,0,0,0,3.86-1.61l.51-.29.48-.27A26.51,26.51,0,0,0,92,334.89,34.89,34.89,0,0,0,95.53,331c3.93-5.05,6.73-10.8,9.59-16.47Zm-44.18-30A20.37,20.37,0,0,0,57,287a25.81,25.81,0,0,0-3.51,4A36.53,36.53,0,0,0,51,295c.08.29.15.58.23.88A42.38,42.38,0,0,1,54,291.4a25.06,25.06,0,0,1,3.4-3.94,20.16,20.16,0,0,1,3.53-2.57Z" style="fill:#fff"/><path d="M94.66,332c1.2-3.68,2.43-7.35,3.5-11.07.61-2.12,1.22-4.23,1.81-6.36,0-.08-.11-.13-.14-.05-1.36,3.65-2.7,7.31-3.89,11s-2.39,7.36-3.53,11.07q-1,3.15-1.73,6.37s0,.06.07,0C92.23,339.41,93.45,335.72,94.66,332Z" style="fill:#1a2e35"/><path d="M83.73,341.57l-1.18-.42c-2.22-.8-4.49-1.65-6.62-2.53l-.81-.34-1.27-.54-.62-.28-.22-.1-.64-.29c-.85-.39-1.65-.79-2.4-1.18l-.52-.28a18.35,18.35,0,0,1-3.29-2.17l-.27-.25-.24-.25c-4.87-5.27-13.81-32.46-16.43-45.63l-.09-.46s0-.06,0-.1c-.18-1-.33-2.24-.46-3.58h0c-.35-6.55,2.75-7.62,6.58-4.73C64.78,299,79.33,332.86,83.73,341.57Z" style="fill:#1a2e35"/><path d="M75.93,338.62,12.65,354.37c0-1.3,7.31-41.91,13.67-56.2,8.16-18.33,12.63-19.93,15.31-21,3.41-1.36,9.59-1,11.08-.32,1.68.72,7.28,9.76,9.41,16.45C66.38,306.75,76.75,337.76,75.93,338.62Z" style="fill:#45c2e3"/><path d="M66.69,307.47c-.72,1.76-1.43,3.53-2.18,5.29-.3.68-.6,1.37-.92,2-.05.12-.11.24-.16.35A34.61,34.61,0,0,1,59.31,322,16.16,16.16,0,0,1,56,325.12a3,3,0,0,1-.37.25l-.29.19a14.39,14.39,0,0,1-5,1.86,24.37,24.37,0,0,1-10.58-.36,43.11,43.11,0,0,1-7-2.48l-.88-.38-2-.9a45.71,45.71,0,0,0-9.8-3.62l-.29-.05c.05-.18.09-.36.14-.54l.25,0a44.81,44.81,0,0,1,9.94,3.64c.88.4,1.76.8,2.64,1.18l.82.36a42.39,42.39,0,0,0,6.34,2.18,23.81,23.81,0,0,0,10.32.34A13.89,13.89,0,0,0,55,325l.18-.12a2.92,2.92,0,0,0,.37-.24,15.89,15.89,0,0,0,3.28-3.07A34.57,34.57,0,0,0,63,314.67c.05-.12.11-.23.16-.34.28-.6.55-1.21.81-1.82.85-2,1.64-4,2.45-6Zm5.17,16.16c-2.19-2.39-4.38-4.78-6.62-7.13-.54-.57-1.09-1.13-1.65-1.7-.15-.16-.3-.32-.46-.47-1.76-1.79-3.57-3.53-5.47-5.18A46.28,46.28,0,0,0,49.08,303c-.28-.15-.55-.29-.84-.42l-.58-.28a18.87,18.87,0,0,0-8.74-1.87c-.44,0-.88.05-1.32.12l-.66.09-.64.14c-.87.19-1.7.48-2.55.72-.55.2-1.09.4-1.63.62a1.78,1.78,0,0,0-.29.12,21.09,21.09,0,0,0-2.91,1.41,27.21,27.21,0,0,0-6.17,4.71c-.06.2-.12.4-.17.6a27.28,27.28,0,0,1,6.46-5.1,24.06,24.06,0,0,1,3-1.47l.29-.12,1.47-.56c.84-.23,1.67-.53,2.52-.72l.64-.14.65-.09a11.45,11.45,0,0,1,1.3-.13,18.15,18.15,0,0,1,8.64,1.89l.58.27.81.42a46.7,46.7,0,0,1,8.5,6.15c1.91,1.69,3.73,3.47,5.51,5.3l.46.48c.52.53,1,1.07,1.54,1.61,2.43,2.57,4.8,5.2,7.19,7.82Zm.84,15.27a27.81,27.81,0,0,1-4.51-2.61,64.64,64.64,0,0,1-8-6.82c-1.44-1.42-2.85-2.88-4.24-4.35l-.42-.44c-3.28-3.5-6.48-7.08-9.8-10.56-.54-.57-1.09-1.13-1.65-1.69a5.32,5.32,0,0,0-.47-.48c-1.75-1.79-3.56-3.53-5.45-5.18a53,53,0,0,0-5.84-4.49,1.14,1.14,0,0,0-.23-.15q-1.23-.81-2.52-1.5A24.25,24.25,0,0,0,25.94,299a1.8,1.8,0,0,1-.08.21,24.88,24.88,0,0,1,3.62,1.6c.8.43,1.59.9,2.35,1.4a1.14,1.14,0,0,1,.23.15A52.53,52.53,0,0,1,38,307c1.9,1.68,3.72,3.46,5.5,5.29l.46.48c.52.53,1,1.07,1.54,1.61,3.28,3.46,6.44,7,9.7,10.54q.2.22.42.45c1.39,1.5,2.81,3,4.27,4.44a64.37,64.37,0,0,0,8,6.92,27.31,27.31,0,0,0,4.59,2.69l.09,0,.92-.23ZM58.78,285.6A21,21,0,0,0,57,287a25.81,25.81,0,0,0-3.51,4,40.31,40.31,0,0,0-2.75,4.54c-.81,1.57-1.55,3.18-2.25,4.79l-.81,1.93-.09.22c-1,2.54-2,5.1-3.11,7.6-.26.61-.53,1.22-.82,1.82,0,.11-.1.22-.15.34a34.57,34.57,0,0,1-4.13,6.94,15.66,15.66,0,0,1-3.83,3.44A12.16,12.16,0,0,1,32.71,324a9,9,0,0,1-.89.25c-.36.1-.73.18-1.1.25a23.85,23.85,0,0,1-10.33-.34c-.54-.13-1.08-.28-1.61-.45,0,.19-.09.38-.14.58.53.17,1.07.32,1.61.45a24.53,24.53,0,0,0,10.58.35,17.58,17.58,0,0,0,1.87-.46c.28-.08.56-.17.83-.27a13.1,13.1,0,0,0,2.32-1.13,16.1,16.1,0,0,0,4-3.56A34.61,34.61,0,0,0,44,312.77c0-.11.11-.22.16-.34.32-.68.62-1.36.92-2.05,1.09-2.52,2.08-5.06,3.12-7.58a1,1,0,0,1,.09-.21c.26-.66.53-1.31.81-2A52.67,52.67,0,0,1,54,291.4a25.06,25.06,0,0,1,3.4-3.94c.54-.48,1.09-.94,1.67-1.36C59,285.93,58.87,285.76,58.78,285.6Z" style="fill:#fff"/><path d="M32.87,283.59C22.52,294.25-2.92,335,4.76,342.63S56,341,68.31,335.45c3.66-1.66-9.68-24.53-13.93-25.14-3.54-.51-21.83,7.44-22.34,6.39s2.48-9.84,7.15-25.52C44.57,273.11,37.44,278.88,32.87,283.59Z" style="fill:#ff9581"/><path d="M72.54,303.37c8.83-1.06,11.26,0,18.25-4.83,4.58-3.18,8.58-1.62,5.9,3.53-4.38,8.42-15.5,12.17-19.72,12.37Z" style="fill:#ff9581"/><path d="M49,311.4s10-5.31,19.31-7.37c6.43-1.42,20.78-2.95,34.19,11.43,3.18,3.41,5.3,10.53-1.92,6.84-5.13-2.61-7.59-5.82-10.85-6.8,0,0,1.61,9.37-1.93,12.42a85.65,85.65,0,0,1-9.83,7.33,18.14,18.14,0,0,1-1.53-1.72s-3.58,2.54-10.21,1.78Z" style="fill:#ff9581"/><path d="M74.64,303.66c3,1.65,9.39,5.27,13.57,10,4.64,5.3,12.15,16.75,8.2,20.14-2.89,2.48-6.14-1.64-6.14-1.64s2.1,5.39-1,7.06c-2.83,1.52-5.15-1.82-5.15-1.82s.71,3.49-2.3,4.43c-3.61,1.13-4.52-6.37-9.17-8.38C71.6,333,74.64,303.66,74.64,303.66Z" style="fill:#ff9581"/><path d="M81.79,317.67a28,28,0,0,1,8.53,14.39c0,.14-.07.24-.12.11a68.85,68.85,0,0,0-8.46-14.46A0,0,0,0,1,81.79,317.67Z" style="fill:#1a2e35"/><path d="M76.58,322.51c2.06,2,6.64,8.49,7.65,14.87,0,.15-.08.24-.12.11a74.69,74.69,0,0,0-7.58-14.94A0,0,0,0,1,76.58,322.51Z" style="fill:#1a2e35"/><path d="M89.7,315.44c2.85.9,4.69,2.35,7.08,4.08a42,42,0,0,0,3.66,2.41c1.16.65,2.86,1.64,4.13.68a2.37,2.37,0,0,0,.57-2.34,11.46,11.46,0,0,0-1.51-3.3s0-.08.06,0a15.56,15.56,0,0,1,1.67,2.94,3.78,3.78,0,0,1,.22,2.25c-.45,1.57-2.33,1.74-3.64,1.28a12.71,12.71,0,0,1-2.24-1.13c-.69-.42-1.35-.86-2-1.33-1.35-.94-2.64-2-4-2.93a36.38,36.38,0,0,0-4.06-2.48C89.6,315.5,89.64,315.42,89.7,315.44Z" style="fill:#1a2e35"/><path d="M95.52,325.66a91.63,91.63,0,0,0-5.88-10.15s0-.1.06-.06a47.18,47.18,0,0,1,6.49,9.69,15.77,15.77,0,0,1,1.66,6.09c-.06,3-2.06,3.53-2.8,3.66a3.88,3.88,0,0,1-2.54-.46,7.87,7.87,0,0,1-2.27-2.22s0-.1.06-.06c1,1.2,2.72,2.4,4.35,2.22a2.76,2.76,0,0,0,1.88-1,3.51,3.51,0,0,0,.52-2.41A16.43,16.43,0,0,0,95.52,325.66Z" style="fill:#1a2e35"/><path d="M49,311.4l13.32,29.48S7.73,352,3.23,342.48s17.31-46.15,27-56.74c11.26-12.28,12.59-8,9.94,3-2.76,11.55-8,28.21-8,28.21Z" style="fill:#45c2e3"/><path d="M55.36,325.54l0,0a14.39,14.39,0,0,1-5,1.86,24.37,24.37,0,0,1-10.58-.36,43.11,43.11,0,0,1-7-2.48l-.88-.38-2-.9a45.71,45.71,0,0,0-9.8-3.62,15.8,15.8,0,0,0-4.6-.22h0a1.84,1.84,0,0,0-.41,0h-.15c-.43,0-.85.16-1.27.24s-.81.26-1.22.38-.76.35-1.12.55h0c-.18.13-.37.25-.56.37a5.74,5.74,0,0,0-.5.36,16.09,16.09,0,0,0-3.41,3.89c-.45.69-.88,1.39-1.29,2.11.3-.8.63-1.62,1-2.44,0,0,0,0,0,0h0A16.72,16.72,0,0,1,9.87,321l.27-.22.58-.38.26-.17c.39-.22.8-.41,1.21-.6s.85-.31,1.29-.41.87-.21,1.32-.26l.52-.07c.14,0,.27,0,.41,0a16.64,16.64,0,0,1,4.4.23,44.81,44.81,0,0,1,9.94,3.64c.88.4,1.76.8,2.64,1.18l.82.36a42.39,42.39,0,0,0,6.34,2.18,23.81,23.81,0,0,0,10.32.34A13.89,13.89,0,0,0,55,325l.1-.06ZM36.94,300.65l-.64.14c-.87.19-1.7.48-2.55.72-.55.2-1.09.4-1.63.62a1.78,1.78,0,0,0-.29.12,21.09,21.09,0,0,0-2.91,1.41,28.86,28.86,0,0,0-8.06,6.78,43.2,43.2,0,0,0-3.11,4.28c-.86,1.38-1.68,2.78-2.43,4.21-.07.12-.13.25-.2.38l-.1.2c-.41.77-.8,1.54-1.18,2.32-.09.18-.18.35-.26.53-1.05,2.14-2.05,4.3-3.11,6.42a46.44,46.44,0,0,1-2.58,4.56,16.32,16.32,0,0,1-3.42,3.89,10.83,10.83,0,0,1-1,.72c-.25.14-.51.27-.77.39,0,.2,0,.39,0,.57.35-.17.7-.34,1-.53a12.18,12.18,0,0,0,1.11-.77,16.73,16.73,0,0,0,3.49-4A46.53,46.53,0,0,0,10.84,329c1.06-2.14,2.05-4.31,3.08-6.45.08-.18.17-.35.26-.53.4-.84.82-1.68,1.25-2.51h0l.3-.56c.71-1.36,1.48-2.69,2.29-4a46.14,46.14,0,0,1,3.07-4.27,28.82,28.82,0,0,1,8-6.76,24.06,24.06,0,0,1,3-1.47l.29-.12,1.47-.56c.84-.23,1.67-.53,2.52-.72l.64-.14h0l.06-.22Zm-4.59,1.63a1.14,1.14,0,0,0-.23-.15q-1.23-.81-2.52-1.5a20.72,20.72,0,0,0-8.52-2.56l-.12.19a20.23,20.23,0,0,1,8.52,2.59c.8.43,1.59.9,2.35,1.4a1.14,1.14,0,0,1,.23.15c1.28.83,2.51,1.75,3.71,2.71a2.45,2.45,0,0,0,.08-.29C34.72,303.92,33.56,303.07,32.35,302.28Zm22.07,21.18h0c-2.88-3.1-5.72-6.26-8.65-9.33-.4-.42-.8-.84-1.22-1.25l-.37.13c.45.46.88.92,1.32,1.38,3.21,3.39,6.3,6.89,9.49,10.32ZM43,313.4a32.2,32.2,0,0,1-3.6,5.83,15.66,15.66,0,0,1-3.83,3.44A12.16,12.16,0,0,1,32.71,324a9,9,0,0,1-.89.25c-.36.1-.73.18-1.1.25a23.85,23.85,0,0,1-10.33-.34A41.37,41.37,0,0,1,14.18,322l-.34-.15q-1.3-.56-2.58-1.14l-.54-.25-.12-.05-1.74-.78c-.09.17-.17.35-.26.52l1.54.69.21.1.32.15c1,.43,1.93.87,2.91,1.29l.34.15a43.38,43.38,0,0,0,6.33,2.18,24.53,24.53,0,0,0,10.58.35,17.58,17.58,0,0,0,1.87-.46c.28-.08.56-.17.83-.27a13.1,13.1,0,0,0,2.32-1.13,16.1,16.1,0,0,0,4-3.56,33.7,33.7,0,0,0,4-6.49Z" style="fill:#fff"/><path d="M15.53,324.43a63,63,0,0,1,8-4.5A62,62,0,0,1,32,316.71c1.65-.51,3.32-.94,5-1.38a0,0,0,1,1,0,.08,79.21,79.21,0,0,0-8.57,3.15c-2.79,1.18-5.55,2.4-8.29,3.68-1.56.73-3.07,1.52-4.6,2.3A.06.06,0,0,1,15.53,324.43Z" style="fill:#1a2e35"/><path d="M48.82,311.31c-.27.06-15.22,4.68-15.71,4.9.06-.22,2.88-8.07,3.3-9.22l.12-.35c.28-.51.57-1,.83-1.54l1-2s0,0,0,0l-1.08,2c-.16.3-.32.61-.47.92.28-.81.54-1.63.81-2.45.43-1.3.81-2.61,1.19-3.93,0-.05-.05-.06-.07,0-.83,2.29-1.74,4.55-2.57,6.83s-4.07,10.71-4,10.7,16.47-5.45,16.79-5.58A.1.1,0,0,0,48.82,311.31Z" style="fill:#1a2e35"/><path d="M49.46,330.39c-1.47-3.3-2.91-6.6-4.5-9.83-.9-1.84-1.79-3.69-2.71-5.52a.07.07,0,0,0-.13.06c1.34,3.36,2.69,6.72,4.19,10s2.94,6.58,4.47,9.84c.87,1.86,1.79,3.68,2.77,5.48,0,0,.08,0,.07,0C52.39,337,50.93,333.7,49.46,330.39Z" style="fill:#1a2e35"/><path d="M63,341.35c-.53-.91-1.19-2.22-1.75-3.11-.15-.23-.33-.19-.21.06.4.82.72,1.75,1.11,2.6-.76.13-1.53.25-2.29.4l-2.66.5c-1.73.32-3.47.63-5.2.91q-5.29.89-10.6,1.52A207.08,207.08,0,0,1,20,345.82q-3,.06-6,0c-2-.07-4.23-.16-5.91-.4-.05,0-.06.08,0,.09a31.77,31.77,0,0,0,5.13.77c1.81.12,3.62.2,5.43.21,3.62,0,7.23-.13,10.83-.39,7.14-.52,14.26-1.35,21.34-2.45q3-.47,5.93-1c1-.18,2-.36,3-.56A18.08,18.08,0,0,0,63,341.35Z" style="fill:#1a2e35"/><path d="M52.85,289.83c-3.69.46-9.29-5.72-11.25-10.45-.13-.33.69-3.5,1.5-7.41.49-2.37,1-5,1.24-7.48,0-.5,15,5.41,15,5.41a39.44,39.44,0,0,0-2.51,9.26,5.79,5.79,0,0,0,0,1v.16C56.91,282.29,56.43,289.38,52.85,289.83Z" style="fill:#ff9581"/><path d="M45.28,264.66c.26,4.22,1.75,14.52,9.94,15.6a9.91,9.91,0,0,0,1.59.09.46.46,0,0,0,0-.17,6.94,6.94,0,0,1,0-1,39.6,39.6,0,0,1,2.52-9.26S48.55,265.63,45.28,264.66Z" style="fill:#1a2e35"/><path d="M41.19,247.64c-1.21,5.61,3,21.17,7.17,24.37,6.07,4.63,15.34,4.35,19.11-2.78,3.66-6.92-2.17-27.1-6.78-29.94C53.9,235.1,43,239.36,41.19,247.64Z" style="fill:#ff9581"/><path d="M57.46,256s-.06.07-.05.11c.35,1,.58,2.27-.25,2.9,0,0,0,.07,0,.05C58.28,258.56,58,256.92,57.46,256Z" style="fill:#1a2e35"/><path d="M56.2,255.21c-1.7.38-.81,3.77.77,3.41S57.64,254.88,56.2,255.21Z" style="fill:#1a2e35"/><path d="M63.35,254.49s.09,0,.1.07c.25,1.06.7,2.23,1.74,2.33,0,0,0,.06,0,.06C64,257.09,63.41,255.53,63.35,254.49Z" style="fill:#1a2e35"/><path d="M64,253.15c1.66-.58,2.68,2.77,1.15,3.31S62.61,253.63,64,253.15Z" style="fill:#1a2e35"/><path d="M53.94,252.94a12.8,12.8,0,0,0,1.31-.59,2.34,2.34,0,0,0,1.23-.85.75.75,0,0,0-.19-.89,1.86,1.86,0,0,0-1.87,0A2.74,2.74,0,0,0,53,251.86.79.79,0,0,0,53.94,252.94Z" style="fill:#1a2e35"/><path d="M64.9,250.26a13.83,13.83,0,0,1-1.44,0A2.28,2.28,0,0,1,62,250a.75.75,0,0,1-.19-.88,1.85,1.85,0,0,1,1.68-.8,2.71,2.71,0,0,1,1.86.58A.79.79,0,0,1,64.9,250.26Z" style="fill:#1a2e35"/><path d="M58.28,266.22a1.65,1.65,0,0,0,1,.38,2.74,2.74,0,0,0,1.05-.56s.08,0,.06,0a1.47,1.47,0,0,1-1.18.92,1.16,1.16,0,0,1-1.07-.71C58.16,266.24,58.23,266.2,58.28,266.22Z" style="fill:#1a2e35"/><path d="M58.56,262.79a3.72,3.72,0,0,0,2.8,1,4.87,4.87,0,0,0,1.3-.28,1.34,1.34,0,0,0,.24-.09l.22-.1a.27.27,0,0,0,.15-.29h0a.3.3,0,0,0,0-.1h0l0-.09c-.19-.81-.59-2-.59-2,.33.07,2,.35,1.88-.07a55.56,55.56,0,0,0-4.24-10.45c0-.11-.22,0-.18.08,1,3.35,2.49,6.51,3.5,9.85a6.65,6.65,0,0,0-1.82-.06c-.1.06.82,2.32.88,2.69v0a5.14,5.14,0,0,1-4-.17C58.53,262.63,58.47,262.72,58.56,262.79Z" style="fill:#1a2e35"/><path d="M62.08,263.19A4.5,4.5,0,0,1,60.73,265a2,2,0,0,1-1.14.38c-.9,0-1.12-.77-1.14-1.47a4.55,4.55,0,0,1,.11-1.1A5.7,5.7,0,0,0,62.08,263.19Z" style="fill:#1a2e35"/><path d="M60.73,265a2,2,0,0,1-1.14.38c-.9,0-1.12-.77-1.14-1.47A2.06,2.06,0,0,1,60.73,265Z" style="fill:#ff98bb"/><path d="M43.22,263c2.78-1.33,2.61-11.36,2.61-11.36s.68,4.15,1.44,3.92,3-6.41,2.67-10.51a32.35,32.35,0,0,0,8,2.35c3.88.48,7.93-.46,7.82-1.09-.31-1.87-2.84-6.46-5.68-7.77a13.39,13.39,0,0,0-13.41.62c-5.65,3.33-6.57,7.48-7,10.63S42.2,263.44,43.22,263Z" style="fill:#1a2e35"/><path d="M45.64,260.24s-4.09-4.73-6.28-3.22,1.27,8.62,4.09,9.35A2.78,2.78,0,0,0,47,264.5Z" style="fill:#ff9581"/><path d="M40.4,259s0,.06,0,.08c2,.57,3.17,2.23,4.06,4a1.54,1.54,0,0,0-2.33-.18s0,.11.06.1a1.72,1.72,0,0,1,1.94.4,7.79,7.79,0,0,1,1,1.42c.11.16.4,0,.32-.16l0,0C45.27,262.21,43,259,40.4,259Z" style="fill:#1a2e35"/><path d="M56.66,237.73a23,23,0,0,0-6.5-1.53c-2.49-.17-10.26.89-12,2.57s-1.84,9-1.83,10.13.88,7.55,3.32,9,2-9.62,5.53-13.51S56.66,237.73,56.66,237.73Z" style="fill:#45c2e3"/><path d="M56.66,237.73s-8,2.77-11.52,6.65-3.08,14.93-5.53,13.5c-1.08-.63-1.64-1.63-2.17-3.33.31-3.25,1.32-8.34,3.8-12,2.33-3.4,6.57-5.29,11.18-6.09A26.75,26.75,0,0,1,56.66,237.73Z" style="opacity:0.1"/><path d="M40.64,264.4c0-3,2.57-11,5.44-15.71s12-7.88,13.25-7.88c3.14,0,4.26.88,4.74.58s-2.89-2.48-3.8-3-3.36-1.58-4.72-1.47-9.7,1.44-12.54,5.2-6.58,14-5.63,16.57c.22.61,1.06,1,1.38,1.82.41,1.12.73,2.44,1.12,3.22S40.64,264.66,40.64,264.4Z" style="fill:#45c2e3"/><path d="M46.69,246.62a15.43,15.43,0,0,1-2.13-1.37,11.41,11.41,0,0,1-1.85-1.76c0-.05-.11,0-.08,0a8.17,8.17,0,0,0,1.71,2,7.18,7.18,0,0,0,2.29,1.24A.09.09,0,0,0,46.69,246.62Z" style="fill:#1a2e35"/><path d="M40.44,261.46a5.65,5.65,0,0,0-.36-.58,4.08,4.08,0,0,1-.32-.71,6.73,6.73,0,0,0-.41-1.41,5.25,5.25,0,0,0-.75-.94,2,2,0,0,1-.65-1.16.05.05,0,0,0-.1,0c0,.89.69,1.49,1.12,2.22a8.77,8.77,0,0,1,.49,1.5,2.39,2.39,0,0,0,.85,1.19C40.38,261.6,40.47,261.54,40.44,261.46Z" style="fill:#1a2e35"/><path d="M41.27,258.22c-.3-.32-.62-.6-.89-1a10.7,10.7,0,0,1-.69-1.06c-.21-.36-.39-.74-.59-1.11s-.53-.84-.74-1.29c0-.05-.11,0-.08.06.22.46.36,1,.57,1.42a9.36,9.36,0,0,0,.63,1.17,5.88,5.88,0,0,0,.76,1,3.21,3.21,0,0,0,1,.79S41.29,258.25,41.27,258.22Z" style="fill:#1a2e35"/><path d="M42.17,255.28a8.4,8.4,0,0,1-1.71-1.71c-.46-.64-.89-1.31-1.32-2,0,0-.11,0-.08,0a9.84,9.84,0,0,0,1.14,2.18,4.57,4.57,0,0,0,1.91,1.56S42.22,255.32,42.17,255.28Z" style="fill:#1a2e35"/><path d="M43.17,252.46a3,3,0,0,1-.82-.74c-.28-.32-.54-.64-.8-1l-.75-.94a3,3,0,0,1-.59-1.05,0,0,0,0,0-.09,0,3.06,3.06,0,0,0,.4,1.13,8.24,8.24,0,0,0,.74,1.11,9,9,0,0,0,.88,1,1.89,1.89,0,0,0,1,.6A.07.07,0,0,0,43.17,252.46Z" style="fill:#1a2e35"/><path d="M43.81,248.92c-.29-.25-.58-.51-.84-.78s-.52-.56-.77-.85-.53-.6-.77-.92c0-.05-.12,0-.09,0a8.32,8.32,0,0,0,.61,1,9.39,9.39,0,0,0,.76.91,10.72,10.72,0,0,0,.86.8,3.13,3.13,0,0,0,1,.61.06.06,0,0,0,.07-.1A5,5,0,0,0,43.81,248.92Z" style="fill:#1a2e35"/><path d="M48.84,244.82c-.31-.35-.61-.68-1-1a13.37,13.37,0,0,0-1.1-.89,12.43,12.43,0,0,0-2.38-1.41s-.1,0-.06.08c1.47,1.11,3,2.16,4.43,3.29A0,0,0,1,0,48.84,244.82Z" style="fill:#1a2e35"/><path d="M50.48,242.19a6.49,6.49,0,0,0-1.06-.89,13,13,0,0,0-2.6-1.25.05.05,0,0,0,0,.09c.8.46,1.6.91,2.36,1.42a9.65,9.65,0,0,1,1.1.8c.35.29.63.65,1,.95,0,0,.08,0,.06,0A3.69,3.69,0,0,0,50.48,242.19Z" style="fill:#1a2e35"/><path d="M52.86,240.9a6,6,0,0,0-1-.9,7.39,7.39,0,0,0-2.22-1.13,0,0,0,0,0,0,.09,15.19,15.19,0,0,1,2.12,1.35c.33.26.65.53,1,.8a12.67,12.67,0,0,0,.95.84s.06,0,0,0A6.26,6.26,0,0,0,52.86,240.9Z" style="fill:#1a2e35"/><path d="M54.54,239.33c-.32-.24-.66-.45-1-.67a3.71,3.71,0,0,0-1.06-.51c-.06,0-.08.06,0,.09.63.44,1.25.9,1.87,1.36a9.74,9.74,0,0,1,1.47,1.54s.07,0,.06,0A3.68,3.68,0,0,0,54.54,239.33Z" style="fill:#1a2e35"/><path d="M56.72,238.72a6.18,6.18,0,0,0-2-1.11s-.09.07,0,.09a7.33,7.33,0,0,1,1.87,1.24A10,10,0,0,1,58,240.61s.08,0,.06,0A5,5,0,0,0,56.72,238.72Z" style="fill:#1a2e35"/><path d="M59.7,239.87c-.09-.15-.18-.29-.28-.43a5.12,5.12,0,0,0-.71-.76A10.3,10.3,0,0,0,57,237.49a0,0,0,0,0,0,.08,8.57,8.57,0,0,1,1.64,1.23,6.87,6.87,0,0,1,.68.75c.1.13.2.26.29.4a2.75,2.75,0,0,0,.26.4.05.05,0,0,0,.09,0A1.46,1.46,0,0,0,59.7,239.87Z" style="fill:#1a2e35"/><path d="M61.47,239.92q-.27-.33-.57-.63c-.21-.19-.42-.38-.65-.55l-.7-.52c0-.05-.11,0-.06.08a4.57,4.57,0,0,1,.66.58l.59.58.59.59a5.57,5.57,0,0,0,.59.6s.07,0,.06-.05A4.64,4.64,0,0,0,61.47,239.92Z" style="fill:#1a2e35"/><rect x="63.16" y="352.9" width="65.65" height="2.94" style="fill:#ebb31f"/><polygon points="128.81 352.9 128.81 355.84 84.18 355.84 86.43 352.9 128.81 352.9" style="fill:#cc961f"/><polygon points="89.27 355.84 153.25 355.84 158.58 312.38 94.59 312.38 89.27 355.84" style="fill:#ebb31f"/><path d="M120,334.11a3.81,3.81,0,0,0,3.82,3.9,4,4,0,0,0,4-3.9,3.82,3.82,0,0,0-3.83-3.89A4,4,0,0,0,120,334.11Z" style="fill:#fff"/></g></svg>