<svg xmlns="http://www.w3.org/2000/svg" viewBox="0 0 677.34 407.86"><title>asset-beranda-laporan</title><g id="OBJECTS"><rect x="448.8" y="233.58" width="5.62" height="42.05" transform="translate(197 706.21) rotate(-90)" style="fill:#e0e0e0"/><path d="M436.31,252a12.94,12.94,0,0,1,0,5.26,13.43,13.43,0,0,1,0-5.26Z" style="fill:#fafafa"/><path d="M435.4,251.91a13.48,13.48,0,0,1,0,5.27,13,13,0,0,1,0-5.27Z" style="fill:#fafafa"/><path d="M469.38,252a13.43,13.43,0,0,1,0,5.26,12.94,12.94,0,0,1,0-5.26Z" style="fill:#fafafa"/><ellipse cx="468.46" cy="254.54" rx="0.26" ry="2.63" style="fill:#fafafa"/><path d="M463,254.77a107,107,0,0,1-10.75.27,107,107,0,0,1-10.76-.27c0-.14,4.81-.26,10.76-.26S463,254.63,463,254.77Z" style="fill:#fafafa"/><rect x="445.81" y="261.68" width="11.23" height="42.05" transform="translate(168.72 734.12) rotate(-90)" style="fill:#e0e0e0"/><path d="M473,285.16l-.23.13c-.16.08-.39.19-.7.32a12.18,12.18,0,0,1-2.85.81,7.47,7.47,0,0,1-4.63-.65,6.27,6.27,0,0,1-2.2-2,4.65,4.65,0,0,1-.76-3.24,3.37,3.37,0,0,1,.77-1.67,2.21,2.21,0,0,1,1.78-.81,2.56,2.56,0,0,1,1.78,1,3.52,3.52,0,0,1,.81,1.92,5.08,5.08,0,0,1-1.45,4,6.41,6.41,0,0,1-4,2,10.82,10.82,0,0,1-4.69-.59,8.62,8.62,0,0,1-4.1-2.75,4.48,4.48,0,0,1-1-2.43,3.16,3.16,0,0,1,.89-2.52,2.06,2.06,0,0,1,1.32-.58,2.43,2.43,0,0,1,1.37.39,3.67,3.67,0,0,1,1.55,2.27,5.31,5.31,0,0,1-1.66,4.95,8.26,8.26,0,0,1-4.73,1.92,11.57,11.57,0,0,1-4.91-.48,6.78,6.78,0,0,1-3.73-2.9,5,5,0,0,1-.47-4.47,2.37,2.37,0,0,1,1.71-1.45,2.73,2.73,0,0,1,2.12.51,3.5,3.5,0,0,1,1,3.79,6.45,6.45,0,0,1-2.11,3,9.51,9.51,0,0,1-5.77,2.24,9.2,9.2,0,0,1-4.57-1,9.08,9.08,0,0,1-2.38-1.77,7.14,7.14,0,0,1-.5-.58.86.86,0,0,1-.15-.22,10.44,10.44,0,0,0,3.12,2.38,9.08,9.08,0,0,0,10-1.3,6.13,6.13,0,0,0,2-2.82,3.1,3.1,0,0,0-.87-3.32,2.32,2.32,0,0,0-1.77-.41,1.87,1.87,0,0,0-1.37,1.19,4.51,4.51,0,0,0,.46,4,6.24,6.24,0,0,0,3.47,2.67,11.34,11.34,0,0,0,4.69.45,7.87,7.87,0,0,0,4.44-1.8,4.78,4.78,0,0,0,1.49-4.44,3.11,3.11,0,0,0-1.31-1.94,1.61,1.61,0,0,0-2.05.12,2.66,2.66,0,0,0-.73,2.11,4,4,0,0,0,.85,2.15,8.22,8.22,0,0,0,3.84,2.59,10.33,10.33,0,0,0,4.47.57A5.91,5.91,0,0,0,465,284.6a4.64,4.64,0,0,0,1.36-3.61,2.7,2.7,0,0,0-2.19-2.52,1.78,1.78,0,0,0-1.45.66,3,3,0,0,0-.7,1.47,4.22,4.22,0,0,0,.68,3,5.84,5.84,0,0,0,2.05,1.92,7.32,7.32,0,0,0,4.46.71,13.26,13.26,0,0,0,2.84-.71C472.65,285.28,473,285.14,473,285.16Z" style="fill:#fafafa"/><rect x="443.56" y="248.17" width="19.49" height="38.29" transform="translate(185.98 720.62) rotate(-90)" style="fill:#ebebeb"/><path d="M440.52,258.24a86.94,86.94,0,0,1,.26,9.43,86.9,86.9,0,0,1-.26,9.44,82.41,82.41,0,0,1-.27-9.44A82.45,82.45,0,0,1,440.52,258.24Z" style="fill:#e0e0e0"/><path d="M443.42,258a80.28,80.28,0,0,1,.27,9.31,80.14,80.14,0,0,1-.27,9.31,84.5,84.5,0,0,1-.26-9.31A84.65,84.65,0,0,1,443.42,258Z" style="fill:#e0e0e0"/><path d="M468.12,257.37a94.06,94.06,0,0,1,.26,9.81,93.9,93.9,0,0,1-.26,9.81,89,89,0,0,1-.27-9.81A89.2,89.2,0,0,1,468.12,257.37Z" style="fill:#e0e0e0"/><path d="M464.71,257.64a89.1,89.1,0,0,1,.26,9.55,89.22,89.22,0,0,1-.26,9.56,84.61,84.61,0,0,1-.27-9.56A84.5,84.5,0,0,1,464.71,257.64Z" style="fill:#e0e0e0"/><rect x="206.18" y="35.66" width="258.14" height="171.23" style="fill:#e0e0e0"/><path d="M0,48.17A43.74,43.74,0,1,1,44.44,91.4,43.9,43.9,0,0,1,0,48.17Zm64.64-1A20.91,20.91,0,1,0,44.07,68.48,21,21,0,0,0,64.65,47.13Z" style="fill:#f5f5f5"/><path d="M0,48.17A43.9,43.9,0,0,1,43,3.53l.36,22.93a21,21,0,0,0,.67,42l.37,22.93A43.87,43.87,0,0,1,0,48.17Z" style="fill:#e0e0e0"/><path d="M39.11,0C67.32-.45,89.83,21.45,90.28,49.79l-26.7.43c-.22-13.55-10.53-22.08-24-21.87Z" style="fill:#ebebeb"/><path d="M209.24,400.58c-1.12-1-3.63-4-1.7-7.57.71-1.3,2.22-1.95,3.58-2.52a14.74,14.74,0,0,0,3.92-2c2.13-1.81,2.71-4.82,4.13-7.23,1.62-2.77,4.64-4.85,7.84-4.7,3.66.16,6.71,3.15,8.09,6.56s1.44,7.19,1.46,10.87c0,2-.07,4.33-1.56,5.71s-3.46,1.28-5.32,1.22l-20-.61" style="fill:#f5f5f5"/><path d="M247.49,345.58h-52.6l9.48,56.5a6.3,6.3,0,0,0,4.49,5l.18.05c.16,0,.31.09.47.12a6.37,6.37,0,0,0,1.07.12v.06l.26,0h23.44a6.88,6.88,0,0,0,1.29-.13,6.34,6.34,0,0,0,5.32-5.52l4.57-38.93.2-1.55h0l1.81-15.42Zm-9.92,36h-5.4l.55-16.4H239Zm1.92-16.4h5.17l-1.92,16.4h-4.65ZM224.07,399.8l-.32-14.25h7.77l-.47,14.25Zm-8.4-14.25h7.55l.33,14.25h-6.77Zm.58,14.25h-6.33c-.6-3.85-1.38-8.85-2.23-14.25h7.46Zm-.89-18.18-1.27-16.4h8.66l.38,16.4Zm8.29,0-.37-16.4h8.91l-.54,16.4Zm-.46-20.33-.35-15.18h10l-.51,15.18Zm-.53,0h-8.88l-1.18-15.18h9.71Zm-9.4,0h-9.39c-.34-2.1-.65-4.08-.94-5.87-1-6.14-1.35-8.45-1.55-9.31h10.7Zm.31,3.93,1.27,16.4h-7.77c-.26-1.66-.52-3.35-.79-5l-1.79-11.37Zm-7,16.4h-5.07l-2.75-16.4H204C204.76,370.29,205.65,375.93,206.54,381.62Zm.62,3.93c.77,4.93,1.54,9.79,2.23,14.25h-4.87l-2.39-14.25Zm24.41,14.25.47-14.25h5.19L236,399.8Zm1.28-38.51.5-15.18h7.25l-1.29,15.18Zm-32-15.18c.21,1.09,1.17,7.07,2.46,15.18h-5.28l-2.55-15.18Zm39.73,53.69h-4.07l1.22-14.25h4.52Zm4.51-38.51h-5.29l1.3-15.18h5.78Z" style="fill:#e0e0e0"/><rect x="616.79" y="62.35" width="11.33" height="45.24" style="fill:#e0e0e0"/><rect x="633.45" y="72.22" width="11.33" height="35.37" style="fill:#e0e0e0"/><rect x="650.36" y="80.3" width="11.33" height="27.29" style="fill:#e0e0e0"/><rect x="666.02" y="91.39" width="11.33" height="16.21" style="fill:#e0e0e0"/><path d="M659.12,163.85a39.19,39.19,0,0,0-55.1,1.87,38.62,38.62,0,0,0,1.88,54.76,39.19,39.19,0,0,0,55.1-1.86A38.63,38.63,0,0,0,659.12,163.85Zm-13,41a18.74,18.74,0,0,1-26.34.89,18.47,18.47,0,0,1-.9-26.19,18.74,18.74,0,0,1,26.34-.89A18.47,18.47,0,0,1,646.13,204.82Z" style="fill:#f5f5f5"/><path d="M604,165.72a39.2,39.2,0,0,1,55.1-1.87l-13.89,14.78a18.74,18.74,0,0,0-26.34.89,18.47,18.47,0,0,0,.9,26.19L605.9,220.48A38.62,38.62,0,0,1,604,165.72Z" style="fill:#ebebeb"/><path d="M657.53,157.52c19.24,17.87,21.54,46.91,3.57,66l-19.52-16.91c8.59-9.15,10.46-21.36,1.26-29.9Z" style="fill:#fafafa"/><rect x="129.18" y="227.95" width="110.45" height="31.11" rx="3.23" style="fill:#e0e0e0"/><ellipse cx="147.21" cy="244.46" rx="6.73" ry="6.76" style="fill:#f5f5f5"/><path d="M151,242.17a27.84,27.84,0,0,1-3.62,3.91l-.89.86-.18.18-.18-.18a18.72,18.72,0,0,1-2.7-3.08,19.46,19.46,0,0,1,3.06,2.72h-.36l.88-.87A27.38,27.38,0,0,1,151,242.17Z" style="fill:#e0e0e0"/><path d="M228.76,241.12c0,.15-14.82.26-33.1.26s-33.12-.11-33.12-.26,14.83-.26,33.12-.26S228.76,241,228.76,241.12Z" style="fill:#fafafa"/><path d="M229.06,246.76c0,.14-14.83.26-33.11.26s-33.11-.12-33.11-.26,14.82-.26,33.11-.26S229.06,246.61,229.06,246.76Z" style="fill:#fafafa"/><polygon points="577.86 250.86 575.84 407.86 666.17 407.86 666.17 253 577.86 250.86" style="fill:#f5f5f5"/><polygon points="626.52 252.04 625.72 407.86 666.17 407.86 666.17 253 626.52 252.04" style="fill:#e0e0e0"/><polygon points="580.7 253.69 580.7 285.8 623.49 285.8 623.49 255.2 580.7 253.69" style="fill:#e0e0e0"/><polygon points="595.45 262.52 595.45 267.26 608.54 267.26 608.54 262.09 595.45 262.52" style="fill:#f5f5f5"/><rect x="595.45" y="271.25" width="13.52" height="1.94" style="fill:#f5f5f5"/><polygon points="580.7 366.21 580.7 398.33 623.49 398.33 623.49 367.73 580.7 366.21" style="fill:#e0e0e0"/><polygon points="595.45 375.05 595.45 379.79 608.54 379.79 608.54 374.62 595.45 375.05" style="fill:#f5f5f5"/><rect x="595.45" y="383.78" width="13.52" height="1.94" style="fill:#f5f5f5"/><polygon points="580.7 289.88 580.7 322 623.49 322 623.49 291.4 580.7 289.88" style="fill:#e0e0e0"/><polygon points="595.45 298.72 595.45 303.46 608.54 303.46 608.54 298.29 595.45 298.72" style="fill:#f5f5f5"/><rect x="595.45" y="307.45" width="13.52" height="1.94" style="fill:#f5f5f5"/><rect x="580.14" y="328.34" width="42.79" height="32.11" style="fill:#e0e0e0"/><polygon points="595.18 342.81 595.18 347.27 607.48 347.27 607.48 342.4 595.18 342.81" style="fill:#f5f5f5"/><rect x="595.18" y="351.02" width="12.71" height="1.82" style="fill:#f5f5f5"/><path d="M669.56,406.5c0,.14-148.1.26-330.76.26S8,406.64,8,406.5s148.07-.26,330.79-.26S669.56,406.36,669.56,406.5Z" style="fill:#263238"/><rect x="190.71" y="39.96" width="267.33" height="175.35" style="fill:#fafafa"/><path d="M458,215.31c0-1.69-.08-68.4-.2-175.35l.2.21-267.3,0h0L191,40c0,62.36,0,121.7,0,175.35l-.23-.24,267.32.24-267.32.24h-.24v-.24c0-53.65,0-113,0-175.35V39.7h.29l267.3,0h.21V40C458.12,146.91,458,213.62,458,215.31Z" style="fill:#263238"/><path d="M272.4,136.79l26.3.36c-.2,14-12,25.44-26.3,25.44h-.15Z" style="fill:#ebb31f"/><path d="M315.88,172.39a2.44,2.44,0,0,1-.56.05l-1.61,0-5.87.07h-.08l0-.06L299,161.56l-7-8.91.13.06-7.73-.07-2.17,0a4.48,4.48,0,0,1-.76-.05,3.44,3.44,0,0,1,.76,0l2.17-.05,7.73-.07h.09l.05.06,7,8.88,8.6,11-.12-.06,5.87.07,1.61,0A3,3,0,0,1,315.88,172.39Z" style="fill:#263238"/><path d="M325.31,175.43c0,.11-3.81.2-8.5.2s-8.51-.09-8.51-.2a84.93,84.93,0,0,1,8.51-.21A84.8,84.8,0,0,1,325.31,175.43Z" style="fill:#263238"/><path d="M325.31,178.58c0,.11-3.81.2-8.5.2s-8.51-.09-8.51-.2a84.93,84.93,0,0,1,8.51-.21A84.8,84.8,0,0,1,325.31,178.58Z" style="fill:#263238"/><path d="M268.25,133.05l-.37,25.79c-14.29-.19-25.93-11.78-25.93-25.79s11.87-25.8,26.3-25.8,26.29,11.65,26.29,25.8Z" style="fill:#45c2e3"/><path d="M258,124.61a1.44,1.44,0,0,1-.46.11l-1.31.21-4.72.66h-.08l0,0-6.31-6.13c-3-3-5.75-5.67-7.7-7.65L235,109.42a7.13,7.13,0,0,1-.8-.9,7.92,7.92,0,0,1,.91.79l2.4,2.26c2,1.92,4.76,4.59,7.79,7.56l6.25,6.18-.14,0,4.74-.53,1.32-.12A2.41,2.41,0,0,1,258,124.61Z" style="fill:#263238"/><path d="M227.58,107.39c0,.11-3.81.2-8.51.2s-8.51-.09-8.51-.2,3.81-.2,8.51-.2S227.58,107.28,227.58,107.39Z" style="fill:#263238"/><path d="M227.58,110.54c0,.11-3.81.2-8.51.2s-8.51-.09-8.51-.2,3.81-.2,8.51-.2S227.58,110.43,227.58,110.54Z" style="fill:#263238"/><path d="M360.24,82.09l-.11-16a20.47,20.47,0,0,0-13.22,5.16,19,19,0,0,0-6.37,16.6,22.05,22.05,0,0,0,.37,2.33.09.09,0,0,1,0,0h0l19.32-4.34Z" style="fill:#45c2e3"/><g style="opacity:0.30000000000000004"><path d="M360.24,82.09l-.11-16a20.47,20.47,0,0,0-13.22,5.16,19,19,0,0,0-6.37,16.6,22.05,22.05,0,0,0,.37,2.33.09.09,0,0,1,0,0h0l19.32-4.34Z" style="fill:#fff"/></g><path d="M380.14,77.16a19,19,0,0,0-15.58-10.92l-.62,0-.39,0c-.38,0-.77,0-1.16,0h-.1l.1,16,0,3.77,19.31,4.22h0a19.82,19.82,0,0,0,.43-4.15A20.84,20.84,0,0,0,380.14,77.16Z" style="fill:#45c2e3"/><path d="M380.14,77.16a19,19,0,0,0-15.58-10.92l-.62,0-.39,0c-.38,0-.77,0-1.16,0h-.1l.1,16,0,3.77,19.31,4.22h0a19.82,19.82,0,0,0,.43-4.15A20.84,20.84,0,0,0,380.14,77.16Z" style="fill:#ebb31f"/><path d="M361.27,87.86,342,92.2a19.8,19.8,0,0,0,38.66-.13L361.3,87.86" style="fill:#45c2e3"/><path d="M436.45,85c0,.15-10,.26-22.3.26s-22.3-.11-22.3-.26,10-.26,22.3-.26S436.45,84.83,436.45,85Z" style="fill:#263238"/><path d="M436.45,79.89c0,.14-10,.26-22.3.26s-22.3-.12-22.3-.26,10-.26,22.3-.26S436.45,79.74,436.45,79.89Z" style="fill:#263238"/><path d="M436.45,74.8c0,.15-10,.26-22.3.26s-22.3-.11-22.3-.26,10-.26,22.3-.26S436.45,74.66,436.45,74.8Z" style="fill:#263238"/><path d="M436.45,89.7c0,.15-10,.26-22.3.26s-22.3-.11-22.3-.26,10-.26,22.3-.26S436.45,89.56,436.45,89.7Z" style="fill:#263238"/><path d="M422.64,94.85c0,.14-6.86.26-15.32.26S392,95,392,94.85s6.85-.26,15.31-.26S422.64,94.71,422.64,94.85Z" style="fill:#263238"/><rect x="345.07" y="131.65" width="4.59" height="51.31" style="fill:#45c2e3"/><rect x="353.94" y="149.08" width="4.59" height="33.88" style="fill:#45c2e3"/><rect x="362.81" y="138.03" width="4.59" height="45.19" style="fill:#45c2e3"/><rect x="371.68" y="133.63" width="4.59" height="49.33" style="fill:#45c2e3"/><rect x="380.55" y="150.12" width="4.59" height="32.84" style="fill:#45c2e3"/><rect x="389.42" y="156.56" width="4.59" height="26.4" style="fill:#45c2e3"/><rect x="398.29" y="136.92" width="4.59" height="46.04" style="fill:#45c2e3"/><rect x="407.16" y="145.22" width="4.59" height="37.74" style="fill:#45c2e3"/><rect x="416.03" y="138.59" width="4.59" height="44.37" style="fill:#45c2e3"/><rect x="424.9" y="152.73" width="4.59" height="30.23" style="fill:#45c2e3"/><rect x="433.77" y="146.98" width="4.59" height="35.98" style="fill:#45c2e3"/><path d="M440.24,186.53c0,.11-21.79.19-48.67.19s-48.67-.08-48.67-.19,21.78-.18,48.67-.18S440.24,186.43,440.24,186.53Z" style="fill:#263238"/><path d="M351.63,190.57a30.7,30.7,0,0,1-6.82,0,30.7,30.7,0,0,1,6.82,0Z" style="fill:#263238"/><path d="M362.93,190.78a43.69,43.69,0,0,1-8.14,0,43.69,43.69,0,0,1,8.14,0Z" style="fill:#263238"/><path d="M372.58,190.78a43.79,43.79,0,0,1-8.15,0,43.79,43.79,0,0,1,8.15,0Z" style="fill:#263238"/><path d="M382.23,190.78a43.79,43.79,0,0,1-8.15,0,43.79,43.79,0,0,1,8.15,0Z" style="fill:#263238"/><path d="M391.87,190.78a43.79,43.79,0,0,1-8.15,0,43.79,43.79,0,0,1,8.15,0Z" style="fill:#263238"/><path d="M401.52,190.78a43.79,43.79,0,0,1-8.15,0,43.79,43.79,0,0,1,8.15,0Z" style="fill:#263238"/><path d="M411.17,190.78a43.79,43.79,0,0,1-8.15,0,43.79,43.79,0,0,1,8.15,0Z" style="fill:#263238"/><path d="M420.81,190.78a43.79,43.79,0,0,1-8.15,0,43.79,43.79,0,0,1,8.15,0Z" style="fill:#263238"/><path d="M430.46,190.78a43.79,43.79,0,0,1-8.15,0,43.79,43.79,0,0,1,8.15,0Z" style="fill:#263238"/><path d="M440.1,190.78a43.79,43.79,0,0,1-8.15,0,43.79,43.79,0,0,1,8.15,0Z" style="fill:#263238"/><g style="opacity:0.30000000000000004"><rect x="353.94" y="149.08" width="4.59" height="33.88" style="fill:#fff"/></g><g style="opacity:0.30000000000000004"><rect x="371.68" y="133.63" width="4.59" height="49.33" style="fill:#fff"/></g><g style="opacity:0.30000000000000004"><rect x="389.42" y="156.56" width="4.59" height="26.4" style="fill:#fff"/></g><g style="opacity:0.30000000000000004"><rect x="407.16" y="145.22" width="4.59" height="37.74" style="fill:#fff"/></g><g style="opacity:0.30000000000000004"><rect x="424.9" y="152.73" width="4.59" height="30.23" style="fill:#fff"/></g><path d="M223.18,72.92a4.42,4.42,0,1,1-4.42-4.42A4.42,4.42,0,0,1,223.18,72.92Z" style="fill:#45c2e3"/><path d="M299.21,69.43c0,.14-14.91.26-33.3.26s-33.3-.12-33.3-.26,14.91-.26,33.3-.26S299.21,69.29,299.21,69.43Z" style="fill:#45c2e3"/><path d="M259.35,74.78a4.35,4.35,0,0,1-1,.1c-.67,0-1.63.06-2.82.08-2.37.05-5.65.08-9.28.08s-6.9,0-9.28-.08c-1.19,0-2.15,0-2.81-.08a4.25,4.25,0,0,1-1-.1,3.69,3.69,0,0,1,1-.1l2.81-.09c2.38,0,5.66-.07,9.28-.07s6.91,0,9.28.07l2.82.09A3.77,3.77,0,0,1,259.35,74.78Z" style="fill:#45c2e3"/><rect x="45.35" y="55.83" width="139.91" height="159.68" style="fill:#fafafa"/><path d="M185.26,215.51s0-.26,0-.76,0-1.24,0-2.22c0-2,0-4.85,0-8.61,0-7.54,0-18.57-.06-32.58,0-28-.07-67.89-.12-115.51l.23.23-139.9,0h0l.26-.26c0,58.87,0,113.77,0,159.68l-.22-.22,101.48.12,28.37.05,7.48,0,2.58,0-2.53,0-7.44,0-28.32.06-101.62.11h-.22v-.22c0-45.91,0-100.81,0-159.68v-.26h.27l139.9,0h.23v.23c-.05,47.68-.09,87.62-.12,115.65,0,14,0,25-.06,32.53,0,3.75,0,6.63,0,8.58,0,1,0,1.69,0,2.19S185.26,215.51,185.26,215.51Z" style="fill:#263238"/><path d="M173.23,137.37c0,.09-1.55-.78-4.5-1.71a28.81,28.81,0,0,0-12.9-1,27.89,27.89,0,0,0-8.51,2.74,40.13,40.13,0,0,0-8.36,6c-2.75,2.42-5.47,5.17-8.61,7.71a29.63,29.63,0,0,1-11,6,16.8,16.8,0,0,1-6.42.39,20.76,20.76,0,0,1-5.94-1.84,102.33,102.33,0,0,1-10-5.92,31.07,31.07,0,0,0-9.37-4.2,27.94,27.94,0,0,0-8.91-.68,28.7,28.7,0,0,0-12.29,4c-2.64,1.62-3.89,2.83-4,2.74a7,7,0,0,1,.9-.87,19.72,19.72,0,0,1,2.86-2.18,28.1,28.1,0,0,1,21.59-3.78A31.62,31.62,0,0,1,97.5,149a106.79,106.79,0,0,0,9.89,5.82,16.92,16.92,0,0,0,11.73,1.38,29.08,29.08,0,0,0,10.64-5.76c3.09-2.48,5.83-5.21,8.61-7.64a40.46,40.46,0,0,1,8.59-6.06,28.51,28.51,0,0,1,21.89-1.43,23.79,23.79,0,0,1,3.31,1.43A5.55,5.55,0,0,1,173.23,137.37Z" style="fill:#ebb31f"/><rect x="83.86" y="158.81" width="11.89" height="32.17" style="fill:#45c2e3"/><rect x="134.33" y="158.81" width="11.89" height="32.17" style="fill:#45c2e3"/><rect x="151.16" y="139.92" width="11.89" height="51.06" style="fill:#45c2e3"/><rect x="68.47" y="180.86" width="11.89" height="10.83" style="fill:#45c2e3"/><rect x="100.68" y="173.34" width="11.9" height="17.64" style="fill:#45c2e3"/><rect x="117.51" y="169.29" width="11.89" height="21.69" style="fill:#45c2e3"/><path d="M96.23,194.78c0,.26-2.87.47-6.42.47s-6.43-.21-6.43-.47,2.88-.48,6.43-.48S96.23,194.51,96.23,194.78Z" style="fill:#263238"/><path d="M81.43,194.78c0,.26-2.88.47-6.42.47s-6.43-.21-6.43-.47,2.88-.48,6.43-.48S81.43,194.51,81.43,194.78Z" style="fill:#263238"/><path d="M165.4,194.78c0,.26-3.26.47-7.27.47s-7.26-.21-7.26-.47,3.25-.48,7.26-.48S165.4,194.51,165.4,194.78Z" style="fill:#263238"/><ellipse cx="140.46" cy="194.78" rx="7.26" ry="0.48" style="fill:#263238"/><path d="M129.4,194.78c0,.26-2.88.47-6.42.47s-6.43-.21-6.43-.47,2.88-.48,6.43-.48S129.4,194.51,129.4,194.78Z" style="fill:#263238"/><path d="M112,194.78c0,.26-2.88.47-6.43.47s-6.42-.21-6.42-.47,2.87-.48,6.42-.48S112,194.51,112,194.78Z" style="fill:#263238"/><rect x="68.19" y="79.11" width="97.21" height="40.37" style="fill:#e0e0e0"/><path d="M88.38,91.87a4.53,4.53,0,1,1-4.53-4.53A4.53,4.53,0,0,1,88.38,91.87Z" style="fill:#263238"/><rect x="92.91" y="88.74" width="31.58" height="1.75" style="fill:#263238"/><rect x="92.91" y="92.73" width="61.43" height="1.75" style="fill:#fff"/><path d="M88.38,105.8a4.53,4.53,0,1,1-4.53-4.53A4.53,4.53,0,0,1,88.38,105.8Z" style="fill:#45c2e3"/><rect x="92.91" y="102.67" width="16.12" height="1.75" style="fill:#45c2e3"/><rect x="92.91" y="106.66" width="61.43" height="1.75" style="fill:#fff"/><rect x="471.15" y="27.17" width="153.64" height="175.35" style="fill:#fafafa"/><path d="M624.79,202.52s0-.29,0-.84,0-1.36,0-2.43c0-2.15,0-5.33,0-9.46,0-8.28,0-20.39-.06-35.78,0-30.74-.07-74.55-.12-126.84l.23.23-153.62,0h0l.26-.26c0,64.65,0,124.93,0,175.35l-.22-.22,111.45.11,31.15.06,8.21,0,2.83,0-2.78,0-8.17,0-31.11.05-111.58.12h-.22v-.22c0-50.42,0-110.7,0-175.35v-.26h.28l153.62,0H625v.23c0,52.35-.09,96.21-.11,127,0,15.36,0,27.46-.07,35.72,0,4.12,0,7.28,0,9.42l0,2.41C624.8,202.25,624.79,202.52,624.79,202.52Z" style="fill:#263238"/><rect x="483.44" y="41.19" width="124.46" height="99.85" style="fill:#e0e0e0"/><rect x="492.14" y="123.28" width="4.08" height="1.18" style="fill:#263238"/><rect x="501.38" y="129.58" width="5.22" height="1.18" style="fill:#263238"/><rect x="519.57" y="129.58" width="5.22" height="1.18" style="fill:#263238"/><rect x="537.75" y="129.58" width="5.22" height="1.18" style="fill:#263238"/><rect x="555.94" y="129.58" width="5.22" height="1.18" style="fill:#263238"/><rect x="574.12" y="129.58" width="5.22" height="1.18" style="fill:#263238"/><rect x="592.31" y="129.58" width="5.22" height="1.18" style="fill:#263238"/><rect x="492.14" y="107.56" width="4.08" height="1.18" style="fill:#263238"/><rect x="492.14" y="77.97" width="4.08" height="1.18" style="fill:#263238"/><rect x="492.14" y="63.1" width="4.08" height="1.18" style="fill:#263238"/><rect x="492.35" y="92.77" width="4.08" height="1.18" style="fill:#263238"/><path d="M597.38,124.46a2.3,2.3,0,0,1-.43,0l-1.29,0-4.94,0-18.18.08-60,.08H498.1v-.26c0-20,.06-37.69.09-50.35,0-6.3.06-11.36.07-14.87,0-1.72,0-3.07.05-4,0-.44,0-.78,0-1a1.6,1.6,0,0,1,0-.35s0,.12,0,.35,0,.6,0,1c0,.93,0,2.28.05,4,0,3.51,0,8.57.07,14.87,0,12.66.06,30.3.09,50.35l-.25-.26h14.21l60,.08,18.18.08,4.94,0,1.29,0A2.3,2.3,0,0,1,597.38,124.46Z" style="fill:#263238"/><path d="M598.54,93.36c0,.14-21.55.26-48.12.26s-48.11-.12-48.11-.26,21.54-.26,48.11-.26S598.54,93.21,598.54,93.36Z" style="fill:#263238"/><path d="M598.54,78.56c0,.15-21.55.26-48.12.26s-48.11-.11-48.11-.26,21.54-.26,48.11-.26S598.54,78.42,598.54,78.56Z" style="fill:#263238"/><path d="M598.54,63.69c0,.15-21.55.26-48.12.26s-48.11-.11-48.11-.26,21.54-.26,48.11-.26S598.54,63.55,598.54,63.69Z" style="fill:#263238"/><path d="M598.54,108.15c0,.14-21.55.26-48.12.26s-48.11-.12-48.11-.26,21.54-.26,48.11-.26S598.54,108,598.54,108.15Z" style="fill:#263238"/><path d="M503.3,121.28V108.15l8.18-12.7L517,99.71,528.43,82l6.72,4.73,9.35-16.33,7.6,6.19,11.39-21.66,12.27,24.21L585.7,67l11.68-3.35v57.59Z" style="fill:#455a64"/><path d="M598.54,59l-.21,0-.61,0-2.37,0-9,.07.11-.06L576.9,71.69l-.06.08h-.11l-24.06,0,.22-.13L542.77,88.54,532.84,105l-.2.33-.22-.31c-4.75-6.53-9.14-12.58-13-17.93h.35c-5,7.7-9.05,14.06-11.91,18.52-1.43,2.18-2.55,3.91-3.33,5.11l-.89,1.33a5.06,5.06,0,0,1-.32.44s.08-.16.27-.47l.83-1.37,3.23-5.18,11.76-18.61.16-.26.19.25c3.9,5.34,8.31,11.37,13.09,17.89l-.42,0c3.14-5.24,6.48-10.79,9.92-16.52s7-11.56,10.13-16.83l.07-.13h.14l24.06,0-.16.08,9.7-12.5,0,0h.07l9,.06,2.37,0,.61,0Z" style="fill:#ebb31f"/><path d="M523.51,91.22a.93.93,0,0,1-1.85,0,.93.93,0,0,1,1.85,0Z" style="fill:#ebb31f"/><path d="M551.27,75.44a.93.93,0,1,1-.93-.89A.91.91,0,0,1,551.27,75.44Z" style="fill:#ebb31f"/><path d="M572.84,71.57a.93.93,0,0,1-1.85,0,.93.93,0,0,1,1.85,0Z" style="fill:#ebb31f"/><path d="M602.3,155.88c0,.14-26.27.26-58.66.26S485,156,485,155.88s26.26-.26,58.66-.26S602.3,155.74,602.3,155.88Z" style="fill:#263238"/><path d="M602.3,162.22c0,.14-26.27.26-58.66.26s-58.66-.12-58.66-.26,26.26-.26,58.66-.26S602.3,162.08,602.3,162.22Z" style="fill:#263238"/><path d="M602.3,168.56c0,.15-26.27.26-58.66.26s-58.66-.11-58.66-.26,26.26-.26,58.66-.26S602.3,168.42,602.3,168.56Z" style="fill:#263238"/><path d="M602.3,174.91c0,.14-26.27.26-58.66.26s-58.66-.12-58.66-.26,26.26-.26,58.66-.26S602.3,174.76,602.3,174.91Z" style="fill:#263238"/><path d="M556,172.42c3.21-5.39,4.15-12.58,5-18.79.39-2.93,1.07-7.1-1-8.93-2.2-2-2.41-5-4.93-6.52a7.8,7.8,0,0,0-8.36.07" style="fill:#263238"/><path d="M547.07,191.51h0a8.67,8.67,0,0,1-9.32-8.31c-.18-4.71-.34-9.48-.34-9.48s-7.14-.67-7.66-7.74-.28-23.39-.28-23.39h0a24.66,24.66,0,0,1,24.89,1.6l-.44,24.89v13.38C553.88,187,551.54,191.16,547.07,191.51Z" style="fill:#ffbe9d"/><path d="M536.79,157.35a3.63,3.63,0,0,1,4.84-1,4.11,4.11,0,0,1,1.36,5.14,5.39,5.39,0,0,1-3.46,2.62A2.71,2.71,0,0,0,537.4,167c.2,1.78,3.16,2.44,4.49,3.91,2.07,2.29,6.62,3.25,9.68,3.62s2.65.38,4.4-2.09a9.5,9.5,0,0,0,1.72-5.74q.16-7.83.32-15.64a22.39,22.39,0,0,0-.35-5.61,7.52,7.52,0,0,0-3-4.64c-1.72-1.13-3.9-1.23-5.86-1.86-2.45-.8-4.53-2.42-6.82-3.59s-5.1-1.87-7.4-.72c-1.65.83-2.75,2.48-4.36,3.39-2.29,1.3-5.4,1-6.51,4.37a5.72,5.72,0,0,0,0,3.59c1.55,4.57,7.22,6.42,11.3,4.44.08.78-.69,2.5.13,5,.26.78.35,2,1.57,2" style="fill:#263238"/><path d="M538.06,161.77c.05-.05.29.37.88.33a1.62,1.62,0,0,0,1.32-1.61,1.77,1.77,0,0,0-1.21-1.76c-.58-.21-1-.1-1-.19s.39-.31,1.12-.16a2,2,0,0,1,1.63,2.14,1.94,1.94,0,0,1-1.84,1.95,1.07,1.07,0,0,1-.79-.4C538,161.9,538,161.78,538.06,161.77Z" style="fill:#eb996e"/><path d="M545.42,140.45s.15-.27.59-.6a4.69,4.69,0,0,1,2.15-.83,6.19,6.19,0,0,1,3.38.51,7.81,7.81,0,0,1,3.12,2.79,16,16,0,0,1,2.2,7.16,18.05,18.05,0,0,1,.18,3.09,18,18,0,0,1-.55-3,17.15,17.15,0,0,0-2.26-6.92,7.52,7.52,0,0,0-2.89-2.64,6.11,6.11,0,0,0-3.14-.59A6,6,0,0,0,545.42,140.45Z" style="fill:#455a64"/><path d="M525.51,147.68s-.1,0-.27,0a2.08,2.08,0,0,1-.7-.31,2.54,2.54,0,0,1-.82-.93,2.31,2.31,0,0,1-.23-1.63,2.7,2.7,0,0,1,1.15-1.65,3.82,3.82,0,0,1,2.24-.44,3.06,3.06,0,0,0,2.13-.54,15.11,15.11,0,0,0,1.73-1.87,8.88,8.88,0,0,1,4.4-2.54,9.46,9.46,0,0,1,4.15-.09,8.11,8.11,0,0,1,2.61,1,3.12,3.12,0,0,1,.8.63,12,12,0,0,0-3.48-1.27,9.38,9.38,0,0,0-4,.2,8.53,8.53,0,0,0-4.14,2.43,15.46,15.46,0,0,1-1.8,1.92,2.85,2.85,0,0,1-1.22.54,6.53,6.53,0,0,1-1.23.07,3.45,3.45,0,0,0-2,.32,2.39,2.39,0,0,0-1,1.37,2.27,2.27,0,0,0,.81,2.31A5.3,5.3,0,0,0,525.51,147.68Z" style="fill:#455a64"/><path d="M544.42,167.35s.36-.17.94-.56a5.84,5.84,0,0,0,1.92-2.15,5.37,5.37,0,0,0,.33-4.15,5.44,5.44,0,0,0-1.28-2.12,10.87,10.87,0,0,0-2.21-1.62c-.83-.48-1.67-.92-2.44-1.44a8.46,8.46,0,0,1-2-1.85,8.56,8.56,0,0,1-1.65-4.18,7.65,7.65,0,0,1,.23-3,5.32,5.32,0,0,1,.28-.78c.08-.17.13-.25.15-.25a10.26,10.26,0,0,0-.29,4,8.38,8.38,0,0,0,1.67,3.94,7.66,7.66,0,0,0,1.86,1.71c.74.5,1.57.94,2.41,1.42a10.65,10.65,0,0,1,2.31,1.71,5.78,5.78,0,0,1,.92,6.8,5.58,5.58,0,0,1-2.15,2.15A2.33,2.33,0,0,1,544.42,167.35Z" style="fill:#455a64"/><path d="M556.68,157a3.69,3.69,0,0,1-.91.2,12.82,12.82,0,0,1-2.54.08,15.8,15.8,0,0,1-7.89-2.71,12.48,12.48,0,0,1-5.17-6.51,5.45,5.45,0,0,1-.11-2.56,2.11,2.11,0,0,1,.35-.87,6.31,6.31,0,0,0,.11,3.33,12.86,12.86,0,0,0,5.12,6.18,16.55,16.55,0,0,0,7.62,2.77C555.36,157.12,556.67,156.87,556.68,157Z" style="fill:#455a64"/><path d="M557.81,152.14a12.47,12.47,0,0,1,9.74-4.42c3.69.21,7.28,2.75,8.18,6.33.68,2.7-.15,5.5-.5,8.26s0,6,2.24,7.61c1.35,1,3.11,1.16,4.73,1.56s3.37,1.21,3.93,2.79c.64,1.81-.68,3.86-2.44,4.63A8.94,8.94,0,0,1,578,179a4.75,4.75,0,0,1-2.1,5.67,6.25,6.25,0,0,1-6.28-.26,9.43,9.43,0,0,1-3.84-5.2c-1.2,2.13-4.39,2.58-6.43,1.22a6.77,6.77,0,0,1-2.6-6.46,12.58,12.58,0,0,1,3.26-6.46,16.27,16.27,0,0,0,2.28-2.9,3.7,3.7,0,0,0,.14-3.53,2.14,2.14,0,0,0-3.15-.64" style="fill:#263238"/><path d="M562.06,159.55a2.43,2.43,0,0,1-2.12,0,5.12,5.12,0,0,1-3.09-4,5.26,5.26,0,0,1,.34-2.87,5.5,5.5,0,0,1,1.35-1.91,3.46,3.46,0,0,1,1.86-1,14.49,14.49,0,0,0-1.6,1.3,5.22,5.22,0,0,0-1.43,4.44,5,5,0,0,0,2.71,3.77A4.76,4.76,0,0,0,562.06,159.55Z" style="fill:#45c2e3"/><path d="M537.17,173.61a3.45,3.45,0,0,1-1.61-.16,8.72,8.72,0,0,1-5.73-5.06,3.45,3.45,0,0,1-.36-1.58,9.36,9.36,0,0,1,.7,1.43,10.05,10.05,0,0,0,2.29,2.95,10.26,10.26,0,0,0,3.21,1.91A8.56,8.56,0,0,1,537.17,173.61Z" style="fill:#eb996e"/><path d="M564.39,179.4s-.12,0-.34-.05a3.25,3.25,0,0,1-.93-.41,5.07,5.07,0,0,1-2-3.05,6.27,6.27,0,0,1-.09-2.57,10.64,10.64,0,0,1,.93-2.79c.89-1.86,2.3-3.63,3.34-5.69a10.23,10.23,0,0,0,1-3.15,5.91,5.91,0,0,0-.34-3,6.06,6.06,0,0,0-3.58-3.55,6.5,6.5,0,0,0-3.5-.22c-.83.18-1.25.41-1.27.36s.09-.08.29-.19a4.63,4.63,0,0,1,.93-.36,6.25,6.25,0,0,1,7.58,3.78,6.44,6.44,0,0,1,.4,3.25,10.2,10.2,0,0,1-1.09,3.32c-1.07,2.12-2.48,3.87-3.37,5.67a7.53,7.53,0,0,0-.91,5.05,5,5,0,0,0,1.76,3A9,9,0,0,0,564.39,179.4Z" style="fill:#455a64"/><path d="M575.06,184.57a1.29,1.29,0,0,1-.45,0,4.76,4.76,0,0,1-1.26-.23,7.06,7.06,0,0,1-3.68-2.87,10.87,10.87,0,0,1-1.59-6.73,71,71,0,0,1,1.36-8.38,19.15,19.15,0,0,0,.3-4.3,11,11,0,0,0-.9-3.87,7.09,7.09,0,0,0-5-4.14,10.34,10.34,0,0,0-4.55,0c-1.06.24-1.63.47-1.65.43a1.44,1.44,0,0,1,.4-.21,9.16,9.16,0,0,1,1.2-.42,10.07,10.07,0,0,1,4.69-.18,7.52,7.52,0,0,1,3,1.35,7.6,7.6,0,0,1,2.32,3,11.31,11.31,0,0,1,1,4,19.53,19.53,0,0,1-.29,4.42,74.73,74.73,0,0,0-1.4,8.31A10.66,10.66,0,0,0,570,181.3a7.06,7.06,0,0,0,3.44,2.88A10,10,0,0,0,575.06,184.57Z" style="fill:#455a64"/><polygon points="577.19 216.77 562.13 228.52 568.45 238.89 586.58 225.53 577.19 216.77" style="fill:#ffbe9d"/><path d="M536.91,177.31s.07-1.26-3.21-1.44a33.63,33.63,0,0,0-3.65-.12,8.32,8.32,0,0,1-1.57-3.05,9.2,9.2,0,0,1,.7-3.09l3.32-.31-.9-2.25-2.34.16-6.62.8L520,179.59,502,213.29A8.7,8.7,0,0,0,505.41,226h0c4.66,2.25,10.92-2.54,12.65-7.42l10-37.49,3.51-2.74,5-.93" style="fill:#ffbe9d"/><path d="M495.75,401.62,520.33,260.2h0l.15-.62v0h0c4.18-16.59,10.63-21.91,10.63-21.91L568.71,240c3.2,5.75,3.6,19.55,3.6,19.55.44,1.69-7.94,138.71-7.94,138.71l-12.58-.34L545,268.29,508.35,402.16Z" style="fill:#ffbe9d"/><path d="M495.46,402.89l.05-1.28,12.94.38-.11,4.21-.81,0c-3.56.08-18.11.21-20.46-.52C484.44,404.89,495.46,402.89,495.46,402.89Z" style="fill:#ebb31f"/><g style="opacity:0.6000000000000001"><path d="M503.67,406a4.11,4.11,0,0,1,1.72-2.51,4.58,4.58,0,0,1,3-.79l-.1,3.35Z" style="fill:#fff"/></g><g style="opacity:0.6000000000000001"><path d="M490.07,404s-3.87.93-3.41,1.53,15.17,1,21.68.63l0-.27-17.16-.31S490.82,404.09,490.07,404Z" style="fill:#fff"/></g><path d="M508.53,405.93l-.23,0h-.63l-2.35,0c-2,0-4.71,0-7.73-.08s-5.76-.2-7.73-.32l-2.34-.15-.64-.05-.22,0h.23l.63,0,2.34.11c2,.09,4.71.2,7.73.27s5.75.11,7.73.12l2.35,0h.86Z" style="fill:#263238"/><path d="M491.16,405.8a5,5,0,0,0-.41-1.05,4.46,4.46,0,0,0-.77-.85,1.66,1.66,0,0,1,.91.78A1.5,1.5,0,0,1,491.16,405.8Z" style="fill:#263238"/><path d="M495,404.11s-.22-.19-.4-.47a1.34,1.34,0,0,1-.26-.55s.22.19.4.47A1.34,1.34,0,0,1,495,404.11Z" style="fill:#263238"/><path d="M496.07,403.62s-.23-.1-.44-.29-.37-.37-.34-.4.23.1.45.29S496.1,403.59,496.07,403.62Z" style="fill:#263238"/><path d="M496.77,402.51a1.61,1.61,0,0,1-.68.06,1.54,1.54,0,0,1-.67-.08,1.57,1.57,0,0,1,.68-.06A1.54,1.54,0,0,1,496.77,402.51Z" style="fill:#263238"/><path d="M497,401.72a1.4,1.4,0,0,1-.76.18,1.49,1.49,0,0,1-.77-.11,3.58,3.58,0,0,1,.76,0A4.31,4.31,0,0,1,497,401.72Z" style="fill:#263238"/><path d="M494.61,403.05a2.35,2.35,0,0,1-.83,0,5.16,5.16,0,0,1-.87-.21,2.9,2.9,0,0,1-.5-.2.46.46,0,0,1-.2-.25.3.3,0,0,1,.13-.3,1.59,1.59,0,0,1,1.87.46,1.26,1.26,0,0,1,.25.52c0,.13,0,.21,0,.21a2.17,2.17,0,0,0-.36-.67,1.45,1.45,0,0,0-.69-.44,1.41,1.41,0,0,0-1,0c-.13.09-.09.23.06.32a2.77,2.77,0,0,0,.46.2,8.47,8.47,0,0,0,.84.23C494.29,403,494.61,403,494.61,403.05Z" style="fill:#263238"/><path d="M494.39,403.09a.82.82,0,0,1-.08-.54,1.25,1.25,0,0,1,.25-.56.81.81,0,0,1,.7-.37.3.3,0,0,1,.24.36.75.75,0,0,1-.15.34,2.69,2.69,0,0,1-.4.46,1.18,1.18,0,0,1-.49.29s.17-.13.41-.37a3,3,0,0,0,.36-.45c.12-.16.2-.45,0-.49a.76.76,0,0,0-.56.31,1.38,1.38,0,0,0-.25.5A3.24,3.24,0,0,0,494.39,403.09Z" style="fill:#263238"/><path d="M508.36,402.64s-.37,0-.95,0a4.37,4.37,0,0,0-2.1.74,4,4,0,0,0-1.35,1.67c-.21.51-.24.86-.27.85a.64.64,0,0,1,0-.24,2.35,2.35,0,0,1,.16-.64,3.63,3.63,0,0,1,1.36-1.75,4.17,4.17,0,0,1,2.18-.73,4.6,4.6,0,0,1,.71,0A1.57,1.57,0,0,1,508.36,402.64Z" style="fill:#263238"/><path d="M502.08,404.77a7.75,7.75,0,0,1-1.88.12,7.24,7.24,0,0,1-1.88-.19s.84,0,1.88.05S502.08,404.73,502.08,404.77Z" style="fill:#263238"/><path d="M504.61,404.83s-.08.17-.17.34-.14.34-.19.33-.06-.19.05-.39S504.58,404.8,504.61,404.83Z" style="fill:#263238"/><path d="M505.59,403.76s-.06.15-.19.27-.28.2-.31.17.06-.15.2-.28S505.56,403.73,505.59,403.76Z" style="fill:#263238"/><path d="M507,403.29s-.18,0-.37.09-.33.15-.37.12.08-.19.32-.26S507,403.25,507,403.29Z" style="fill:#263238"/><path d="M507.94,403.08s-.06.09-.16.13-.21,0-.23,0,.06-.1.17-.14S507.93,403,507.94,403.08Z" style="fill:#263238"/><path d="M558.66,181.29a24.73,24.73,0,0,1,10,3.92c11.9,7.71,31.79,24,30.14,31.56C597.34,223.2,581.83,231,581.83,231l-10.08-12.11,6.18-3.54-15.18-10.1Z" style="fill:#263238"/><path d="M565.44,205.83l-.5,1.81L563.2,216l-.44,12.25c9,11.61,9.16,21.39,9.16,21.39L526.35,255c0-9,3.29-20.34,3.29-20.34,2.64-4.47,2.51-17.85,2-18.34-2.85-2.82-3.54-4.89-1.26-8.51,0,0-14.13,14.84-15.59,16.18-5,4.57-9.79,3.3-12,1.31-6.24-5.57.17-12.75.17-12.75l23.79-27.27a11.77,11.77,0,0,1,6.19-3.77c2.53-.6,5.09-.91,5.09-.91l15.89.14a26,26,0,0,1,4.74.58,11.35,11.35,0,0,1,6.93,8.6C567,196.72,565.44,205.83,565.44,205.83Z" style="fill:#263238"/><path d="M565.94,194.91a6.64,6.64,0,0,1,.09,1.32c0,.85,0,2.08-.08,3.6a96.42,96.42,0,0,1-1.57,11.79c-.3,1.55-.61,3-.94,4.44V216c-.14,3.54-.28,6.6-.4,8.77-.07,1-.12,1.86-.17,2.55a3.83,3.83,0,0,1-.12.92,5.2,5.2,0,0,1,0-.92c0-.69,0-1.54,0-2.56,0-2.18.11-5.24.22-8.78v-.05c.31-1.38.62-2.87.92-4.42.87-4.55,1.44-8.7,1.71-11.71.14-1.51.21-2.74.25-3.58A6.4,6.4,0,0,1,565.94,194.91Z" style="fill:#455a64"/><path d="M566.09,207.16a95.07,95.07,0,0,1,8.32,5.44,92.26,92.26,0,0,1,8,5.87,96.85,96.85,0,0,1-8.32-5.44A94.19,94.19,0,0,1,566.09,207.16Z" style="fill:#455a64"/><path d="M536.63,189.3s.09,0,.23.18a4.11,4.11,0,0,1,.57.62,6.78,6.78,0,0,1,1.23,2.82,9.32,9.32,0,0,1-.26,4.57,18.93,18.93,0,0,1-2.55,5,18.42,18.42,0,0,1-1.88,2.2c-.66.68-1.37,1.23-2,1.8-1.26,1.13-2.35,2.2-3.25,3.11s-1.6,1.68-2.09,2.2a5.32,5.32,0,0,1-.8.79,4.5,4.5,0,0,1,.64-.92c.45-.57,1.12-1.37,2-2.32s1.94-2.06,3.19-3.22c.63-.59,1.33-1.14,2-1.79a17.53,17.53,0,0,0,1.81-2.16,18.76,18.76,0,0,0,2.53-4.81,9.29,9.29,0,0,0,.35-4.35A8.23,8.23,0,0,0,536.63,189.3Z" style="fill:#455a64"/><polygon points="531.33 229.59 531.85 223.46 562.93 223.46 562.76 228.25 531.33 229.59" style="fill:#455a64"/><path d="M504.81,211.31c.06.08-.78.59-1.72,1.8a8.28,8.28,0,0,0,.44,10.86c1,1.13,1.91,1.57,1.86,1.66a2,2,0,0,1-.63-.27,7.08,7.08,0,0,1-1.49-1.13,8.22,8.22,0,0,1-.47-11.35,7.13,7.13,0,0,1,1.4-1.25A1.63,1.63,0,0,1,504.81,211.31Z" style="fill:#455a64"/><polygon points="564.37 398.27 567.89 406.47 552.12 406.29 551.78 397.93 564.37 398.27" style="fill:#ebb31f"/><path d="M552,404.87a14.57,14.57,0,0,0,2.21.11c1.37,0,3.25,0,5.33,0l5.33-.11a16.35,16.35,0,0,0,2.2-.11,14.36,14.36,0,0,0-2.2-.11c-1.37,0-3.26,0-5.34,0l-5.32.11A14.72,14.72,0,0,0,552,404.87Z" style="fill:#263238"/><path d="M558.58,398.09a11.15,11.15,0,0,0-.07,3.33,11.55,11.55,0,0,0,.43,3.3,11.15,11.15,0,0,0,.07-3.33A11.63,11.63,0,0,0,558.58,398.09Z" style="fill:#263238"/><polyline points="567.87 406.64 552.1 406.12 552 404.62 567.07 404.75 567.87 406.47" style="fill:#fff;opacity:0.6000000000000001"/><path d="M570.92,241.75c11.86,37.45-3.43,82.91.23,126.55.36,4.28,2.1,9.41-1.9,11.85a6.54,6.54,0,0,1-3.62.89c-3.21-.11-5.88-1.77-8.74-2.91a26,26,0,0,0-17.2-.67c-3.79,1.18-7.54,3.27-11.46,2.67-5.21-.78-8.58-5.93-13.38-8.11-4.49-2-9.67-1.28-14.6-1.41h-.15a11.06,11.06,0,0,1-10.21-14c7.16-26.23,30.92-111.46,41.44-127l31.43-1.34C565.66,231.75,569.39,237,570.92,241.75Z" style="fill:#45c2e3"/><path d="M559.9,259.38a13.24,13.24,0,0,1-1.71,2.15,47.35,47.35,0,0,1-4.64,4.74,31.18,31.18,0,0,1-5.48,3.77,11.76,11.76,0,0,1-2.49,1.15c-.11-.18,3.73-2,7.63-5.31,1.93-1.69,3.53-3.4,4.71-4.6A14.76,14.76,0,0,1,559.9,259.38Z" style="fill:#263238"/><g style="opacity:0.1"><path d="M546,273.51a134,134,0,0,0-5.27,80.16c.57,2.29,1.14,4.89-.16,6.86-1.69,2.54-5.77,2.36-8.08.37s-3.24-5.14-3.82-8.13c-4.31-22.35,3.51-44.8,11.95-65.93"/></g><rect x="308.11" y="286.13" width="59.59" height="2.9" style="fill:#263238"/><polygon points="298.88 289.03 287.7 247.15 334.23 247.15 344.35 289.03 298.88 289.03" style="fill:#263238"/><polygon points="341.56 285.86 300 285.86 290.32 249.08 332.1 249.08 341.56 285.86" style="fill:#f5f5f5"/><path d="M291,251.72H332.8l-.7-2.64H290.32Z" style="fill:#ebebeb"/><path d="M295.53,250.4a.46.46,0,0,0,.46.46.46.46,0,0,0,0-.91A.46.46,0,0,0,295.53,250.4Z" style="fill:#fafafa"/><path d="M294,250.4a.46.46,0,1,0,.46-.45A.45.45,0,0,0,294,250.4Z" style="fill:#fafafa"/><path d="M292.39,250.4a.45.45,0,0,0,.45.46.46.46,0,1,0,0-.91A.45.45,0,0,0,292.39,250.4Z" style="fill:#fafafa"/><path d="M322.42,267.84l4.57,5.23a6.43,6.43,0,0,0,2.81-5.26c0-3.66-3.36-6.66-7.41-6.64s-7.37,3-7.36,6.7Z" style="fill:#ebb31f"/><path d="M321.84,268.68a9.89,9.89,0,0,1,1.3,1.31c.82.87,2,2.15,3.39,3.72l.15.17-.19.15a7.94,7.94,0,0,1-7.72.76,7.58,7.58,0,0,1-3.17-2.55,6.62,6.62,0,0,1-1.18-3.44v-.23h.23c2.19,0,4,0,5.26,0a11.11,11.11,0,0,1,1.94.1,15,15,0,0,1-2,.15c-1.26.06-3,.13-5.17.18l.22-.23A6.13,6.13,0,0,0,316,272a7.2,7.2,0,0,0,3,2.36,7.55,7.55,0,0,0,7.25-.64l0,.33c-1.33-1.55-2.42-2.86-3.19-3.79A12.37,12.37,0,0,1,321.84,268.68Z" style="fill:#263238"/><path d="M318.85,263.89a.42.42,0,0,0,.83,0,.42.42,0,0,0-.42-.42A.41.41,0,0,0,318.85,263.89Z" style="fill:#263238"/><path d="M310.62,260.89a23.91,23.91,0,0,1,4.94-.28h.77l.07.08a18.77,18.77,0,0,1,2.86,3.2,19.68,19.68,0,0,1-3.22-2.84l.18.08h-.66A23.23,23.23,0,0,1,310.62,260.89Z" style="fill:#263238"/><path d="M301.26,266.13a15.28,15.28,0,0,1-.47-1.93c-.28-1.27-.68-3.13-1.13-5.4l-.05-.25h.25l10.35-.09c-.06,0,.48.4.25.21h0v0l0,.07,0,.12.05.25.09.49.18,1,.36,1.89c.22,1.23.44,2.41.65,3.53l.05.28h-.29c-3.1,0-5.72-.05-7.53-.09l-2.1-.05a3,3,0,0,1-.71-.06,4.79,4.79,0,0,1,.8-.06l2.15-.07c1.82-.06,4.38-.11,7.39-.15l-.23.28c-.22-1.11-.44-2.29-.68-3.52-.12-.62-.24-1.25-.37-1.89l-.18-1-.09-.49L310,259l0-.13v-.09h0l.26.21H299.87l.2-.25c.4,2.2.7,4,.9,5.33A18.26,18.26,0,0,1,301.26,266.13Z" style="fill:#263238"/><path d="M318.23,272.22a.42.42,0,0,0,.42.41.41.41,0,0,0,.41-.42.41.41,0,0,0-.41-.41A.42.42,0,0,0,318.23,272.22Z" style="fill:#263238"/><path d="M311.14,272.24a14.16,14.16,0,0,1,3.75-.27,13.3,13.3,0,0,1,3.76.25,14.2,14.2,0,0,1-3.76.27A13.25,13.25,0,0,1,311.14,272.24Z" style="fill:#263238"/><path d="M301.3,275.51a9.76,9.76,0,0,1-.46-1.38c-.27-.93-.66-2.29-1.12-4l-.06-.24h.25c2.81,0,6.56-.09,10.66-.1-.22-.18.31.23.26.19h0v.07l0,.09.05.18.09.35.18.71c.12.46.23.92.35,1.38.23.9.45,1.78.66,2.62l.08.3H312c-3.16,0-5.85,0-7.74-.08l-2.18-.06a3.19,3.19,0,0,1-.74-.06,4.41,4.41,0,0,1,.83-.07l2.23-.08c1.89-.05,4.53-.11,7.6-.14l-.23.31-.69-2.62c-.11-.45-.23-.91-.35-1.37l-.18-.71-.1-.35,0-.18,0-.09,0,0v0h0c-.05,0,.48.37.25.2-4.1,0-7.84,0-10.66,0l.19-.24c.39,1.63.7,3,.91,3.93A14.31,14.31,0,0,1,301.3,275.51Z" style="fill:#263238"/><path d="M302.08,261a12.18,12.18,0,0,1,3.54-.27,12.48,12.48,0,0,1,3.54.24,12,12,0,0,1-3.54.28A11.85,11.85,0,0,1,302.08,261Z" style="fill:#263238"/><path d="M302.17,262.18a12.32,12.32,0,0,1,3.56-.27,12.68,12.68,0,0,1,3.56.24,12.16,12.16,0,0,1-3.56.28A12.78,12.78,0,0,1,302.17,262.18Z" style="fill:#263238"/><path d="M302.38,263.3a11.3,11.3,0,0,1,3.43-.28,11.18,11.18,0,0,1,3.44.25,11.5,11.5,0,0,1-3.43.27A11.77,11.77,0,0,1,302.38,263.3Z" style="fill:#263238"/><path d="M302.29,272.15a11.09,11.09,0,0,1,3.37-.27,11.46,11.46,0,0,1,3.38.24,10.93,10.93,0,0,1-3.38.28A11.11,11.11,0,0,1,302.29,272.15Z" style="fill:#263238"/><path d="M302.71,273.43a8.41,8.41,0,0,1,2.87-.27,8.17,8.17,0,0,1,2.88.25,8.41,8.41,0,0,1-2.87.27A7.9,7.9,0,0,1,302.71,273.43Z" style="fill:#263238"/><polygon points="237.55 288.89 237.55 294.38 241.15 294.38 241.15 405.6 248.53 405.6 248.53 294.38 287.7 294.38 287.7 405.6 295.08 405.6 295.08 294.38 465.01 294.38 465.01 405.57 472.39 405.57 472.39 294.38 475.58 294.38 475.58 288.89 237.55 288.89" style="fill:#263238"/><path d="M397.59,330.33a57.58,57.58,0,0,0,9.59,0,57.58,57.58,0,0,0-9.59,0Z" style="fill:#263238"/><ellipse cx="327.68" cy="331.34" rx="0.26" ry="0.13" style="fill:#455a64"/><path d="M374.71,232.48l-27.57-28-.59-3c-.12-.56-.23-1.18-.34-1.88a7.31,7.31,0,0,1,0-2.47,11.31,11.31,0,0,1,.85-2.93c.47-.81-.28-1.79-1.05-1.46s-2.1,2.54-2.38,5.57-2.87-1-3.84-2.44-4.16-5.78-4.82-5.83c-1-.07-1.23,1-.23,2.41s3.7,5.89,2.93,6.37h0a3.6,3.6,0,0,0-3.81,1.89c-.69,1.33-1.47,3.23-.83,4.1a50,50,0,0,0,4.39,4.66l.93.79s23.85,34.56,29.05,35.68c3.23.7,53.21,4.85,53.21,4.85L424.39,237Z" style="fill:#b78876"/><path d="M332.83,204.19l2.55,2.45a2.77,2.77,0,0,0,1,.7.91.91,0,0,0,1.26-1.2,3,3,0,0,0-.59-.91c-.82-1-1.65-2-2.47-3" style="fill:#b78876"/><path d="M334.54,202.25a6.52,6.52,0,0,1,1.26,1.23l1.26,1.43a4.59,4.59,0,0,1,.7,1,1.33,1.33,0,0,1-.07,1.42,1.23,1.23,0,0,1-1.39.32,2.83,2.83,0,0,1-1-.7L334,205.54a5.92,5.92,0,0,1-1.13-1.35,6.43,6.43,0,0,1,1.39,1.08l1.41,1.28a2.47,2.47,0,0,0,.83.57.76.76,0,0,0,.82-.16.84.84,0,0,0,0-.88,4.84,4.84,0,0,0-.61-.86l-1.17-1.5A5.55,5.55,0,0,1,334.54,202.25Z" style="fill:#aa6550"/><path d="M334.64,202.41l2.55,2.45a2.9,2.9,0,0,0,1,.7,1,1,0,0,0,1.11-.18,1,1,0,0,0,.15-1,3,3,0,0,0-.59-.91l-2.47-3" style="fill:#b78876"/><path d="M336.35,200.47a6.52,6.52,0,0,1,1.26,1.23l1.26,1.43a4.59,4.59,0,0,1,.7,1,1.33,1.33,0,0,1-.07,1.42,1.25,1.25,0,0,1-1.39.32,2.83,2.83,0,0,1-1-.7l-1.34-1.36a5.92,5.92,0,0,1-1.13-1.35,6,6,0,0,1,1.39,1.08l1.41,1.28a2.8,2.8,0,0,0,.83.57.76.76,0,0,0,.82-.16.84.84,0,0,0,0-.88,4.84,4.84,0,0,0-.61-.86l-1.17-1.5A5.73,5.73,0,0,1,336.35,200.47Z" style="fill:#aa6550"/><path d="M336.62,201l2.55,2.45a3.12,3.12,0,0,0,1,.7,1.05,1.05,0,0,0,1.12-.18,1,1,0,0,0,.15-1,3,3,0,0,0-.59-.91l-2.48-3" style="fill:#b78876"/><path d="M338.33,199c.06,0,.54.43,1.27,1.23l1.26,1.43a5,5,0,0,1,.7,1,1.38,1.38,0,0,1-.07,1.42,1.26,1.26,0,0,1-1.4.32,2.81,2.81,0,0,1-1-.71l-1.33-1.36a6,6,0,0,1-1.14-1.34c.05-.06.58.36,1.39,1.08l1.42,1.28a2.39,2.39,0,0,0,.83.56.73.73,0,0,0,.82-.16.87.87,0,0,0,0-.87,4.84,4.84,0,0,0-.61-.86l-1.18-1.5A6.51,6.51,0,0,1,338.33,199Z" style="fill:#aa6550"/><path d="M340.65,205.18c0-.08.64-.21,1.56.08l-.3.25a4.38,4.38,0,0,1-.06-1.75,4.44,4.44,0,0,1,.95-2.13c.4-.46.73-.64.77-.6a9.34,9.34,0,0,0-1.21,2.81,5.24,5.24,0,0,0,0,1.58l0,.4-.35-.15C341.25,205.33,340.65,205.29,340.65,205.18Z" style="fill:#aa6550"/><path d="M410.82,190.49l.12,38.36-15,.72-.61-9.2s-7.21,1.1-8.72-4.33c-1-3.47-.72-30.27-.72-30.27Z" style="fill:#b78876"/><path d="M382.21,189.55c1.11,2.29,6.39,6.49,6.39,6.49l2.38,6.39c2.07-1.62,4.85-1.53,5.38,2.11.38,2.63-2.89,3.16-2.89,3.16,1.91,3.24,3.2,5.87,6,9,3,3.33,4.68,3.67,7.93,3.72H411s7.34-6.13,5.89-22.29-16-11.45-19.44-15.48C391.76,176,378.51,181.9,382.21,189.55Z" style="fill:#263238"/><path d="M416,211.59a5.16,5.16,0,0,1-1.78-.08A9.18,9.18,0,0,1,410,209.3a23.38,23.38,0,0,1-4.33-5.73c-1.4-2.28-2.92-4.94-5.49-6.72s-5.67-2.1-8.29-2.63a15.64,15.64,0,0,1-6.69-2.55,7.2,7.2,0,0,1-2.69-4,4.21,4.21,0,0,1-.07-1.78,6.46,6.46,0,0,0,.15,1.76,7.24,7.24,0,0,0,2.69,3.87,15.65,15.65,0,0,0,6.64,2.48c2.62.53,5.71.87,8.37,2.65s4.16,4.51,5.55,6.79a23.32,23.32,0,0,0,4.26,5.72,9.44,9.44,0,0,0,4.21,2.24,6.94,6.94,0,0,0,1.3.15Z" style="fill:#455a64"/><path d="M416.88,198.45l-.77-.24a11.74,11.74,0,0,0-2.25-.5,5.07,5.07,0,0,0-3.47.78,2.83,2.83,0,0,0-1.2,1.82,2.51,2.51,0,0,0,.7,2.28,1.89,1.89,0,0,0,1.21.48,2.59,2.59,0,0,0,1.33-.36,4.07,4.07,0,0,0,1.81-2.31,5.74,5.74,0,0,0-1.6-6.07,5.8,5.8,0,0,0-3.23-1.44,10,10,0,0,0-3.72.49,26.38,26.38,0,0,1-3.85.93,15.91,15.91,0,0,1-4.08,0,13.49,13.49,0,0,1-3.93-1.09,4.81,4.81,0,0,1-2.7-2.84,3.73,3.73,0,0,1,.92-3.63,3.19,3.19,0,0,1,3.51-.52,2.75,2.75,0,0,1,1.31,1.23,2.94,2.94,0,0,1,.27,1.72,3.9,3.9,0,0,1-1.75,2.74,5.52,5.52,0,0,1-2.95.82,8.57,8.57,0,0,1-2.81-.43,10,10,0,0,1-4.12-2.54,10.53,10.53,0,0,1-2.84-5.19c-.09-.53-.13-.8-.13-.8s.07.27.17.79a11.61,11.61,0,0,0,.77,2.17,10.66,10.66,0,0,0,2.12,2.95,9.87,9.87,0,0,0,4.08,2.48,8.52,8.52,0,0,0,2.75.41,5.44,5.44,0,0,0,2.87-.8,3.73,3.73,0,0,0,1.66-2.62,2.57,2.57,0,0,0-1.48-2.75,3,3,0,0,0-3.29.49,3.49,3.49,0,0,0-.86,3.42,4.58,4.58,0,0,0,2.59,2.71,13.53,13.53,0,0,0,3.87,1.07,15.53,15.53,0,0,0,4,0,25.63,25.63,0,0,0,3.82-.92,10.45,10.45,0,0,1,3.79-.49,5.91,5.91,0,0,1,5,7.77,4.24,4.24,0,0,1-1.89,2.39,2.78,2.78,0,0,1-1.42.38,2.1,2.1,0,0,1-1.3-.53,2.64,2.64,0,0,1-.73-2.42,3,3,0,0,1,1.27-1.89,5.14,5.14,0,0,1,3.54-.76,11.23,11.23,0,0,1,2.25.54C416.63,198.34,416.88,198.45,416.88,198.45Z" style="fill:#455a64"/><path d="M397.87,396.23,393,390l11.69-9.24,7.25,9.1-.68.62c-3.09,2.73-15.88,13.65-18.56,14.7C389.7,406.31,397.87,396.23,397.87,396.23Z" style="fill:#ebb31f"/><g style="opacity:0.4"><path d="M394,401.33s-2.69,3.75-1.8,4,14.23-10.32,19.7-15.49l-.22-.24L396.24,402S394.72,400.82,394,401.33Z" style="fill:#fff"/></g><path d="M411.88,389.43l-.19.18-.55.49-2.05,1.77c-1.74,1.48-4.18,3.5-6.91,5.67s-5.26,4.07-7.11,5.43l-2.19,1.59c-.23.16-.42.3-.61.42a.82.82,0,0,1-.21.14l.19-.16.59-.45c.58-.45,1.3-1,2.16-1.64,1.82-1.38,4.33-3.31,7.06-5.47s5.19-4.17,6.95-5.63L411.1,390l.57-.46Q411.87,389.42,411.88,389.43Z" style="fill:#263238"/><path d="M396.39,402.2a6.5,6.5,0,0,0-1.2-.7,5.24,5.24,0,0,0-1.37-.24,2,2,0,0,1,1.43.07A2,2,0,0,1,396.39,402.2Z" style="fill:#263238"/><path d="M398.45,397.72s-.34,0-.72-.16a1.81,1.81,0,0,1-.67-.32c0-.05.35,0,.73.15S398.47,397.67,398.45,397.72Z" style="fill:#263238"/><path d="M399,396.47s-.28.07-.63,0-.62-.08-.62-.13.29-.07.63-.05S399,396.42,399,396.47Z" style="fill:#263238"/><path d="M398.73,394.9s-.22.29-.55.56-.63.45-.66.41.21-.28.55-.55S398.7,394.86,398.73,394.9Z" style="fill:#263238"/><path d="M398.32,394a1.51,1.51,0,0,1-.53.73c-.37.35-.75.51-.77.46s.3-.26.65-.59S398.28,393.93,398.32,394Z" style="fill:#263238"/><path d="M397.25,397a2.74,2.74,0,0,1-.76.59,5.37,5.37,0,0,1-.93.46,2.72,2.72,0,0,1-.61.17.51.51,0,0,1-.37-.08.4.4,0,0,1-.13-.39,1.77,1.77,0,0,1,2-.95,1.9,1.9,0,0,1,.64.31.57.57,0,0,1,.18.19,2.66,2.66,0,0,0-.85-.37,1.66,1.66,0,0,0-1,.09,1.5,1.5,0,0,0-.85.77c-.05.18.11.28.3.26a2.84,2.84,0,0,0,.57-.16,5.86,5.86,0,0,0,.93-.41C396.94,397.22,397.23,397,397.25,397Z" style="fill:#263238"/><path d="M397.08,397.21a1,1,0,0,1-.5-.46,1.57,1.57,0,0,1-.22-.71,1,1,0,0,1,.32-.88.38.38,0,0,1,.5.17,1.08,1.08,0,0,1,.14.43,3.09,3.09,0,0,1,0,.74,1.39,1.39,0,0,1-.19.64s0-.25.06-.65a3.52,3.52,0,0,0,0-.7c0-.24-.18-.58-.4-.47s-.24.47-.24.71a1.56,1.56,0,0,0,.18.66A4.1,4.1,0,0,0,397.08,397.21Z" style="fill:#263238"/><path d="M409.11,386.42s-.36.23-.84.71a4.67,4.67,0,0,0-1.13,4.86c.22.64.47,1,.44,1s-.08-.07-.19-.24A3.71,3.71,0,0,1,407,392a4.53,4.53,0,0,1-.19-2.68,4.59,4.59,0,0,1,1.35-2.31,3.31,3.31,0,0,1,.66-.49C409,386.45,409.1,386.41,409.11,386.42Z" style="fill:#263238"/><path d="M404.05,382.51a25.4,25.4,0,0,1,2,2.32,23.13,23.13,0,0,1,1.86,2.44,27.38,27.38,0,0,1-2-2.32A28.06,28.06,0,0,1,404.05,382.51Z" style="fill:#263238"/><path d="M405.24,393.1a12.26,12.26,0,0,1-3.39,2.74s.77-.6,1.71-1.36S405.2,393.07,405.24,393.1Z" style="fill:#263238"/><path d="M407.53,391.29c.05,0,.06.21.12.45s.15.42.1.45-.2-.13-.27-.41S407.48,391.28,407.53,391.29Z" style="fill:#263238"/><path d="M407.54,389.53s.07.19,0,.41-.09.39-.13.38-.08-.18,0-.4S407.49,389.53,407.54,389.53Z" style="fill:#263238"/><path d="M408.39,388.07s-.13.16-.26.36-.17.38-.22.38-.09-.24.07-.48S408.37,388,408.39,388.07Z" style="fill:#263238"/><path d="M409.09,387.14s0,.14,0,.25-.16.19-.2.16,0-.14.05-.25S409,387.11,409.09,387.14Z" style="fill:#263238"/><g style="opacity:0.30000000000000004"><polygon points="408.85 386.12 397.02 395.15 395.92 393.73 408.35 385.3 408.85 386.12"/></g><path d="M344.1,402.53l0-8,14.9-.05.09,11.64-.92.06c-4.11.24-20.92.95-23.67.12C331.45,405.43,344.1,402.53,344.1,402.53Z" style="fill:#ebb31f"/><g style="opacity:0.4"><path d="M337.92,404.16s-4.43,1.3-3.87,2,17.56.66,25.06,0l0-.34-19.84.26S338.79,404.2,337.92,404.16Z" style="fill:#ebb31f"/></g><path d="M359.32,405.81l-.25,0-.74.05-2.71.13c-2.28.09-5.44.18-8.94.19s-6.65,0-8.94-.1L335,406l-.73,0-.26,0h1l2.71,0c2.29,0,5.45.07,8.94,0s6.65-.08,8.94-.14l2.71-.07h1Z" style="fill:#ebb31f"/><path d="M339.25,406.31a5.85,5.85,0,0,0-.51-1.29,5.6,5.6,0,0,0-.93-1,2.4,2.4,0,0,1,1.44,2.32Z" style="fill:#ebb31f"/><path d="M343.64,404.06s-.25-.23-.47-.57-.37-.64-.32-.67.25.23.47.57S343.68,404,343.64,404.06Z" style="fill:#ebb31f"/><path d="M344.84,403.42s-.27-.12-.52-.35-.44-.45-.41-.48.27.11.53.34S344.88,403.38,344.84,403.42Z" style="fill:#ebb31f"/><path d="M345.6,402a1.86,1.86,0,0,1-.78.1A1.68,1.68,0,0,1,344,402a1.86,1.86,0,0,1,.78-.1A1.68,1.68,0,0,1,345.6,402Z" style="fill:#ebb31f"/><path d="M345.86,401a1.52,1.52,0,0,1-.87.26,1.65,1.65,0,0,1-.9-.11,4,4,0,0,1,.89-.07A5.79,5.79,0,0,1,345.86,401Z" style="fill:#ebb31f"/><path d="M343.13,402.76a2.71,2.71,0,0,1-1,0,5.24,5.24,0,0,1-1-.22,2.55,2.55,0,0,1-.58-.24.47.47,0,0,1-.24-.29.38.38,0,0,1,.14-.39,1.75,1.75,0,0,1,2.17.51,1.69,1.69,0,0,1,.32.63c0,.17,0,.26,0,.26a2.63,2.63,0,0,0-.43-.81,1.72,1.72,0,0,0-.82-.53,1.53,1.53,0,0,0-1.15.08c-.15.12-.09.29.08.39a2.14,2.14,0,0,0,.54.23,5.74,5.74,0,0,0,1,.25C342.76,402.73,343.13,402.73,343.13,402.76Z" style="fill:#ebb31f"/><path d="M342.88,402.81a.92.92,0,0,1-.11-.66,1.61,1.61,0,0,1,.25-.7,1,1,0,0,1,.8-.5.39.39,0,0,1,.3.45,1.05,1.05,0,0,1-.16.42,3.92,3.92,0,0,1-.45.59,1.32,1.32,0,0,1-.55.38s.19-.17.45-.47a3.08,3.08,0,0,0,.4-.58c.13-.2.22-.56,0-.61s-.48.22-.63.41a1.62,1.62,0,0,0-.27.63A3.22,3.22,0,0,0,342.88,402.81Z" style="fill:#ebb31f"/><path d="M359,401.74s-.43,0-1.1,0a4.91,4.91,0,0,0-2.4,1,4.84,4.84,0,0,0-1.49,2.13c-.22.64-.24,1.07-.28,1.06a1.13,1.13,0,0,1,0-.3,4.28,4.28,0,0,1,.16-.8,4.61,4.61,0,0,1,1.5-2.23,4.67,4.67,0,0,1,2.5-1,5.05,5.05,0,0,1,.82,0A.92.92,0,0,1,359,401.74Z" style="fill:#ebb31f"/><path d="M357.43,395.55a26.24,26.24,0,0,1,.14,3.05,25.49,25.49,0,0,1,0,3.07,26.71,26.71,0,0,1-.14-3.06A25.37,25.37,0,0,1,357.43,395.55Z" style="fill:#ebb31f"/><path d="M351.83,404.61a7.84,7.84,0,0,1-2.17.23,8,8,0,0,1-2.18-.17c0-.05,1,0,2.17,0S351.82,404.56,351.83,404.61Z" style="fill:#ebb31f"/><path d="M354.75,404.6s-.08.2-.18.43-.15.42-.2.42-.08-.24,0-.5S354.72,404.56,354.75,404.6Z" style="fill:#ebb31f"/><path d="M355.84,403.22s-.06.19-.21.35-.31.26-.34.22.06-.19.21-.35S355.81,403.19,355.84,403.22Z" style="fill:#ebb31f"/><path d="M357.42,402.59c0,.05-.21.05-.43.13s-.38.19-.42.16.09-.24.36-.33S357.43,402.55,357.42,402.59Z" style="fill:#ebb31f"/><path d="M358.54,402.29s-.07.12-.19.17-.24.05-.26,0,.07-.13.19-.17S358.52,402.25,358.54,402.29Z" style="fill:#ebb31f"/><g style="opacity:0.30000000000000004"><polygon points="359.11 401.14 344.09 401.15 344.11 399.36 359.06 399.26 359.11 401.14"/></g><path d="M380.88,265.24l-6,18c-1.61,4.85-5.85,5.68-11,5.68H330.76v-7.44l30.32-4.33,7.23-18.46Z" style="fill:#b78876"/><path d="M327.11,279.9l-2.63-1.25s-2.83-5.48-3.49-5.26-.84,1.83.3,4.35l-3.5-1s-7.58,3.51-7.25,4a1.75,1.75,0,0,0,2.61.74c1.65-.84,3.82-1.83,3.82-1.83l4.08,1.17-5.27.66L310.83,286a2.43,2.43,0,0,0,3-.07l12.87,2.76,4,.23v-7.44Z" style="fill:#b78876"/><path d="M313.86,285.9c.05,0,.29-.35.76-.85a3.2,3.2,0,0,1,2.32-1.09,19,19,0,0,0,3.87-.66,19.66,19.66,0,0,0-3.92.26,3.88,3.88,0,0,0-1.52.44,3.62,3.62,0,0,0-1,.86A2.24,2.24,0,0,0,313.86,285.9Z" style="fill:#aa6550"/><path d="M315.87,286.42c.05,0,.09-.27.45-.35s1-.13,1.57-.2a11.72,11.72,0,0,0,2.26-.23,4.62,4.62,0,0,0-2.3-.17,6.87,6.87,0,0,0-1.62.33.62.62,0,0,0-.39.41C315.8,286.35,315.85,286.42,315.87,286.42Z" style="fill:#aa6550"/><path d="M383.69,261.33,381.14,270l-16.2-7.33c.58-1.81,3.26-9.87,8.39-22.67a22,22,0,0,1,16.79-13.53,96.14,96.14,0,0,1,15.51-1.52c9.08.1,22.45,5.78,24.25,14.68,1.37,6.8.05,18.8.05,33.37l-1.19,27.86-46.54,1.58Z" style="fill:#45c2e3"/><g style="opacity:0.30000000000000004"><path d="M429.88,266.53c-5.66,1.16-11.48,0-17.25-.35-3.5-.21-7.38-.59-10.15,1.56-2.19,1.71-3.08,4.57-3.71,7.28-2.42,10.32-2.85,17.23-3.4,27.81l28,1.7Z"/></g><path d="M382.5,231.09s.46.07,1.23.38a6.36,6.36,0,0,1,2.68,2.17,9.05,9.05,0,0,1,1.61,4.85,31.41,31.41,0,0,1-.49,6.38,108.67,108.67,0,0,1-2.6,11.41c-.39,1.39-.7,2.55-.94,3.42a7.61,7.61,0,0,0-.3,1.27,9.4,9.4,0,0,0,.45-1.22c.26-.8.63-2,1.06-3.4a90.15,90.15,0,0,0,2.73-11.42,29.87,29.87,0,0,0,.46-6.47,9.16,9.16,0,0,0-1.75-5,6.34,6.34,0,0,0-2.85-2.14,4.81,4.81,0,0,0-1-.22A1.24,1.24,0,0,0,382.5,231.09Z" style="fill:#263238"/><path d="M365.45,260.43a14.48,14.48,0,0,0,2.28,1.31c1.44.76,3.45,1.75,5.71,2.77s4.34,1.87,5.85,2.45a15.43,15.43,0,0,0,2.49.84,19.14,19.14,0,0,0-2.38-1.11c-1.49-.64-3.54-1.53-5.8-2.55s-4.28-2-5.75-2.65A19,19,0,0,0,365.45,260.43Z" style="fill:#263238"/><path d="M358,304.53a16.59,16.59,0,0,0-6.77,22.22l40.51,69.55L410.45,385,379,322.21l22.8-14.88" style="fill:#263238"/><path d="M407.35,301.08l-55.61,2a16.58,16.58,0,0,0-16,16.83l2.31,79.43,23.39-.05-.78-75.1,46.69-1.23Z" style="fill:#263238"/><path d="M360.66,326.88a4.63,4.63,0,0,1,.06.73c0,.53.06,1.24.09,2.11.07,1.83.14,4.48.21,7.76.14,6.54.24,15.59.29,25.59s.09,19,.13,25.59c0,3.23,0,5.87,0,7.76,0,.87,0,1.57,0,2.11a4.55,4.55,0,0,1,0,.73,3.81,3.81,0,0,1-.07-.73c0-.53-.05-1.23-.09-2.11-.07-1.83-.14-4.48-.21-7.75-.14-6.55-.23-15.6-.28-25.6s-.1-19-.14-25.59c0-3.23,0-5.87,0-7.76,0-.87,0-1.57,0-2.11A3.74,3.74,0,0,1,360.66,326.88Z" style="fill:#455a64"/><path d="M431.44,250.67H414.62a12.27,12.27,0,0,0-12.27,12.27v58.7H368.74a8.49,8.49,0,0,0-8.49,8.49H437v-.05a7,7,0,0,0,6.71-7V262.94A12.27,12.27,0,0,0,431.44,250.67Z" style="fill:#455a64"/><path d="M407.25,252.61c.14,0,.26,17.25.26,38.53s-.12,38.53-.26,38.53-.26-17.25-.26-38.53S407.1,252.61,407.25,252.61Z" style="fill:#263238"/><path d="M405.12,391.74V330.16h-5.47v61.58c-3.34,6.59-11.19,11-20.75,14.69h48.76C417.76,402.4,408.82,399.31,405.12,391.74Z" style="fill:#455a64"/><path d="M97.06,383.77a1.72,1.72,0,0,1,.15-.36l.49-1.05a25.55,25.55,0,0,0,1.44-4.18A36.91,36.91,0,0,0,99,362a87.11,87.11,0,0,0-3-10.85c-1.27-3.85-2.74-7.94-3.94-12.35a47.84,47.84,0,0,1-2-14.2c.18-5,1.67-10,3.31-15s3.32-9.89,3.82-14.8a22.6,22.6,0,0,0-2.71-13.67c-2.17-4-4.89-7.4-6.93-10.93a38.23,38.23,0,0,1-4.16-10.51,39,39,0,0,1-.26-16.29,30.56,30.56,0,0,1,1.69-5.75,1.42,1.42,0,0,1-.1.38c-.08.28-.19.64-.34,1.11a42,42,0,0,0-1.06,4.3,39.77,39.77,0,0,0,.43,16.16A37.8,37.8,0,0,0,88,270c2,3.49,4.77,6.89,7,10.92a23.05,23.05,0,0,1,2.8,14c-.51,5-2.21,9.92-3.84,14.91s-3.1,9.95-3.29,14.89a47.39,47.39,0,0,0,1.9,14.05c1.18,4.4,2.64,8.48,3.89,12.34A86.85,86.85,0,0,1,99.38,362a36.54,36.54,0,0,1,0,16.27,25.53,25.53,0,0,1-1.54,4.18l-.54,1A2.11,2.11,0,0,1,97.06,383.77Z" style="fill:#263238"/><path d="M90.39,273.68s-4.14-13.23,3.29-21a.45.45,0,0,1,.78.22C94.86,255.11,95.36,261.77,90.39,273.68Z" style="fill:#45c2e3"/><path d="M92.87,257.11a12.37,12.37,0,0,1-.28,2.44l-.94,5.84c-.35,2.18-.66,4.15-.93,5.83a13,13,0,0,1-.44,2.42,10.59,10.59,0,0,1,.08-2.46c.13-1.51.4-3.59.78-5.88s.77-4.34,1.09-5.82A10.59,10.59,0,0,1,92.87,257.11Z" style="fill:#263238"/><path d="M95.25,304.9s2.53-13.64,12.72-17a.46.46,0,0,1,.59.56C107.89,290.57,105.21,296.69,95.25,304.9Z" style="fill:#45c2e3"/><path d="M105.2,291.41a13.28,13.28,0,0,1-1.39,2c-1,1.36-2.23,3-3.57,4.72s-2.52,3.37-3.55,4.73a14.56,14.56,0,0,1-1.51,1.93,10,10,0,0,1,1.21-2.14c.83-1.27,2-3,3.44-4.83s2.71-3.48,3.69-4.63A10.45,10.45,0,0,1,105.2,291.41Z" style="fill:#263238"/><path d="M92.5,339.1s-1.54-13.78,7.23-20a.46.46,0,0,1,.73.37C100.43,321.72,99.65,328.35,92.5,339.1Z" style="fill:#45c2e3"/><path d="M98.1,323.3a13,13,0,0,1-.74,2.35c-.59,1.6-1.28,3.47-2,5.55s-1.44,3.95-2,5.55A11.91,11.91,0,0,1,92.4,339a10.49,10.49,0,0,1,.54-2.4c.43-1.46,1.09-3.45,1.89-5.62s1.59-4.11,2.19-5.51A11.2,11.2,0,0,1,98.1,323.3Z" style="fill:#263238"/><path d="M100.17,373.51s-1-13.83,7.94-19.7a.46.46,0,0,1,.72.39C108.72,356.42,107.7,363,100.17,373.51Z" style="fill:#45c2e3"/><path d="M106.33,357.92a11.9,11.9,0,0,1-.82,2.32c-.65,1.57-1.4,3.42-2.24,5.47l-2.22,5.48a14.12,14.12,0,0,1-1,2.25,9.5,9.5,0,0,1,.63-2.38c.47-1.44,1.2-3.41,2.08-5.55s1.73-4.05,2.38-5.42A11.42,11.42,0,0,1,106.33,357.92Z" style="fill:#263238"/><path d="M84.44,262.05s-12.29-6.42-12.53-17.15a.46.46,0,0,1,.72-.39C74.45,245.77,79.52,250.12,84.44,262.05Z" style="fill:#45c2e3"/><path d="M74.46,248.59A11.69,11.69,0,0,1,76,250.51l3.47,4.79c1.3,1.79,2.47,3.41,3.48,4.78a15,15,0,0,1,1.4,2,10.35,10.35,0,0,1-1.69-1.79c-1-1.17-2.26-2.82-3.61-4.7s-2.53-3.61-3.35-4.89A11.22,11.22,0,0,1,74.46,248.59Z" style="fill:#263238"/><path d="M97.64,290.48S85,284.82,84.09,274.12a.46.46,0,0,1,.69-.44C86.68,274.83,92,278.87,97.64,290.48Z" style="fill:#45c2e3"/><path d="M86.86,277.65a11.49,11.49,0,0,1,1.65,1.82L92.26,284c1.4,1.71,2.68,3.25,3.76,4.56a13.9,13.9,0,0,1,1.52,1.93,10.08,10.08,0,0,1-1.8-1.68c-1-1.11-2.42-2.69-3.88-4.48s-2.75-3.45-3.64-4.67A11.89,11.89,0,0,1,86.86,277.65Z" style="fill:#263238"/><path d="M90.36,322.18s-8.69-10.8-4.62-20.73a.46.46,0,0,1,.82-.08C87.73,303.26,90.62,309.28,90.36,322.18Z" style="fill:#45c2e3"/><path d="M86.61,305.85a12.32,12.32,0,0,1,.63,2.37c.36,1.67.79,3.62,1.25,5.78l1.28,5.77a14,14,0,0,1,.47,2.41,10.67,10.67,0,0,1-.83-2.31c-.42-1.46-.94-3.5-1.42-5.76s-.87-4.32-1.11-5.82A10.94,10.94,0,0,1,86.61,305.85Z" style="fill:#263238"/><path d="M99,359.49s-12.56-5.87-13.28-16.58a.46.46,0,0,1,.7-.43C88.27,343.67,93.52,347.79,99,359.49Z" style="fill:#45c2e3"/><path d="M88.41,346.48A13,13,0,0,1,90,348.33L93.69,353l3.69,4.62a13,13,0,0,1,1.48,2,10.13,10.13,0,0,1-1.76-1.71c-1-1.12-2.38-2.72-3.81-4.54s-2.69-3.5-3.56-4.73A10.61,10.61,0,0,1,88.41,346.48Z" style="fill:#263238"/><path d="M124,305a1.09,1.09,0,0,1,0,.31c0,.24,0,.53,0,.88,0,.84-.08,2-.14,3.37-.17,3-.39,7.07-.66,12v0h0c-.89,5-3.45,10.58-6.88,16-2.52,4-5.16,7.6-7.44,11a77.91,77.91,0,0,0-5.57,9.21,38.79,38.79,0,0,0-2.61,6.76c-.22.83-.38,1.48-.48,1.92a3.35,3.35,0,0,1-.18.67,3.2,3.2,0,0,1,.08-.69c.06-.45.2-1.11.39-1.95a35.42,35.42,0,0,1,2.47-6.87,74,74,0,0,1,5.51-9.32c2.26-3.38,4.88-7,7.39-11,3.41-5.38,6-10.85,6.89-15.79v0c.35-4.93.64-9.05.85-12q.17-2.1.27-3.36c0-.35.06-.64.09-.88A1,1,0,0,1,124,305Z" style="fill:#263238"/><path d="M116.51,336.51s5.32-12.81-1.37-21.2a.47.47,0,0,0-.81.16C113.74,317.61,112.64,324.2,116.51,336.51Z" style="fill:#45c2e3"/><path d="M115.54,319.78a10.62,10.62,0,0,1,.42,2.42c.19,1.51.4,3.59.57,5.9s.24,4.4.24,5.92a9.87,9.87,0,0,1-.15,2.46,13.86,13.86,0,0,1-.22-2.45c-.11-1.7-.24-3.69-.39-5.9s-.29-4.19-.41-5.89A12,12,0,0,1,115.54,319.78Z" style="fill:#263238"/><g style="opacity:0.30000000000000004"><path d="M116.51,336.51s5.32-12.81-1.37-21.2a.47.47,0,0,0-.81.16C113.74,317.61,112.64,324.2,116.51,336.51Z"/></g><path d="M100,367.37s4.27-13.2-3.08-21a.46.46,0,0,0-.79.21C95.74,348.76,95.18,355.41,100,367.37Z" style="fill:#45c2e3"/><path d="M97.71,350.77a11.15,11.15,0,0,1,.62,2.38c.31,1.49.68,3.55,1,5.83s.6,4.37.72,5.89a10,10,0,0,1,0,2.46,13.43,13.43,0,0,1-.42-2.42c-.25-1.68-.54-3.66-.87-5.85s-.63-4.16-.89-5.84A12.5,12.5,0,0,1,97.71,350.77Z" style="fill:#263238"/><g style="opacity:0.30000000000000004"><path d="M100,367.37s4.27-13.2-3.08-21a.46.46,0,0,0-.79.21C95.74,348.76,95.18,355.41,100,367.37Z"/></g><path d="M123.29,320.86s11.36-7.95,10.21-18.62a.45.45,0,0,0-.76-.3C131.09,303.42,126.63,308.39,123.29,320.86Z" style="fill:#45c2e3"/><g style="opacity:0.30000000000000004"><path d="M123.29,320.86s11.36-7.95,10.21-18.62a.45.45,0,0,0-.76-.3C131.09,303.42,126.63,308.39,123.29,320.86Z"/></g><path d="M131.44,306.22a10.42,10.42,0,0,1-.94,2.27c-.65,1.37-1.59,3.24-2.69,5.28s-2.15,3.85-3,5.13a10.56,10.56,0,0,1-1.44,2,12.21,12.21,0,0,1,1.13-2.18l2.83-5.19,2.81-5.2A13.58,13.58,0,0,1,131.44,306.22Z" style="fill:#263238"/><path d="M104.61,354.29s13.7-2.14,17.37-12.22a.46.46,0,0,0-.55-.61C119.3,342.07,113.11,344.57,104.61,354.29Z" style="fill:#45c2e3"/><g style="opacity:0.30000000000000004"><path d="M104.61,354.29s13.7-2.14,17.37-12.22a.46.46,0,0,0-.55-.61C119.3,342.07,113.11,344.57,104.61,354.29Z"/></g><path d="M118.38,344.74a10.41,10.41,0,0,1-1.84,1.62c-1.19.95-2.86,2.21-4.74,3.56s-3.63,2.5-4.93,3.29a11.21,11.21,0,0,1-2.17,1.16,12.46,12.46,0,0,1,2-1.46l4.83-3.41,4.82-3.43A12.12,12.12,0,0,1,118.38,344.74Z" style="fill:#263238"/><polygon points="91.54 379.5 87.54 406.4 112.45 406.4 109.22 379.5 91.54 379.5" style="fill:#455a64"/><path d="M110.22,387.84a98.46,98.46,0,0,1-10,.26,98.58,98.58,0,0,1-10.05-.26,98.58,98.58,0,0,1,10.05-.26A98.46,98.46,0,0,1,110.22,387.84Z" style="fill:#263238"/><path d="M110.71,390c0,.14-4.64.26-10.37.26S90,390.12,90,390s4.64-.26,10.37-.26S110.71,389.84,110.71,390Z" style="fill:#263238"/></g></svg>