<svg id="Layer_1" data-name="Layer 1" xmlns="http://www.w3.org/2000/svg" viewBox="0 0 24 24"><title>udin</title><path d="M5.73,22.52a4.27,4.27,0,0,1-1.06-.13.35.35,0,0,1-.25-.25.33.33,0,0,1,.09-.34l1.24-1.25a1.63,1.63,0,0,0-2.3-2.31L2.2,19.49a.36.36,0,0,1-.34.09.35.35,0,0,1-.25-.25A4.26,4.26,0,0,1,7.06,14.2L14.2,7.06a4.26,4.26,0,0,1,5.13-5.45.34.34,0,0,1,.25.25.33.33,0,0,1-.09.34L18.25,3.45a1.59,1.59,0,0,0-.48,1.15,1.63,1.63,0,0,0,2.78,1.15L21.8,4.51a.33.33,0,0,1,.34-.09.35.35,0,0,1,.25.25,4.26,4.26,0,0,1-5.45,5.12L9.8,16.94a4.28,4.28,0,0,1-1,4.34A4.33,4.33,0,0,1,5.73,22.52Zm-.24-.71A3.56,3.56,0,0,0,9.06,17a.34.34,0,0,1,.08-.37L16.6,9.14A.36.36,0,0,1,17,9.06a3.55,3.55,0,0,0,4.83-3.57l-.76.76a2.34,2.34,0,0,1-3.3,0,2.32,2.32,0,0,1,0-3.3l.76-.76A3.55,3.55,0,0,0,14.94,7a.36.36,0,0,1-.08.38L7.4,14.86a.36.36,0,0,1-.38.08A3.55,3.55,0,0,0,2.19,18.5L3,17.74a2.34,2.34,0,0,1,4,1.66,2.29,2.29,0,0,1-.69,1.65Z" style="fill:#a7a9ac"/><path d="M9.41,5.33a.35.35,0,0,1-.25-.1L7.23,3.3a.35.35,0,0,1,0-.5L8.48,1.55a.37.37,0,0,1,.5,0l1.93,1.93a.35.35,0,0,1,.1.25.32.32,0,0,1-.1.25L9.66,5.23A.35.35,0,0,1,9.41,5.33ZM8,3.05,9.41,4.48l.75-.75L8.73,2.3Z" style="fill:#a7a9ac"/><path d="M3.63,13.61a.37.37,0,0,1-.33-.22A6.62,6.62,0,0,1,5.74,4.71,8.77,8.77,0,0,0,7.25,3.48l.33-.33a.37.37,0,0,1,.5,0L9.24,4.31a.35.35,0,0,1,0,.45L8.36,6.1a.56.56,0,0,0,.06.7L9.81,8.18a.37.37,0,0,1,0,.5L7.48,11A.35.35,0,0,1,7,11L5.56,9.58a.51.51,0,0,0-.44-.16.69.69,0,0,0-.47.38A10.05,10.05,0,0,0,4,13.26a.35.35,0,0,1-.29.34ZM7.83,3.9,7.75,4A10.18,10.18,0,0,1,6.13,5.31a5.84,5.84,0,0,0-2.7,6.22A6.87,6.87,0,0,1,4,9.47a1.39,1.39,0,0,1,1-.75,1.24,1.24,0,0,1,1,.36l1.17,1.17L9.06,8.43,7.93,7.3a1.26,1.26,0,0,1-.15-1.6l.75-1.1Z" style="fill:#a7a9ac"/><path d="M9.46,12.66a.33.33,0,0,1-.25-.11L7.32,10.67a.35.35,0,0,1,0-.5L9,8.45a.36.36,0,0,1,.49,0l1.89,1.89a.35.35,0,0,1,0,.5L9.71,12.55A.36.36,0,0,1,9.46,12.66ZM8.07,10.42,9.46,11.8l1.21-1.21L9.29,9.2Z" style="fill:#a7a9ac"/><path d="M19.85,22.55a1.59,1.59,0,0,1-1.11-.46l-7.3-7.3a.36.36,0,0,1-.1-.25.39.39,0,0,1,.1-.25l1.72-1.71a.35.35,0,0,1,.5,0L21,19.87a1.58,1.58,0,0,1,0,2.22A1.59,1.59,0,0,1,19.85,22.55Zm-7.66-8,7,7.05a.86.86,0,1,0,1.22-1.22l-7-7Z" style="fill:#a7a9ac"/><path d="M13.48,16.68a.35.35,0,0,1-.25-.6L15,14.36a.35.35,0,0,1,.5,0,.37.37,0,0,1,0,.5l-1.72,1.72A.35.35,0,0,1,13.48,16.68Z" style="fill:#a7a9ac"/></svg>