<svg id="Layer_1" data-name="Layer 1" xmlns="http://www.w3.org/2000/svg" viewBox="0 0 24 24"><title>udin</title><path d="M19.18,3.51H17.23V2.2a.66.66,0,0,0-.66-.65.65.65,0,0,0-.65.65V3.51H8.08V2.2a.65.65,0,0,0-.65-.65.66.66,0,0,0-.66.65V3.51H4.82A3.26,3.26,0,0,0,1.55,6.77V19.18a3.26,3.26,0,0,0,3.27,3.27H19.18a3.26,3.26,0,0,0,3.27-3.27V6.77A3.26,3.26,0,0,0,19.18,3.51ZM4.82,4.82H6.77v.65a.66.66,0,0,0,.66.65.65.65,0,0,0,.65-.65V4.82h7.84v.65a.65.65,0,0,0,.65.65.66.66,0,0,0,.66-.65V4.82h1.95a2,2,0,0,1,2,1.95V8.09H2.86V6.77A2,2,0,0,1,4.82,4.82ZM19.18,21.14H4.82a2,2,0,0,1-2-2V9.38H21.14v9.8A2,2,0,0,1,19.18,21.14Z" style="fill:#a7a9ac"/><path d="M12.72,11.9v6H11.34V13h-1.2V11.9Z" style="fill:#a7a9ac"/></svg>