<svg id="Layer_1" data-name="Layer 1" xmlns="http://www.w3.org/2000/svg" viewBox="0 0 24 24"><title>icon</title><path d="M21.53,13.06c-.07-.44-.14-.88-.2-1.33,0-.13,0-.27,0-.41l-.09-.58c-.06-.38-.12-.77-.16-1.15A4,4,0,0,1,21,9c0-.19-.07-.38-.11-.58s-.12-.35-.19-.53A3.79,3.79,0,0,0,18.87,6l-.58-.22-.58-.12-.58,0H15.39l-.57.08-.58.18a2.79,2.79,0,0,0-1.16.76,6.46,6.46,0,0,0-.72,1H12l-.37,0a4,4,0,0,0-1.21-1.47,3.61,3.61,0,0,0-.81-.43A6.9,6.9,0,0,0,7.4,5.46a5.57,5.57,0,0,0-3.34.86l-.24.18-.23.23-.35.46a.16.16,0,0,1-.06.08l-.3.58c-.06.16-.13.32-.2.49s0,.08-.05.09A2.23,2.23,0,0,1,2.51,9c0,.2,0,.39-.07.58s0,.39,0,.58a5.61,5.61,0,0,1,0,.58,5.61,5.61,0,0,1,0,.58,5.61,5.61,0,0,1,0,.58q0,.87,0,1.74a3.62,3.62,0,0,1,0,.57,2.28,2.28,0,0,0,.17.58.15.15,0,0,1,.06.09,1.77,1.77,0,0,0,.53.49l.05,0a1.92,1.92,0,0,0,.57.15,1.81,1.81,0,0,0,.62-.13l0,.54a3.71,3.71,0,0,1,0,.58,3.76,3.76,0,0,1,0,.58c0,.19,0,.39,0,.58l0,.58,0,.58,0,.58a3.82,3.82,0,0,1,0,.58,3.62,3.62,0,0,1,0,.57,3.69,3.69,0,0,1,0,.58,2.79,2.79,0,0,1,0,.58,5.52,5.52,0,0,1,0,.58,2.25,2.25,0,0,0,.08.58A1.67,1.67,0,0,0,6.13,24a2.27,2.27,0,0,0,.57-.26,1.77,1.77,0,0,0,.62-.9,1.93,1.93,0,0,0,.37.68l.18.16a2.13,2.13,0,0,0,.58.3A2.76,2.76,0,0,0,9,24a2.91,2.91,0,0,0,.58-.15,2.75,2.75,0,0,0,.44-.32c.09-.09.11,0,.15,0a1.44,1.44,0,0,0,1.73.22c.1-.07.2-.2.3-.2s.18.13.28.2a2,2,0,0,0,.58.2,2.29,2.29,0,0,0,.58-.06,1.19,1.19,0,0,0,.25-.13c.16-.13.27-.11.44,0a1.2,1.2,0,0,0,1,.13,1.7,1.7,0,0,0,.43-.26c.08-.08.11,0,.16.05a1.3,1.3,0,0,0,1.11.23,1.4,1.4,0,0,0,.62-.39l.07-.1A1.65,1.65,0,0,0,18,22.9a3.8,3.8,0,0,1,.06-.58l.06-.58c0-.19.05-.38.07-.58,0-.38.07-.77.13-1.16a5.51,5.51,0,0,1,.06-.57l.06-.58a5.93,5.93,0,0,1,.07-.59,3.7,3.7,0,0,1,.07-.57c0-.23-.06-.22.29-.2h.58A1.58,1.58,0,0,0,20,17.4a1.47,1.47,0,0,0,.32-.29,1,1,0,0,0,.12-.58,3.68,3.68,0,0,1-.08-.58c0-.15-.05-.31-.07-.47a.08.08,0,0,1,.06-.11,2,2,0,0,0,.79-.59,2.69,2.69,0,0,0,.34-.65.42.42,0,0,1,0-.15v-.14A4,4,0,0,0,21.53,13.06ZM10.93,9a1.07,1.07,0,0,1,.41-.32,1.18,1.18,0,0,1,.58-.16,1.16,1.16,0,0,1,.58.09,1.18,1.18,0,0,1,.6.41,1.42,1.42,0,0,1,.35,1.17,1.43,1.43,0,0,1-.95,1.16.24.24,0,0,1-.12,0,1.27,1.27,0,0,1-1-.11,1.13,1.13,0,0,1-.53-.46A1.42,1.42,0,0,1,10.93,9Zm3.2,1a.81.81,0,0,1,0,.16A.81.81,0,0,0,14.13,10Zm0,.2a.51.51,0,0,1,0,.13A.51.51,0,0,0,14.12,10.22Zm0,.16,0,.15Zm0,.18,0,.12Zm-.05.17Zm0,.11h0Zm-.05.11h0Zm.32,7.34h-.09a.49.49,0,0,0-.32.55v3.47a2.43,2.43,0,0,1,0,.27.59.59,0,0,1-.75.56.46.46,0,0,1-.33-.21.15.15,0,0,1-.06-.09.37.37,0,0,1-.06-.21.36.36,0,0,1,0-.18v-3c0-.2,0-.41-.09-.58l0,0a.41.41,0,0,0-.58,0l0,0c-.13.17-.07.38-.09.58v2.31c0,.29,0,.58,0,.87a.57.57,0,0,1-.46.54.6.6,0,0,1-.76-.54c0-.1,0-.19,0-.29V18.85a1.54,1.54,0,0,0,0-.3.46.46,0,0,0-.28-.25h-.09a.39.39,0,0,1-.41-.42,1.09,1.09,0,0,1,0-.18,2.81,2.81,0,0,1,0-.58,2.81,2.81,0,0,1,0-.58,2.81,2.81,0,0,1,0-.58,2.81,2.81,0,0,1,0-.58,2.82,2.82,0,0,1,0-.58,1.33,1.33,0,0,1,.16-.58,1,1,0,0,1,.2-.34,2.31,2.31,0,0,1,.61-.57,3,3,0,0,1,2.69-.12,2.25,2.25,0,0,1,.53.34l.1.11a.64.64,0,0,1,.16.2,1.14,1.14,0,0,1,.23.38,1.48,1.48,0,0,1,.16.58,2.82,2.82,0,0,1,0,.58,5.61,5.61,0,0,1,0,.58,5.61,5.61,0,0,1,0,.58,5.61,5.61,0,0,1,0,.58,5.61,5.61,0,0,1,0,.58.66.66,0,0,1,0,.34A.38.38,0,0,1,14.24,18.29Zm1.23.64c0,1.24,0,2.47,0,3.71a.37.37,0,0,1-.06.27.45.45,0,0,1-.72.15s-.08-.09-.07-.15a5.68,5.68,0,0,0,0-1.09V19.21c0-.14,0-.21.16-.23l.09-.05a.15.15,0,0,1,.09-.06s0,0,0,0a1.57,1.57,0,0,0,.46-.72Zm2.27-1.3v.06a3.8,3.8,0,0,1-.06.58c0,.19-.05.38-.07.58a5.7,5.7,0,0,1-.06.58,3.83,3.83,0,0,1-.07.58,3.68,3.68,0,0,1-.06.57,5.42,5.42,0,0,1-.06.58c0,.2,0,.39-.07.58l-.06.58c0,.14,0,.29,0,.43s-.18.43-.42.43a.49.49,0,0,1-.48-.44c0-.14,0-.28,0-.42a5.61,5.61,0,0,1,0-.58,5.61,5.61,0,0,1,0-.58,5.61,5.61,0,0,1,0-.58,5.61,5.61,0,0,1,0-.58,5.42,5.42,0,0,1,0-.57,5.61,5.61,0,0,1,0-.58,5.61,5.61,0,0,1,0-.58,5.61,5.61,0,0,1,0-.58c0-.24-.07-.21.26-.2h1.16C17.83,17.51,17.75,17.58,17.74,17.63Zm2.55-3.14c-.06,0-.11.09-.13,0s-.06-.54-.1-.81c-.1-.78-.21-1.55-.31-2.32a3.68,3.68,0,0,1-.08-.58,5.4,5.4,0,0,1-.08-.58,5.4,5.4,0,0,1-.08-.58c0-.19-.05-.38-.08-.58a.77.77,0,0,1,0-.15A.42.42,0,0,0,19,8.48a.4.4,0,0,0-.35.45V9c0,.2.06.39.07.58a3.85,3.85,0,0,1,.08.58,2.89,2.89,0,0,1,.08.58,4.91,4.91,0,0,1,.09.67c.06.35.12.71.15,1.07a5.4,5.4,0,0,1,.08.58,5.54,5.54,0,0,1,.07.57,4,4,0,0,1,.08.58,3.85,3.85,0,0,1,.08.58c0,.2.06.39.08.58s0,.1,0,.15a3,3,0,0,1,.06.43l.09.64c0,.07,0,.08-.07.08h-.69q-.87,0-1.74,0a5.61,5.61,0,0,1-.58,0,5.61,5.61,0,0,1-.58,0h-.38c-.11,0-.15,0-.11-.14a2.81,2.81,0,0,1,0-.58,2.81,2.81,0,0,1,0-.58c0-.19,0-.38,0-.58a3.31,3.31,0,0,0-.33-1.11,2.52,2.52,0,0,0-.67-.81,3.79,3.79,0,0,0-3.69-.49,3.12,3.12,0,0,0-.75.44,3.16,3.16,0,0,0-.73.85A3.44,3.44,0,0,0,9,14.79l0,.58a2.81,2.81,0,0,1,0,.58,2.81,2.81,0,0,1,0,.58,2.81,2.81,0,0,1,0,.58,2.81,2.81,0,0,1,0,.58,3.8,3.8,0,0,0,.06.58,1.46,1.46,0,0,0,.61.71c.13,0,.17.09.16.23,0,.46,0,.91,0,1.37a5.61,5.61,0,0,1,0,.58,5.61,5.61,0,0,1,0,.58,3.37,3.37,0,0,1,0,.71.88.88,0,0,1-.81.73.81.81,0,0,1-.82-.58.86.86,0,0,1,0-.28l0-.58,0-.58,0-.58L8,20l0-.57,0-.58a.6.6,0,0,1,0-.23.1.1,0,0,1,0-.09.76.76,0,0,1,0-.26,3.76,3.76,0,0,1,0-.58,2.35,2.35,0,0,1,0-.26,1.17,1.17,0,0,1,0-.32l0-.58-.06-1a.4.4,0,0,0-.47-.42.47.47,0,0,0-.32.24c-.05.19,0,.39-.06.58a3.71,3.71,0,0,1,0,.58c0,.77-.07,1.55-.12,2.32a5.78,5.78,0,0,1,0,.58,5.44,5.44,0,0,1,0,.57,5.49,5.49,0,0,1,0,.58,3.69,3.69,0,0,1,0,.58,3.69,3.69,0,0,1,0,.58,3.69,3.69,0,0,1,0,.58.81.81,0,0,1-1,.83.64.64,0,0,1-.38-.22A.73.73,0,0,1,5,22.32a2.82,2.82,0,0,1,0-.58,3.76,3.76,0,0,1,0-.58,3.75,3.75,0,0,1,0-.58c0-.19,0-.38,0-.57l0-.58,0-.58a5.52,5.52,0,0,1,0-.58,3.69,3.69,0,0,1,0-.58,3.75,3.75,0,0,1,0-.58,3.76,3.76,0,0,1,0-.58,3.76,3.76,0,0,1,0-.58c0-.19,0-.38,0-.58l0-.58c0-.19,0-.38,0-.57V9.58a2.73,2.73,0,0,0,0-.57A.55.55,0,0,0,5,8.78.47.47,0,0,0,4.51,9a2.83,2.83,0,0,0,0,.58v4.06a2.56,2.56,0,0,1,0,.62.59.59,0,0,1-.64.45.58.58,0,0,1-.54-.5,2.72,2.72,0,0,1,0-.57,5.61,5.61,0,0,1,0-.58,5.61,5.61,0,0,1,0-.58,5.61,5.61,0,0,1,0-.58,5.61,5.61,0,0,1,0-.58,5.61,5.61,0,0,1,0-.58,5.61,5.61,0,0,1,0-.58,3.75,3.75,0,0,1,0-.58A2.8,2.8,0,0,1,3.36,9a3,3,0,0,1,.18-.58,2,2,0,0,1,.24-.52.14.14,0,0,1,.05-.1A2.44,2.44,0,0,1,4.45,7,2.36,2.36,0,0,1,5,6.72,5.69,5.69,0,0,1,9.2,6.6l.14.06a.62.62,0,0,1,.26.12,2.21,2.21,0,0,1,1.05,1.06l0,0c.13.23.13.23-.07.4l-.19.16-.2.24L10,9a3.89,3.89,0,0,0-.18.58c0,.1,0,.19,0,.28v.29h0a3.65,3.65,0,0,0,.14.57,2.42,2.42,0,0,0,.55.82,2.84,2.84,0,0,0,.34.25,3,3,0,0,0,2.22.07,1.72,1.72,0,0,0,.3-.2l.29-.26.09-.1a2.53,2.53,0,0,0,.47-1.19V9.76a2.52,2.52,0,0,0-.46-1.15,2.09,2.09,0,0,0-.54-.49c-.12-.07-.13-.13-.05-.23l.06-.08a2,2,0,0,1,.43-.53.1.1,0,0,1,.06,0,1.9,1.9,0,0,1,.52-.37,2.31,2.31,0,0,1,1.16-.35,2.84,2.84,0,0,1,.58,0h1.16a2.7,2.7,0,0,1,1.16.19,2.13,2.13,0,0,1,.58.3,1.6,1.6,0,0,1,.35.28,1,1,0,0,1,.23.24,1.19,1.19,0,0,1,.23.31,1.8,1.8,0,0,1,.29.61,3.36,3.36,0,0,1,.2.94,1.64,1.64,0,0,1,0,.22l.09.58c0,.19,0,.39.08.58s.05.39.08.58a3.68,3.68,0,0,1,.08.58,1.61,1.61,0,0,1,.06.44.22.22,0,0,0,0,.14,7,7,0,0,1,.15,1.11A1.07,1.07,0,0,1,20.29,14.49Z" style="fill:#a7a9ac"/><path d="M7.38,5.1A2.55,2.55,0,1,0,4.83,2.55,2.55,2.55,0,0,0,7.38,5.1Zm0-4.27A1.73,1.73,0,1,1,5.66,2.55,1.73,1.73,0,0,1,7.38.83Z" style="fill:#a7a9ac"/><path d="M16.28,5.1a2.55,2.55,0,1,0-2.55-2.55A2.55,2.55,0,0,0,16.28,5.1Zm0-4.27a1.73,1.73,0,1,1-1.72,1.72A1.73,1.73,0,0,1,16.28.83Z" style="fill:#a7a9ac"/></svg>