<svg id="Layer_1" data-name="Layer 1" xmlns="http://www.w3.org/2000/svg" viewBox="0 0 24 24"><title>icon</title><path d="M19,2.65a5,5,0,0,0-5,5h-.46V6.9A1.65,1.65,0,0,0,11.8,5.26H7.74A1.64,1.64,0,0,0,6.1,6.9v.77H0v6.26l.71.15v7.27h18v-7l.8-.16V12.71A5,5,0,0,0,19,2.65ZM6.91,6.9a.83.83,0,0,1,.83-.82H11.8a.83.83,0,0,1,.83.82v.77H6.91ZM.81,8.49H14a5.07,5.07,0,0,0,4.75,4.25v.73l-.8.16-.82.17v-.69H13v1.5l-3.18.64-3.07-.68V13.11H2.62v.56l-.91-.2-.9-.2Zm15.47,7.2H13.79V13.92h2.49Zm-10.37,0H3.43V13.92H5.91Zm12,4.85H1.52V14.26l1.1.24v2H6.73V15.4l3,.66.09,0L13,15.44V16.5h4.11V14.62l.82-.16Zm1.61-8.65a3.64,3.64,0,0,1-.57,0h-.24a4.26,4.26,0,0,1-4-4.23v0a4.24,4.24,0,1,1,4.81,4.22Z" style="fill:#a7a9ac"/><path d="M19.36,7.23h0V4.62h-.82V7.23l-.05.06H15.75V8.1h2.74a.61.61,0,0,0,.46.21.62.62,0,0,0,.57-.38.61.61,0,0,0-.16-.7Z" style="fill:#a7a9ac"/></svg>