<svg id="Layer_1" data-name="Layer 1" xmlns="http://www.w3.org/2000/svg" viewBox="0 0 24 24"><title>icon</title><path d="M12,8.27a5.81,5.81,0,1,0,5.81,5.81A5.81,5.81,0,0,0,12,8.27ZM12,19a5,5,0,1,1,5-5A5,5,0,0,1,12,19Z" style="fill:#a7a9ac"/><circle cx="20.38" cy="8.13" r="1.06" style="fill:#a7a9ac"/><path d="M21.39,4.86H17.5V4.1a2.41,2.41,0,0,0-2.4-2.4H8.9A2.41,2.41,0,0,0,6.5,4.1v.76H2.61A2.59,2.59,0,0,0,0,7.45V19.7a2.6,2.6,0,0,0,2.59,2.6H21.39A2.6,2.6,0,0,0,24,19.7V7.45A2.59,2.59,0,0,0,21.39,4.86ZM23.07,19.7a1.68,1.68,0,0,1-1.68,1.68H2.61A1.68,1.68,0,0,1,.93,19.7V7.45A1.68,1.68,0,0,1,2.61,5.77H7.42V4.1A1.48,1.48,0,0,1,8.9,2.62h6.2A1.48,1.48,0,0,1,16.58,4.1V5.77h4.81a1.68,1.68,0,0,1,1.68,1.68Z" style="fill:#a7a9ac"/></svg>