<svg id="Layer_1" data-name="Layer 1" xmlns="http://www.w3.org/2000/svg" viewBox="0 0 24 24"><title>icon</title><path d="M21.56,14.45V3a1.53,1.53,0,0,0-.47-3H2.91a1.53,1.53,0,0,0-.47,3V14.45A1.52,1.52,0,0,0,1.38,15.9h0a1.54,1.54,0,0,0,1.53,1.54h8.58v3.08a1.76,1.76,0,1,0,1,0V17.44h8.58a1.54,1.54,0,0,0,1.53-1.54h0A1.52,1.52,0,0,0,21.56,14.45ZM12.74,22.2a.74.74,0,1,1-.74-.73A.74.74,0,0,1,12.74,22.2Zm7.8-19.09V14.37H3.46V3.11Z" style="fill:#a7a9ac"/><path d="M8,12.22a3.54,3.54,0,0,0,3.53-3.44V8.69a3.4,3.4,0,0,0,0-.45,3.53,3.53,0,0,0-2.74-3A3.77,3.77,0,0,0,8,5.16a3.53,3.53,0,1,0,0,7.06Zm0-6V8.78h2.5A2.5,2.5,0,1,1,8,6.19Z" style="fill:#a7a9ac"/><rect x="12.65" y="5.16" width="2.94" height="1.03" style="fill:#a7a9ac"/><rect x="12.65" y="8.18" width="6.69" height="1.03" style="fill:#a7a9ac"/><rect x="12.65" y="10.99" width="6.68" height="1.03" style="fill:#a7a9ac"/></svg>