<svg id="Layer_1" data-name="Layer 1" xmlns="http://www.w3.org/2000/svg" viewBox="0 0 24 24"><title>icon</title><path d="M7.3,12.41a3.25,3.25,0,0,0-1.89-5.9,3.25,3.25,0,0,0-1.89,5.9A5.44,5.44,0,0,0,0,17.49H1a4.47,4.47,0,1,1,8.93,0h.94A5.42,5.42,0,0,0,7.3,12.41ZM3.11,9.77a2.31,2.31,0,1,1,2.3,2.3A2.31,2.31,0,0,1,3.11,9.77Z" style="fill:#a7a9ac"/><rect x="13.18" y="7.79" width="10.82" height="0.95" style="fill:#a7a9ac"/><rect x="13.18" y="11.53" width="10.82" height="0.95" style="fill:#a7a9ac"/><rect x="13.18" y="15.26" width="9.62" height="0.95" style="fill:#a7a9ac"/></svg>