<svg id="Layer_1" data-name="Layer 1" xmlns="http://www.w3.org/2000/svg" viewBox="0 0 24 24"><title>icon</title><path d="M15.22,4.33V1.72a.35.35,0,0,0-.35-.34H.76a.34.34,0,0,0-.34.34V22.28a.34.34,0,0,0,.34.34H14.87a.35.35,0,0,0,.35-.34V19.67a.35.35,0,0,0-.35-.34h-.45a.34.34,0,0,0-.34.34v1.48a.34.34,0,0,1-.34.34H1.89a.34.34,0,0,1-.34-.34V2.85a.34.34,0,0,1,.34-.34H13.74a.34.34,0,0,1,.34.34V4.33a.34.34,0,0,0,.34.34h.45A.35.35,0,0,0,15.22,4.33Z" style="fill:#a7a9ac"/><path d="M23.58,12,17.91,8.72v2.71H8a.21.21,0,0,0-.2.21v.72a.21.21,0,0,0,.2.21h9.89v2.71Z" style="fill:#a7a9ac"/></svg>