<svg id="Layer_1" data-name="Layer 1" xmlns="http://www.w3.org/2000/svg" viewBox="0 0 24 24"><title>icon</title><path d="M13.34,12.06a2.32,2.32,0,1,0-2.68,0,3.85,3.85,0,0,0-2.51,3.61h.67a3.18,3.18,0,0,1,6.36,0h.67A3.85,3.85,0,0,0,13.34,12.06Zm-3-1.89A1.64,1.64,0,1,1,12,11.82,1.64,1.64,0,0,1,10.36,10.17Z" style="fill:#a7a9ac"/><path d="M18.18,2.13H14.45V0H9.55V2.13H5.82a2,2,0,0,0-2,2V22a2,2,0,0,0,2,2H18.18a2,2,0,0,0,2-2V4.14A2,2,0,0,0,18.18,2.13Zm-8-1.46h3.56V4.51H10.22ZM19.52,22a1.34,1.34,0,0,1-1.34,1.34H5.82A1.34,1.34,0,0,1,4.48,22V4.14A1.35,1.35,0,0,1,5.82,2.8H9.55V4.44h-.7a.41.41,0,1,0,0,.81h6.3a.41.41,0,1,0,0-.81h-.7V2.8h3.73a1.35,1.35,0,0,1,1.34,1.34Z" style="fill:#a7a9ac"/><path d="M12,3.28a.8.8,0,0,0,.74-.48.72.72,0,0,0,.07-.33.77.77,0,0,0-.07-.34.82.82,0,0,0-1.48,0,.77.77,0,0,0-.07.34.72.72,0,0,0,.07.33A.8.8,0,0,0,12,3.28Z" style="fill:#a7a9ac"/><rect x="8.15" y="17.64" width="7.71" height="0.67" style="fill:#a7a9ac"/><rect x="8.15" y="19.41" width="6.85" height="0.67" style="fill:#a7a9ac"/></svg>