<svg id="Layer_1" data-name="Layer 1" xmlns="http://www.w3.org/2000/svg" viewBox="0 0 24 24"><title>icon</title><path d="M11.72,1.84l-.18.09c-2,1-4,2.07-6,3.12C3.88,5.94,2.17,6.86.49,7.78A.94.94,0,0,0,0,8.59a.92.92,0,0,0,.47.83l3.8,2.23.74.43L11.71,16l6.91-4.11.74-.44,3.82-2.28.08-.05v6.45H24V8.68Zm0,13.3L5,11.22v-.06H4.89l-4-2.38a.2.2,0,0,1-.1-.18.2.2,0,0,1,.1-.17C2.52,7.51,4.23,6.59,5.91,5.7c1.92-1,3.86-2,5.79-3l10.82,6Z" style="fill:#a7a9ac"/><path d="M18.39,17.88l-6.24,3.35a.76.76,0,0,1-.73,0L5.19,17.8A.35.35,0,0,1,5,17.49V13.36l-.74-.43v5a.35.35,0,0,0,.19.31l7,3.83a.79.79,0,0,0,.73,0l7-3.75a.42.42,0,0,0,.23-.37V12.74l-.74.43v4.34A.42.42,0,0,1,18.39,17.88Z" style="fill:#a7a9ac"/></svg>