<svg id="Layer_1" data-name="Layer 1" xmlns="http://www.w3.org/2000/svg" viewBox="0 0 24 24"><title>icon_changepassword</title><path d="M17.51,9.93V6.49a5.51,5.51,0,0,0-11,0V9.93A2.07,2.07,0,0,0,4.42,12v9A2.07,2.07,0,0,0,6.49,23h11A2.07,2.07,0,0,0,19.58,21V12A2.07,2.07,0,0,0,17.51,9.93ZM7.87,6.49a4.13,4.13,0,1,1,8.26,0V9.93H7.87ZM18.2,21a.69.69,0,0,1-.69.68h-11A.69.69,0,0,1,5.8,21V12a.69.69,0,0,1,.69-.69h11a.69.69,0,0,1,.69.69Z" style="fill:#a7a9ac"/><path d="M14.54,15.72l-.34-2.3-.68.68a3,3,0,1,0,.89,3.67l.13-.27h-1l-.06.09a2.09,2.09,0,1,1-1.77-3.21,2.13,2.13,0,0,1,1.15.35l-.65.65Z" style="fill:#a7a9ac"/></svg>