<svg id="Layer_1" data-name="Layer 1" xmlns="http://www.w3.org/2000/svg" viewBox="0 0 24 24"><title>udin</title><path d="M10.45,7.49A1.49,1.49,0,1,1,11.94,6,1.49,1.49,0,0,1,10.45,7.49Zm0-2.3a.81.81,0,1,0,.81.81A.81.81,0,0,0,10.45,5.19Z" style="fill:#a7a9ac"/><path d="M12.91,11a.34.34,0,0,1-.34-.34V9.35a.91.91,0,0,0-.91-.91H9.23a.9.9,0,0,0-.9.91v1.33a.34.34,0,0,1-.68,0V9.35A1.58,1.58,0,0,1,9.23,7.77h2.43a1.59,1.59,0,0,1,1.59,1.58v1.33A.34.34,0,0,1,12.91,11Z" style="fill:#a7a9ac"/><path d="M9.39,11a.34.34,0,0,1-.34-.34V10.2a.34.34,0,0,1,.68,0v.48A.34.34,0,0,1,9.39,11Z" style="fill:#a7a9ac"/><path d="M11.51,11a.34.34,0,0,1-.34-.34V10.2a.34.34,0,0,1,.68,0v.48A.34.34,0,0,1,11.51,11Z" style="fill:#a7a9ac"/><path d="M14.93,12.29H6A.34.34,0,0,1,5.63,12,.34.34,0,0,1,6,11.61h9a.34.34,0,0,1,.34.34A.34.34,0,0,1,14.93,12.29Z" style="fill:#a7a9ac"/><path d="M14.93,14.06H6a.34.34,0,1,1,0-.67h9a.34.34,0,1,1,0,.67Z" style="fill:#a7a9ac"/><path d="M15.93,15.84H6a.34.34,0,1,1,0-.68h10a.34.34,0,0,1,0,.68Z" style="fill:#a7a9ac"/><path d="M14,17.61H6a.34.34,0,1,1,0-.67h8a.34.34,0,1,1,0,.67Z" style="fill:#a7a9ac"/><path d="M13.81,19.39H6a.34.34,0,0,1-.34-.34A.34.34,0,0,1,6,18.71h7.84a.34.34,0,0,1,.33.34A.34.34,0,0,1,13.81,19.39Z" style="fill:#a7a9ac"/><path d="M15.71,21.68H4.05a.34.34,0,0,1-.34-.34V3.69a.34.34,0,0,1,.34-.34h12.8a.34.34,0,0,1,.34.34V15.36a.34.34,0,0,1-.34.34,2.76,2.76,0,0,0-1,5.33.33.33,0,0,1,.2.38A.33.33,0,0,1,15.71,21.68ZM4.39,21H14.53a3.45,3.45,0,0,1,2-6V4H4.39Z" style="fill:#a7a9ac"/><path d="M16.85,21.9a3.44,3.44,0,1,1,3.44-3.44A3.44,3.44,0,0,1,16.85,21.9Zm0-6.2a2.76,2.76,0,1,0,2.76,2.76A2.77,2.77,0,0,0,16.85,15.7Z" style="fill:#a7a9ac"/><path d="M16.54,20.09a.32.32,0,0,1-.27-.14L15.06,18.3a.34.34,0,0,1,.07-.47.35.35,0,0,1,.48.07l.94,1.29L18,17.3a.34.34,0,0,1,.48-.06.33.33,0,0,1,.06.47L16.81,20A.37.37,0,0,1,16.54,20.09Z" style="fill:#a7a9ac"/><path d="M18.26,16a.28.28,0,0,1-.15,0,2.78,2.78,0,0,0-1.26-.3.34.34,0,0,1-.34-.34V4h-11a.34.34,0,0,1-.34-.34V2.44a.34.34,0,0,1,.34-.34h12.8a.34.34,0,0,1,.34.34V15.7a.34.34,0,0,1-.16.29A.41.41,0,0,1,18.26,16Zm-1.07-1a3,3,0,0,1,.73.15V2.78H5.8v.57H16.85a.34.34,0,0,1,.34.34Z" style="fill:#a7a9ac"/></svg>