<svg id="Layer_1" data-name="Layer 1" xmlns="http://www.w3.org/2000/svg" viewBox="0 0 24 24"><title>udin</title><path d="M22.13,5.83H18.29V2.42a1.36,1.36,0,0,0-1.35-1.35H7.06A1.36,1.36,0,0,0,5.71,2.42V5.83H1.87A1.75,1.75,0,0,0,.12,7.57V9.71h0V21.19a1.75,1.75,0,0,0,1.75,1.74H22.13a1.74,1.74,0,0,0,1.75-1.74V7.57A1.74,1.74,0,0,0,22.13,5.83Zm-6.87-3H8.74a1,1,0,0,0-1,1v2h-.9V2.42a.18.18,0,0,1,.18-.18h9.88a.18.18,0,0,1,.18.18V5.83h-.89v-2A1,1,0,0,0,15.26,2.85ZM15.06,4V5.83H8.94V4Zm-2,11.05v.42a.19.19,0,0,1-.19.18H11.12a.18.18,0,0,1-.18-.18v-.42Zm0-1.77v.6H10.94v-.6ZM15,12.13H9a6.32,6.32,0,0,1-2.54-.53L1.29,9.35V7.57A.58.58,0,0,1,1.87,7H22.13a.58.58,0,0,1,.58.58V9.35L17.54,11.6A6.32,6.32,0,0,1,15,12.13ZM1.29,10.63l4.7,2a7.45,7.45,0,0,0,3,.63h.77v2.19a1.35,1.35,0,0,0,1.35,1.35h1.76a1.35,1.35,0,0,0,1.35-1.35V13.3H15a7.45,7.45,0,0,0,3-.63l4.7-2V21.19a.58.58,0,0,1-.58.57H1.87a.58.58,0,0,1-.58-.57Z" style="fill:#a7a9ac"/></svg>