<svg id="Layer_1" data-name="Layer 1" xmlns="http://www.w3.org/2000/svg" viewBox="0 0 24 24"><title>udin</title><path d="M14,21.83H11.43a.34.34,0,1,1,0-.68h2.22V18.09a.34.34,0,0,1,.34-.34h2.28A1.78,1.78,0,0,0,18.05,16v-.25l-.27-.21a.28.28,0,0,1-.09-.1.82.82,0,0,1,.28-1.1l.59-.36v-.69a.61.61,0,0,1,.62-.61h.23a.14.14,0,0,0,.14-.09.13.13,0,0,0,0-.16l-1.11-1.69a1.25,1.25,0,0,1-.21-.88,6.09,6.09,0,0,0,.05-.72,6.28,6.28,0,0,0-2-4.57,6.19,6.19,0,0,0-4.71-1.67,6,6,0,0,0-1.33.24.34.34,0,1,1-.2-.66,6.75,6.75,0,0,1,1.48-.26A6.86,6.86,0,0,1,16.76,4,6.94,6.94,0,0,1,19,9.11a7.65,7.65,0,0,1-.05.81.6.6,0,0,0,.1.41L20.12,12a.85.85,0,0,1,0,.87.86.86,0,0,1-.75.44h-.16v.82a.34.34,0,0,1-.17.29l-.75.46a.12.12,0,0,0-.06.13l.33.25a.35.35,0,0,1,.14.27V16a2.48,2.48,0,0,1-2.47,2.47H14.33v3A.34.34,0,0,1,14,21.83Z" style="fill:#a7a9ac"/><path d="M9.15,13.34a4.23,4.23,0,1,1,4.23-4.23A4.24,4.24,0,0,1,9.15,13.34Zm0-7.77a3.54,3.54,0,1,0,3.54,3.54A3.55,3.55,0,0,0,9.15,5.57Z" style="fill:#a7a9ac"/><path d="M11.48,16.14H6.81a.34.34,0,0,1-.33-.25L5.8,13.35a5.41,5.41,0,1,1,6.7,0l-.69,2.54A.33.33,0,0,1,11.48,16.14Zm-4.4-.69h4.14l.65-2.39a.35.35,0,0,1,.12-.19,4.66,4.66,0,0,0,1.88-3.76,4.72,4.72,0,0,0-9.44,0,4.66,4.66,0,0,0,1.88,3.76.35.35,0,0,1,.12.19Z" style="fill:#a7a9ac"/><path d="M9.15,14.52A5.35,5.35,0,0,1,8,14.4.35.35,0,0,1,7.76,14a.34.34,0,0,1,.4-.26,4.77,4.77,0,0,0,4.18-1.14.34.34,0,0,1,.48,0,.35.35,0,0,1,0,.49A5.43,5.43,0,0,1,9.15,14.52Z" style="fill:#a7a9ac"/><path d="M11,17.09H7.28a.34.34,0,0,1-.34-.34V15.8a.35.35,0,0,1,.34-.35H11a.35.35,0,0,1,.34.35v.95A.34.34,0,0,1,11,17.09Zm-3.4-.69h3.05v-.26h-3Z" style="fill:#a7a9ac"/><path d="M11.38,20.76H6.91A.78.78,0,0,1,6.14,20v-2.8a.78.78,0,0,1,.77-.78h4.47a.78.78,0,0,1,.78.78V20A.78.78,0,0,1,11.38,20.76ZM6.91,17.09a.09.09,0,0,0-.09.09V20a.09.09,0,0,0,.09.09h4.47a.09.09,0,0,0,.09-.09v-2.8a.09.09,0,0,0-.09-.09Z" style="fill:#a7a9ac"/><path d="M10.24,18.24H6.48a.35.35,0,0,1,0-.69h3.76a.35.35,0,0,1,0,.69Z" style="fill:#a7a9ac"/><path d="M10.76,19.57H6.48a.35.35,0,0,1-.34-.35.34.34,0,0,1,.34-.34h4.28a.35.35,0,0,1,.35.34A.35.35,0,0,1,10.76,19.57Z" style="fill:#a7a9ac"/><path d="M9.15,21.83A1.35,1.35,0,0,1,7.8,20.49v-.08a.35.35,0,0,1,.35-.34h2a.34.34,0,0,1,.34.34v.08A1.34,1.34,0,0,1,9.15,21.83Zm-.6-1.07a.66.66,0,0,0,1.2,0Z" style="fill:#a7a9ac"/></svg>