<svg id="Layer_1" data-name="Layer 1" xmlns="http://www.w3.org/2000/svg" viewBox="0 0 24 24"><title>udin</title><path d="M21.28,6.76H14.44l.26-4.32a.44.44,0,0,0-.12-.32A.44.44,0,0,0,14.27,2H9.73a.44.44,0,0,0-.31.13.44.44,0,0,0-.12.32l.26,4.32H2.72A1.72,1.72,0,0,0,1,8.49v11.8A1.72,1.72,0,0,0,2.72,22H21.28A1.72,1.72,0,0,0,23,20.29V8.49A1.72,1.72,0,0,0,21.28,6.76ZM13.81,2.85l-.36,5.91a.29.29,0,0,1,0,.16.45.45,0,0,1-.3.24H11a.43.43,0,0,1-.43-.41l-.1-1.6h0l-.26-4.31Zm8.33,17.44a.87.87,0,0,1-.86.86H2.72a.87.87,0,0,1-.86-.86V8.49a.87.87,0,0,1,.86-.87H9.61l.07,1.19A1.31,1.31,0,0,0,11,10h2a1.31,1.31,0,0,0,1.26-1,1.87,1.87,0,0,0,0-.25l.07-1.19h6.89a.87.87,0,0,1,.86.87Z" style="fill:#a7a9ac"/><path d="M7.23,15A2.33,2.33,0,1,0,4.9,12.68,2.34,2.34,0,0,0,7.23,15Zm0-3.79a1.46,1.46,0,1,1-1.46,1.46A1.46,1.46,0,0,1,7.23,11.22Z" style="fill:#a7a9ac"/><path d="M9,14.9H8.9a1,1,0,0,0-.73.33l-.94,1.25-1-1.26a.9.9,0,0,0-.72-.32H5.45a2.26,2.26,0,0,0-2.26,2.25v2.12a.44.44,0,0,0,.44.43h7.2a.44.44,0,0,0,.44-.43V17.15A2.26,2.26,0,0,0,9,14.9Zm1.39,3.94H4.06V17.15a1.39,1.39,0,0,1,1.39-1.39h.11s.05,0,0,0l1.29,1.7a.43.43,0,0,0,.68,0l1.27-1.68H9a1.39,1.39,0,0,1,1.39,1.39Z" style="fill:#a7a9ac"/><path d="M19.82,12.68H13.6a.43.43,0,0,0,0,.86h6.22a.43.43,0,0,0,0-.86Z" style="fill:#a7a9ac"/><path d="M19.82,14.74H13.6a.44.44,0,0,0,0,.87h6.22a.44.44,0,0,0,0-.87Z" style="fill:#a7a9ac"/><path d="M19.82,16.81H13.6a.43.43,0,1,0,0,.86h6.22a.43.43,0,1,0,0-.86Z" style="fill:#a7a9ac"/></svg>