<svg id="Layer_1" data-name="Layer 1" xmlns="http://www.w3.org/2000/svg" viewBox="0 0 371.45 176.15"><title>logo-footer</title><path d="M137.11,151.69a9.39,9.39,0,0,1,2.76-2.34,7,7,0,0,1,3.35-.78,10.29,10.29,0,0,1,2.21.27L144.9,152a15.06,15.06,0,0,0-2.15-.21,5.7,5.7,0,0,0-3.17.86,4.94,4.94,0,0,0-1.94,2.32,13.24,13.24,0,0,0-.53,4.51v15.41h-3.59V149h3.59Z" style="fill:#919191"/><path d="M149.57,141.13a2.26,2.26,0,0,1,3.87,1.62,2.23,2.23,0,0,1-.64,1.62,2.26,2.26,0,0,1-3.87-1.62A2.16,2.16,0,0,1,149.57,141.13ZM153,174.89h-3.59V149H153Z" style="fill:#919191"/><path d="M167.43,148.57a21.57,21.57,0,0,1,8.23,2l-1.23,3a18.84,18.84,0,0,0-7-1.79,6.79,6.79,0,0,0-2.44.4,3.81,3.81,0,0,0-1.58,1.06,4.94,4.94,0,0,0-.78,1.29,3.55,3.55,0,0,0,.41,3.37,4.11,4.11,0,0,0,1.66,1.35,13.1,13.1,0,0,0,3.21.77,19.81,19.81,0,0,1,3.77.89,7.94,7.94,0,0,1,3.54,2.55,6.49,6.49,0,0,1,1.44,4.21,7,7,0,0,1-2.47,5.32,9.57,9.57,0,0,1-6.76,2.28,22.86,22.86,0,0,1-9.06-2.23l1.3-3a19.41,19.41,0,0,0,7.76,2,7.86,7.86,0,0,0,2.63-.4,4.26,4.26,0,0,0,1.76-1.08,5,5,0,0,0,.94-1.4,4,4,0,0,0,.31-1.5,3.71,3.71,0,0,0-.81-2.38,4.63,4.63,0,0,0-2-1.46,19.83,19.83,0,0,0-3.29-.69,15.43,15.43,0,0,1-3.93-1.06,7.56,7.56,0,0,1-3-2.48,6.26,6.26,0,0,1-1.2-3.8,6.68,6.68,0,0,1,2.36-5.09A9,9,0,0,1,167.43,148.57Z" style="fill:#919191"/><path d="M181.94,139h3.59v24.14L196.06,149h4.21l-9.61,12.82,9.85,13.11H196.2l-7.79-10.62L185.53,168v6.88h-3.59Z" style="fill:#919191"/><path d="M225.63,176.15a23.67,23.67,0,0,1-9.41-2.31l-.79-.35,2-4.6.81.37a18.66,18.66,0,0,0,7.4,1.93,6.94,6.94,0,0,0,2.34-.35,3.46,3.46,0,0,0,1.41-.85,3.93,3.93,0,0,0,.77-1.15,2.82,2.82,0,0,0,.25-1.16,2.76,2.76,0,0,0-.62-1.83,3.67,3.67,0,0,0-1.65-1.19A17.2,17.2,0,0,0,225,164a15.76,15.76,0,0,1-4.16-1.13,8.38,8.38,0,0,1-3.38-2.75,7.17,7.17,0,0,1-1.37-4.32,7.5,7.5,0,0,1,2.65-5.73,9.83,9.83,0,0,1,6.87-2.38,22.48,22.48,0,0,1,8.56,2l.79.33-1.87,4.66-.82-.35a18.11,18.11,0,0,0-6.66-1.72,5.77,5.77,0,0,0-2.13.35,2.87,2.87,0,0,0-1.22.79,3.89,3.89,0,0,0-.64,1.06,2.69,2.69,0,0,0,.3,2.54,3.2,3.2,0,0,0,1.32,1.07,11.73,11.73,0,0,0,3,.7,20.72,20.72,0,0,1,3.93.93,8.87,8.87,0,0,1,3.93,2.83,7.38,7.38,0,0,1,1.63,4.75,7.88,7.88,0,0,1-2.75,6A10.46,10.46,0,0,1,225.63,176.15Z" style="fill:#919191"/><path d="M225.63,148.57a21.57,21.57,0,0,1,8.23,2l-1.23,3a18.84,18.84,0,0,0-7-1.79,6.79,6.79,0,0,0-2.44.4,3.81,3.81,0,0,0-1.58,1.06,4.94,4.94,0,0,0-.78,1.29,3.45,3.45,0,0,0-.25,1.27,3.51,3.51,0,0,0,.65,2.1,4.21,4.21,0,0,0,1.67,1.35,13.1,13.1,0,0,0,3.21.77,20,20,0,0,1,3.77.89,7.94,7.94,0,0,1,3.54,2.55,6.49,6.49,0,0,1,1.44,4.21,7,7,0,0,1-2.47,5.32,9.57,9.57,0,0,1-6.76,2.28,22.86,22.86,0,0,1-9.06-2.23l1.3-3a19.41,19.41,0,0,0,7.76,2,7.86,7.86,0,0,0,2.63-.4,4.33,4.33,0,0,0,1.76-1.08,4.74,4.74,0,0,0,.93-1.4,3.78,3.78,0,0,0,.32-1.5,3.71,3.71,0,0,0-.81-2.38,4.63,4.63,0,0,0-2-1.46,19.83,19.83,0,0,0-3.29-.69,15.43,15.43,0,0,1-3.93-1.06,7.56,7.56,0,0,1-3-2.48,6.26,6.26,0,0,1-1.2-3.8,6.68,6.68,0,0,1,2.36-5.09A9,9,0,0,1,225.63,148.57Z" style="fill:#919191"/><path d="M249.48,176.15a11.69,11.69,0,0,1-4.65-.9,9.88,9.88,0,0,1-3.49-2.41,10,10,0,0,1-1.69-2.5,10.39,10.39,0,0,1-.89-3,24.59,24.59,0,0,1-.28-2.6c0-.67,0-1.59,0-2.81s0-2.14,0-2.82a24.86,24.86,0,0,1,.28-2.6,10.48,10.48,0,0,1,.89-3,10,10,0,0,1,1.69-2.5,9.88,9.88,0,0,1,3.49-2.41,12.49,12.49,0,0,1,9.31,0,10,10,0,0,1,3.49,2.41,10.29,10.29,0,0,1,1.69,2.5,10.81,10.81,0,0,1,.89,3c.15,1,.25,1.92.28,2.6s.05,1.62.05,2.82,0,2.13-.05,2.81-.13,1.56-.28,2.6a10.81,10.81,0,0,1-.89,3,10.1,10.1,0,0,1-1.69,2.5,10,10,0,0,1-3.49,2.41A11.73,11.73,0,0,1,249.48,176.15Zm0-23.49a5.13,5.13,0,0,0-4.11,1.59,5.63,5.63,0,0,0-.9,1.44,7.58,7.58,0,0,0-.49,1.92c-.1.8-.16,1.47-.18,2s0,1.32,0,2.33,0,1.78,0,2.32.08,1.19.18,2a7.47,7.47,0,0,0,.49,1.92,5.63,5.63,0,0,0,.9,1.44,6.12,6.12,0,0,0,8.23,0,5.63,5.63,0,0,0,.9-1.44,7.36,7.36,0,0,0,.49-1.92c.1-.79.16-1.46.18-2s0-1.32,0-2.32,0-1.79,0-2.33-.08-1.19-.18-2a7.47,7.47,0,0,0-.49-1.92,5.63,5.63,0,0,0-.9-1.44A5.15,5.15,0,0,0,249.48,152.66Z" style="fill:#919191"/><path d="M245.17,149.4a11.63,11.63,0,0,1,8.63,0,9.05,9.05,0,0,1,3.19,2.19,9.49,9.49,0,0,1,1.54,2.29,9.77,9.77,0,0,1,.82,2.76q.22,1.52.27,2.52c0,.66.05,1.58.05,2.77s0,2.1-.05,2.76-.12,1.51-.27,2.52a9.77,9.77,0,0,1-.82,2.76,9.49,9.49,0,0,1-1.54,2.29,9.05,9.05,0,0,1-3.19,2.19,11.63,11.63,0,0,1-8.63,0,9.05,9.05,0,0,1-3.19-2.19,9.33,9.33,0,0,1-2.36-5q-.23-1.52-.27-2.52c0-.66,0-1.58,0-2.76s0-2.11,0-2.77.12-1.51.27-2.52a9.33,9.33,0,0,1,2.36-5A9.05,9.05,0,0,1,245.17,149.4Zm4.31,2.39a6,6,0,0,0-4.77,1.89,6.35,6.35,0,0,0-1,1.67,7.94,7.94,0,0,0-.55,2.15c-.1.83-.17,1.51-.19,2.06s0,1.34,0,2.37,0,1.8,0,2.36.09,1.23.19,2.06a7.94,7.94,0,0,0,.55,2.15,6.35,6.35,0,0,0,1,1.67,7,7,0,0,0,9.54,0,6.13,6.13,0,0,0,1.05-1.67,8.33,8.33,0,0,0,.55-2.15c.1-.83.17-1.51.19-2.06s0-1.34,0-2.36,0-1.81,0-2.37-.09-1.23-.19-2.06a8.33,8.33,0,0,0-.55-2.15,6.13,6.13,0,0,0-1.05-1.67A6,6,0,0,0,249.48,151.79Z" style="fill:#919191"/><path d="M269.71,176.15a4.89,4.89,0,0,1-3.93-1.9,6,6,0,0,1-1.11-3.94V138.16H270v32.15a2.69,2.69,0,0,0,.09.88h.14a3.55,3.55,0,0,0,.89-.11l.9-.23.89,4.75-.76.22A8.49,8.49,0,0,1,269.71,176.15Z" style="fill:#919191"/><path d="M271.35,171.92l.57,3.07a7.94,7.94,0,0,1-2.21.29,4,4,0,0,1-3.25-1.59,5.21,5.21,0,0,1-.92-3.38V139h3.6v31.28a2.6,2.6,0,0,0,.26,1.42,1,1,0,0,0,.84.33A4.44,4.44,0,0,0,271.35,171.92Z" style="fill:#919191"/><path d="M285.08,176.15a11,11,0,0,1-6-1.59,9,9,0,0,1-3.65-4.61,10.19,10.19,0,0,1-.5-2,15.19,15.19,0,0,1-.17-1.78q0-.69,0-2V148.09h5.34v15.85a15.79,15.79,0,0,0,.31,4.07,4.21,4.21,0,0,0,1.74,2.35,5.2,5.2,0,0,0,2.95.83,5.28,5.28,0,0,0,2.95-.82,4.27,4.27,0,0,0,1.74-2.36,15.86,15.86,0,0,0,.31-4.07V148.09h5.34v16.09q0,1.29,0,2a15.34,15.34,0,0,1-.17,1.79,9.59,9.59,0,0,1-.51,2,8.94,8.94,0,0,1-3.64,4.61A11,11,0,0,1,285.08,176.15Z" style="fill:#919191"/><path d="M275.61,149h3.6v15a16.78,16.78,0,0,0,.36,4.34,5.09,5.09,0,0,0,2.08,2.81,6.55,6.55,0,0,0,6.86,0,5.09,5.09,0,0,0,2.08-2.81,16.78,16.78,0,0,0,.36-4.34V149h3.6v15.22q0,1.27,0,1.95a15.91,15.91,0,0,1-.16,1.69,8.49,8.49,0,0,1-.46,1.82,8.07,8.07,0,0,1-3.3,4.19,11.23,11.23,0,0,1-11,0,8.07,8.07,0,0,1-3.3-4.19,8.49,8.49,0,0,1-.46-1.82,15.91,15.91,0,0,1-.16-1.69q0-.67,0-1.95Z" style="fill:#919191"/><path d="M307.37,176.15a6.78,6.78,0,0,1-3.94-1.14,5.85,5.85,0,0,1-2.26-3.28,15.59,15.59,0,0,1-.3-4.1V152.8h-3.6v-4.71h3.6v-5.61h5.33v5.61H311v4.71h-4.8v14.83a11.15,11.15,0,0,0,.16,2.79,1.16,1.16,0,0,0,1.25.77,5.43,5.43,0,0,0,2.35-.67l.79-.4,2.15,4.58-.81.36A11.59,11.59,0,0,1,307.37,176.15Z" style="fill:#919191"/><path d="M301.74,167.63v-15.7h-3.6v-3h3.6v-5.61h3.59V149h4.8v3h-4.8v15.7a12.35,12.35,0,0,0,.22,3.12,2,2,0,0,0,2.06,1.31,6.22,6.22,0,0,0,2.73-.76l1.39,3a10.66,10.66,0,0,1-4.36,1,5.82,5.82,0,0,1-3.44-1,5,5,0,0,1-1.93-2.8A17.87,17.87,0,0,1,301.74,167.63Z" style="fill:#919191"/><path d="M314.94,175.76V148.09h5.33v27.67Zm2.67-29.89a3,3,0,1,1,2.23-.89A3.06,3.06,0,0,1,317.61,145.87Z" style="fill:#919191"/><path d="M316,141.13a2.19,2.19,0,0,1,1.62-.63,2.22,2.22,0,0,1,1.62.63,2.19,2.19,0,0,1,.63,1.62,2.16,2.16,0,0,1-2.25,2.25,2.19,2.19,0,0,1-1.62-.63,2.23,2.23,0,0,1-.64-1.62A2.2,2.2,0,0,1,316,141.13Zm3.41,33.76h-3.59V149h3.59Z" style="fill:#919191"/><path d="M335.58,176.15a11.69,11.69,0,0,1-4.65-.9,9.88,9.88,0,0,1-3.49-2.41,10.1,10.1,0,0,1-1.69-2.5,10.48,10.48,0,0,1-.89-3c-.15-1-.25-1.91-.28-2.6s-.05-1.63-.05-2.81,0-2.13.05-2.81.13-1.57.28-2.61a10.08,10.08,0,0,1,2.58-5.5,9.88,9.88,0,0,1,3.49-2.41,12.49,12.49,0,0,1,9.31,0,10,10,0,0,1,3.49,2.41,10.39,10.39,0,0,1,1.69,2.5,11.16,11.16,0,0,1,.89,3c.15,1,.25,1.92.28,2.6s.05,1.6.05,2.82,0,2.14-.05,2.81-.13,1.56-.28,2.6a11.05,11.05,0,0,1-.89,3,10.39,10.39,0,0,1-1.69,2.5,10,10,0,0,1-3.49,2.41A11.73,11.73,0,0,1,335.58,176.15Zm0-23.49a5.13,5.13,0,0,0-4.11,1.59,5.63,5.63,0,0,0-.9,1.44,7.47,7.47,0,0,0-.49,1.92c-.1.8-.16,1.46-.18,2s0,1.32,0,2.33,0,1.78,0,2.32.08,1.2.18,2a7.36,7.36,0,0,0,.49,1.92,5.63,5.63,0,0,0,.9,1.44,6.12,6.12,0,0,0,8.23,0,5.46,5.46,0,0,0,.9-1.44,7.36,7.36,0,0,0,.49-1.92c.1-.79.16-1.46.18-2s0-1.32,0-2.32,0-1.79,0-2.33-.08-1.19-.18-2a7.47,7.47,0,0,0-.49-1.92,5.63,5.63,0,0,0-.9-1.44A5.14,5.14,0,0,0,335.58,152.66Z" style="fill:#919191"/><path d="M331.27,149.4a11.63,11.63,0,0,1,8.63,0,9.05,9.05,0,0,1,3.19,2.19,9.49,9.49,0,0,1,1.54,2.29,9.77,9.77,0,0,1,.82,2.76q.23,1.52.27,2.52c0,.66,0,1.58,0,2.77s0,2.1,0,2.76-.12,1.51-.27,2.52a9.77,9.77,0,0,1-.82,2.76,9.49,9.49,0,0,1-1.54,2.29,9.05,9.05,0,0,1-3.19,2.19,11.63,11.63,0,0,1-8.63,0,9.05,9.05,0,0,1-3.19-2.19,9.33,9.33,0,0,1-2.36-5q-.23-1.52-.27-2.52c0-.66-.05-1.58-.05-2.76s0-2.11.05-2.77.12-1.51.27-2.52a9.33,9.33,0,0,1,2.36-5A9.05,9.05,0,0,1,331.27,149.4Zm4.31,2.39a6,6,0,0,0-4.77,1.89,6.35,6.35,0,0,0-1,1.67,7.94,7.94,0,0,0-.55,2.15c-.1.83-.17,1.51-.19,2.06s0,1.34,0,2.37,0,1.8,0,2.36.09,1.23.19,2.06a7.94,7.94,0,0,0,.55,2.15,6.35,6.35,0,0,0,1,1.67,7,7,0,0,0,9.54,0,6.13,6.13,0,0,0,1-1.67,8.33,8.33,0,0,0,.55-2.15c.1-.83.17-1.51.19-2.06s0-1.34,0-2.36,0-1.81,0-2.37-.09-1.23-.19-2.06a8.33,8.33,0,0,0-.55-2.15,6.13,6.13,0,0,0-1-1.67A6,6,0,0,0,335.58,151.79Z" style="fill:#919191"/><path d="M366.11,175.76V160.15c0-1.48,0-2.57-.09-3.21a4.88,4.88,0,0,0-.45-1.67,4.12,4.12,0,0,0-1.72-1.92,5.79,5.79,0,0,0-5.48,0,4.07,4.07,0,0,0-1.71,1.91,5.25,5.25,0,0,0-.46,1.68c-.06.64-.09,1.73-.09,3.21v15.61h-5.34V148.09h5.34v1.6a9.13,9.13,0,0,1,5.72-2,9.53,9.53,0,0,1,5.3,1.55,9,9,0,0,1,3.52,4.32,9.32,9.32,0,0,1,.57,2.16,16.93,16.93,0,0,1,.21,2c0,.51,0,1.25,0,2.22v15.85Z" style="fill:#919191"/><path d="M361.83,148.57a8.67,8.67,0,0,1,4.83,1.41,8.08,8.08,0,0,1,3.18,3.92,8.24,8.24,0,0,1,.52,2,15.67,15.67,0,0,1,.2,1.86c0,.5,0,1.23,0,2.19v15H367V160.15c0-1.52,0-2.62-.09-3.29a5.89,5.89,0,0,0-.53-2,5,5,0,0,0-2.07-2.3,6.27,6.27,0,0,0-3.18-.81,6.2,6.2,0,0,0-3.17.81,4.94,4.94,0,0,0-2.08,2.3,5.87,5.87,0,0,0-.52,2c-.07.67-.1,1.77-.1,3.29v14.74h-3.6V149h3.6v2.73A8.65,8.65,0,0,1,361.83,148.57Z" style="fill:#919191"/><path d="M61.48,105.11c-23.91,0-41.23-17.14-41.23-43.64S37.57,18,61.48,18c14.36,0,25.8,6.07,32.21,18.19h23.72C108.22,12.64,86.58,0,61.48,0,27.54,0,0,25.46,0,61.47,0,97.66,27.54,123,61.48,123c29.57,0,51.81-19.8,58.17-44.5H98.44C93.69,94.85,80.77,105.11,61.48,105.11Z" style="fill:#6e378f"/><path d="M349.26,1.55,307.18,95.92,264.93,1.55h-21.3q0,47.82,0,95.64l19.84,0q0-28.87-.1-57.75l36.89,82.43h13.69l36.71-82.43v82.43h19.73V1.55Z" style="fill:#6e378f"/><path d="M243.65,101.88c0,.9,0,1.83,0,2.76,0,.77,0,1.52,0,2.26l-23.59.21H213L192,72c20.26-5,27.87-20.26,27.87-34.46,0-19.57-14-36-42.59-36H135.74q0,25.88-.1,51.76h19.84V17.65h21.83c15.41,0,22.33,7.8,22.33,19.93,0,12-6.92,20.43-22.33,20.43H53.14A15.8,15.8,0,0,0,68.9,73.77h66.84v48.14h19.74V73.77h15.08l27.7,48.14H249c.6,0,1.4-.07,2.35-.19a18.09,18.09,0,0,0,3.45-.71,11.68,11.68,0,0,0,2.74-1.17,11.35,11.35,0,0,0,3.18-2.83,12.85,12.85,0,0,0,2.19-5.34,33,33,0,0,0,.6-9.82Z" style="fill:#6e378f"/></svg>