<svg id="Layer_1" data-name="Layer 1" xmlns="http://www.w3.org/2000/svg" viewBox="0 0 24 24"><title>udin</title><path d="M16.7,22.06h-10a.35.35,0,0,1-.34-.35.34.34,0,0,1,.34-.34,1.25,1.25,0,0,0,1.25-1.25v-1.6a.35.35,0,0,1,.35-.35H18.47a.35.35,0,0,1,.35.35v1.42A2.12,2.12,0,0,1,16.7,22.06Zm-8.56-.69H16.7a1.43,1.43,0,0,0,1.43-1.43V18.86H8.6v1.26A1.92,1.92,0,0,1,8.14,21.37Z" style="fill:#a7a9ac"/><path d="M6.66,22.06a1.94,1.94,0,0,1-1.94-1.94V6.26a.35.35,0,0,1,.34-.35H9.14a.35.35,0,0,1,.34.35.34.34,0,0,1-.34.34H5.4V20.12a1.26,1.26,0,0,0,2.51,0v-1.6a.35.35,0,0,1,.35-.35h7.1V16.42a.35.35,0,0,1,.35-.34.34.34,0,0,1,.34.34v2.1a.34.34,0,0,1-.34.34H8.6v1.26A1.94,1.94,0,0,1,6.66,22.06Z" style="fill:#a7a9ac"/><path d="M15.08,16.77H11.64a.35.35,0,0,1-.35-.35v-5h-.91a.34.34,0,0,1-.34-.34V7.3a2,2,0,0,1,2-2h2.72a2,2,0,0,1,2,2v3.77a.35.35,0,0,1-.35.34h-.91v5A.35.35,0,0,1,15.08,16.77ZM12,16.08h2.76v-5a.34.34,0,0,1,.34-.34H16V7.3A1.27,1.27,0,0,0,14.72,6H12A1.27,1.27,0,0,0,10.73,7.3v3.43h.91a.34.34,0,0,1,.34.34Z" style="fill:#a7a9ac"/><path d="M13.36,16.77a.35.35,0,0,1-.34-.35v-4.5a.34.34,0,1,1,.68,0v4.5A.35.35,0,0,1,13.36,16.77Z" style="fill:#a7a9ac"/><path d="M11.64,11.41a.35.35,0,0,1-.35-.34V7.71a.35.35,0,0,1,.35-.35.35.35,0,0,1,.34.35v3.36A.34.34,0,0,1,11.64,11.41Z" style="fill:#a7a9ac"/><path d="M15.08,11.41a.34.34,0,0,1-.34-.34V7.71a.34.34,0,1,1,.68,0v3.36A.34.34,0,0,1,15.08,11.41Z" style="fill:#a7a9ac"/><path d="M13.39,5.22a1.34,1.34,0,0,1-1.18-.85,2.66,2.66,0,0,1-.28-1.21V2.79A.27.27,0,0,1,12,2.61a1.9,1.9,0,0,1,1.45-.67c.74,0,1.52.45,1.52.88v.34a2.55,2.55,0,0,1-.29,1.21,1.34,1.34,0,0,1-1.23.85Zm-.78-2.3v.24a1.86,1.86,0,0,0,.21.89c.17.33.38.5.61.48s.45-.15.62-.48a1.86,1.86,0,0,0,.21-.89V2.91a1.43,1.43,0,0,0-.83-.28A1.5,1.5,0,0,0,12.61,2.92Z" style="fill:#a7a9ac"/><path d="M18.94,16.77h-12a.35.35,0,0,1-.34-.35.34.34,0,0,1,.34-.34h12a.34.34,0,0,1,.34.34A.35.35,0,0,1,18.94,16.77Z" style="fill:#a7a9ac"/><path d="M17.27,9.05a.34.34,0,0,1-.21-.61l1.27-1a.34.34,0,1,1,.42.54L17.48,9A.33.33,0,0,1,17.27,9.05Z" style="fill:#a7a9ac"/><path d="M9.45,9.05A.36.36,0,0,1,9.23,9L8,8a.35.35,0,0,1-.06-.49.35.35,0,0,1,.48,0l1.27,1a.35.35,0,0,1,.06.48A.34.34,0,0,1,9.45,9.05Z" style="fill:#a7a9ac"/><path d="M9.85,14.8H6.91a.34.34,0,0,1-.34-.34.35.35,0,0,1,.34-.35H9.85a.35.35,0,0,1,.34.35A.34.34,0,0,1,9.85,14.8Z" style="fill:#a7a9ac"/><path d="M9.85,12.93H6.91a.34.34,0,0,1-.34-.34.35.35,0,0,1,.34-.35H9.85a.35.35,0,0,1,.34.35A.34.34,0,0,1,9.85,12.93Z" style="fill:#a7a9ac"/></svg>