<svg id="Layer_1" data-name="Layer 1" xmlns="http://www.w3.org/2000/svg" viewBox="0 0 24 24"><title>udin</title><path d="M15.56,13.08l.86-.38a15.16,15.16,0,0,1,3.41-1.26,1,1,0,0,0,.9-.74c.16-.66-.36-1-.87-1.37s-1.43-1-1.48-1.65A6.51,6.51,0,0,0,12,1.36,6.49,6.49,0,0,0,5.62,7.71c0,.78-1.15,1.49-1.76,1.87s-1,.65-.85,1.32a1,1,0,0,0,1,.68,12.71,12.71,0,0,1,4.08,1.31l.4.18a10.21,10.21,0,0,0-6.68,9.57H22.21A10.21,10.21,0,0,0,15.56,13.08ZM5.91,10.22A3.41,3.41,0,0,0,7.32,7.78,4.78,4.78,0,0,1,12,3.07a4.83,4.83,0,0,1,4.68,4.74,3.48,3.48,0,0,0,1.43,2.34c-.77.27-1.59.64-2.39,1A12.15,12.15,0,0,1,12,12.43a10.78,10.78,0,0,1-3.25-1.09A23.87,23.87,0,0,0,5.91,10.22ZM3.67,20.89a8.51,8.51,0,0,1,16.66,0Z" style="fill:#a7a9ac"/></svg>