<svg id="Layer_1" data-name="Layer 1" xmlns="http://www.w3.org/2000/svg" viewBox="0 0 24 24"><title>udin</title><rect x="1.27" y="23.29" width="21.47" height="0.71" style="fill:#a7a9ac"/><path d="M12.35,24H3V6.12h9.38Zm-8.67-.71h8V6.82h-8Z" style="fill:#a7a9ac"/><path d="M21,24H11.65V0H21Zm-8.68-.71h8V.71h-8Z" style="fill:#a7a9ac"/><rect x="4.98" y="10.1" width="2.41" height="1.9" style="fill:#a7a9ac"/><rect x="7.94" y="10.1" width="2.41" height="1.9" style="fill:#a7a9ac"/><rect x="4.98" y="13.78" width="2.41" height="1.9" style="fill:#a7a9ac"/><rect x="7.94" y="13.78" width="2.41" height="1.9" style="fill:#a7a9ac"/><rect x="4.98" y="17.45" width="2.41" height="1.9" style="fill:#a7a9ac"/><rect x="7.94" y="17.45" width="2.41" height="1.9" style="fill:#a7a9ac"/><rect x="13.65" y="4.17" width="2.41" height="1.9" style="fill:#a7a9ac"/><rect x="16.61" y="4.17" width="2.41" height="1.9" style="fill:#a7a9ac"/><rect x="13.65" y="7.85" width="2.41" height="1.9" style="fill:#a7a9ac"/><rect x="16.61" y="7.85" width="2.41" height="1.9" style="fill:#a7a9ac"/><rect x="13.65" y="11.52" width="2.41" height="1.9" style="fill:#a7a9ac"/><rect x="16.61" y="11.52" width="2.41" height="1.9" style="fill:#a7a9ac"/><rect x="13.65" y="15.19" width="2.41" height="1.9" style="fill:#a7a9ac"/><rect x="16.61" y="15.19" width="2.41" height="1.9" style="fill:#a7a9ac"/><rect x="15.17" y="20.24" width="2.34" height="3.73" style="fill:#a7a9ac"/></svg>