<svg id="Layer_1" data-name="Layer 1" xmlns="http://www.w3.org/2000/svg" viewBox="0 0 24 24"><title>udin</title><path d="M18,2.34H6A1.82,1.82,0,0,0,4.15,4.15v15.7A1.82,1.82,0,0,0,6,21.66H18a1.82,1.82,0,0,0,1.81-1.81V4.15A1.82,1.82,0,0,0,18,2.34Zm.6,17.51a.6.6,0,0,1-.6.6H6a.6.6,0,0,1-.6-.6V4.15a.6.6,0,0,1,.6-.6H18a.6.6,0,0,1,.6.6Z" style="fill:#a7a9ac"/><path d="M10.19,6.57h3.62a.61.61,0,0,0,0-1.21H10.19a.61.61,0,0,0,0,1.21Z" style="fill:#a7a9ac"/><path d="M10.19,11.4A1.81,1.81,0,1,0,12,9.59,1.82,1.82,0,0,0,10.19,11.4Zm2.41,0a.6.6,0,1,1-.6-.61A.6.6,0,0,1,12.6,11.4Z" style="fill:#a7a9ac"/><path d="M12,14.42a4.2,4.2,0,0,0-4.16,3.52.63.63,0,0,0,.13.49.64.64,0,0,0,.46.21h7.15a.6.6,0,0,0,.6-.6.59.59,0,0,0,0-.23A4.2,4.2,0,0,0,12,14.42Zm-2.76,3a3,3,0,0,1,5.53,0Z" style="fill:#a7a9ac"/></svg>