<svg id="Layer_1" data-name="Layer 1" xmlns="http://www.w3.org/2000/svg" viewBox="0 0 24 24"><title>udin</title><path d="M11.89,12.53h-.16A4.53,4.53,0,0,1,7.45,8V4.45a4.45,4.45,0,1,1,8.89,0V8.08a4.45,4.45,0,0,1-4.45,4.45Zm0-11.72A3.64,3.64,0,0,0,8.26,4.45V8a3.71,3.71,0,0,0,3.5,3.73,3.57,3.57,0,0,0,2.66-1,3.62,3.62,0,0,0,1.11-2.61V4.45A3.64,3.64,0,0,0,11.89.81Z" style="fill:#a7a9ac"/><path d="M13,4.39A4,4,0,0,1,11.35,4a4,4,0,0,0-3.13-.43.4.4,0,0,1-.54-.19.39.39,0,0,1,.18-.53c.06,0,1.45-.71,3.84.41a3.51,3.51,0,0,0,3.67-.62.41.41,0,0,1,.57,0,.4.4,0,0,1,0,.58A4.64,4.64,0,0,1,13,4.39Z" style="fill:#a7a9ac"/><path d="M16.05,7.51l-.19,0a.42.42,0,0,1-.33-.4V4.35a.42.42,0,0,1,.33-.41l.2,0c.74,0,1.32.79,1.32,1.79S16.79,7.51,16.05,7.51Zm.29-2.58V6.49a1.36,1.36,0,0,0,.22-.78A1.36,1.36,0,0,0,16.34,4.93Z" style="fill:#a7a9ac"/><path d="M7.74,7.51c-.75,0-1.33-.79-1.33-1.8S7,3.92,7.74,3.92l.2,0a.4.4,0,0,1,.32.41V7.09a.42.42,0,0,1-.33.4ZM7.45,4.93a1.36,1.36,0,0,0-.22.78,1.37,1.37,0,0,0,.22.79Z" style="fill:#a7a9ac"/><path d="M12,15c-1.23,0-2.17-.55-2.17-1.28v-2a.41.41,0,0,1,.19-.34.39.39,0,0,1,.39,0,3.34,3.34,0,0,0,1.35.32,3.54,3.54,0,0,0,1.81-.41.41.41,0,0,1,.4,0,.4.4,0,0,1,.2.34v2.08C14.17,14.47,13.23,15,12,15Zm-1.35-2.68v1.4c0,.12.46.47,1.35.47s1.35-.35,1.35-.47V12.28a4.43,4.43,0,0,1-1.62.24A3.94,3.94,0,0,1,10.65,12.34Z" style="fill:#a7a9ac"/><path d="M20.23,24H3.77a.44.44,0,0,1-.32-.15.41.41,0,0,1-.07-.34L5,16.3a3.37,3.37,0,0,1,2.45-2.53l2.7-.7a.44.44,0,0,1,.35.07.42.42,0,0,1,.16.32v.28c0,.12.46.47,1.35.47s1.35-.35,1.35-.47v-.28a.42.42,0,0,1,.16-.32.44.44,0,0,1,.35-.07l2.7.7A3.37,3.37,0,0,1,19,16.3l1.61,7.21a.41.41,0,0,1-.07.34A.44.44,0,0,1,20.23,24ZM4.28,23.19H19.72l-1.5-6.71a2.56,2.56,0,0,0-1.86-1.92L14.13,14c-.18.61-1,1-2.13,1s-1.95-.43-2.13-1l-2.23.58a2.56,2.56,0,0,0-1.86,1.92Z" style="fill:#a7a9ac"/><path d="M16.24,24a.41.41,0,0,1-.4-.34l-.64-4a.39.39,0,0,1,.33-.46.4.4,0,0,1,.47.33l.64,4a.39.39,0,0,1-.33.46Z" style="fill:#a7a9ac"/><path d="M7.76,24H7.69a.39.39,0,0,1-.33-.46l.64-4a.41.41,0,0,1,.47-.33.39.39,0,0,1,.33.46l-.64,4A.41.41,0,0,1,7.76,24Z" style="fill:#a7a9ac"/><path d="M12,22.93a.39.39,0,0,1-.27-.1l-1-.93a.38.38,0,0,1-.13-.36l1-7a.4.4,0,0,1,.8,0l1,7a.38.38,0,0,1-.13.36l-1,.93A.39.39,0,0,1,12,22.93Zm-.6-1.49L12,22l.6-.54L12,17.39Z" style="fill:#a7a9ac"/><path d="M21.11,24H2.89a.41.41,0,1,1,0-.81H21.11a.41.41,0,1,1,0,.81Z" style="fill:#a7a9ac"/></svg>