<svg id="Layer_1" data-name="Layer 1" xmlns="http://www.w3.org/2000/svg" viewBox="0 0 24 24"><title>1</title><path d="M18,9.74V6A6,6,0,1,0,6,6V9.74A2.26,2.26,0,0,0,3.72,12v9.79A2.26,2.26,0,0,0,6,24.05H18a2.26,2.26,0,0,0,2.26-2.26V12A2.26,2.26,0,0,0,18,9.74ZM7.48,6a4.52,4.52,0,0,1,9,0V9.74h-9Zm11.3,15.81a.76.76,0,0,1-.76.75H6a.76.76,0,0,1-.76-.75V12A.75.75,0,0,1,6,11.25H18a.75.75,0,0,1,.76.75Z" style="fill:#231f20"/><path d="M14.78,16.07l-.38-2.51-.74.74a3.25,3.25,0,1,0,1,4l.14-.29H13.71l-.06.09a2.28,2.28,0,1,1-1.93-3.5A2.24,2.24,0,0,1,13,15l-.7.7Z" style="fill:#231f20"/></svg>