<svg id="Layer_1" data-name="Layer 1" xmlns="http://www.w3.org/2000/svg" viewBox="0 0 24 24"><title>udin</title><path d="M20.25,4.09H3.75A2.75,2.75,0,0,0,1,6.84V17.16a2.75,2.75,0,0,0,2.75,2.75h16.5A2.75,2.75,0,0,0,23,17.16V6.84A2.75,2.75,0,0,0,20.25,4.09Zm1.37,13.07a1.37,1.37,0,0,1-1.37,1.37H3.75a1.38,1.38,0,0,1-1.38-1.37V6.84A1.38,1.38,0,0,1,3.75,5.47h16.5a1.37,1.37,0,0,1,1.37,1.37Z" style="fill:#a7a9ac"/><path d="M19.56,9.59H13.37a.69.69,0,0,0,0,1.38h6.19a.69.69,0,0,0,0-1.38Z" style="fill:#a7a9ac"/><path d="M7.87,11.66A2.07,2.07,0,1,0,5.81,9.59,2.07,2.07,0,0,0,7.87,11.66Zm0-2.75a.68.68,0,0,1,.69.68.69.69,0,1,1-1.37,0A.68.68,0,0,1,7.87,8.91Z" style="fill:#a7a9ac"/><path d="M7.87,12.34a4.26,4.26,0,0,0-4.16,3.28.69.69,0,0,0,.67.85h7a.69.69,0,0,0,.69-.69.73.73,0,0,0-.07-.3A4.28,4.28,0,0,0,7.87,12.34ZM5.39,15.09a2.93,2.93,0,0,1,5,0Z" style="fill:#a7a9ac"/><path d="M16.12,12.34H13.37a.69.69,0,0,0,0,1.38h2.75a.69.69,0,1,0,0-1.38Z" style="fill:#a7a9ac"/></svg>