<svg id="Layer_1" data-name="Layer 1" xmlns="http://www.w3.org/2000/svg" viewBox="0 0 24 24"><title>udin</title><path d="M17.75,9.85V6.25a5.75,5.75,0,0,0-11.5,0v3.6A2.15,2.15,0,0,0,4.1,12v9.34a2.16,2.16,0,0,0,2.15,2.15h11.5a2.16,2.16,0,0,0,2.15-2.15V12A2.15,2.15,0,0,0,17.75,9.85ZM7.69,6.25a4.31,4.31,0,0,1,8.62,0v3.6H7.69ZM18.46,21.34a.71.71,0,0,1-.71.71H6.25a.71.71,0,0,1-.71-.71V12a.71.71,0,0,1,.71-.72h11.5a.71.71,0,0,1,.71.72Z" style="fill:#a7a9ac"/><path d="M12,14.13a1.39,1.39,0,0,0-1.39,1.38,1.41,1.41,0,0,0,.69,1.2v2.92a.7.7,0,0,0,1.4,0V16.71a1.41,1.41,0,0,0,.69-1.2A1.39,1.39,0,0,0,12,14.13Z" style="fill:#a7a9ac"/></svg>