<svg id="Layer_1" data-name="Layer 1" xmlns="http://www.w3.org/2000/svg" viewBox="0 0 24 24"><title>udin</title><path d="M21.83,6H18.1V2.71A1.31,1.31,0,0,0,16.79,1.4H7.21A1.31,1.31,0,0,0,5.9,2.71V6H2.17A1.69,1.69,0,0,0,.48,7.7V9.78h0V20.91A1.69,1.69,0,0,0,2.17,22.6H21.83a1.68,1.68,0,0,0,1.69-1.69V7.7A1.69,1.69,0,0,0,21.83,6ZM15.16,3.12H8.84a.94.94,0,0,0-.94.94V6H7V2.71a.18.18,0,0,1,.18-.18h9.58a.18.18,0,0,1,.18.18V6H16.1V4.06A.94.94,0,0,0,15.16,3.12ZM15,4.25V6H9V4.25ZM13,15v.4a.18.18,0,0,1-.17.18H11.14a.18.18,0,0,1-.17-.18V15Zm0-1.72v.58H11v-.58Zm1.88-1.13H9.09a6.05,6.05,0,0,1-2.47-.52l-5-2.18V7.7a.56.56,0,0,1,.56-.56H21.83a.56.56,0,0,1,.56.56V9.43l-5,2.18A6,6,0,0,1,14.91,12.13ZM1.61,10.67l4.56,2a7.18,7.18,0,0,0,2.92.61h.74v2.12a1.31,1.31,0,0,0,1.31,1.31h1.72a1.31,1.31,0,0,0,1.31-1.31V13.26h.74a7.18,7.18,0,0,0,2.92-.61l4.56-2V20.91a.56.56,0,0,1-.56.56H2.17a.56.56,0,0,1-.56-.56Z" style="fill:#a7a9ac"/></svg>