<svg id="Layer_1" data-name="Layer 1" xmlns="http://www.w3.org/2000/svg" viewBox="0 0 24 24"><title>udin</title><path d="M20.75,16.09l-1.95-4a3.78,3.78,0,0,0-3.39-2.13H14.9l-.54-.85a.43.43,0,0,0-.37-.2.39.39,0,0,0-.23.07.4.4,0,0,0-.19.27.43.43,0,0,0,0,.33l.67,1.05a.43.43,0,0,0,.37.2h.75A2.9,2.9,0,0,1,18,12.43l1.94,4a1.23,1.23,0,0,1-1.1,1.76H17.57V15.49a1.44,1.44,0,0,0-.69-1.23,1.49,1.49,0,0,0-.74-.2,1.44,1.44,0,0,0-.67.16L12,16.05,8.53,14.22a1.44,1.44,0,0,0-.67-.16,1.47,1.47,0,0,0-.74.2,1.43,1.43,0,0,0-.7,1.23v2.74H5.14A1.23,1.23,0,0,1,4,16.47l1.94-4a2.9,2.9,0,0,1,2.61-1.64h.75a.43.43,0,0,0,.37-.2l.67-1.05a.42.42,0,0,0,0-.33.4.4,0,0,0-.19-.27A.39.39,0,0,0,10,8.87a.43.43,0,0,0-.37.2l-.54.85H8.59A3.78,3.78,0,0,0,5.2,12.05l-1.95,4a2.1,2.1,0,0,0,1.89,3H6.42v1.45a.44.44,0,0,0,.88,0V15.49A.55.55,0,0,1,7.57,15a.6.6,0,0,1,.29-.08.58.58,0,0,1,.26.06l3.44,1.82v5.43a.44.44,0,0,0,.44.44.44.44,0,0,0,.43-.44V16.81L15.88,15a.58.58,0,0,1,.26-.06.6.6,0,0,1,.29.08.55.55,0,0,1,.27.48v5.06a.44.44,0,1,0,.87,0V19.1h1.29a2.1,2.1,0,0,0,1.89-3Z" style="fill:#a7a9ac"/><path d="M12,8.91a3.8,3.8,0,1,0-3.79-3.8A3.8,3.8,0,0,0,12,8.91ZM12,8a2.93,2.93,0,1,1,2.92-2.93A2.93,2.93,0,0,1,12,8Z" style="fill:#a7a9ac"/><path d="M9.34,13a.44.44,0,0,0-.39.24.44.44,0,0,0,.19.59l2.65,1.4a.54.54,0,0,0,.21,0,.46.46,0,0,0,.2,0l2.66-1.4a.44.44,0,0,0,.18-.59.42.42,0,0,0-.38-.24.54.54,0,0,0-.21.05L12,14.35l-2.46-1.3A.46.46,0,0,0,9.34,13Z" style="fill:#a7a9ac"/></svg>