<svg id="Layer_1" data-name="Layer 1" xmlns="http://www.w3.org/2000/svg" viewBox="0 0 24 24"><title>udin</title><path d="M24,16.56a.08.08,0,0,0-.09,0A6.49,6.49,0,0,0,21.78,18a5.26,5.26,0,0,0-.46.53,4.89,4.89,0,0,0-.42.61.41.41,0,0,0-.06.11,2.39,2.39,0,0,0-.44-.29,1.91,1.91,0,0,0-.81-.21h-.1l-.35,0-.2,0a.09.09,0,0,0-.06.06.08.08,0,0,0,0,.07,1.22,1.22,0,0,1,.22.14,5.27,5.27,0,0,1,.42.32,7,7,0,0,1,.74.77c.08.11.17.22.25.34a5.3,5.3,0,0,1,.36.62s0,0,.06,0h0s.05,0,.06,0c.14-.3.29-.62.45-.94s.19-.36.29-.54l.12-.22.16-.28A9.06,9.06,0,0,1,24,16.65.08.08,0,0,0,24,16.56Z" style="fill:#a7a9ac"/><path d="M22.06,21.81H18.18V17.93H20.9v-.8H17.79a.4.4,0,0,0-.4.4V22.2a.31.31,0,0,0,0,.1.4.4,0,0,0,.39.3h4.67a.4.4,0,0,0,.4-.4V19.7h-.8Z" style="fill:#a7a9ac"/><path d="M16.82,21H3.26a2,2,0,0,1-2-2V9.23H19.59v7.33H20.9V6.62a3.27,3.27,0,0,0-3.27-3.26h-2V2.05a.65.65,0,0,0-1.3,0V3.36H6.53V2.05a.66.66,0,0,0-.66-.65.65.65,0,0,0-.65.65V3.36h-2A3.27,3.27,0,0,0,0,6.62V19A3.28,3.28,0,0,0,3.26,22.3H16.82V21ZM1.3,6.62a2,2,0,0,1,2-2h2v.66A.65.65,0,0,0,5.87,6a.66.66,0,0,0,.66-.65V4.66h7.84v.66a.65.65,0,1,0,1.3,0V4.66h2a2,2,0,0,1,2,2V7.94H1.3Z" style="fill:#a7a9ac"/><path d="M13.27,16.6v1.13H8.75v-.9l2.31-2.18c.53-.5.62-.81.62-1.1,0-.47-.32-.75-1-.75a1.47,1.47,0,0,0-1.24.6l-1-.65a2.77,2.77,0,0,1,2.37-1.11c1.33,0,2.22.69,2.22,1.77a2.39,2.39,0,0,1-1,1.89L10.7,16.6Z" style="fill:#a7a9ac"/></svg>