<svg id="Layer_1" data-name="Layer 1" xmlns="http://www.w3.org/2000/svg" viewBox="0 0 24 24"><title>udin</title><path d="M8.46,8.9H3.7a.29.29,0,0,0-.29.3v5.6a.29.29,0,0,0,.29.3H8.46a.3.3,0,0,0,.3-.3V9.2A.3.3,0,0,0,8.46,8.9Zm-.3.59v3.29H4V9.49ZM4,14.51V13.37H8.16v1.14Z" style="fill:#a7a9ac"/><path d="M9.33,9.2v5.6a.29.29,0,0,0,.29.3h4.76a.29.29,0,0,0,.29-.3V9.2a.29.29,0,0,0-.29-.3H9.62A.29.29,0,0,0,9.33,9.2Zm.59,5.31V13.37h4.16v1.14Zm4.16-5v3.29H9.92V9.49Z" style="fill:#a7a9ac"/><path d="M15.54,15.1H20.3a.29.29,0,0,0,.29-.3V9.2a.29.29,0,0,0-.29-.3H15.54a.3.3,0,0,0-.3.3v5.6A.3.3,0,0,0,15.54,15.1Zm.3-.59V13.37H20v1.14Zm4.16-5v3.29H15.84V9.49Z" style="fill:#a7a9ac"/><path d="M8.46,16H3.7a.29.29,0,0,0-.29.3v5.6a.29.29,0,0,0,.29.3H8.46a.3.3,0,0,0,.3-.3V16.3A.3.3,0,0,0,8.46,16Zm-.3.59v3.29H4V16.59ZM4,21.61V20.47H8.16v1.14Z" style="fill:#a7a9ac"/><path d="M15.54,22.2H20.3a.29.29,0,0,0,.29-.3V16.3a.29.29,0,0,0-.29-.3H15.54a.3.3,0,0,0-.3.3v5.6A.3.3,0,0,0,15.54,22.2Zm.3-.59V20.54H20v1.07Zm4.16-5V20H15.84V16.59Z" style="fill:#a7a9ac"/><path d="M23,7.79a.31.31,0,0,0,.23-.12.25.25,0,0,0,0-.25l-.85-3.36a.3.3,0,0,0-.28-.23H19.57L19.05,1.6a.3.3,0,0,0-.29-.23h-4a3.8,3.8,0,0,0-5.54,0h-4A.3.3,0,0,0,5,1.6L4.43,3.83H1.89a.3.3,0,0,0-.28.23L.76,7.42a.25.25,0,0,0,.05.25A.29.29,0,0,0,1,7.79H2V23.24H1.12a.3.3,0,1,0,0,.59H22.88a.3.3,0,1,0,0-.59H22V7.79ZM15.23,2h3.3L19,4.2a.3.3,0,0,0,.29.23h2.55l.7,2.77H14l.05,0,.1-.07a3.83,3.83,0,0,0,.44-.36l.09-.08a3.72,3.72,0,0,0,.4-.49L15.2,6a3.74,3.74,0,0,0,.28-.52l0-.07a4.19,4.19,0,0,0,.19-.63l0-.15a1.85,1.85,0,0,0,0-.23h1.7a.3.3,0,0,0,0-.6H15.8a4.78,4.78,0,0,0-.06-.53,1.42,1.42,0,0,0,0-.2,4.58,4.58,0,0,0-.15-.49l-.06-.15A3.4,3.4,0,0,0,15.23,2ZM12,.76A3.19,3.19,0,0,1,14.53,2a2.35,2.35,0,0,1,.19.25c0,.08.09.17.14.26s.09.17.13.27a3,3,0,0,1,.1.32c0,.09.05.17.07.25a3.08,3.08,0,0,1,.06.61A3.22,3.22,0,0,1,8.78,4a3.08,3.08,0,0,1,.06-.61c0-.08.05-.16.07-.25A3,3,0,0,1,9,2.8c0-.1.09-.18.13-.27s.09-.18.14-.26A2.35,2.35,0,0,1,9.47,2,3.19,3.19,0,0,1,12,.76ZM2.12,4.43h5a.3.3,0,0,0,0-.6H5L5.47,2h3.3a3.4,3.4,0,0,0-.26.5l-.06.15a4.58,4.58,0,0,0-.15.49,1.42,1.42,0,0,0,0,.2A3.82,3.82,0,0,0,8.19,4a3.82,3.82,0,0,0,.07.68l0,.15a4.19,4.19,0,0,0,.19.63l0,.07A3.25,3.25,0,0,0,8.8,6l.08.12a3.72,3.72,0,0,0,.4.49l.09.08a3.83,3.83,0,0,0,.44.36l.1.07.05,0H1.42Zm7.8,18.81v-6h4.16v6Zm11.48,0H14.67V17a.3.3,0,0,0-.29-.3H9.62a.3.3,0,0,0-.29.3v6.28H2.6V7.79H21.4Z" style="fill:#a7a9ac"/><path d="M13.25,19.88h-.59a.3.3,0,0,0,0,.59h.59a.3.3,0,1,0,0-.59Z" style="fill:#a7a9ac"/><path d="M10.89,4.59c0,.09-.09.14-.34.14a1.85,1.85,0,0,1-.89-.24l-.29.66a2.47,2.47,0,0,0,1.17.27c.83,0,1.24-.41,1.24-.9,0-1-1.47-.72-1.47-1,0-.09.08-.17.34-.17a1.72,1.72,0,0,1,.75.2l.27-.65a2.09,2.09,0,0,0-1-.23c-.83,0-1.24.4-1.24.9C9.42,4.52,10.89,4.25,10.89,4.59Z" style="fill:#a7a9ac"/><path d="M14.88,4a1.34,1.34,0,0,0-1.51-1.33H12.05V5.36h1.32A1.35,1.35,0,0,0,14.88,4ZM13,4.66V3.39h.38A.59.59,0,0,1,14,4a.59.59,0,0,1-.64.64Z" style="fill:#a7a9ac"/></svg>