<svg id="Layer_1" data-name="Layer 1" xmlns="http://www.w3.org/2000/svg" viewBox="0 0 24 24"><title>udin</title><path d="M8.41,8.86H3.59a.29.29,0,0,0-.3.3v5.68a.29.29,0,0,0,.3.3H8.41a.29.29,0,0,0,.3-.3V9.16A.29.29,0,0,0,8.41,8.86Zm-.3.6v3.33H3.89V9.46ZM3.89,14.54V13.39H8.11v1.15Z" style="fill:#a7a9ac"/><path d="M9.29,9.16v5.68a.29.29,0,0,0,.3.3h4.82a.29.29,0,0,0,.3-.3V9.16a.29.29,0,0,0-.3-.3H9.59A.29.29,0,0,0,9.29,9.16Zm.6,5.38V13.39h4.22v1.15Zm4.22-5.08v3.33H9.89V9.46Z" style="fill:#a7a9ac"/><path d="M15.59,15.14h4.82a.29.29,0,0,0,.3-.3V9.16a.29.29,0,0,0-.3-.3H15.59a.29.29,0,0,0-.3.3v5.68A.29.29,0,0,0,15.59,15.14Zm.3-.6V13.39h4.22v1.15Zm4.22-5.08v3.33H15.89V9.46Z" style="fill:#a7a9ac"/><path d="M8.41,16.06H3.59a.29.29,0,0,0-.3.3V22a.29.29,0,0,0,.3.3H8.41a.29.29,0,0,0,.3-.3V16.36A.29.29,0,0,0,8.41,16.06Zm-.3.6V20H3.89V16.66ZM3.89,21.74V20.59H8.11v1.15Z" style="fill:#a7a9ac"/><path d="M15.59,22.34h4.82a.29.29,0,0,0,.3-.3V16.36a.29.29,0,0,0-.3-.3H15.59a.29.29,0,0,0-.3.3V22A.29.29,0,0,0,15.59,22.34Zm.3-.6V20.66h4.22v1.08Zm4.22-5.08v3.4H15.89v-3.4Z" style="fill:#a7a9ac"/><path d="M23.11,7.73a.33.33,0,0,0,.24-.12.27.27,0,0,0,0-.26L22.54,4a.29.29,0,0,0-.29-.23H19.67l-.52-2.26a.3.3,0,0,0-.29-.24h-4a3.85,3.85,0,0,0-5.62,0h-4a.3.3,0,0,0-.29.24L4.33,3.72H1.75A.29.29,0,0,0,1.46,4L.6,7.35a.27.27,0,0,0,.05.26.33.33,0,0,0,.24.12h1V23.4H1A.3.3,0,0,0,1,24H23a.3.3,0,1,0,0-.6h-.9V7.73ZM15.28,1.82h3.34l.52,2.27a.3.3,0,0,0,.29.23H22l.72,2.81H14.07l0,0,.1-.08a3.94,3.94,0,0,0,.45-.36l.09-.08a6.4,6.4,0,0,0,.41-.5L15.24,6a3.92,3.92,0,0,0,.29-.53l0-.07a4.71,4.71,0,0,0,.19-.64l0-.15a2,2,0,0,0,0-.24h1.73a.3.3,0,1,0,0-.6H15.85a2.48,2.48,0,0,0-.06-.54,1.42,1.42,0,0,0,0-.2,4.13,4.13,0,0,0-.15-.5l-.06-.15A3.06,3.06,0,0,0,15.28,1.82ZM12,.6a3.25,3.25,0,0,1,2.57,1.28,2.27,2.27,0,0,1,.18.25,2.34,2.34,0,0,1,.15.27,2.24,2.24,0,0,1,.13.27,3.18,3.18,0,0,1,.1.33,1,1,0,0,1,.07.25,3.08,3.08,0,0,1,.06.61,3.26,3.26,0,1,1-6.52,0,3.08,3.08,0,0,1,.06-.61A1,1,0,0,1,8.87,3,3.18,3.18,0,0,1,9,2.67c0-.1.09-.19.13-.27a2.34,2.34,0,0,1,.15-.27,2.27,2.27,0,0,1,.18-.25A3.23,3.23,0,0,1,12,.6ZM2,4.32H7.05a.3.3,0,0,0,0-.6H4.94l.44-1.9H8.72a3.06,3.06,0,0,0-.26.51l-.06.15a4.13,4.13,0,0,0-.15.5,1.42,1.42,0,0,0,0,.2,3.08,3.08,0,0,0-.07.68,4.05,4.05,0,0,0,.07.7l0,.15a4.71,4.71,0,0,0,.19.64.25.25,0,0,1,0,.07A3.92,3.92,0,0,0,8.76,6l.07.12a4.84,4.84,0,0,0,.42.5l.08.08A3.94,3.94,0,0,0,9.78,7l.1.08,0,0H1.27ZM9.89,23.4V17.33h4.22V23.4Zm11.64,0H14.71V17a.29.29,0,0,0-.3-.3H9.59a.29.29,0,0,0-.3.3V23.4H2.47V7.73H21.53Z" style="fill:#a7a9ac"/><path d="M13.27,20h-.6a.3.3,0,0,0-.3.3.29.29,0,0,0,.3.3h.6a.29.29,0,0,0,.3-.3A.3.3,0,0,0,13.27,20Z" style="fill:#a7a9ac"/><path d="M9.34,3.72c0,.56.83.41.83.6s-.05.08-.2.08a1,1,0,0,1-.49-.14l-.16.37a1.25,1.25,0,0,0,.65.16c.46,0,.7-.23.7-.51,0-.55-.83-.4-.83-.58s.05-.1.19-.1a.9.9,0,0,1,.42.12l.15-.37A1.13,1.13,0,0,0,10,3.22C9.57,3.22,9.34,3.45,9.34,3.72Z" style="fill:#a7a9ac"/><polygon points="12 4.36 11.33 4.36 11.33 3.25 10.82 3.25 10.82 4.75 12 4.75 12 4.36" style="fill:#a7a9ac"/><polygon points="12.33 4.75 12.84 4.75 12.84 3.65 13.28 3.65 13.28 3.25 11.89 3.25 11.89 3.65 12.33 3.65 12.33 4.75" style="fill:#a7a9ac"/><path d="M13.91,4.38h.22c.42,0,.68-.21.68-.56s-.26-.57-.68-.57h-.72v1.5h.5Zm0-.74h.19c.14,0,.2.07.2.18s-.06.17-.2.17h-.19Z" style="fill:#a7a9ac"/></svg>