<svg id="Layer_1" data-name="Layer 1" xmlns="http://www.w3.org/2000/svg" viewBox="0 0 24 24"><title>udin</title><path d="M23,21.4H4.88a4.86,4.86,0,0,1,0-9.72H23a.32.32,0,0,1,.27.14.34.34,0,0,1,0,.31,10.84,10.84,0,0,0,0,8.82.34.34,0,0,1,0,.31A.32.32,0,0,1,23,21.4ZM4.88,12.32a4.22,4.22,0,1,0,0,8.43H22.5a11.57,11.57,0,0,1,0-8.43Z" style="fill:#a7a9ac"/><path d="M22.54,20.11H4.88a3.57,3.57,0,0,1,0-7.14h17.6v.65H4.88a2.92,2.92,0,0,0,0,5.84H22.54Z" style="fill:#a7a9ac"/><path d="M18.72,15.32H11.8a.32.32,0,0,1-.32-.32.32.32,0,0,1,.32-.33h6.92a.33.33,0,0,1,.33.33A.32.32,0,0,1,18.72,15.32Z" style="fill:#a7a9ac"/><path d="M17.19,17.05h-10a.32.32,0,0,1-.32-.32.32.32,0,0,1,.32-.33h10a.33.33,0,0,1,.33.33A.32.32,0,0,1,17.19,17.05Z" style="fill:#a7a9ac"/><path d="M18.7,18.78H11.83a.32.32,0,1,1,0-.64H18.7a.32.32,0,0,1,0,.64Z" style="fill:#a7a9ac"/><path d="M19.12,12.32H1a.32.32,0,0,1-.27-.14.34.34,0,0,1,0-.31,10.84,10.84,0,0,0,0-8.82.34.34,0,0,1,0-.31A.32.32,0,0,1,1,2.6H19.12a4.86,4.86,0,0,1,0,9.72ZM1.5,11.68H19.12a4.22,4.22,0,1,0,0-8.43H1.5A11.57,11.57,0,0,1,1.5,11.68Z" style="fill:#a7a9ac"/><path d="M19.12,11H1.52v-.65h17.6a2.92,2.92,0,0,0,0-5.84H1.46V3.89H19.12a3.57,3.57,0,1,1,0,7.14Z" style="fill:#a7a9ac"/><path d="M12.2,9.33H5.28A.33.33,0,0,1,5,9a.32.32,0,0,1,.33-.32H12.2a.32.32,0,0,1,.32.32A.32.32,0,0,1,12.2,9.33Z" style="fill:#a7a9ac"/><path d="M16.83,7.6h-10a.33.33,0,0,1-.33-.33A.32.32,0,0,1,6.81,7h10a.32.32,0,0,1,.32.32A.32.32,0,0,1,16.83,7.6Z" style="fill:#a7a9ac"/><path d="M12.17,5.86H5.3a.32.32,0,0,1,0-.64h6.87a.32.32,0,1,1,0,.64Z" style="fill:#a7a9ac"/></svg>