<svg id="Layer_1" data-name="Layer 1" xmlns="http://www.w3.org/2000/svg" viewBox="0 0 24 24"><title>udin</title><path d="M18.94,1.37H6.39A2.68,2.68,0,0,0,3.7,4v.66H3a.66.66,0,0,0-.66.67A.65.65,0,0,0,3,6H3.7v5.32H3a.66.66,0,1,0,0,1.32H3.7V18H3a.65.65,0,0,0-.66.66.66.66,0,0,0,.66.67H3.7V20a2.68,2.68,0,0,0,2.69,2.66H18.94A2.68,2.68,0,0,0,21.63,20V4A2.68,2.68,0,0,0,18.94,1.37ZM20.31,20a1.35,1.35,0,0,1-1.37,1.33H6.39A1.35,1.35,0,0,1,5,20V4A1.35,1.35,0,0,1,6.39,2.7H18.94A1.35,1.35,0,0,1,20.31,4Z" style="fill:#a7a9ac"/><path d="M12.66,12a5,5,0,0,0-5,5,1.66,1.66,0,0,0,1.66,1.66H16A1.66,1.66,0,0,0,17.65,17,5,5,0,0,0,12.66,12ZM16,17.31H9.34A.33.33,0,0,1,9,17a3.66,3.66,0,0,1,7.31,0A.33.33,0,0,1,16,17.31Z" style="fill:#a7a9ac"/><path d="M12.66,10.67a3,3,0,1,0-3-3A3,3,0,0,0,12.66,10.67Zm0-4.65A1.66,1.66,0,1,1,11,7.68,1.67,1.67,0,0,1,12.66,6Z" style="fill:#a7a9ac"/></svg>