<svg id="Layer_1" data-name="Layer 1" xmlns="http://www.w3.org/2000/svg" viewBox="0 0 24 24"><title>udin</title><path d="M13.47,8.66a2.22,2.22,0,1,0-2.94,0,3.45,3.45,0,0,0-2,3.1v.18h.9v-.18a2.54,2.54,0,1,1,5.08,0v.18h.9v-.18A3.45,3.45,0,0,0,13.47,8.66ZM12,8.32A1.32,1.32,0,1,1,13.32,7,1.32,1.32,0,0,1,12,8.32Z" style="fill:#a7a9ac"/><path d="M18.9,4.56A7.74,7.74,0,0,0,12.46.45h-.9A7.73,7.73,0,0,0,5.11,4.54a8.06,8.06,0,0,0,.11,7.94l5.81,10H6.66a.55.55,0,0,0-.54.55.54.54,0,0,0,.54.54H17.34a.54.54,0,0,0,.54-.54.55.55,0,0,0-.54-.55H12.93l5.84-10A8,8,0,0,0,18.9,4.56ZM12,21.94l-5.82-10a7,7,0,0,1-.09-6.87,6.64,6.64,0,0,1,5.55-3.52H12v0h.41a6.65,6.65,0,0,1,5.54,3.54,7,7,0,0,1-.11,6.86Z" style="fill:#a7a9ac"/><path d="M12,2a6.39,6.39,0,1,0,6.39,6.38A6.39,6.39,0,0,0,12,2Zm0,11.68a5.3,5.3,0,1,1,5.3-5.3A5.31,5.31,0,0,1,12,13.66Z" style="fill:#a7a9ac"/></svg>