<svg id="Layer_1" data-name="Layer 1" xmlns="http://www.w3.org/2000/svg" viewBox="0 0 24 24"><title>udin</title><path d="M18.15,9.3a6.33,6.33,0,1,0-12.3,0,9.55,9.55,0,0,0,.69,2.46c.62,1.3,3.24,5.61,4.44,7.58-1.62.2-2.38.9-2.38,1.56s1.07,1.63,3.4,1.63,3.4-.85,3.4-1.63-.76-1.36-2.38-1.56c1.2-2,3.82-6.28,4.44-7.58A9.55,9.55,0,0,0,18.15,9.3ZM14.42,20.9c-.07.19-.89.65-2.42.65s-2.37-.48-2.42-.64.71-.56,2-.64l0,.05a.5.5,0,0,0,.84,0l0-.05C13.69,20.34,14.36,20.73,14.42,20.9ZM17.19,9.08v0a8.9,8.9,0,0,1-.62,2.22c-.62,1.32-3.49,6-4.57,7.79-1.08-1.77-3.95-6.47-4.57-7.79a8.9,8.9,0,0,1-.62-2.22v0A5,5,0,0,1,6.65,7.8a5.35,5.35,0,0,1,10.7,0A5,5,0,0,1,17.19,9.08Z" style="fill:#a7a9ac"/><path d="M12,4.24a3.4,3.4,0,1,0,3.4,3.4A3.41,3.41,0,0,0,12,4.24Zm0,5.82a2.42,2.42,0,1,1,2.42-2.42A2.43,2.43,0,0,1,12,10.06Z" style="fill:#a7a9ac"/></svg>