<svg id="Layer_1" data-name="Layer 1" xmlns="http://www.w3.org/2000/svg" viewBox="0 0 24 24"><title>udin</title><path d="M18.61,4.19h-1.8V3A.61.61,0,0,0,15.6,3v1.2H8.4V3A.61.61,0,0,0,7.19,3v1.2H5.39a3,3,0,0,0-3,3V18.61a3,3,0,0,0,3,3H18.61a3,3,0,0,0,3-3V7.19A3,3,0,0,0,18.61,4.19ZM5.39,5.39h1.8V6A.61.61,0,0,0,8.4,6v-.6h7.2V6a.61.61,0,0,0,1.21,0v-.6h1.8a1.81,1.81,0,0,1,1.8,1.8V8.4H3.59V7.19A1.81,1.81,0,0,1,5.39,5.39Zm13.22,15H5.39a1.81,1.81,0,0,1-1.8-1.8v-9H20.41v9A1.81,1.81,0,0,1,18.61,20.41Z" style="fill:#a7a9ac"/><path d="M7.79,11.4H6.59a.6.6,0,0,0,0,1.2h1.2a.6.6,0,1,0,0-1.2Z" style="fill:#a7a9ac"/><path d="M7.79,14.4H6.59A.6.6,0,0,0,6,15a.6.6,0,0,0,.6.6h1.2A.6.6,0,0,0,8.4,15,.6.6,0,0,0,7.79,14.4Z" style="fill:#a7a9ac"/><path d="M7.79,17.41H6.59a.6.6,0,0,0,0,1.2h1.2a.6.6,0,1,0,0-1.2Z" style="fill:#a7a9ac"/><path d="M12.6,11.4H11.4a.6.6,0,0,0,0,1.2h1.2a.6.6,0,0,0,0-1.2Z" style="fill:#a7a9ac"/><path d="M12.6,14.4H11.4a.6.6,0,0,0-.6.6.6.6,0,0,0,.6.6h1.2a.6.6,0,0,0,.6-.6A.6.6,0,0,0,12.6,14.4Z" style="fill:#a7a9ac"/><path d="M12.6,17.41H11.4a.6.6,0,1,0,0,1.2h1.2a.6.6,0,1,0,0-1.2Z" style="fill:#a7a9ac"/><path d="M17.41,11.4h-1.2a.6.6,0,1,0,0,1.2h1.2a.6.6,0,0,0,0-1.2Z" style="fill:#a7a9ac"/><path d="M17.41,14.4h-1.2a.6.6,0,0,0-.61.6.6.6,0,0,0,.61.6h1.2A.6.6,0,0,0,18,15,.6.6,0,0,0,17.41,14.4Z" style="fill:#a7a9ac"/><path d="M17.41,17.41h-1.2a.6.6,0,1,0,0,1.2h1.2a.6.6,0,0,0,0-1.2Z" style="fill:#a7a9ac"/></svg>