<svg id="Layer_1" data-name="Layer 1" xmlns="http://www.w3.org/2000/svg" viewBox="0 0 24 24"><title>udin</title><path d="M20.85,9.13a.32.32,0,0,1-.32-.28A8.68,8.68,0,0,0,12,1.08,8.49,8.49,0,0,0,3.46,8.84a.32.32,0,0,1-.35.29.31.31,0,0,1-.29-.34,9.22,9.22,0,0,1,18.35,0,.32.32,0,0,1-.29.35Z" style="fill:#a7a9ac"/><path d="M22.28,8.82A.31.31,0,0,1,22,8.54,10.14,10.14,0,0,0,16.62.61a.32.32,0,1,1,.3-.56A10.71,10.71,0,0,1,22.6,8.47a.32.32,0,0,1-.28.35Z" style="fill:#a7a9ac"/><path d="M1.7,8.89a.34.34,0,0,1-.32-.36A10.75,10.75,0,0,1,7.07.11a.34.34,0,0,1,.44.13.33.33,0,0,1-.14.44A10.06,10.06,0,0,0,2,8.6.32.32,0,0,1,1.7,8.89Z" style="fill:#a7a9ac"/><path d="M16.77,9.13a.32.32,0,0,1-.32-.3A13.85,13.85,0,0,0,14.31,1.4a8.63,8.63,0,0,0-4.62,0A13.94,13.94,0,0,0,7.55,8.83a.32.32,0,0,1-.64,0A14.4,14.4,0,0,1,9.24.93.25.25,0,0,1,9.41.82a9.13,9.13,0,0,1,5.18,0,.25.25,0,0,1,.17.11A14.4,14.4,0,0,1,17.09,8.8a.31.31,0,0,1-.3.33Z" style="fill:#a7a9ac"/><path d="M7.23,9.13a.31.31,0,0,1-.32-.33A14.4,14.4,0,0,1,9.24.93.25.25,0,0,1,9.41.82a9.13,9.13,0,0,1,5.18,0,.25.25,0,0,1,.17.11,13.93,13.93,0,0,1,2.32,7.61.31.31,0,0,1-.3.33.32.32,0,0,1-.34-.3A13.6,13.6,0,0,0,14.31,1.4a8.63,8.63,0,0,0-4.62,0A13.94,13.94,0,0,0,7.55,8.83.32.32,0,0,1,7.23,9.13Z" style="fill:#a7a9ac"/><path d="M12,9.13a.32.32,0,0,1-.32-.32v-8a.32.32,0,0,1,.64,0V8.81A.32.32,0,0,1,12,9.13Z" style="fill:#a7a9ac"/><path d="M3.14,9.13a.31.31,0,0,1-.32-.34,8.66,8.66,0,0,1,.33-1.72.39.39,0,0,1,.11-.17C5.16,5.43,8.42,4.55,12,4.55s6.84.88,8.74,2.35a.33.33,0,0,1,.05.45.32.32,0,0,1-.45.06C18.58,6,15.39,5.19,12,5.19S5.51,6,3.74,7.35a7.76,7.76,0,0,0-.28,1.49A.32.32,0,0,1,3.14,9.13Z" style="fill:#a7a9ac"/><path d="M12,22.38a.34.34,0,0,1-.17-.05l-1-.64a5.1,5.1,0,0,0-2.77-.82H1.23a.32.32,0,0,1-.32-.32V10a.32.32,0,0,1,.32-.32H8.07a5.75,5.75,0,0,1,3.12.92l.81.52.81-.52a5.75,5.75,0,0,1,3.12-.92h6.84a.32.32,0,0,1,.32.32V20.55a.32.32,0,0,1-.32.32H15.93a5.1,5.1,0,0,0-2.77.82l-1,.64A.34.34,0,0,1,12,22.38ZM1.55,20.23H8.07a5.75,5.75,0,0,1,3.12.92l.81.53.81-.53a5.75,5.75,0,0,1,3.12-.92h6.52V10.34H15.93a5,5,0,0,0-2.77.82l-1,.63a.3.3,0,0,1-.34,0l-1-.63a5,5,0,0,0-2.77-.82H1.55Z" style="fill:#a7a9ac"/><path d="M12,24a.34.34,0,0,1-.17,0l-1.11-.72a5.82,5.82,0,0,0-3.14-.93H-.13A.32.32,0,0,1-.45,22V16.89a.33.33,0,0,1,.32-.32.33.33,0,0,1,.33.32v4.76H7.58a6.44,6.44,0,0,1,3.49,1l.93.61.93-.61a6.44,6.44,0,0,1,3.49-1H23.8V16.89a.33.33,0,0,1,.65,0V22a.32.32,0,0,1-.32.32H16.42a5.82,5.82,0,0,0-3.14.93l-1.11.72A.34.34,0,0,1,12,24Z" style="fill:#a7a9ac"/><path d="M12,22.38a.32.32,0,0,1-.32-.32V16.52a.32.32,0,0,1,.64,0v5.54A.32.32,0,0,1,12,22.38Z" style="fill:#a7a9ac"/><path d="M12,14.7a.32.32,0,0,1-.32-.32V11.53a.32.32,0,1,1,.64,0v2.85A.32.32,0,0,1,12,14.7Z" style="fill:#a7a9ac"/><path d="M8,12.47H3a.32.32,0,0,1-.32-.32A.32.32,0,0,1,3,11.83H8a.33.33,0,0,1,.32.32A.32.32,0,0,1,8,12.47Z" style="fill:#a7a9ac"/><path d="M8,14.43H3a.32.32,0,1,1,0-.64H8a.32.32,0,1,1,0,.64Z" style="fill:#a7a9ac"/><path d="M8,16.39H3a.32.32,0,1,1,0-.64H8a.32.32,0,1,1,0,.64Z" style="fill:#a7a9ac"/><path d="M8,18.35H3A.32.32,0,0,1,2.63,18,.32.32,0,0,1,3,17.71H8a.32.32,0,0,1,.32.32A.33.33,0,0,1,8,18.35Z" style="fill:#a7a9ac"/><path d="M21.05,12.47H16a.32.32,0,0,1-.32-.32.33.33,0,0,1,.32-.32h5a.32.32,0,0,1,.32.32A.32.32,0,0,1,21.05,12.47Z" style="fill:#a7a9ac"/><path d="M21.05,14.43H16a.32.32,0,0,1,0-.64h5a.32.32,0,0,1,0,.64Z" style="fill:#a7a9ac"/><path d="M21.05,16.39H16a.32.32,0,0,1,0-.64h5a.32.32,0,1,1,0,.64Z" style="fill:#a7a9ac"/><path d="M21.05,18.35H16a.33.33,0,0,1-.32-.32.32.32,0,0,1,.32-.32h5a.32.32,0,0,1,.32.32A.32.32,0,0,1,21.05,18.35Z" style="fill:#a7a9ac"/></svg>