<svg id="Layer_1" data-name="Layer 1" xmlns="http://www.w3.org/2000/svg" viewBox="0 0 24 24"><title>udin</title><path d="M11.93,9.27h-.1L.21,5.58A.31.31,0,0,1,0,5.29.3.3,0,0,1,.2,5L11.82.71a.38.38,0,0,1,.21,0L23.65,5a.3.3,0,0,1,.2.29.31.31,0,0,1-.21.29L12,9.26Zm-10.68-4L11.93,8.64,22.6,5.26,11.93,1.33Z" style="fill:#a7a9ac"/><path d="M9.82,3.79a.32.32,0,0,1-.29-.2.31.31,0,0,1,.19-.39l4.42-1.63a.3.3,0,0,1,.39.18.3.3,0,0,1-.18.39L9.93,3.77Z" style="fill:#a7a9ac"/><path d="M11.93,14.3A19.34,19.34,0,0,1,4.6,12.8a1.1,1.1,0,0,1-.68-1V6.53a.31.31,0,0,1,.13-.25.33.33,0,0,1,.27,0l7.61,2.41,7.6-2.41a.3.3,0,0,1,.27,0,.31.31,0,0,1,.13.25v5.25a1.1,1.1,0,0,1-.68,1A19.27,19.27,0,0,1,11.93,14.3ZM4.54,7v4.83a.51.51,0,0,0,.3.46,18.67,18.67,0,0,0,7.09,1.44A18.66,18.66,0,0,0,19,12.24a.51.51,0,0,0,.3-.46V7L12,9.26h-.19Z" style="fill:#a7a9ac"/><path d="M9.73,12.14A19.48,19.48,0,0,1,4.6,10.78a1.11,1.11,0,0,1-.68-1,.31.31,0,0,1,.62,0,.51.51,0,0,0,.3.46,19.23,19.23,0,0,0,4.93,1.31.3.3,0,0,1,.27.34A.31.31,0,0,1,9.73,12.14Z" style="fill:#a7a9ac"/><path d="M21.66,13.8a.31.31,0,0,1-.31-.31V5.88a.3.3,0,0,1,.31-.3.29.29,0,0,1,.3.3v7.61A.3.3,0,0,1,21.66,13.8Z" style="fill:#a7a9ac"/><path d="M21.66,17.39a2.1,2.1,0,1,1,2.1-2.1A2.1,2.1,0,0,1,21.66,17.39Zm0-3.59a1.49,1.49,0,1,0,1.49,1.49A1.49,1.49,0,0,0,21.66,13.8Z" style="fill:#a7a9ac"/><path d="M21.66,17.39a2.1,2.1,0,1,1,2.1-2.1A2.1,2.1,0,0,1,21.66,17.39Zm0-3.59a1.49,1.49,0,1,0,1.49,1.49A1.49,1.49,0,0,0,21.66,13.8Z" style="fill:#a7a9ac"/><path d="M22.88,23.31H20.43a1.1,1.1,0,0,1-.83-.38,1.09,1.09,0,0,1-.27-.88l.69-5.6a.31.31,0,0,1,.54-.17,1.46,1.46,0,0,0,2.2,0,.31.31,0,0,1,.36-.07.36.36,0,0,1,.18.24l.69,5.6a1.12,1.12,0,0,1-1.11,1.26Zm-2.32-6.23-.63,5.05a.53.53,0,0,0,.13.4.52.52,0,0,0,.37.17h2.45a.54.54,0,0,0,.38-.17.48.48,0,0,0,.12-.4l-.62-5.05A2.17,2.17,0,0,1,20.56,17.08Z" style="fill:#a7a9ac"/></svg>