<svg id="Layer_1" data-name="Layer 1" xmlns="http://www.w3.org/2000/svg" viewBox="0 0 24 24"><title>udin</title><path d="M18.81,23H.5a.31.31,0,0,1-.28-.15.31.31,0,0,1,0-.32,11,11,0,0,0,0-8.91.31.31,0,0,1,0-.32.33.33,0,0,1,.28-.15H17.94a.34.34,0,0,1,0,.67H1a11.68,11.68,0,0,1,0,8.51H18.81a4.26,4.26,0,0,0,4.26-4.25.34.34,0,1,1,.67,0A4.93,4.93,0,0,1,18.81,23Z" style="fill:#a7a9ac"/><path d="M17.94,15.12H1a.34.34,0,1,1,0-.67h17a.34.34,0,0,1,0,.67Z" style="fill:#a7a9ac"/><path d="M18.81,21.68H1A.34.34,0,1,1,1,21h17.8a3,3,0,0,0,3-2.94.34.34,0,1,1,.67,0A3.62,3.62,0,0,1,18.81,21.68Z" style="fill:#a7a9ac"/><path d="M14.81,19.56H4.68a.34.34,0,1,1,0-.67H14.81a.34.34,0,1,1,0,.67Z" style="fill:#a7a9ac"/><path d="M16.62,17.24H6.48a.34.34,0,0,1,0-.67H16.62a.34.34,0,1,1,0,.67Z" style="fill:#a7a9ac"/><path d="M17.94,13.81H6.06a.34.34,0,0,1-.33-.34v-3A3.91,3.91,0,0,1,8.64,6.7a13.42,13.42,0,0,1,6.72,0,3.91,3.91,0,0,1,2.91,3.78v3A.34.34,0,0,1,17.94,13.81ZM6.4,13.13H17.6V10.48a3.23,3.23,0,0,0-2.41-3.13,12.77,12.77,0,0,0-6.38,0A3.23,3.23,0,0,0,6.4,10.48Z" style="fill:#a7a9ac"/><path d="M17.94,10.82a.33.33,0,0,1-.19-.06.35.35,0,0,1-.15-.28,3.23,3.23,0,0,0-2.41-3.13,12.77,12.77,0,0,0-6.38,0A3.23,3.23,0,0,0,6.4,10.48a.35.35,0,0,1-.15.28.36.36,0,0,1-.32,0L.21,8.43A.34.34,0,0,1,0,8.14a.34.34,0,0,1,.17-.31L11.83,1.05a.34.34,0,0,1,.34,0L23.83,7.83a.34.34,0,0,1,.17.31.34.34,0,0,1-.21.29l-5.72,2.36ZM12,6.27a13.18,13.18,0,0,1,3.36.43A3.89,3.89,0,0,1,18.24,10L22.9,8.07,12,1.73,1.1,8.07,5.76,10A3.89,3.89,0,0,1,8.64,6.7,13.18,13.18,0,0,1,12,6.27Z" style="fill:#a7a9ac"/><path d="M21.1,11.83a.34.34,0,0,1-.34-.34V9.18a.34.34,0,0,1,.68,0v2.31A.34.34,0,0,1,21.1,11.83Z" style="fill:#a7a9ac"/><path d="M22.36,16.46H19.84a.34.34,0,0,1-.34-.34V12.76a1.6,1.6,0,1,1,3.2,0v3.36A.34.34,0,0,1,22.36,16.46Zm-2.19-.67H22v-3a.93.93,0,1,0-1.86,0Z" style="fill:#a7a9ac"/><path d="M22.36,13.65H19.84a.34.34,0,1,1,0-.67h2.52a.34.34,0,1,1,0,.67Z" style="fill:#a7a9ac"/><path d="M15.86,11.64H8.31a.34.34,0,0,1,0-.67h7.55a.34.34,0,1,1,0,.67Z" style="fill:#a7a9ac"/></svg>